<svg baseProfile="full" height="300" version="1.1" width="600" xmlns="http://www.w3.org/2000/svg" xmlns:ev="http://www.w3.org/2001/xml-events" xmlns:xlink="http://www.w3.org/1999/xlink"><defs><style type="text/css"><![CDATA[.background path {fill: #808080; fill-opacity: 0}.background path:nth-child(odd) {fill-opacity: .1}.x-regions rect {fill: yellow; stroke: black; opacity: 0.5}.axes {font-size: 14px}.x-axis .tick .lab {font-weight: bold; dominant-baseline: hanging}.axes, .tree {font-size: 14px; text-anchor: middle}.axes line, .edge {stroke: black; fill: none}.axes .ax-skip {stroke-dasharray: 4}.y-axis .grid {stroke: #FAFAFA}.node > .sym {fill: black; stroke: none}.site > .sym {stroke: black}.mut text {fill: red; font-style: italic}.mut.extra text {fill: hotpink}.mut line {fill: none; stroke: none}.mut .sym {fill: none; stroke: red}.mut.extra .sym {stroke: hotpink}.node .mut .sym {stroke-width: 1.5px}.tree text, .tree-sequence text {dominant-baseline: central}.plotbox .lab.lft {text-anchor: end}.plotbox .lab.rgt {text-anchor: start}.polytomy line {stroke: black; stroke-dasharray: 1px, 1px}.polytomy text {paint-order:stroke;stroke-width:0.3em;stroke:white}]]></style></defs><g class="tree-sequence"><g class="background"><path d="M20,0 l112,0 l0,238.2 l-73.36,25 l0,5 l-38.64,0 l0,-5 l0,-25 l0,-238.2z"/><path d="M132,0 l112,0 l0,238.2 l3.92,25 l0,5 l-189.28,0 l0,-5 l73.36,-25 l0,-238.2z"/><path d="M244,0 l112,0 l0,238.2 l215.6,25 l0,5 l-323.68,0 l0,-5 l-3.92,-25 l0,-238.2z"/><path d="M356,0 l112,0 l0,238.2 l107.52,25 l0,5 l-3.92,0 l0,-5 l-215.6,-25 l0,-238.2z"/><path d="M468,0 l112,0 l0,238.2 l0,25 l0,5 l-4.48,0 l0,-5 l-107.52,-25 l0,-238.2z"/></g><g class="axes"><g class="x-axis"><g class="title" transform="translate(300 300)"><text class="lab" text-anchor="middle" transform="translate(0 -11)">Genome position</text></g><line class="ax-line" x1="20" x2="580" y1="263.2" y2="263.2"/><g class="ticks"><g class="tick" transform="translate(20 263.2)"><line x1="0" x2="0" y1="0" y2="5"/><g transform="translate(0 6)"><text class="lab">0</text></g></g><g class="tick" transform="translate(58.64 263.2)"><line x1="0" x2="0" y1="0" y2="5"/><g transform="translate(0 6)"><text class="lab">69</text></g></g><g class="tick" transform="translate(247.92 263.2)"><line x1="0" x2="0" y1="0" y2="5"/><g transform="translate(0 6)"><text class="lab">407</text></g></g><g class="tick" transform="translate(571.6 263.2)"><line x1="0" x2="0" y1="0" y2="5"/><g transform="translate(0 6)"><text class="lab">985</text></g></g><g class="tick" transform="translate(575.52 263.2)"><line x1="0" x2="0" y1="0" y2="5"/><g transform="translate(0 6)"><text class="lab">992</text></g></g><g class="tick" transform="translate(580 263.2)"><line x1="0" x2="0" y1="0" y2="5"/><g transform="translate(0 6)"><text class="lab">1000</text></g></g></g><g class="site s0" transform="translate(60.32 263.2)"><line class="sym" x1="0" x2="0" y1="0" y2="-10"/><g class="mut m0"><polyline class="sym" points="2.5,-6.5 0,-1.5 -2.5,-6.5"/></g></g><g class="site s1" transform="translate(151.04 263.2)"><line class="sym" x1="0" x2="0" y1="0" y2="-10"/><g class="mut m1"><polyline class="sym" points="2.5,-6.5 0,-1.5 -2.5,-6.5"/></g></g><g class="site s2" transform="translate(164.48 263.2)"><line class="sym" x1="0" x2="0" y1="0" y2="-10"/><g class="mut m2"><polyline class="sym" points="2.5,-6.5 0,-1.5 -2.5,-6.5"/></g></g><g class="site s3" transform="translate(199.2 263.2)"><line class="sym" x1="0" x2="0" y1="0" y2="-10"/><g class="mut m4"><polyline class="sym" points="2.5,-6.5 0,-1.5 -2.5,-6.5"/></g><g class="mut m3"><polyline class="sym" points="2.5,-10.5 0,-5.5 -2.5,-10.5"/></g></g><g class="site s4" transform="translate(344.24 263.2)"><line class="sym" x1="0" x2="0" y1="0" y2="-10"/><g class="mut m5"><polyline class="sym" points="2.5,-6.5 0,-1.5 -2.5,-6.5"/></g></g><g class="site s5" transform="translate(386.24 263.2)"><line class="sym" x1="0" x2="0" y1="0" y2="-10"/><g class="mut m6"><polyline class="sym" points="2.5,-6.5 0,-1.5 -2.5,-6.5"/></g></g><g class="site s6" transform="translate(436.64 263.2)"><line class="sym" x1="0" x2="0" y1="0" y2="-10"/><g class="mut m7"><polyline class="sym" points="2.5,-6.5 0,-1.5 -2.5,-6.5"/></g></g><g class="site s7" transform="translate(446.72 263.2)"><line class="sym" x1="0" x2="0" y1="0" y2="-10"/><g class="mut m8"><polyline class="sym" points="2.5,-6.5 0,-1.5 -2.5,-6.5"/></g></g><g class="site s8" transform="translate(456.24 263.2)"><line class="sym" x1="0" x2="0" y1="0" y2="-10"/><g class="mut m9"><polyline class="sym" points="2.5,-6.5 0,-1.5 -2.5,-6.5"/></g></g><g class="site s9" transform="translate(474.72 263.2)"><line class="sym" x1="0" x2="0" y1="0" y2="-10"/><g class="mut m10"><polyline class="sym" points="2.5,-6.5 0,-1.5 -2.5,-6.5"/></g></g><g class="site s10" transform="translate(493.76 263.2)"><line class="sym" x1="0" x2="0" y1="0" y2="-10"/><g class="mut m11"><polyline class="sym" points="2.5,-6.5 0,-1.5 -2.5,-6.5"/></g></g><g class="site s11" transform="translate(496 263.2)"><line class="sym" x1="0" x2="0" y1="0" y2="-10"/><g class="mut m12"><polyline class="sym" points="2.5,-6.5 0,-1.5 -2.5,-6.5"/></g></g></g></g><g class="plotbox trees"><g class="tree t0" transform="translate(20 0)"><g class="plotbox"><g class="c2 node n10 p0 root" transform="translate(67.25 26.8)"><g class="a10 i1 leaf node n2 p0 sample" transform="translate(15.75 194.6)"><path class="edge" d="M 0 0 V -194.6 H -15.75"/><rect class="sym" height="6" width="6" x="-3" y="-3"/><text class="lab" transform="translate(0 11)">2</text></g><g class="a10 c2 node n7 p0" transform="translate(-15.75 58.7408)"><g class="a7 i0 leaf node n1 p0 sample" transform="translate(13.5 135.859)"><path class="edge" d="M 0 0 V -135.859 H -13.5"/><rect class="sym" height="6" width="6" x="-3" y="-3"/><text class="lab" transform="translate(0 11)">1</text></g><g class="a7 c2 node n6 p0" transform="translate(-13.5 81.7396)"><g class="a6 i0 leaf node n0 p0 sample" transform="translate(-9 54.1196)"><path class="edge" d="M 0 0 V -54.1196 H 9"/><rect class="sym" height="6" width="6" x="-3" y="-3"/><text class="lab" transform="translate(0 11)">0</text></g><g class="a6 i1 leaf node n3 p0 sample" transform="translate(9 54.1196)"><path class="edge" d="M 0 0 V -54.1196 H -9"/><rect class="sym" height="6" width="6" x="-3" y="-3"/><text class="lab" transform="translate(0 11)">3</text></g><path class="edge" d="M 0 0 V -81.7396 H 13.5"/><circle class="sym" cx="0" cy="0" r="3"/><text class="lab lft" transform="translate(-3 -7)">6</text></g><path class="edge" d="M 0 0 V -58.7408 H 15.75"/><circle class="sym" cx="0" cy="0" r="3"/><text class="lab lft" transform="translate(-3 -7)">7</text></g><circle class="sym" cx="0" cy="0" r="3"/><text class="lab" transform="translate(0 -11)">10</text></g></g></g><g class="tree t1" transform="translate(132 0)"><g class="plotbox"><g class="c2 node n10 p0 root" transform="translate(67.25 26.8)"><g class="a10 i1 leaf node n2 p0 sample" transform="translate(15.75 194.6)"><path class="edge" d="M 0 0 V -194.6 H -15.75"/><rect class="sym" height="6" width="6" x="-3" y="-3"/><text class="lab" transform="translate(0 11)">2</text></g><g class="a10 c2 m3 node n8 p0 s3" transform="translate(-15.75 30.2374)"><g class="a8 i0 leaf m0 m2 node n1 p0 s0 s2 sample" transform="translate(13.5 164.363)"><path class="edge" d="M 0 0 V -164.363 H -13.5"/><g class="mut m0 s0" transform="translate(0 -25.2543)"><line x1="0" x2="0" y1="0" y2="25.2543"/><path class="sym" d="M -3,-3 l 6,6 M -3,3 l 6,-6"/><text class="lab rgt" transform="translate(5 0)">0</text></g><g class="mut m2 s2" transform="translate(0 -18.295)"><line x1="0" x2="0" y1="0" y2="18.295"/><path class="sym" d="M -3,-3 l 6,6 M -3,3 l 6,-6"/><text class="lab rgt" transform="translate(5 0)">2</text></g><rect class="sym" height="6" width="6" x="-3" y="-3"/><text class="lab" transform="translate(0 11)">1</text></g><g class="a8 c2 m4 node n6 p0 s3" transform="translate(-13.5 110.243)"><g class="a6 i0 leaf node n0 p0 sample" transform="translate(-9 54.1196)"><path class="edge" d="M 0 0 V -54.1196 H 9"/><rect class="sym" height="6" width="6" x="-3" y="-3"/><text class="lab" transform="translate(0 11)">0</text></g><g class="a6 i1 leaf m1 node n3 p0 s1 sample" transform="translate(9 54.1196)"><path class="edge" d="M 0 0 V -54.1196 H -9"/><g class="mut m1 s1" transform="translate(0 -37.3989)"><line x1="0" x2="0" y1="0" y2="37.3989"/><path class="sym" d="M -3,-3 l 6,6 M -3,3 l 6,-6"/><text class="lab rgt" transform="translate(5 0)">1</text></g><rect class="sym" height="6" width="6" x="-3" y="-3"/><text class="lab" transform="translate(0 11)">3</text></g><path class="edge" d="M 0 0 V -110.243 H 13.5"/><g class="mut m4 s3" transform="translate(0 -95.8171)"><line x1="0" x2="0" y1="0" y2="95.8171"/><path class="sym" d="M -3,-3 l 6,6 M -3,3 l 6,-6"/><text class="lab lft" transform="translate(-5 0)">4</text></g><circle class="sym" cx="0" cy="0" r="3"/><text class="lab lft" transform="translate(-3 -7)">6</text></g><path class="edge" d="M 0 0 V -30.2374 H 15.75"/><g class="mut m3 s3" transform="translate(0 -27.9172)"><line x1="0" x2="0" y1="0" y2="27.9172"/><path class="sym" d="M -3,-3 l 6,6 M -3,3 l 6,-6"/><text class="lab lft" transform="translate(-5 0)">3</text></g><circle class="sym" cx="0" cy="0" r="3"/><text class="lab lft" transform="translate(-3 -7)">8</text></g><circle class="sym" cx="0" cy="0" r="3"/><text class="lab" transform="translate(0 -11)">10</text></g></g></g><g class="tree t2" transform="translate(244 0)"><g class="plotbox"><g class="c2 node n10 p0 root" transform="translate(56 26.8)"><g class="a10 c2 m10 m12 m5 node n5 p0 s11 s4 s9" transform="translate(18 152.821)"><g class="a5 i0 leaf node n1 p0 sample" transform="translate(-9 41.7793)"><path class="edge" d="M 0 0 V -41.7793 H 9"/><rect class="sym" height="6" width="6" x="-3" y="-3"/><text class="lab" transform="translate(0 11)">1</text></g><g class="a5 i1 leaf m9 node n2 p0 s8 sample" transform="translate(9 41.7793)"><path class="edge" d="M 0 0 V -41.7793 H -9"/><g class="mut m9 s8" transform="translate(0 -35.896)"><line x1="0" x2="0" y1="0" y2="35.896"/><path class="sym" d="M -3,-3 l 6,6 M -3,3 l 6,-6"/><text class="lab rgt" transform="translate(5 0)">9</text></g><rect class="sym" height="6" width="6" x="-3" y="-3"/><text class="lab" transform="translate(0 11)">2</text></g><path class="edge" d="M 0 0 V -152.821 H -18"/><g class="mut m12 s11" transform="translate(0 -144.533)"><line x1="0" x2="0" y1="0" y2="144.533"/><path class="sym" d="M -3,-3 l 6,6 M -3,3 l 6,-6"/><text class="lab rgt" transform="translate(5 0)">12</text></g><g class="mut m5 s4" transform="translate(0 -134.605)"><line x1="0" x2="0" y1="0" y2="134.605"/><path class="sym" d="M -3,-3 l 6,6 M -3,3 l 6,-6"/><text class="lab rgt" transform="translate(5 0)">5</text></g><g class="mut m10 s9" transform="translate(0 -0.0406169)"><line x1="0" x2="0" y1="0" y2="0.0406169"/><path class="sym" d="M -3,-3 l 6,6 M -3,3 l 6,-6"/><text class="lab rgt" transform="translate(5 0)">10</text></g><circle class="sym" cx="0" cy="0" r="3"/><text class="lab rgt" transform="translate(3 -7)">5</text></g><g class="a10 c2 m6 m7 m8 node n6 p0 s5 s6 s7" transform="translate(-18 140.48)"><g class="a6 i0 leaf m11 node n0 p0 s10 sample" transform="translate(-9 54.1196)"><path class="edge" d="M 0 0 V -54.1196 H 9"/><g class="mut m11 s10" transform="translate(0 -18.3392)"><line x1="0" x2="0" y1="0" y2="18.3392"/><path class="sym" d="M -3,-3 l 6,6 M -3,3 l 6,-6"/><text class="lab lft" transform="translate(-5 0)">11</text></g><rect class="sym" height="6" width="6" x="-3" y="-3"/><text class="lab" transform="translate(0 11)">0</text></g><g class="a6 i1 leaf node n3 p0 sample" transform="translate(9 54.1196)"><path class="edge" d="M 0 0 V -54.1196 H -9"/><rect class="sym" height="6" width="6" x="-3" y="-3"/><text class="lab" transform="translate(0 11)">3</text></g><path class="edge" d="M 0 0 V -140.48 H 18"/><g class="mut m6 s5" transform="translate(0 -124.522)"><line x1="0" x2="0" y1="0" y2="124.522"/><path class="sym" d="M -3,-3 l 6,6 M -3,3 l 6,-6"/><text class="lab lft" transform="translate(-5 0)">6</text></g><g class="mut m7 s6" transform="translate(0 -55.9743)"><line x1="0" x2="0" y1="0" y2="55.9743"/><path class="sym" d="M -3,-3 l 6,6 M -3,3 l 6,-6"/><text class="lab lft" transform="translate(-5 0)">7</text></g><g class="mut m8 s7" transform="translate(0 -13.536)"><line x1="0" x2="0" y1="0" y2="13.536"/><path class="sym" d="M -3,-3 l 6,6 M -3,3 l 6,-6"/><text class="lab lft" transform="translate(-5 0)">8</text></g><circle class="sym" cx="0" cy="0" r="3"/><text class="lab lft" transform="translate(-3 -7)">6</text></g><circle class="sym" cx="0" cy="0" r="3"/><text class="lab" transform="translate(0 -11)">10</text></g></g></g><g class="tree t3" transform="translate(356 0)"><g class="plotbox"><g class="c2 node n9 p0 root" transform="translate(56 38.5705)"><g class="a9 c2 node n5 p0" transform="translate(18 141.05)"><g class="a5 i0 leaf node n1 p0 sample" transform="translate(-9 41.7793)"><path class="edge" d="M 0 0 V -41.7793 H 9"/><rect class="sym" height="6" width="6" x="-3" y="-3"/><text class="lab" transform="translate(0 11)">1</text></g><g class="a5 i1 leaf node n2 p0 sample" transform="translate(9 41.7793)"><path class="edge" d="M 0 0 V -41.7793 H -9"/><rect class="sym" height="6" width="6" x="-3" y="-3"/><text class="lab" transform="translate(0 11)">2</text></g><path class="edge" d="M 0 0 V -141.05 H -18"/><circle class="sym" cx="0" cy="0" r="3"/><text class="lab rgt" transform="translate(3 -7)">5</text></g><g class="a9 c2 node n6 p0" transform="translate(-18 128.71)"><g class="a6 i0 leaf node n0 p0 sample" transform="translate(-9 54.1196)"><path class="edge" d="M 0 0 V -54.1196 H 9"/><rect class="sym" height="6" width="6" x="-3" y="-3"/><text class="lab" transform="translate(0 11)">0</text></g><g class="a6 i1 leaf node n3 p0 sample" transform="translate(9 54.1196)"><path class="edge" d="M 0 0 V -54.1196 H -9"/><rect class="sym" height="6" width="6" x="-3" y="-3"/><text class="lab" transform="translate(0 11)">3</text></g><path class="edge" d="M 0 0 V -128.71 H 18"/><circle class="sym" cx="0" cy="0" r="3"/><text class="lab lft" transform="translate(-3 -7)">6</text></g><circle class="sym" cx="0" cy="0" r="3"/><text class="lab" transform="translate(0 -11)">9</text></g></g></g><g class="tree t4" transform="translate(468 0)"><g class="plotbox"><g class="c2 node n9 p0 root" transform="translate(56 38.5705)"><g class="a9 c2 node n6 p0" transform="translate(-18 128.71)"><g class="a6 i0 leaf node n0 p0 sample" transform="translate(-9 54.1196)"><path class="edge" d="M 0 0 V -54.1196 H 9"/><rect class="sym" height="6" width="6" x="-3" y="-3"/><text class="lab" transform="translate(0 11)">0</text></g><g class="a6 i1 leaf node n3 p0 sample" transform="translate(9 54.1196)"><path class="edge" d="M 0 0 V -54.1196 H -9"/><rect class="sym" height="6" width="6" x="-3" y="-3"/><text class="lab" transform="translate(0 11)">3</text></g><path class="edge" d="M 0 0 V -128.71 H 18"/><circle class="sym" cx="0" cy="0" r="3"/><text class="lab lft" transform="translate(-3 -7)">6</text></g><g class="a9 c2 node n4 p0" transform="translate(18 163.991)"><g class="a4 i0 leaf node n1 p0 sample" transform="translate(-9 18.8389)"><path class="edge" d="M 0 0 V -18.8389 H 9"/><rect class="sym" height="6" width="6" x="-3" y="-3"/><text class="lab" transform="translate(0 11)">1</text></g><g class="a4 i1 leaf node n2 p0 sample" transform="translate(9 18.8389)"><path class="edge" d="M 0 0 V -18.8389 H -9"/><rect class="sym" height="6" width="6" x="-3" y="-3"/><text class="lab" transform="translate(0 11)">2</text></g><path class="edge" d="M 0 0 V -163.991 H -18"/><circle class="sym" cx="0" cy="0" r="3"/><text class="lab rgt" transform="translate(3 -7)">4</text></g><circle class="sym" cx="0" cy="0" r="3"/><text class="lab" transform="translate(0 -11)">9</text></g></g></g></g></g></svg>