<svg baseProfile="full" height="200" version="1.1" width="200" xmlns="http://www.w3.org/2000/svg" xmlns:ev="http://www.w3.org/2001/xml-events" xmlns:xlink="http://www.w3.org/1999/xlink"><defs><style type="text/css"><![CDATA[.background path {fill: #808080; fill-opacity: 0}.background path:nth-child(odd) {fill-opacity: .1}.x-regions rect {fill: yellow; stroke: black; opacity: 0.5}.axes {font-size: 14px}.x-axis .tick .lab {font-weight: bold; dominant-baseline: hanging}.axes, .tree {font-size: 14px; text-anchor: middle}.axes line, .edge {stroke: black; fill: none}.axes .ax-skip {stroke-dasharray: 4}.y-axis .grid {stroke: #FAFAFA}.node > .sym {fill: black; stroke: none}.site > .sym {stroke: black}.mut text {fill: red; font-style: italic}.mut.extra text {fill: hotpink}.mut line {fill: none; stroke: none}.mut .sym {fill: none; stroke: red}.mut.extra .sym {stroke: hotpink}.node .mut .sym {stroke-width: 1.5px}.tree text, .tree-sequence text {dominant-baseline: central}.plotbox .lab.lft {text-anchor: end}.plotbox .lab.rgt {text-anchor: start}.polytomy line {stroke: black; stroke-dasharray: 1px, 1px}.polytomy text {paint-order:stroke;stroke-width:0.3em;stroke:white}]]></style></defs><g class="tree-sequence"><g class="background"><path d="M20,0 l160,0 l0,138.2 l0,25 l0,5 l-160,0 l0,-5 l0,-25 l0,-138.2z"/></g><g class="axes"><g class="x-axis"><g class="title" transform="translate(100 200)"><text class="lab" text-anchor="middle" transform="translate(0 -11)">Genome position</text></g><line class="ax-line" x1="20" x2="180" y1="163.2" y2="163.2"/><g class="ticks"><g class="tick" transform="translate(20 163.2)"><line x1="0" x2="0" y1="0" y2="5"/><g transform="translate(0 6)"><text class="lab">0</text></g></g><g class="tick" transform="translate(180 163.2)"><line x1="0" x2="0" y1="0" y2="5"/><g transform="translate(0 6)"><text class="lab">1</text></g></g></g></g></g><g class="plotbox trees"><g class="tree t0" transform="translate(20 0)"><g class="plotbox"><g class="c2 node n8 p0 root" transform="translate(98 26.8)"><g class="a8 i3 leaf node n3 p0 sample" transform="translate(30 94.6)"><path class="edge" d="M 0 0 V -94.6 H -30"/><rect class="sym" height="6" width="6" x="-3" y="-3"/><text class="lab" transform="translate(0 11)">3</text></g><g class="a8 c2 node n7 p0" transform="translate(-30 66.169)"><g class="a7 c2 node n5 p0" transform="translate(-24 28.0961)"><g class="a5 i0 leaf node n0 p0 sample" transform="translate(-12 0.334914)"><path class="edge" d="M 0 0 V -0.334914 H 12"/><rect class="sym" height="6" width="6" x="-3" y="-3"/><text class="lab" transform="translate(0 11)">0</text></g><g class="a5 i2 leaf node n2 p0 sample" transform="translate(12 0.334914)"><path class="edge" d="M 0 0 V -0.334914 H -12"/><rect class="sym" height="6" width="6" x="-3" y="-3"/><text class="lab" transform="translate(0 11)">2</text></g><path class="edge" d="M 0 0 V -28.0961 H 24"/><circle class="sym" cx="0" cy="0" r="3"/><text class="lab lft" transform="translate(-3 -7)">5</text></g><g class="a7 c2 node n6 p0" transform="translate(24 18.7069)"><g class="a6 i1 leaf node n1 p0 sample" transform="translate(-12 9.72409)"><path class="edge" d="M 0 0 V -9.72409 H 12"/><rect class="sym" height="6" width="6" x="-3" y="-3"/><text class="lab" transform="translate(0 11)">1</text></g><g class="a6 i4 leaf node n4 p0 sample" transform="translate(12 9.72409)"><path class="edge" d="M 0 0 V -9.72409 H -12"/><rect class="sym" height="6" width="6" x="-3" y="-3"/><text class="lab" transform="translate(0 11)">4</text></g><path class="edge" d="M 0 0 V -18.7069 H -24"/><circle class="sym" cx="0" cy="0" r="3"/><text class="lab rgt" transform="translate(3 -7)">6</text></g><path class="edge" d="M 0 0 V -66.169 H 30"/><circle class="sym" cx="0" cy="0" r="3"/><text class="lab lft" transform="translate(-3 -7)">7</text></g><circle class="sym" cx="0" cy="0" r="3"/><text class="lab" transform="translate(0 -11)">8</text></g></g></g></g></g></svg>