<svg baseProfile="full" height="300" version="1.1" width="500" xmlns="http://www.w3.org/2000/svg" xmlns:ev="http://www.w3.org/2001/xml-events" xmlns:xlink="http://www.w3.org/1999/xlink"><defs><style type="text/css"><![CDATA[.background path {fill: #808080; fill-opacity: 0}.background path:nth-child(odd) {fill-opacity: .1}.x-regions rect {fill: yellow; stroke: black; opacity: 0.5}.axes {font-size: 14px}.x-axis .tick .lab {font-weight: bold; dominant-baseline: hanging}.axes, .tree {font-size: 14px; text-anchor: middle}.axes line, .edge {stroke: black; fill: none}.axes .ax-skip {stroke-dasharray: 4}.y-axis .grid {stroke: #FAFAFA}.node > .sym {fill: black; stroke: none}.site > .sym {stroke: black}.mut text {fill: red; font-style: italic}.mut.extra text {fill: hotpink}.mut line {fill: none; stroke: none}.mut .sym {fill: none; stroke: red}.mut.extra .sym {stroke: hotpink}.node .mut .sym {stroke-width: 1.5px}.tree text, .tree-sequence text {dominant-baseline: central}.plotbox .lab.lft {text-anchor: end}.plotbox .lab.rgt {text-anchor: start}.polytomy line {stroke: black; stroke-dasharray: 1px, 1px}.polytomy text {paint-order:stroke;stroke-width:0.3em;stroke:white}]]></style></defs><g class="tree-sequence"><g class="background"><path d="M20,0 l460,0 l0,238.2 l0,25 l0,5 l-460,0 l0,-5 l0,-25 l0,-238.2z"/></g><g class="axes"><g class="x-axis"><g class="title" transform="translate(250 300)"><text class="lab" text-anchor="middle" transform="translate(0 -11)">Genome position</text></g><line class="ax-line" x1="20" x2="480" y1="263.2" y2="263.2"/><g class="ticks"><g class="tick" transform="translate(20 263.2)"><line x1="0" x2="0" y1="0" y2="5"/><g transform="translate(0 6)"><text class="lab">0</text></g></g><g class="tick" transform="translate(480 263.2)"><line x1="0" x2="0" y1="0" y2="5"/><g transform="translate(0 6)"><text class="lab">1</text></g></g></g><g class="site s0" transform="translate(20 263.2)"><line class="sym" x1="0" x2="0" y1="0" y2="-10"/><g class="mut m4"><polyline class="sym" points="2.5,-6.5 0,-1.5 -2.5,-6.5"/></g><g class="mut m3"><polyline class="sym" points="2.5,-10.5 0,-5.5 -2.5,-10.5"/></g><g class="mut m2"><polyline class="sym" points="2.5,-14.5 0,-9.5 -2.5,-14.5"/></g><g class="mut m1"><polyline class="sym" points="2.5,-18.5 0,-13.5 -2.5,-18.5"/></g><g class="mut m0"><polyline class="sym" points="2.5,-22.5 0,-17.5 -2.5,-22.5"/></g></g></g></g><g class="plotbox trees"><g class="tree t0" transform="translate(20 0)"><g class="plotbox"><g class="c2 node n8 p0 root" transform="translate(293 26.8)"><g class="a8 i3 leaf m0 m2 node n3 p0 s0 sample" transform="translate(105 194.6)"><path class="edge" d="M 0 0 V -194.6 H -105"/><g class="mut m0 s0" transform="translate(0 -161.65)"><line x1="0" x2="0" y1="0" y2="161.65"/><path class="sym" d="M -3,-3 l 6,6 M -3,3 l 6,-6"/><text class="lab rgt" transform="translate(5 0)">0</text></g><g class="mut m2 s0" transform="translate(0 -42.2326)"><line x1="0" x2="0" y1="0" y2="42.2326"/><path class="sym" d="M -3,-3 l 6,6 M -3,3 l 6,-6"/><text class="lab rgt" transform="translate(5 0)">2</text></g><rect class="sym" height="6" width="6" x="-3" y="-3"/><text class="lab" transform="translate(0 11)">3</text></g><g class="a8 c2 node n7 p0" transform="translate(-105 136.115)"><g class="a7 c2 m3 m4 node n5 p0 s0" transform="translate(-84 57.796)"><g class="a5 i0 leaf node n0 p0 sample" transform="translate(-42 0.688945)"><path class="edge" d="M 0 0 V -0.688945 H 42"/><rect class="sym" height="6" width="6" x="-3" y="-3"/><text class="lab" transform="translate(0 11)">0</text></g><g class="a5 i2 leaf node n2 p0 sample" transform="translate(42 0.688945)"><path class="edge" d="M 0 0 V -0.688945 H -42"/><rect class="sym" height="6" width="6" x="-3" y="-3"/><text class="lab" transform="translate(0 11)">2</text></g><path class="edge" d="M 0 0 V -57.796 H 84"/><g class="mut m3 s0" transform="translate(0 -31.384)"><line x1="0" x2="0" y1="0" y2="31.384"/><path class="sym" d="M -3,-3 l 6,6 M -3,3 l 6,-6"/><text class="lab lft" transform="translate(-5 0)">3</text></g><g class="mut m4 s0" transform="translate(0 -23.8962)"><line x1="0" x2="0" y1="0" y2="23.8962"/><path class="sym" d="M -3,-3 l 6,6 M -3,3 l 6,-6"/><text class="lab lft" transform="translate(-5 0)">4</text></g><circle class="sym" cx="0" cy="0" r="3"/><text class="lab lft" transform="translate(-3 -7)">5</text></g><g class="a7 c2 m1 node n6 p0 s0" transform="translate(84 38.4817)"><g class="a6 i1 leaf node n1 p0 sample" transform="translate(-42 20.0033)"><path class="edge" d="M 0 0 V -20.0033 H 42"/><rect class="sym" height="6" width="6" x="-3" y="-3"/><text class="lab" transform="translate(0 11)">1</text></g><g class="a6 i4 leaf node n4 p0 sample" transform="translate(42 20.0033)"><path class="edge" d="M 0 0 V -20.0033 H -42"/><rect class="sym" height="6" width="6" x="-3" y="-3"/><text class="lab" transform="translate(0 11)">4</text></g><path class="edge" d="M 0 0 V -38.4817 H -84"/><g class="mut m1 s0" transform="translate(0 -29.9239)"><line x1="0" x2="0" y1="0" y2="29.9239"/><path class="sym" d="M -3,-3 l 6,6 M -3,3 l 6,-6"/><text class="lab rgt" transform="translate(5 0)">1</text></g><circle class="sym" cx="0" cy="0" r="3"/><text class="lab rgt" transform="translate(3 -7)">6</text></g><path class="edge" d="M 0 0 V -136.115 H 105"/><circle class="sym" cx="0" cy="0" r="3"/><text class="lab lft" transform="translate(-3 -7)">7</text></g><circle class="sym" cx="0" cy="0" r="3"/><text class="lab" transform="translate(0 -11)">8</text></g></g></g></g></g></svg>