<svg baseProfile="full" height="300" version="1.1" width="600" xmlns="http://www.w3.org/2000/svg" xmlns:ev="http://www.w3.org/2001/xml-events" xmlns:xlink="http://www.w3.org/1999/xlink"><defs><style type="text/css"><![CDATA[.background path {fill: #808080; fill-opacity: 0}.background path:nth-child(odd) {fill-opacity: .1}.x-regions rect {fill: yellow; stroke: black; opacity: 0.5}.axes {font-size: 14px}.x-axis .tick .lab {font-weight: bold; dominant-baseline: hanging}.axes, .tree {font-size: 14px; text-anchor: middle}.axes line, .edge {stroke: black; fill: none}.axes .ax-skip {stroke-dasharray: 4}.y-axis .grid {stroke: #FAFAFA}.node > .sym {fill: black; stroke: none}.site > .sym {stroke: black}.mut text {fill: red; font-style: italic}.mut.extra text {fill: hotpink}.mut line {fill: none; stroke: none}.mut .sym {fill: none; stroke: red}.mut.extra .sym {stroke: hotpink}.node .mut .sym {stroke-width: 1.5px}.tree text, .tree-sequence text {dominant-baseline: central}.plotbox .lab.lft {text-anchor: end}.plotbox .lab.rgt {text-anchor: start}.polytomy line {stroke: black; stroke-dasharray: 1px, 1px}.polytomy text {paint-order:stroke;stroke-width:0.3em;stroke:white}]]></style></defs><g class="tree-sequence"><g class="background"><path d="M20,0 l186.667,0 l0,238.2 l119.653,25 l0,5 l-306.32,0 l0,-5 l0,-25 l0,-238.2z"/><path d="M206.667,0 l186.667,0 l0,238.2 l138.395,25 l0,5 l-205.408,0 l0,-5 l-119.653,-25 l0,-238.2z"/><path d="M393.333,0 l186.667,0 l0,238.2 l0,25 l0,5 l-48.272,0 l0,-5 l-138.395,-25 l0,-238.2z"/></g><g class="axes"><g class="x-axis"><g class="title" transform="translate(300 300)"><text class="lab" text-anchor="middle" transform="translate(0 -11)">Genome position</text></g><line class="ax-line" x1="20" x2="580" y1="263.2" y2="263.2"/><g class="ticks"><g class="tick" transform="translate(20 263.2)"><line x1="0" x2="0" y1="0" y2="5"/><g transform="translate(0 6)"><text class="lab">0</text></g></g><g class="tick" transform="translate(326.32 263.2)"><line x1="0" x2="0" y1="0" y2="5"/><g transform="translate(0 6)"><text class="lab">5470</text></g></g><g class="tick" transform="translate(531.728 263.2)"><line x1="0" x2="0" y1="0" y2="5"/><g transform="translate(0 6)"><text class="lab">9138</text></g></g><g class="tick" transform="translate(580 263.2)"><line x1="0" x2="0" y1="0" y2="5"/><g transform="translate(0 6)"><text class="lab">10000</text></g></g></g></g></g><g class="plotbox trees"><g class="tree t0" transform="translate(20 0)"><g class="plotbox"><g class="c2 node n7 p0 root" transform="translate(107.083 26.8)"><g class="a7 i1 leaf node n3 p0 sample" transform="translate(41.25 194.6)"><path class="edge" d="M 0 0 V -194.6 H -41.25"/><rect class="sym" height="6" width="6" x="-3" y="-3"/><text class="lab" transform="translate(0 11)">3</text></g><g class="a7 c2 node n5 p0" transform="translate(-41.25 52.5288)"><g class="a5 i0 leaf node n0 p0 sample" transform="translate(-27.5 142.071)"><path class="edge" d="M 0 0 V -142.071 H 27.5"/><rect class="sym" height="6" width="6" x="-3" y="-3"/><text class="lab" transform="translate(0 11)">0</text></g><g class="a5 c2 node n4 p0" transform="translate(27.5 136.207)"><g class="a4 i0 leaf node n1 p0 sample" transform="translate(-18.3333 5.86423)"><path class="edge" d="M 0 0 V -5.86423 H 18.3333"/><rect class="sym" height="6" width="6" x="-3" y="-3"/><text class="lab" transform="translate(0 11)">1</text></g><g class="a4 i1 leaf node n2 p0 sample" transform="translate(18.3333 5.86423)"><path class="edge" d="M 0 0 V -5.86423 H -18.3333"/><rect class="sym" height="6" width="6" x="-3" y="-3"/><text class="lab" transform="translate(0 11)">2</text></g><path class="edge" d="M 0 0 V -136.207 H -27.5"/><circle class="sym" cx="0" cy="0" r="3"/><text class="lab rgt" transform="translate(3 -7)">4</text></g><path class="edge" d="M 0 0 V -52.5288 H 41.25"/><circle class="sym" cx="0" cy="0" r="3"/><text class="lab lft" transform="translate(-3 -7)">5</text></g><circle class="sym" cx="0" cy="0" r="3"/><text class="lab" transform="translate(0 -11)">7</text></g></g></g><g class="tree t1" transform="translate(206.667 0)"><g class="plotbox"><g class="c2 node n7 p0 root" transform="translate(93.3333 26.8)"><g class="a7 c2 node n4 p0" transform="translate(36.6667 188.736)"><g class="a4 i0 leaf node n1 p0 sample" transform="translate(-18.3333 5.86423)"><path class="edge" d="M 0 0 V -5.86423 H 18.3333"/><rect class="sym" height="6" width="6" x="-3" y="-3"/><text class="lab" transform="translate(0 11)">1</text></g><g class="a4 i1 leaf node n2 p0 sample" transform="translate(18.3333 5.86423)"><path class="edge" d="M 0 0 V -5.86423 H -18.3333"/><rect class="sym" height="6" width="6" x="-3" y="-3"/><text class="lab" transform="translate(0 11)">2</text></g><path class="edge" d="M 0 0 V -188.736 H -36.6667"/><circle class="sym" cx="0" cy="0" r="3"/><text class="lab rgt" transform="translate(3 -7)">4</text></g><g class="a7 c2 node n6 p0" transform="translate(-36.6667 16.6504)"><g class="a6 i0 leaf node n0 p0 sample" transform="translate(-18.3333 177.95)"><path class="edge" d="M 0 0 V -177.95 H 18.3333"/><rect class="sym" height="6" width="6" x="-3" y="-3"/><text class="lab" transform="translate(0 11)">0</text></g><g class="a6 i1 leaf node n3 p0 sample" transform="translate(18.3333 177.95)"><path class="edge" d="M 0 0 V -177.95 H -18.3333"/><rect class="sym" height="6" width="6" x="-3" y="-3"/><text class="lab" transform="translate(0 11)">3</text></g><path class="edge" d="M 0 0 V -16.6504 H 36.6667"/><circle class="sym" cx="0" cy="0" r="3"/><text class="lab lft" transform="translate(-3 -7)">6</text></g><circle class="sym" cx="0" cy="0" r="3"/><text class="lab" transform="translate(0 -11)">7</text></g></g></g><g class="tree t2" transform="translate(393.333 0)"><g class="plotbox"><g class="c2 node n7 p0 root" transform="translate(107.083 26.8)"><g class="a7 i1 leaf node n3 p0 sample" transform="translate(41.25 194.6)"><path class="edge" d="M 0 0 V -194.6 H -41.25"/><rect class="sym" height="6" width="6" x="-3" y="-3"/><text class="lab" transform="translate(0 11)">3</text></g><g class="a7 c2 node n5 p0" transform="translate(-41.25 52.5288)"><g class="a5 i0 leaf node n0 p0 sample" transform="translate(-27.5 142.071)"><path class="edge" d="M 0 0 V -142.071 H 27.5"/><rect class="sym" height="6" width="6" x="-3" y="-3"/><text class="lab" transform="translate(0 11)">0</text></g><g class="a5 c2 node n4 p0" transform="translate(27.5 136.207)"><g class="a4 i0 leaf node n1 p0 sample" transform="translate(-18.3333 5.86423)"><path class="edge" d="M 0 0 V -5.86423 H 18.3333"/><rect class="sym" height="6" width="6" x="-3" y="-3"/><text class="lab" transform="translate(0 11)">1</text></g><g class="a4 i1 leaf node n2 p0 sample" transform="translate(18.3333 5.86423)"><path class="edge" d="M 0 0 V -5.86423 H -18.3333"/><rect class="sym" height="6" width="6" x="-3" y="-3"/><text class="lab" transform="translate(0 11)">2</text></g><path class="edge" d="M 0 0 V -136.207 H -27.5"/><circle class="sym" cx="0" cy="0" r="3"/><text class="lab rgt" transform="translate(3 -7)">4</text></g><path class="edge" d="M 0 0 V -52.5288 H 41.25"/><circle class="sym" cx="0" cy="0" r="3"/><text class="lab lft" transform="translate(-3 -7)">5</text></g><circle class="sym" cx="0" cy="0" r="3"/><text class="lab" transform="translate(0 -11)">7</text></g></g></g></g></g></svg>