<svg baseProfile="full" height="200" version="1.1" width="1000" xmlns="http://www.w3.org/2000/svg" xmlns:ev="http://www.w3.org/2001/xml-events" xmlns:xlink="http://www.w3.org/1999/xlink"><defs><style type="text/css"><![CDATA[.background path {fill: #808080; fill-opacity: 0}.background path:nth-child(odd) {fill-opacity: .1}.x-regions rect {fill: yellow; stroke: black; opacity: 0.5}.axes {font-size: 14px}.x-axis .tick .lab {font-weight: bold; dominant-baseline: hanging}.axes, .tree {font-size: 14px; text-anchor: middle}.axes line, .edge {stroke: black; fill: none}.axes .ax-skip {stroke-dasharray: 4}.y-axis .grid {stroke: #FAFAFA}.node > .sym {fill: black; stroke: none}.site > .sym {stroke: black}.mut text {fill: red; font-style: italic}.mut.extra text {fill: hotpink}.mut line {fill: none; stroke: none}.mut .sym {fill: none; stroke: red}.mut.extra .sym {stroke: hotpink}.node .mut .sym {stroke-width: 1.5px}.tree text, .tree-sequence text {dominant-baseline: central}.plotbox .lab.lft {text-anchor: end}.plotbox .lab.rgt {text-anchor: start}.polytomy line {stroke: black; stroke-dasharray: 1px, 1px}.polytomy text {paint-order:stroke;stroke-width:0.3em;stroke:white}]]></style></defs><g class="tree-sequence"><g class="background"><path d="M20,0 l192,0 l0,138.2 l-125.76,25 l0,5 l-66.24,0 l0,-5 l0,-25 l0,-138.2z"/><path d="M212,0 l192,0 l0,138.2 l6.72,25 l0,5 l-324.48,0 l0,-5 l125.76,-25 l0,-138.2z"/><path d="M404,0 l192,0 l0,138.2 l369.6,25 l0,5 l-554.88,0 l0,-5 l-6.72,-25 l0,-138.2z"/><path d="M596,0 l192,0 l0,138.2 l184.32,25 l0,5 l-6.72,0 l0,-5 l-369.6,-25 l0,-138.2z"/><path d="M788,0 l192,0 l0,138.2 l0,25 l0,5 l-7.68,0 l0,-5 l-184.32,-25 l0,-138.2z"/></g><g class="axes"><g class="x-axis"><g class="title" transform="translate(500 200)"><text class="lab" text-anchor="middle" transform="translate(0 -11)">Genome position</text></g><line class="ax-line" x1="20" x2="980" y1="163.2" y2="163.2"/><g class="ticks"><g class="tick" transform="translate(20 163.2)"><line x1="0" x2="0" y1="0" y2="5"/><g transform="translate(0 6)"><text class="lab">0</text></g></g><g class="tick" transform="translate(86.24 163.2)"><line x1="0" x2="0" y1="0" y2="5"/><g transform="translate(0 6)"><text class="lab">69</text></g></g><g class="tick" transform="translate(410.72 163.2)"><line x1="0" x2="0" y1="0" y2="5"/><g transform="translate(0 6)"><text class="lab">407</text></g></g><g class="tick" transform="translate(965.6 163.2)"><line x1="0" x2="0" y1="0" y2="5"/><g transform="translate(0 6)"><text class="lab">985</text></g></g><g class="tick" transform="translate(972.32 163.2)"><line x1="0" x2="0" y1="0" y2="5"/><g transform="translate(0 6)"><text class="lab">992</text></g></g><g class="tick" transform="translate(980 163.2)"><line x1="0" x2="0" y1="0" y2="5"/><g transform="translate(0 6)"><text class="lab">1000</text></g></g></g></g></g><g class="plotbox trees"><g class="tree t0" transform="translate(20 0)"><g class="plotbox"><g class="c2 node n10 p0 root" transform="translate(119.75 26.8)"><g class="a10 i1 leaf node n2 p0 sample" transform="translate(33.25 94.6)"><path class="edge" d="M 0 0 V -94.6 H -33.25"/><rect class="sym" height="6" width="6" x="-3" y="-3"/><text class="lab" transform="translate(0 11)">2</text></g><g class="a10 c2 node n7 p0" transform="translate(-33.25 28.5554)"><g class="a7 i0 leaf node n1 p0 sample" transform="translate(28.5 66.0446)"><path class="edge" d="M 0 0 V -66.0446 H -28.5"/><rect class="sym" height="6" width="6" x="-3" y="-3"/><text class="lab" transform="translate(0 11)">1</text></g><g class="a7 c2 node n6 p0" transform="translate(-28.5 39.7357)"><g class="a6 i0 leaf node n0 p0 sample" transform="translate(-19 26.3089)"><path class="edge" d="M 0 0 V -26.3089 H 19"/><rect class="sym" height="6" width="6" x="-3" y="-3"/><text class="lab" transform="translate(0 11)">0</text></g><g class="a6 i1 leaf node n3 p0 sample" transform="translate(19 26.3089)"><path class="edge" d="M 0 0 V -26.3089 H -19"/><rect class="sym" height="6" width="6" x="-3" y="-3"/><text class="lab" transform="translate(0 11)">3</text></g><path class="edge" d="M 0 0 V -39.7357 H 28.5"/><circle class="sym" cx="0" cy="0" r="3"/><text class="lab lft" transform="translate(-3 -7)">6</text></g><path class="edge" d="M 0 0 V -28.5554 H 33.25"/><circle class="sym" cx="0" cy="0" r="3"/><text class="lab lft" transform="translate(-3 -7)">7</text></g><circle class="sym" cx="0" cy="0" r="3"/><text class="lab" transform="translate(0 -11)">10</text></g></g></g><g class="tree t1" transform="translate(212 0)"><g class="plotbox"><g class="c2 node n10 p0 root" transform="translate(119.75 26.8)"><g class="a10 i1 leaf node n2 p0 sample" transform="translate(33.25 94.6)"><path class="edge" d="M 0 0 V -94.6 H -33.25"/><rect class="sym" height="6" width="6" x="-3" y="-3"/><text class="lab" transform="translate(0 11)">2</text></g><g class="a10 c2 node n8 p0" transform="translate(-33.25 14.6991)"><g class="a8 i0 leaf node n1 p0 sample" transform="translate(28.5 79.9009)"><path class="edge" d="M 0 0 V -79.9009 H -28.5"/><rect class="sym" height="6" width="6" x="-3" y="-3"/><text class="lab" transform="translate(0 11)">1</text></g><g class="a8 c2 node n6 p0" transform="translate(-28.5 53.5919)"><g class="a6 i0 leaf node n0 p0 sample" transform="translate(-19 26.3089)"><path class="edge" d="M 0 0 V -26.3089 H 19"/><rect class="sym" height="6" width="6" x="-3" y="-3"/><text class="lab" transform="translate(0 11)">0</text></g><g class="a6 i1 leaf node n3 p0 sample" transform="translate(19 26.3089)"><path class="edge" d="M 0 0 V -26.3089 H -19"/><rect class="sym" height="6" width="6" x="-3" y="-3"/><text class="lab" transform="translate(0 11)">3</text></g><path class="edge" d="M 0 0 V -53.5919 H 28.5"/><circle class="sym" cx="0" cy="0" r="3"/><text class="lab lft" transform="translate(-3 -7)">6</text></g><path class="edge" d="M 0 0 V -14.6991 H 33.25"/><circle class="sym" cx="0" cy="0" r="3"/><text class="lab lft" transform="translate(-3 -7)">8</text></g><circle class="sym" cx="0" cy="0" r="3"/><text class="lab" transform="translate(0 -11)">10</text></g></g></g><g class="tree t2" transform="translate(404 0)"><g class="plotbox"><g class="c2 node n10 p0 root" transform="translate(96 26.8)"><g class="a10 c2 node n5 p0" transform="translate(38 74.29)"><g class="a5 i0 leaf node n1 p0 sample" transform="translate(-19 20.31)"><path class="edge" d="M 0 0 V -20.31 H 19"/><rect class="sym" height="6" width="6" x="-3" y="-3"/><text class="lab" transform="translate(0 11)">1</text></g><g class="a5 i1 leaf node n2 p0 sample" transform="translate(19 20.31)"><path class="edge" d="M 0 0 V -20.31 H -19"/><rect class="sym" height="6" width="6" x="-3" y="-3"/><text class="lab" transform="translate(0 11)">2</text></g><path class="edge" d="M 0 0 V -74.29 H -38"/><circle class="sym" cx="0" cy="0" r="3"/><text class="lab rgt" transform="translate(3 -7)">5</text></g><g class="a10 c2 node n6 p0" transform="translate(-38 68.2911)"><g class="a6 i0 leaf node n0 p0 sample" transform="translate(-19 26.3089)"><path class="edge" d="M 0 0 V -26.3089 H 19"/><rect class="sym" height="6" width="6" x="-3" y="-3"/><text class="lab" transform="translate(0 11)">0</text></g><g class="a6 i1 leaf node n3 p0 sample" transform="translate(19 26.3089)"><path class="edge" d="M 0 0 V -26.3089 H -19"/><rect class="sym" height="6" width="6" x="-3" y="-3"/><text class="lab" transform="translate(0 11)">3</text></g><path class="edge" d="M 0 0 V -68.2911 H 38"/><circle class="sym" cx="0" cy="0" r="3"/><text class="lab lft" transform="translate(-3 -7)">6</text></g><circle class="sym" cx="0" cy="0" r="3"/><text class="lab" transform="translate(0 -11)">10</text></g></g></g><g class="tree t3" transform="translate(596 0)"><g class="plotbox"><g class="c2 node n9 p0 root" transform="translate(96 32.5219)"><g class="a9 c2 node n5 p0" transform="translate(38 68.5681)"><g class="a5 i0 leaf node n1 p0 sample" transform="translate(-19 20.31)"><path class="edge" d="M 0 0 V -20.31 H 19"/><rect class="sym" height="6" width="6" x="-3" y="-3"/><text class="lab" transform="translate(0 11)">1</text></g><g class="a5 i1 leaf node n2 p0 sample" transform="translate(19 20.31)"><path class="edge" d="M 0 0 V -20.31 H -19"/><rect class="sym" height="6" width="6" x="-3" y="-3"/><text class="lab" transform="translate(0 11)">2</text></g><path class="edge" d="M 0 0 V -68.5681 H -38"/><circle class="sym" cx="0" cy="0" r="3"/><text class="lab rgt" transform="translate(3 -7)">5</text></g><g class="a9 c2 node n6 p0" transform="translate(-38 62.5691)"><g class="a6 i0 leaf node n0 p0 sample" transform="translate(-19 26.3089)"><path class="edge" d="M 0 0 V -26.3089 H 19"/><rect class="sym" height="6" width="6" x="-3" y="-3"/><text class="lab" transform="translate(0 11)">0</text></g><g class="a6 i1 leaf node n3 p0 sample" transform="translate(19 26.3089)"><path class="edge" d="M 0 0 V -26.3089 H -19"/><rect class="sym" height="6" width="6" x="-3" y="-3"/><text class="lab" transform="translate(0 11)">3</text></g><path class="edge" d="M 0 0 V -62.5691 H 38"/><circle class="sym" cx="0" cy="0" r="3"/><text class="lab lft" transform="translate(-3 -7)">6</text></g><circle class="sym" cx="0" cy="0" r="3"/><text class="lab" transform="translate(0 -11)">9</text></g></g></g><g class="tree t4" transform="translate(788 0)"><g class="plotbox"><g class="c2 node n9 p0 root" transform="translate(96 32.5219)"><g class="a9 c2 node n6 p0" transform="translate(-38 62.5691)"><g class="a6 i0 leaf node n0 p0 sample" transform="translate(-19 26.3089)"><path class="edge" d="M 0 0 V -26.3089 H 19"/><rect class="sym" height="6" width="6" x="-3" y="-3"/><text class="lab" transform="translate(0 11)">0</text></g><g class="a6 i1 leaf node n3 p0 sample" transform="translate(19 26.3089)"><path class="edge" d="M 0 0 V -26.3089 H -19"/><rect class="sym" height="6" width="6" x="-3" y="-3"/><text class="lab" transform="translate(0 11)">3</text></g><path class="edge" d="M 0 0 V -62.5691 H 38"/><circle class="sym" cx="0" cy="0" r="3"/><text class="lab lft" transform="translate(-3 -7)">6</text></g><g class="a9 c2 node n4 p0" transform="translate(38 79.72)"><g class="a4 i0 leaf node n1 p0 sample" transform="translate(-19 9.15805)"><path class="edge" d="M 0 0 V -9.15805 H 19"/><rect class="sym" height="6" width="6" x="-3" y="-3"/><text class="lab" transform="translate(0 11)">1</text></g><g class="a4 i1 leaf node n2 p0 sample" transform="translate(19 9.15805)"><path class="edge" d="M 0 0 V -9.15805 H -19"/><rect class="sym" height="6" width="6" x="-3" y="-3"/><text class="lab" transform="translate(0 11)">2</text></g><path class="edge" d="M 0 0 V -79.72 H -38"/><circle class="sym" cx="0" cy="0" r="3"/><text class="lab rgt" transform="translate(3 -7)">4</text></g><circle class="sym" cx="0" cy="0" r="3"/><text class="lab" transform="translate(0 -11)">9</text></g></g></g></g></g></svg>