<?xml version="1.0" encoding="UTF-8" standalone="no"?>
<!DOCTYPE svg PUBLIC "-//W3C//DTD SVG 1.1//EN"
 "http://www.w3.org/Graphics/SVG/1.1/DTD/svg11.dtd">
<!-- Generated by graphviz version 13.1.2 (20250809.0930)
 -->
<!-- Title: snakemake_dag Pages: 1 -->
<svg width="1405pt" height="1196pt"
 viewBox="0.00 0.00 1405.00 1196.00" xmlns="http://www.w3.org/2000/svg" xmlns:xlink="http://www.w3.org/1999/xlink">
<g id="graph0" class="graph" transform="scale(1 1) rotate(0) translate(4 1192)">
<title>snakemake_dag</title>
<polygon fill="white" stroke="none" points="-4,4 -4,-1192 1401,-1192 1401,4 -4,4"/>
<!-- 0 -->
<g id="node1" class="node">
<title>0</title>
<path fill="none" stroke="#d85656" stroke-width="2" d="M582,-36C582,-36 552,-36 552,-36 546,-36 540,-30 540,-24 540,-24 540,-12 540,-12 540,-6 546,0 552,0 552,0 582,0 582,0 588,0 594,-6 594,-12 594,-12 594,-24 594,-24 594,-30 588,-36 582,-36"/>
<text xml:space="preserve" text-anchor="middle" x="567" y="-15.25" font-family="sans" font-size="10.00">all</text>
</g>
<!-- 1 -->
<g id="node2" class="node">
<title>1</title>
<path fill="none" stroke="#c6d856" stroke-width="2" d="M118,-180C118,-180 12,-180 12,-180 6,-180 0,-174 0,-168 0,-168 0,-156 0,-156 0,-150 6,-144 12,-144 12,-144 118,-144 118,-144 124,-144 130,-150 130,-156 130,-156 130,-168 130,-168 130,-174 124,-180 118,-180"/>
<text xml:space="preserve" text-anchor="middle" x="65" y="-159.25" font-family="sans" font-size="10.00">download_sraruninfo</text>
</g>
<!-- 1&#45;&gt;0 -->
<g id="edge1" class="edge">
<title>1&#45;&gt;0</title>
<path fill="none" stroke="grey" stroke-width="2" d="M54.17,-143.26C43.59,-123.4 31.43,-91.46 49,-72 80.83,-36.74 409.56,-23.65 526.21,-20.1"/>
<polygon fill="grey" stroke="grey" stroke-width="2" points="526.12,-23.6 536.02,-19.81 525.92,-16.6 526.12,-23.6"/>
</g>
<!-- 3 -->
<g id="node4" class="node">
<title>3</title>
<path fill="none" stroke="#56d863" stroke-width="2" d="M152,-108C152,-108 70,-108 70,-108 64,-108 58,-102 58,-96 58,-96 58,-84 58,-84 58,-78 64,-72 70,-72 70,-72 152,-72 152,-72 158,-72 164,-78 164,-84 164,-84 164,-96 164,-96 164,-102 158,-108 152,-108"/>
<text xml:space="preserve" text-anchor="middle" x="111" y="-87.25" font-family="sans" font-size="10.00">make_sampleinfo</text>
</g>
<!-- 1&#45;&gt;3 -->
<g id="edge14" class="edge">
<title>1&#45;&gt;3</title>
<path fill="none" stroke="grey" stroke-width="2" d="M76.61,-143.34C81.31,-136.18 86.87,-127.73 92.12,-119.73"/>
<polygon fill="grey" stroke="grey" stroke-width="2" points="95.01,-121.71 97.57,-111.43 89.16,-117.87 95.01,-121.71"/>
</g>
<!-- 2 -->
<g id="node3" class="node">
<title>2</title>
<path fill="none" stroke="#ced856" stroke-width="2" d="M714,-1188C714,-1188 602,-1188 602,-1188 596,-1188 590,-1182 590,-1176 590,-1176 590,-1164 590,-1164 590,-1158 596,-1152 602,-1152 602,-1152 714,-1152 714,-1152 720,-1152 726,-1158 726,-1164 726,-1164 726,-1176 726,-1176 726,-1182 720,-1188 714,-1188"/>
<text xml:space="preserve" text-anchor="middle" x="658" y="-1167.25" font-family="sans" font-size="10.00">download_datasources</text>
</g>
<!-- 2&#45;&gt;0 -->
<g id="edge11" class="edge">
<title>2&#45;&gt;0</title>
<path fill="none" stroke="grey" stroke-width="2" d="M589.36,-1165.31C493.35,-1159.19 324.69,-1144.67 271,-1116 224.34,-1091.09 192,-1079.89 192,-1027 192,-1027 192,-1027 192,-161 192,-90.11 429.36,-42.14 526.4,-25.49"/>
<polygon fill="grey" stroke="grey" stroke-width="2" points="526.85,-28.96 536.14,-23.85 525.69,-22.06 526.85,-28.96"/>
</g>
<!-- 4 -->
<g id="node5" class="node">
<title>4</title>
<path fill="none" stroke="#56d8b1" stroke-width="2" d="M372,-252C372,-252 302,-252 302,-252 296,-252 290,-246 290,-240 290,-240 290,-228 290,-228 290,-222 296,-216 302,-216 302,-216 372,-216 372,-216 378,-216 384,-222 384,-228 384,-228 384,-240 384,-240 384,-246 378,-252 372,-252"/>
<text xml:space="preserve" text-anchor="middle" x="337" y="-231.25" font-family="sans" font-size="10.00">repeat_masker</text>
</g>
<!-- 2&#45;&gt;4 -->
<g id="edge15" class="edge">
<title>2&#45;&gt;4</title>
<path fill="none" stroke="grey" stroke-width="2" d="M589.23,-1160.65C468.25,-1144.01 230,-1101.77 230,-1027 230,-1027 230,-1027 230,-377 230,-336.55 225.51,-320.93 249,-288 257.25,-276.44 268.88,-266.94 280.99,-259.34"/>
<polygon fill="grey" stroke="grey" stroke-width="2" points="282.63,-262.44 289.54,-254.41 279.13,-256.37 282.63,-262.44"/>
</g>
<!-- 7 -->
<g id="node8" class="node">
<title>7</title>
<path fill="none" stroke="#d87d56" stroke-width="2" d="M483,-900C483,-900 407,-900 407,-900 401,-900 395,-894 395,-888 395,-888 395,-876 395,-876 395,-870 401,-864 407,-864 407,-864 483,-864 483,-864 489,-864 495,-870 495,-876 495,-876 495,-888 495,-888 495,-894 489,-900 483,-900"/>
<text xml:space="preserve" text-anchor="middle" x="445" y="-879.25" font-family="sans" font-size="10.00">build_database</text>
</g>
<!-- 2&#45;&gt;7 -->
<g id="edge18" class="edge">
<title>2&#45;&gt;7</title>
<path fill="none" stroke="grey" stroke-width="2" d="M589.12,-1151.98C567.74,-1143.95 545.48,-1132.4 529,-1116 472.56,-1059.84 453.82,-963.03 447.77,-913.75"/>
<polygon fill="grey" stroke="grey" stroke-width="2" points="451.26,-913.47 446.69,-903.92 444.3,-914.24 451.26,-913.47"/>
</g>
<!-- 16 -->
<g id="node17" class="node">
<title>16</title>
<path fill="none" stroke="#5682d8" stroke-width="2" d="M961,-1116C961,-1116 831,-1116 831,-1116 825,-1116 819,-1110 819,-1104 819,-1104 819,-1092 819,-1092 819,-1086 825,-1080 831,-1080 831,-1080 961,-1080 961,-1080 967,-1080 973,-1086 973,-1092 973,-1092 973,-1104 973,-1104 973,-1110 967,-1116 961,-1116"/>
<text xml:space="preserve" text-anchor="middle" x="896" y="-1095.25" font-family="sans" font-size="10.00">subset_reference_to_roi</text>
</g>
<!-- 2&#45;&gt;16 -->
<g id="edge41" class="edge">
<title>2&#45;&gt;16</title>
<path fill="none" stroke="grey" stroke-width="2" d="M718.98,-1151.06C750.61,-1141.76 789.48,-1130.33 822.73,-1120.55"/>
<polygon fill="grey" stroke="grey" stroke-width="2" points="823.67,-1123.92 832.27,-1117.74 821.69,-1117.21 823.67,-1123.92"/>
</g>
<!-- 17 -->
<g id="node18" class="node">
<title>17</title>
<path fill="none" stroke="#56c1d8" stroke-width="2" d="M799,-1044C799,-1044 723,-1044 723,-1044 717,-1044 711,-1038 711,-1032 711,-1032 711,-1020 711,-1020 711,-1014 717,-1008 723,-1008 723,-1008 799,-1008 799,-1008 805,-1008 811,-1014 811,-1020 811,-1020 811,-1032 811,-1032 811,-1038 805,-1044 799,-1044"/>
<text xml:space="preserve" text-anchor="middle" x="761" y="-1023.25" font-family="sans" font-size="10.00">samtools_faidx</text>
</g>
<!-- 2&#45;&gt;17 -->
<g id="edge44" class="edge">
<title>2&#45;&gt;17</title>
<path fill="none" stroke="grey" stroke-width="2" d="M671.05,-1151.02C688.54,-1126.9 719.78,-1083.83 740.45,-1055.34"/>
<polygon fill="grey" stroke="grey" stroke-width="2" points="743.25,-1057.44 746.28,-1047.29 737.58,-1053.33 743.25,-1057.44"/>
</g>
<!-- 19 -->
<g id="node20" class="node">
<title>19</title>
<path fill="none" stroke="#d88d56" stroke-width="2" d="M681,-1044C681,-1044 635,-1044 635,-1044 629,-1044 623,-1038 623,-1032 623,-1032 623,-1020 623,-1020 623,-1014 629,-1008 635,-1008 635,-1008 681,-1008 681,-1008 687,-1008 693,-1014 693,-1020 693,-1020 693,-1032 693,-1032 693,-1038 687,-1044 681,-1044"/>
<text xml:space="preserve" text-anchor="middle" x="658" y="-1023.25" font-family="sans" font-size="10.00">bwa_index</text>
</g>
<!-- 2&#45;&gt;19 -->
<g id="edge46" class="edge">
<title>2&#45;&gt;19</title>
<path fill="none" stroke="grey" stroke-width="2" d="M658,-1151.02C658,-1127.54 658,-1086.11 658,-1057.64"/>
<polygon fill="grey" stroke="grey" stroke-width="2" points="661.5,-1057.87 658,-1047.87 654.5,-1057.87 661.5,-1057.87"/>
</g>
<!-- 23 -->
<g id="node24" class="node">
<title>23</title>
<path fill="none" stroke="#d89556" stroke-width="2" d="M612,-972C612,-972 524,-972 524,-972 518,-972 512,-966 512,-960 512,-960 512,-948 512,-948 512,-942 518,-936 524,-936 524,-936 612,-936 612,-936 618,-936 624,-942 624,-948 624,-948 624,-960 624,-960 624,-966 618,-972 612,-972"/>
<text xml:space="preserve" text-anchor="middle" x="568" y="-951.25" font-family="sans" font-size="10.00">bwa_mem_srrinput</text>
</g>
<!-- 2&#45;&gt;23 -->
<g id="edge52" class="edge">
<title>2&#45;&gt;23</title>
<path fill="none" stroke="grey" stroke-width="2" d="M621.94,-1151.12C585.51,-1130.81 531.36,-1093.88 508,-1044 501.21,-1029.51 501.42,-1022.59 508,-1008 512.6,-997.8 520.24,-988.78 528.55,-981.19"/>
<polygon fill="grey" stroke="grey" stroke-width="2" points="530.68,-983.98 536.15,-974.9 526.21,-978.59 530.68,-983.98"/>
</g>
<!-- 36 -->
<g id="node37" class="node">
<title>36</title>
<path fill="none" stroke="#59d856" stroke-width="2" d="M1353,-1044C1353,-1044 1301,-1044 1301,-1044 1295,-1044 1289,-1038 1289,-1032 1289,-1032 1289,-1020 1289,-1020 1289,-1014 1295,-1008 1301,-1008 1301,-1008 1353,-1008 1353,-1008 1359,-1008 1365,-1014 1365,-1020 1365,-1020 1365,-1032 1365,-1032 1365,-1038 1359,-1044 1353,-1044"/>
<text xml:space="preserve" text-anchor="middle" x="1327" y="-1023.25" font-family="sans" font-size="10.00">gff_to_roi</text>
</g>
<!-- 2&#45;&gt;36 -->
<g id="edge72" class="edge">
<title>2&#45;&gt;36</title>
<path fill="none" stroke="grey" stroke-width="2" d="M726.87,-1159.34C792.65,-1149.74 894.46,-1133.89 982,-1116 1014.85,-1109.29 1242.77,-1053.22 1275,-1044 1275.27,-1043.92 1275.54,-1043.85 1275.81,-1043.77"/>
<polygon fill="grey" stroke="grey" stroke-width="2" points="1276.73,-1047.15 1285.3,-1040.91 1274.71,-1040.44 1276.73,-1047.15"/>
</g>
<!-- 37 -->
<g id="node38" class="node">
<title>37</title>
<path fill="none" stroke="#d87556" stroke-width="2" d="M1267,-1116C1267,-1116 1155,-1116 1155,-1116 1149,-1116 1143,-1110 1143,-1104 1143,-1104 1143,-1092 1143,-1092 1143,-1086 1149,-1080 1155,-1080 1155,-1080 1267,-1080 1267,-1080 1273,-1080 1279,-1086 1279,-1092 1279,-1092 1279,-1104 1279,-1104 1279,-1110 1273,-1116 1267,-1116"/>
<text xml:space="preserve" text-anchor="middle" x="1211" y="-1095.25" font-family="sans" font-size="10.00">bedtools_genome_file</text>
</g>
<!-- 2&#45;&gt;37 -->
<g id="edge74" class="edge">
<title>2&#45;&gt;37</title>
<path fill="none" stroke="grey" stroke-width="2" d="M726.92,-1160.28C829.03,-1147.35 1020.14,-1123.16 1129.2,-1109.35"/>
<polygon fill="grey" stroke="grey" stroke-width="2" points="1129.6,-1112.83 1139.08,-1108.1 1128.72,-1105.89 1129.6,-1112.83"/>
</g>
<!-- 3&#45;&gt;0 -->
<g id="edge12" class="edge">
<title>3&#45;&gt;0</title>
<path fill="none" stroke="grey" stroke-width="2" d="M164.64,-74.82C169.14,-73.8 173.64,-72.85 178,-72 304.34,-47.45 455.95,-30.28 526.81,-22.96"/>
<polygon fill="grey" stroke="grey" stroke-width="2" points="526.87,-26.47 536.46,-21.98 526.16,-19.51 526.87,-26.47"/>
</g>
<!-- 4&#45;&gt;0 -->
<g id="edge4" class="edge">
<title>4&#45;&gt;0</title>
<path fill="none" stroke="grey" stroke-width="2" d="M332.16,-215.24C324.37,-182.29 313.37,-111.46 350,-72 373.63,-46.54 470.45,-30.76 526.45,-23.58"/>
<polygon fill="grey" stroke="grey" stroke-width="2" points="526.58,-27.09 536.07,-22.39 525.72,-20.14 526.58,-27.09"/>
</g>
<!-- 8 -->
<g id="node9" class="node">
<title>8</title>
<path fill="none" stroke="#56d8b9" stroke-width="2" d="M489,-108C489,-108 371,-108 371,-108 365,-108 359,-102 359,-96 359,-96 359,-84 359,-84 359,-78 365,-72 371,-72 371,-72 489,-72 489,-72 495,-72 501,-78 501,-84 501,-84 501,-96 501,-96 501,-102 495,-108 489,-108"/>
<text xml:space="preserve" text-anchor="middle" x="430" y="-87.25" font-family="sans" font-size="10.00">repeat_masker_combine</text>
</g>
<!-- 4&#45;&gt;8 -->
<g id="edge19" class="edge">
<title>4&#45;&gt;8</title>
<path fill="none" stroke="grey" stroke-width="2" d="M337.1,-215.18C338,-196.11 341.8,-165.68 356,-144 363.14,-133.09 373.37,-123.71 383.94,-116.01"/>
<polygon fill="grey" stroke="grey" stroke-width="2" points="385.69,-119.05 392.03,-110.56 381.78,-113.24 385.69,-119.05"/>
</g>
<!-- 9 -->
<g id="node10" class="node">
<title>9</title>
<path fill="none" stroke="#56d8c9" stroke-width="2" d="M489,-180C489,-180 377,-180 377,-180 371,-180 365,-174 365,-168 365,-168 365,-156 365,-156 365,-150 371,-144 377,-144 377,-144 489,-144 489,-144 495,-144 501,-150 501,-156 501,-156 501,-168 501,-168 501,-174 495,-180 489,-180"/>
<text xml:space="preserve" text-anchor="middle" x="433" y="-159.25" font-family="sans" font-size="10.00">repeat_masker_custom</text>
</g>
<!-- 4&#45;&gt;9 -->
<g id="edge22" class="edge">
<title>4&#45;&gt;9</title>
<path fill="none" stroke="grey" stroke-width="2" d="M361.47,-215.15C372.64,-207.01 386.07,-197.22 398.27,-188.33"/>
<polygon fill="grey" stroke="grey" stroke-width="2" points="400.11,-191.32 406.13,-182.6 395.98,-185.66 400.11,-191.32"/>
</g>
<!-- 5 -->
<g id="node6" class="node">
<title>5</title>
<path fill="none" stroke="#56d8d0" stroke-width="2" d="M466,-324C466,-324 270,-324 270,-324 264,-324 258,-318 258,-312 258,-312 258,-300 258,-300 258,-294 264,-288 270,-288 270,-288 466,-288 466,-288 472,-288 478,-294 478,-300 478,-300 478,-312 478,-312 478,-318 472,-324 466,-324"/>
<text xml:space="preserve" text-anchor="middle" x="368" y="-303.25" font-family="sans" font-size="10.00">repeat_masker_get_famdb_partition6</text>
</g>
<!-- 5&#45;&gt;4 -->
<g id="edge16" class="edge">
<title>5&#45;&gt;4</title>
<path fill="none" stroke="grey" stroke-width="2" d="M360.18,-287.34C357.12,-280.43 353.52,-272.31 350.09,-264.56"/>
<polygon fill="grey" stroke="grey" stroke-width="2" points="353.4,-263.4 346.15,-255.67 347,-266.23 353.4,-263.4"/>
</g>
<!-- 6 -->
<g id="node7" class="node">
<title>6</title>
<path fill="none" stroke="#56d8d8" stroke-width="2" d="M527,-252C527,-252 451,-252 451,-252 445,-252 439,-246 439,-240 439,-240 439,-228 439,-228 439,-222 445,-216 451,-216 451,-216 527,-216 527,-216 533,-216 539,-222 539,-228 539,-228 539,-240 539,-240 539,-246 533,-252 527,-252"/>
<text xml:space="preserve" text-anchor="middle" x="489" y="-231.25" font-family="sans" font-size="10.00">repeat_modeler</text>
</g>
<!-- 6&#45;&gt;0 -->
<g id="edge3" class="edge">
<title>6&#45;&gt;0</title>
<path fill="none" stroke="grey" stroke-width="2" d="M496.16,-215.4C500.3,-205.11 505.55,-191.86 510,-180 527.02,-134.61 545.55,-81.54 556.71,-49.1"/>
<polygon fill="grey" stroke="grey" stroke-width="2" points="559.97,-50.4 559.91,-39.81 553.35,-48.13 559.97,-50.4"/>
</g>
<!-- 6&#45;&gt;9 -->
<g id="edge21" class="edge">
<title>6&#45;&gt;9</title>
<path fill="none" stroke="grey" stroke-width="2" d="M474.87,-215.34C468.95,-207.93 461.91,-199.14 455.32,-190.9"/>
<polygon fill="grey" stroke="grey" stroke-width="2" points="458.19,-188.89 449.21,-183.27 452.73,-193.26 458.19,-188.89"/>
</g>
<!-- 7&#45;&gt;6 -->
<g id="edge17" class="edge">
<title>7&#45;&gt;6</title>
<path fill="none" stroke="grey" stroke-width="2" d="M445,-863.07C445,-836.13 445,-783.62 445,-739 445,-739 445,-739 445,-665 445,-512.3 475.94,-476.3 487,-324 488.41,-304.64 488.91,-282.84 489.07,-265.67"/>
<polygon fill="grey" stroke="grey" stroke-width="2" points="492.57,-265.8 489.11,-255.78 485.57,-265.77 492.57,-265.8"/>
</g>
<!-- 8&#45;&gt;0 -->
<g id="edge13" class="edge">
<title>8&#45;&gt;0</title>
<path fill="none" stroke="grey" stroke-width="2" d="M464.93,-71.15C484.05,-61.38 507.82,-49.24 527.61,-39.13"/>
<polygon fill="grey" stroke="grey" stroke-width="2" points="529.03,-42.33 536.34,-34.66 525.84,-36.1 529.03,-42.33"/>
</g>
<!-- 9&#45;&gt;8 -->
<g id="edge20" class="edge">
<title>9&#45;&gt;8</title>
<path fill="none" stroke="grey" stroke-width="2" d="M432.24,-143.34C431.96,-136.75 431.63,-129.08 431.31,-121.67"/>
<polygon fill="grey" stroke="grey" stroke-width="2" points="434.82,-121.77 430.9,-111.93 427.83,-122.07 434.82,-121.77"/>
</g>
<!-- 10 -->
<g id="node11" class="node">
<title>10</title>
<path fill="none" stroke="#d85e56" stroke-width="2" d="M1041,-252C1041,-252 965,-252 965,-252 959,-252 953,-246 953,-240 953,-240 953,-228 953,-228 953,-222 959,-216 965,-216 965,-216 1041,-216 1041,-216 1047,-216 1053,-222 1053,-228 1053,-228 1053,-240 1053,-240 1053,-246 1047,-252 1041,-252"/>
<text xml:space="preserve" text-anchor="middle" x="1003" y="-231.25" font-family="sans" font-size="10.00">bcftools_stats</text>
</g>
<!-- 10&#45;&gt;0 -->
<g id="edge7" class="edge">
<title>10&#45;&gt;0</title>
<path fill="none" stroke="grey" stroke-width="2" d="M997.05,-215.19C983.56,-175.27 950.88,-81.35 939,-72 888.27,-32.06 693.58,-22.2 607.89,-19.78"/>
<polygon fill="grey" stroke="grey" stroke-width="2" points="607.98,-16.28 597.9,-19.52 607.81,-23.28 607.98,-16.28"/>
</g>
<!-- 11 -->
<g id="node12" class="node">
<title>11</title>
<path fill="none" stroke="#d86e56" stroke-width="2" d="M1279,-324C1279,-324 1125,-324 1125,-324 1119,-324 1113,-318 1113,-312 1113,-312 1113,-300 1113,-300 1113,-294 1119,-288 1125,-288 1125,-288 1279,-288 1279,-288 1285,-288 1291,-294 1291,-300 1291,-300 1291,-312 1291,-312 1291,-318 1285,-324 1279,-324"/>
<text xml:space="preserve" text-anchor="middle" x="1202" y="-303.25" font-family="sans" font-size="10.00">bcftools_view_variant_sites</text>
</g>
<!-- 11&#45;&gt;10 -->
<g id="edge24" class="edge">
<title>11&#45;&gt;10</title>
<path fill="none" stroke="grey" stroke-width="2" d="M1151.01,-287.06C1125.15,-277.97 1093.49,-266.83 1066.1,-257.2"/>
<polygon fill="grey" stroke="grey" stroke-width="2" points="1067.31,-253.91 1056.71,-253.89 1064.98,-260.51 1067.31,-253.91"/>
</g>
<!-- 30 -->
<g id="node31" class="node">
<title>30</title>
<path fill="none" stroke="#566bd8" stroke-width="2" d="M1165,-252C1165,-252 1083,-252 1083,-252 1077,-252 1071,-246 1071,-240 1071,-240 1071,-228 1071,-228 1071,-222 1077,-216 1083,-216 1083,-216 1165,-216 1165,-216 1171,-216 1177,-222 1177,-228 1177,-228 1177,-240 1177,-240 1177,-246 1171,-252 1165,-252"/>
<text xml:space="preserve" text-anchor="middle" x="1124" y="-231.25" font-family="sans" font-size="10.00">vcftools_filter</text>
</g>
<!-- 11&#45;&gt;30 -->
<g id="edge63" class="edge">
<title>11&#45;&gt;30</title>
<path fill="none" stroke="grey" stroke-width="2" d="M1182.32,-287.34C1173.61,-279.52 1163.18,-270.16 1153.57,-261.53"/>
<polygon fill="grey" stroke="grey" stroke-width="2" points="1155.98,-259 1146.2,-254.92 1151.31,-264.21 1155.98,-259"/>
</g>
<!-- 33 -->
<g id="node34" class="node">
<title>33</title>
<path fill="none" stroke="#5673d8" stroke-width="2" d="M1277,-252C1277,-252 1207,-252 1207,-252 1201,-252 1195,-246 1195,-240 1195,-240 1195,-228 1195,-228 1195,-222 1201,-216 1207,-216 1207,-216 1277,-216 1277,-216 1283,-216 1289,-222 1289,-228 1289,-228 1289,-240 1289,-240 1289,-246 1283,-252 1277,-252"/>
<text xml:space="preserve" text-anchor="middle" x="1242" y="-231.25" font-family="sans" font-size="10.00">vcflib_subset</text>
</g>
<!-- 11&#45;&gt;33 -->
<g id="edge67" class="edge">
<title>11&#45;&gt;33</title>
<path fill="none" stroke="grey" stroke-width="2" d="M1212.09,-287.34C1216.14,-280.26 1220.9,-271.92 1225.43,-264"/>
<polygon fill="grey" stroke="grey" stroke-width="2" points="1228.35,-265.95 1230.27,-255.53 1222.27,-262.48 1228.35,-265.95"/>
</g>
<!-- 12 -->
<g id="node13" class="node">
<title>12</title>
<path fill="none" stroke="#78d856" stroke-width="2" d="M1319,-396C1319,-396 1213,-396 1213,-396 1207,-396 1201,-390 1201,-384 1201,-384 1201,-372 1201,-372 1201,-366 1207,-360 1213,-360 1213,-360 1319,-360 1319,-360 1325,-360 1331,-366 1331,-372 1331,-372 1331,-384 1331,-384 1331,-390 1325,-396 1319,-396"/>
<text xml:space="preserve" text-anchor="middle" x="1266" y="-375.25" font-family="sans" font-size="10.00">gatk_genotype_gvcfs</text>
</g>
<!-- 12&#45;&gt;10 -->
<g id="edge23" class="edge">
<title>12&#45;&gt;10</title>
<path fill="none" stroke="grey" stroke-width="2" d="M1200.13,-360.32C1159.37,-349.33 1111.4,-335 1093,-324 1066.3,-308.05 1041.61,-282.52 1024.87,-262.89"/>
<polygon fill="grey" stroke="grey" stroke-width="2" points="1027.65,-260.77 1018.58,-255.3 1022.26,-265.23 1027.65,-260.77"/>
</g>
<!-- 12&#45;&gt;11 -->
<g id="edge25" class="edge">
<title>12&#45;&gt;11</title>
<path fill="none" stroke="grey" stroke-width="2" d="M1249.85,-359.34C1242.93,-351.77 1234.69,-342.75 1227.01,-334.35"/>
<polygon fill="grey" stroke="grey" stroke-width="2" points="1229.74,-332.15 1220.41,-327.14 1224.57,-336.88 1229.74,-332.15"/>
</g>
<!-- 12&#45;&gt;30 -->
<g id="edge62" class="edge">
<title>12&#45;&gt;30</title>
<path fill="none" stroke="grey" stroke-width="2" d="M1200.1,-359.38C1157.96,-347.45 1110.08,-332.39 1104,-324 1091.42,-306.65 1097.73,-282.76 1106.48,-264.11"/>
<polygon fill="grey" stroke="grey" stroke-width="2" points="1109.49,-265.89 1111,-255.41 1103.28,-262.66 1109.49,-265.89"/>
</g>
<!-- 12&#45;&gt;33 -->
<g id="edge66" class="edge">
<title>12&#45;&gt;33</title>
<path fill="none" stroke="grey" stroke-width="2" d="M1281.26,-359.06C1294.73,-340.93 1310.68,-312.22 1300,-288 1295.53,-277.86 1288.06,-268.82 1279.94,-261.21"/>
<polygon fill="grey" stroke="grey" stroke-width="2" points="1282.43,-258.73 1272.56,-254.9 1277.89,-264.06 1282.43,-258.73"/>
</g>
<!-- 13 -->
<g id="node14" class="node">
<title>13</title>
<path fill="none" stroke="#88d856" stroke-width="2" d="M1273,-468C1273,-468 1173,-468 1173,-468 1167,-468 1161,-462 1161,-456 1161,-456 1161,-444 1161,-444 1161,-438 1167,-432 1173,-432 1173,-432 1273,-432 1273,-432 1279,-432 1285,-438 1285,-444 1285,-444 1285,-456 1285,-456 1285,-462 1279,-468 1273,-468"/>
<text xml:space="preserve" text-anchor="middle" x="1223" y="-447.25" font-family="sans" font-size="10.00">gatk_combine_gvcfs</text>
</g>
<!-- 13&#45;&gt;12 -->
<g id="edge26" class="edge">
<title>13&#45;&gt;12</title>
<path fill="none" stroke="grey" stroke-width="2" d="M1233.85,-431.34C1238.25,-424.18 1243.44,-415.73 1248.35,-407.73"/>
<polygon fill="grey" stroke="grey" stroke-width="2" points="1251.17,-409.83 1253.42,-399.48 1245.2,-406.17 1251.17,-409.83"/>
</g>
<!-- 14 -->
<g id="node15" class="node">
<title>14</title>
<path fill="none" stroke="#70d856" stroke-width="2" d="M1009,-540C1009,-540 897,-540 897,-540 891,-540 885,-534 885,-528 885,-528 885,-516 885,-516 885,-510 891,-504 897,-504 897,-504 1009,-504 1009,-504 1015,-504 1021,-510 1021,-516 1021,-516 1021,-528 1021,-528 1021,-534 1015,-540 1009,-540"/>
<text xml:space="preserve" text-anchor="middle" x="953" y="-519.25" font-family="sans" font-size="10.00">gatk_haplotypecaller</text>
</g>
<!-- 14&#45;&gt;13 -->
<g id="edge29" class="edge">
<title>14&#45;&gt;13</title>
<path fill="none" stroke="grey" stroke-width="2" d="M1021.83,-503.15C1060.32,-493.18 1108.34,-480.73 1147.81,-470.49"/>
<polygon fill="grey" stroke="grey" stroke-width="2" points="1148.57,-473.91 1157.37,-468.01 1146.81,-467.14 1148.57,-473.91"/>
</g>
<!-- 28 -->
<g id="node29" class="node">
<title>28</title>
<path fill="none" stroke="#9fd856" stroke-width="2" d="M913,-468C913,-468 789,-468 789,-468 783,-468 777,-462 777,-456 777,-456 777,-444 777,-444 777,-438 783,-432 789,-432 789,-432 913,-432 913,-432 919,-432 925,-438 925,-444 925,-444 925,-456 925,-456 925,-462 919,-468 913,-468"/>
<text xml:space="preserve" text-anchor="middle" x="851" y="-447.25" font-family="sans" font-size="10.00">gatk_base_recalibrator</text>
</g>
<!-- 14&#45;&gt;28 -->
<g id="edge59" class="edge">
<title>14&#45;&gt;28</title>
<path fill="none" stroke="grey" stroke-width="2" d="M927,-503.15C915.01,-494.93 900.57,-485.02 887.51,-476.06"/>
<polygon fill="grey" stroke="grey" stroke-width="2" points="889.68,-473.3 879.45,-470.53 885.72,-479.07 889.68,-473.3"/>
</g>
<!-- 43 -->
<g id="node44" class="node">
<title>43</title>
<path fill="none" stroke="#68d856" stroke-width="2" d="M1095,-396C1095,-396 893,-396 893,-396 887,-396 881,-390 881,-384 881,-384 881,-372 881,-372 881,-366 887,-360 893,-360 893,-360 1095,-360 1095,-360 1101,-360 1107,-366 1107,-372 1107,-372 1107,-384 1107,-384 1107,-390 1101,-396 1095,-396"/>
<text xml:space="preserve" text-anchor="middle" x="994" y="-375.25" font-family="sans" font-size="10.00">gatk_raw_or_bqsr_variant_filtration</text>
</g>
<!-- 14&#45;&gt;43 -->
<g id="edge87" class="edge">
<title>14&#45;&gt;43</title>
<path fill="none" stroke="grey" stroke-width="2" d="M958.19,-503.02C965,-479.44 977.04,-437.73 985.27,-409.25"/>
<polygon fill="grey" stroke="grey" stroke-width="2" points="988.6,-410.33 988.01,-399.75 981.87,-408.38 988.6,-410.33"/>
</g>
<!-- 15 -->
<g id="node16" class="node">
<title>15</title>
<path fill="none" stroke="#d8a456" stroke-width="2" d="M747,-684C747,-684 641,-684 641,-684 635,-684 629,-678 629,-672 629,-672 629,-660 629,-660 629,-654 635,-648 641,-648 641,-648 747,-648 747,-648 753,-648 759,-654 759,-660 759,-660 759,-672 759,-672 759,-678 753,-684 747,-684"/>
<text xml:space="preserve" text-anchor="middle" x="694" y="-663.25" font-family="sans" font-size="10.00">bwa_mem_ubam_to_roi</text>
</g>
<!-- 15&#45;&gt;14 -->
<g id="edge32" class="edge">
<title>15&#45;&gt;14</title>
<path fill="none" stroke="grey" stroke-width="2" d="M726.8,-647.02C773.12,-621.62 857.78,-575.21 909.36,-546.93"/>
<polygon fill="grey" stroke="grey" stroke-width="2" points="910.72,-550.17 917.81,-542.29 907.36,-544.03 910.72,-550.17"/>
</g>
<!-- 25 -->
<g id="node26" class="node">
<title>25</title>
<path fill="none" stroke="#56a9d8" stroke-width="2" d="M623,-612C623,-612 523,-612 523,-612 517,-612 511,-606 511,-600 511,-600 511,-588 511,-588 511,-582 517,-576 523,-576 523,-576 623,-576 623,-576 629,-576 635,-582 635,-588 635,-588 635,-600 635,-600 635,-606 629,-612 623,-612"/>
<text xml:space="preserve" text-anchor="middle" x="573" y="-591.25" font-family="sans" font-size="10.00">samtools_index_bam</text>
</g>
<!-- 15&#45;&gt;25 -->
<g id="edge53" class="edge">
<title>15&#45;&gt;25</title>
<path fill="none" stroke="grey" stroke-width="2" d="M657.18,-647.15C641.85,-638.76 624.15,-628.62 608.91,-619.52"/>
<polygon fill="grey" stroke="grey" stroke-width="2" points="610.78,-616.56 600.41,-614.38 607.16,-622.55 610.78,-616.56"/>
</g>
<!-- 29 -->
<g id="node30" class="node">
<title>29</title>
<path fill="none" stroke="#56d892" stroke-width="2" d="M817,-540C817,-540 693,-540 693,-540 687,-540 681,-534 681,-528 681,-528 681,-516 681,-516 681,-510 687,-504 693,-504 693,-504 817,-504 817,-504 823,-504 829,-510 829,-516 829,-516 829,-528 829,-528 829,-534 823,-540 817,-540"/>
<text xml:space="preserve" text-anchor="middle" x="755" y="-519.25" font-family="sans" font-size="10.00">picard_mark_duplicates</text>
</g>
<!-- 15&#45;&gt;29 -->
<g id="edge61" class="edge">
<title>15&#45;&gt;29</title>
<path fill="none" stroke="grey" stroke-width="2" d="M728.43,-647.14C741.45,-638.44 754.84,-626.66 762,-612 770.88,-593.82 768.88,-571.04 764.8,-553.08"/>
<polygon fill="grey" stroke="grey" stroke-width="2" points="768.24,-552.4 762.27,-543.64 761.47,-554.2 768.24,-552.4"/>
</g>
<!-- 40 -->
<g id="node41" class="node">
<title>40</title>
<path fill="none" stroke="#56d89a" stroke-width="2" d="M741,-612C741,-612 665,-612 665,-612 659,-612 653,-606 653,-600 653,-600 653,-588 653,-588 653,-582 659,-576 665,-576 665,-576 741,-576 741,-576 747,-576 753,-582 753,-588 753,-588 753,-600 753,-600 753,-606 747,-612 741,-612"/>
<text xml:space="preserve" text-anchor="middle" x="703" y="-591.25" font-family="sans" font-size="10.00">qualimap_bamqc</text>
</g>
<!-- 15&#45;&gt;40 -->
<g id="edge81" class="edge">
<title>15&#45;&gt;40</title>
<path fill="none" stroke="grey" stroke-width="2" d="M696.27,-647.34C697.12,-640.75 698.1,-633.08 699.06,-625.67"/>
<polygon fill="grey" stroke="grey" stroke-width="2" points="702.51,-626.27 700.31,-615.9 695.57,-625.38 702.51,-626.27"/>
</g>
<!-- 16&#45;&gt;12 -->
<g id="edge27" class="edge">
<title>16&#45;&gt;12</title>
<path fill="none" stroke="grey" stroke-width="2" d="M973.67,-1080.78C975.12,-1080.51 976.57,-1080.25 978,-1080 1032.41,-1070.39 1184.29,-1082.41 1224,-1044 1241.83,-1026.76 1258.49,-1098.03 1294,-468 1294.9,-452.03 1297.85,-447.53 1294,-432 1291.96,-423.78 1288.39,-415.43 1284.47,-407.87"/>
<polygon fill="grey" stroke="grey" stroke-width="2" points="1287.64,-406.37 1279.67,-399.39 1281.55,-409.81 1287.64,-406.37"/>
</g>
<!-- 16&#45;&gt;13 -->
<g id="edge28" class="edge">
<title>16&#45;&gt;13</title>
<path fill="none" stroke="grey" stroke-width="2" d="M973.67,-1080.81C975.13,-1080.53 976.57,-1080.26 978,-1080 1026.93,-1070.95 1162.07,-1077.35 1199,-1044 1229.41,-1016.54 1223,-995.97 1223,-955 1223,-955 1223,-955 1223,-593 1223,-554.65 1223,-510.48 1223,-481.72"/>
<polygon fill="grey" stroke="grey" stroke-width="2" points="1226.5,-481.96 1223,-471.96 1219.5,-481.96 1226.5,-481.96"/>
</g>
<!-- 16&#45;&gt;14 -->
<g id="edge34" class="edge">
<title>16&#45;&gt;14</title>
<path fill="none" stroke="grey" stroke-width="2" d="M897.77,-1079.19C905.88,-997.51 939.57,-658.22 949.95,-553.75"/>
<polygon fill="grey" stroke="grey" stroke-width="2" points="953.42,-554.19 950.92,-543.9 946.45,-553.5 953.42,-554.19"/>
</g>
<!-- 16&#45;&gt;15 -->
<g id="edge36" class="edge">
<title>16&#45;&gt;15</title>
<path fill="none" stroke="grey" stroke-width="2" d="M883,-1079.09C876.27,-1069.15 868.36,-1056.33 863,-1044 846.66,-1006.43 839,-995.97 839,-955 839,-955 839,-955 839,-809 839,-754.89 786.83,-714.6 745.07,-691.02"/>
<polygon fill="grey" stroke="grey" stroke-width="2" points="746.74,-687.95 736.28,-686.26 743.41,-694.1 746.74,-687.95"/>
</g>
<!-- 16&#45;&gt;17 -->
<g id="edge43" class="edge">
<title>16&#45;&gt;17</title>
<path fill="none" stroke="grey" stroke-width="2" d="M855.61,-1079.15C838.27,-1070.6 818.1,-1060.22 800.82,-1050.99"/>
<polygon fill="grey" stroke="grey" stroke-width="2" points="802.51,-1047.92 792.05,-1046.25 799.18,-1054.08 802.51,-1047.92"/>
</g>
<!-- 16&#45;&gt;19 -->
<g id="edge45" class="edge">
<title>16&#45;&gt;19</title>
<path fill="none" stroke="grey" stroke-width="2" d="M823.62,-1079.1C790.07,-1070.37 749.49,-1059.21 706.19,-1045.23"/>
<polygon fill="grey" stroke="grey" stroke-width="2" points="707.38,-1041.94 696.79,-1042.16 705.2,-1048.59 707.38,-1041.94"/>
</g>
<!-- 26 -->
<g id="node27" class="node">
<title>26</title>
<path fill="none" stroke="#56d882" stroke-width="2" d="M1145,-972C1145,-972 955,-972 955,-972 949,-972 943,-966 943,-960 943,-960 943,-948 943,-948 943,-942 949,-936 955,-936 955,-936 1145,-936 1145,-936 1151,-936 1157,-942 1157,-948 1157,-948 1157,-960 1157,-960 1157,-966 1151,-972 1145,-972"/>
<text xml:space="preserve" text-anchor="middle" x="1050" y="-951.25" font-family="sans" font-size="10.00">picard_create_sequence_dictionary</text>
</g>
<!-- 16&#45;&gt;26 -->
<g id="edge55" class="edge">
<title>16&#45;&gt;26</title>
<path fill="none" stroke="grey" stroke-width="2" d="M915.5,-1079.02C942.23,-1054.37 990.44,-1009.92 1021.3,-981.47"/>
<polygon fill="grey" stroke="grey" stroke-width="2" points="1023.45,-984.24 1028.43,-974.89 1018.7,-979.1 1023.45,-984.24"/>
</g>
<!-- 16&#45;&gt;28 -->
<g id="edge58" class="edge">
<title>16&#45;&gt;28</title>
<path fill="none" stroke="grey" stroke-width="2" d="M892.06,-1079.17C886.5,-1052.36 877,-1000.02 877,-955 877,-955 877,-955 877,-809 877,-687.59 861.94,-543.63 854.74,-481.76"/>
<polygon fill="grey" stroke="grey" stroke-width="2" points="858.22,-481.37 853.57,-471.85 851.27,-482.2 858.22,-481.37"/>
</g>
<!-- 42 -->
<g id="node43" class="node">
<title>42</title>
<path fill="none" stroke="#8fd856" stroke-width="2" d="M934,-324C934,-324 774,-324 774,-324 768,-324 762,-318 762,-312 762,-312 762,-300 762,-300 762,-294 768,-288 774,-288 774,-288 934,-288 934,-288 940,-288 946,-294 946,-300 946,-300 946,-312 946,-312 946,-318 940,-324 934,-324"/>
<text xml:space="preserve" text-anchor="middle" x="854" y="-303.25" font-family="sans" font-size="10.00">gatk_base_recalibrator_after</text>
</g>
<!-- 16&#45;&gt;42 -->
<g id="edge84" class="edge">
<title>16&#45;&gt;42</title>
<path fill="none" stroke="grey" stroke-width="2" d="M952.06,-1079.02C1023.76,-1054.77 1141.59,-1010.19 1166,-972 1174.62,-958.52 1166.69,-951.99 1166,-936 1163.22,-871.82 1158.79,-407.92 1116,-360 1105.14,-347.84 1027.28,-333.06 959.23,-322.2"/>
<polygon fill="grey" stroke="grey" stroke-width="2" points="960.07,-318.79 949.65,-320.69 958.99,-325.71 960.07,-318.79"/>
</g>
<!-- 17&#45;&gt;14 -->
<g id="edge30" class="edge">
<title>17&#45;&gt;14</title>
<path fill="none" stroke="grey" stroke-width="2" d="M769.48,-1007.08C781.22,-980.58 801,-929.1 801,-883 801,-883 801,-883 801,-809 801,-703.22 883.08,-598.47 926.61,-550.35"/>
<polygon fill="grey" stroke="grey" stroke-width="2" points="929.01,-552.91 933.21,-543.19 923.86,-548.16 929.01,-552.91"/>
</g>
<!-- 17&#45;&gt;16 -->
<g id="edge40" class="edge">
<title>17&#45;&gt;16</title>
<path fill="none" stroke="grey" stroke-width="2" d="M801.32,-1044.81C818.66,-1053.36 838.83,-1063.74 856.12,-1072.98"/>
<polygon fill="grey" stroke="grey" stroke-width="2" points="854.43,-1076.04 864.89,-1077.72 857.76,-1069.88 854.43,-1076.04"/>
</g>
<!-- 18 -->
<g id="node19" class="node">
<title>18</title>
<path fill="none" stroke="#56d85b" stroke-width="2" d="M1133,-1188C1133,-1188 1069,-1188 1069,-1188 1063,-1188 1057,-1182 1057,-1176 1057,-1176 1057,-1164 1057,-1164 1057,-1158 1063,-1152 1069,-1152 1069,-1152 1133,-1152 1133,-1152 1139,-1152 1145,-1158 1145,-1164 1145,-1164 1145,-1176 1145,-1176 1145,-1182 1139,-1188 1133,-1188"/>
<text xml:space="preserve" text-anchor="middle" x="1101" y="-1167.25" font-family="sans" font-size="10.00">make_roi_bed</text>
</g>
<!-- 18&#45;&gt;16 -->
<g id="edge42" class="edge">
<title>18&#45;&gt;16</title>
<path fill="none" stroke="grey" stroke-width="2" d="M1056.01,-1153.64C1028.02,-1144.08 991.57,-1131.63 960.53,-1121.04"/>
<polygon fill="grey" stroke="grey" stroke-width="2" points="961.95,-1117.82 951.36,-1117.9 959.69,-1124.45 961.95,-1117.82"/>
</g>
<!-- 18&#45;&gt;36 -->
<g id="edge73" class="edge">
<title>18&#45;&gt;36</title>
<path fill="none" stroke="grey" stroke-width="2" d="M1145.75,-1166.93C1187.17,-1162.78 1248.19,-1150.7 1288,-1116 1305.36,-1100.87 1315.29,-1076.57 1320.79,-1057.18"/>
<polygon fill="grey" stroke="grey" stroke-width="2" points="1324.14,-1058.21 1323.18,-1047.65 1317.35,-1056.5 1324.14,-1058.21"/>
</g>
<!-- 19&#45;&gt;15 -->
<g id="edge37" class="edge">
<title>19&#45;&gt;15</title>
<path fill="none" stroke="grey" stroke-width="2" d="M663.39,-1007.26C671,-980.56 684,-928.36 684,-883 684,-883 684,-883 684,-809 684,-770.56 687.69,-726.41 690.59,-697.68"/>
<polygon fill="grey" stroke="grey" stroke-width="2" points="694.05,-698.23 691.61,-687.91 687.09,-697.5 694.05,-698.23"/>
</g>
<!-- 19&#45;&gt;23 -->
<g id="edge51" class="edge">
<title>19&#45;&gt;23</title>
<path fill="none" stroke="grey" stroke-width="2" d="M635.29,-1007.34C624.92,-999.27 612.45,-989.57 601.07,-980.72"/>
<polygon fill="grey" stroke="grey" stroke-width="2" points="603.45,-978.14 593.41,-974.76 599.15,-983.66 603.45,-978.14"/>
</g>
<!-- 20 -->
<g id="node21" class="node">
<title>20</title>
<path fill="none" stroke="#56d8a9" stroke-width="2" d="M625,-756C625,-756 525,-756 525,-756 519,-756 513,-750 513,-744 513,-744 513,-732 513,-732 513,-726 519,-720 525,-720 525,-720 625,-720 625,-720 631,-720 637,-726 637,-732 637,-732 637,-744 637,-744 637,-750 631,-756 625,-756"/>
<text xml:space="preserve" text-anchor="middle" x="575" y="-735.25" font-family="sans" font-size="10.00">rename_ubam_sample</text>
</g>
<!-- 20&#45;&gt;15 -->
<g id="edge39" class="edge">
<title>20&#45;&gt;15</title>
<path fill="none" stroke="grey" stroke-width="2" d="M605.34,-719.15C619.74,-710.68 637.18,-700.42 652.77,-691.25"/>
<polygon fill="grey" stroke="grey" stroke-width="2" points="654.26,-694.43 661.11,-686.35 650.72,-688.4 654.26,-694.43"/>
</g>
<!-- 20&#45;&gt;25 -->
<g id="edge54" class="edge">
<title>20&#45;&gt;25</title>
<path fill="none" stroke="grey" stroke-width="2" d="M574.75,-719.02C574.42,-695.54 573.83,-654.11 573.43,-625.64"/>
<polygon fill="grey" stroke="grey" stroke-width="2" points="576.93,-625.81 573.29,-615.87 569.94,-625.91 576.93,-625.81"/>
</g>
<!-- 35 -->
<g id="node36" class="node">
<title>35</title>
<path fill="none" stroke="#56b9d8" stroke-width="2" d="M606,-540C606,-540 506,-540 506,-540 500,-540 494,-534 494,-528 494,-528 494,-516 494,-516 494,-510 500,-504 506,-504 506,-504 606,-504 606,-504 612,-504 618,-510 618,-516 618,-516 618,-528 618,-528 618,-534 612,-540 606,-540"/>
<text xml:space="preserve" text-anchor="middle" x="556" y="-519.25" font-family="sans" font-size="10.00">samtools_fastq_roi</text>
</g>
<!-- 20&#45;&gt;35 -->
<g id="edge69" class="edge">
<title>20&#45;&gt;35</title>
<path fill="none" stroke="grey" stroke-width="2" d="M560.54,-719.34C542.7,-696.3 513.36,-653.97 502,-612 497.82,-596.56 495.81,-590.75 502,-576 506.16,-566.1 513.17,-557.11 520.78,-549.47"/>
<polygon fill="grey" stroke="grey" stroke-width="2" points="522.97,-552.22 527.99,-542.89 518.24,-547.05 522.97,-552.22"/>
</g>
<!-- 21 -->
<g id="node22" class="node">
<title>21</title>
<path fill="none" stroke="#56d873" stroke-width="2" d="M622,-828C622,-828 528,-828 528,-828 522,-828 516,-822 516,-816 516,-816 516,-804 516,-804 516,-798 522,-792 528,-792 528,-792 622,-792 622,-792 628,-792 634,-798 634,-804 634,-804 634,-816 634,-816 634,-822 628,-828 622,-828"/>
<text xml:space="preserve" text-anchor="middle" x="575" y="-807.25" font-family="sans" font-size="10.00">make_ubam_for_roi</text>
</g>
<!-- 21&#45;&gt;20 -->
<g id="edge47" class="edge">
<title>21&#45;&gt;20</title>
<path fill="none" stroke="grey" stroke-width="2" d="M575,-791.34C575,-784.75 575,-777.08 575,-769.67"/>
<polygon fill="grey" stroke="grey" stroke-width="2" points="578.5,-769.93 575,-759.93 571.5,-769.93 578.5,-769.93"/>
</g>
<!-- 22 -->
<g id="node23" class="node">
<title>22</title>
<path fill="none" stroke="#568ad8" stroke-width="2" d="M625,-900C625,-900 525,-900 525,-900 519,-900 513,-894 513,-888 513,-888 513,-876 513,-876 513,-870 519,-864 525,-864 525,-864 625,-864 625,-864 631,-864 637,-870 637,-876 637,-876 637,-888 637,-888 637,-894 631,-900 625,-900"/>
<text xml:space="preserve" text-anchor="middle" x="575" y="-879.25" font-family="sans" font-size="10.00">subset_bam_for_roi</text>
</g>
<!-- 22&#45;&gt;21 -->
<g id="edge48" class="edge">
<title>22&#45;&gt;21</title>
<path fill="none" stroke="grey" stroke-width="2" d="M575,-863.34C575,-856.75 575,-849.08 575,-841.67"/>
<polygon fill="grey" stroke="grey" stroke-width="2" points="578.5,-841.93 575,-831.93 571.5,-841.93 578.5,-841.93"/>
</g>
<!-- 23&#45;&gt;22 -->
<g id="edge49" class="edge">
<title>23&#45;&gt;22</title>
<path fill="none" stroke="grey" stroke-width="2" d="M569.77,-935.34C570.42,-928.75 571.19,-921.08 571.93,-913.67"/>
<polygon fill="grey" stroke="grey" stroke-width="2" points="575.4,-914.21 572.91,-903.91 568.43,-913.52 575.4,-914.21"/>
</g>
<!-- 24 -->
<g id="node25" class="node">
<title>24</title>
<path fill="none" stroke="#56a2d8" stroke-width="2" d="M593,-1044C593,-1044 529,-1044 529,-1044 523,-1044 517,-1038 517,-1032 517,-1032 517,-1020 517,-1020 517,-1014 523,-1008 529,-1008 529,-1008 593,-1008 593,-1008 599,-1008 605,-1014 605,-1020 605,-1020 605,-1032 605,-1032 605,-1038 599,-1044 593,-1044"/>
<text xml:space="preserve" text-anchor="middle" x="561" y="-1023.25" font-family="sans" font-size="10.00">sra_prefetch</text>
</g>
<!-- 24&#45;&gt;23 -->
<g id="edge50" class="edge">
<title>24&#45;&gt;23</title>
<path fill="none" stroke="grey" stroke-width="2" d="M562.77,-1007.34C563.42,-1000.75 564.19,-993.08 564.93,-985.67"/>
<polygon fill="grey" stroke="grey" stroke-width="2" points="568.4,-986.21 565.91,-975.91 561.43,-985.52 568.4,-986.21"/>
</g>
<!-- 25&#45;&gt;14 -->
<g id="edge31" class="edge">
<title>25&#45;&gt;14</title>
<path fill="none" stroke="grey" stroke-width="2" d="M635.67,-577.76C638.48,-577.15 641.27,-576.56 644,-576 720.82,-560.23 809.04,-545.43 871.5,-535.49"/>
<polygon fill="grey" stroke="grey" stroke-width="2" points="871.71,-539 881.04,-533.98 870.62,-532.09 871.71,-539"/>
</g>
<!-- 25&#45;&gt;15 -->
<g id="edge38" class="edge">
<title>25&#45;&gt;15</title>
<path fill="none" stroke="grey" stroke-width="2" d="M609.76,-612.81C625.09,-621.2 642.78,-631.34 658.03,-640.44"/>
<polygon fill="grey" stroke="grey" stroke-width="2" points="656.17,-643.41 666.53,-645.59 659.79,-637.42 656.17,-643.41"/>
</g>
<!-- 25&#45;&gt;35 -->
<g id="edge70" class="edge">
<title>25&#45;&gt;35</title>
<path fill="none" stroke="grey" stroke-width="2" d="M568.71,-575.34C567.09,-568.67 565.2,-560.89 563.38,-553.39"/>
<polygon fill="grey" stroke="grey" stroke-width="2" points="566.82,-552.73 561.06,-543.84 560.02,-554.39 566.82,-552.73"/>
</g>
<!-- 26&#45;&gt;14 -->
<g id="edge33" class="edge">
<title>26&#45;&gt;14</title>
<path fill="none" stroke="grey" stroke-width="2" d="M1041.52,-935.08C1029.78,-908.58 1010,-857.1 1010,-811 1010,-811 1010,-811 1010,-665 1010,-623.39 988.66,-579.54 972.1,-551.77"/>
<polygon fill="grey" stroke="grey" stroke-width="2" points="975.2,-550.14 966.96,-543.48 969.25,-553.82 975.2,-550.14"/>
</g>
<!-- 27 -->
<g id="node28" class="node">
<title>27</title>
<path fill="none" stroke="#a7d856" stroke-width="2" d="M851,-396C851,-396 769,-396 769,-396 763,-396 757,-390 757,-384 757,-384 757,-372 757,-372 757,-366 763,-360 769,-360 769,-360 851,-360 851,-360 857,-360 863,-366 863,-372 863,-372 863,-384 863,-384 863,-390 857,-396 851,-396"/>
<text xml:space="preserve" text-anchor="middle" x="810" y="-375.25" font-family="sans" font-size="10.00">gatk_apply_bqsr</text>
</g>
<!-- 27&#45;&gt;14 -->
<g id="edge35" class="edge">
<title>27&#45;&gt;14</title>
<path fill="none" stroke="grey" stroke-width="2" d="M863.85,-396.46C892.75,-406.87 924.37,-420.3 934,-432 947.35,-448.22 951.96,-471.59 953.3,-490.31"/>
<polygon fill="grey" stroke="grey" stroke-width="2" points="949.8,-490.36 953.67,-500.22 956.8,-490.09 949.8,-490.36"/>
</g>
<!-- 27&#45;&gt;42 -->
<g id="edge85" class="edge">
<title>27&#45;&gt;42</title>
<path fill="none" stroke="grey" stroke-width="2" d="M821.1,-359.34C825.6,-352.18 830.91,-343.73 835.94,-335.73"/>
<polygon fill="grey" stroke="grey" stroke-width="2" points="838.78,-337.79 841.14,-327.46 832.85,-334.07 838.78,-337.79"/>
</g>
<!-- 28&#45;&gt;27 -->
<g id="edge56" class="edge">
<title>28&#45;&gt;27</title>
<path fill="none" stroke="grey" stroke-width="2" d="M840.65,-431.34C836.51,-424.26 831.63,-415.92 826.99,-408"/>
<polygon fill="grey" stroke="grey" stroke-width="2" points="830.09,-406.37 822.02,-399.51 824.05,-409.91 830.09,-406.37"/>
</g>
<!-- 41 -->
<g id="node42" class="node">
<title>41</title>
<path fill="none" stroke="#afd856" stroke-width="2" d="M861,-252C861,-252 731,-252 731,-252 725,-252 719,-246 719,-240 719,-240 719,-228 719,-228 719,-222 725,-216 731,-216 731,-216 861,-216 861,-216 867,-216 873,-222 873,-228 873,-228 873,-240 873,-240 873,-246 867,-252 861,-252"/>
<text xml:space="preserve" text-anchor="middle" x="796" y="-231.25" font-family="sans" font-size="10.00">gatk_analyze_covariates</text>
</g>
<!-- 28&#45;&gt;41 -->
<g id="edge82" class="edge">
<title>28&#45;&gt;41</title>
<path fill="none" stroke="grey" stroke-width="2" d="M790.21,-431.06C773.65,-423.08 757.64,-411.79 748,-396 739.84,-382.63 744.42,-309.77 753,-288 756.58,-278.91 762.32,-270.17 768.46,-262.5"/>
<polygon fill="grey" stroke="grey" stroke-width="2" points="771,-264.91 774.92,-255.07 765.72,-260.32 771,-264.91"/>
</g>
<!-- 29&#45;&gt;27 -->
<g id="edge57" class="edge">
<title>29&#45;&gt;27</title>
<path fill="none" stroke="grey" stroke-width="2" d="M754.92,-503.21C755.43,-484.7 757.97,-455.22 768,-432 771.9,-422.96 777.76,-414.15 783.87,-406.4"/>
<polygon fill="grey" stroke="grey" stroke-width="2" points="786.45,-408.76 790.24,-398.86 781.11,-404.24 786.45,-408.76"/>
</g>
<!-- 29&#45;&gt;28 -->
<g id="edge60" class="edge">
<title>29&#45;&gt;28</title>
<path fill="none" stroke="grey" stroke-width="2" d="M779.47,-503.15C790.64,-495.01 804.07,-485.22 816.27,-476.33"/>
<polygon fill="grey" stroke="grey" stroke-width="2" points="818.11,-479.32 824.13,-470.6 813.98,-473.66 818.11,-479.32"/>
</g>
<!-- 38 -->
<g id="node39" class="node">
<title>38</title>
<path fill="none" stroke="#56d87b" stroke-width="2" d="M701,-108C701,-108 643,-108 643,-108 637,-108 631,-102 631,-96 631,-96 631,-84 631,-84 631,-78 637,-72 643,-72 643,-72 701,-72 701,-72 707,-72 713,-78 713,-84 713,-84 713,-96 713,-96 713,-102 707,-108 701,-108"/>
<text xml:space="preserve" text-anchor="middle" x="672" y="-87.25" font-family="sans" font-size="10.00">multiqc_roi</text>
</g>
<!-- 29&#45;&gt;38 -->
<g id="edge79" class="edge">
<title>29&#45;&gt;38</title>
<path fill="none" stroke="grey" stroke-width="2" d="M741.11,-503.33C722.29,-477.54 691,-427.4 691,-379 691,-379 691,-379 691,-233 691,-194.31 683.99,-150.21 678.48,-121.56"/>
<polygon fill="grey" stroke="grey" stroke-width="2" points="681.92,-120.92 676.53,-111.8 675.06,-122.29 681.92,-120.92"/>
</g>
<!-- 30&#45;&gt;0 -->
<g id="edge10" class="edge">
<title>30&#45;&gt;0</title>
<path fill="none" stroke="grey" stroke-width="2" d="M1112.24,-215.23C1088.46,-180.93 1031,-106 962,-72 900.22,-41.56 695.68,-26.41 607.76,-21.18"/>
<polygon fill="grey" stroke="grey" stroke-width="2" points="608.14,-17.7 597.95,-20.61 607.73,-24.69 608.14,-17.7"/>
</g>
<!-- 31 -->
<g id="node32" class="node">
<title>31</title>
<path fill="none" stroke="#d8b456" stroke-width="2" d="M1385,-108C1385,-108 1225,-108 1225,-108 1219,-108 1213,-102 1213,-96 1213,-96 1213,-84 1213,-84 1213,-78 1219,-72 1225,-72 1225,-72 1385,-72 1385,-72 1391,-72 1397,-78 1397,-84 1397,-84 1397,-96 1397,-96 1397,-102 1391,-108 1385,-108"/>
<text xml:space="preserve" text-anchor="middle" x="1305" y="-87.25" font-family="sans" font-size="10.00">csvtk_compile_vcftools_stats</text>
</g>
<!-- 31&#45;&gt;0 -->
<g id="edge5" class="edge">
<title>31&#45;&gt;0</title>
<path fill="none" stroke="grey" stroke-width="2" d="M1212.04,-73.05C1209.33,-72.68 1206.65,-72.33 1204,-72 979.51,-43.82 708.57,-26.91 607.55,-21.19"/>
<polygon fill="grey" stroke="grey" stroke-width="2" points="607.92,-17.71 597.74,-20.64 607.53,-24.7 607.92,-17.71"/>
</g>
<!-- 32 -->
<g id="node33" class="node">
<title>32</title>
<path fill="none" stroke="#5663d8" stroke-width="2" d="M1215,-180C1215,-180 1139,-180 1139,-180 1133,-180 1127,-174 1127,-168 1127,-168 1127,-156 1127,-156 1127,-150 1133,-144 1139,-144 1139,-144 1215,-144 1215,-144 1221,-144 1227,-150 1227,-156 1227,-156 1227,-168 1227,-168 1227,-174 1221,-180 1215,-180"/>
<text xml:space="preserve" text-anchor="middle" x="1177" y="-159.25" font-family="sans" font-size="10.00">vcftools_stats</text>
</g>
<!-- 32&#45;&gt;31 -->
<g id="edge64" class="edge">
<title>32&#45;&gt;31</title>
<path fill="none" stroke="grey" stroke-width="2" d="M1209.63,-143.15C1225.28,-134.6 1244.25,-124.22 1261.14,-114.99"/>
<polygon fill="grey" stroke="grey" stroke-width="2" points="1262.68,-118.13 1269.77,-110.26 1259.32,-111.99 1262.68,-118.13"/>
</g>
<!-- 34 -->
<g id="node35" class="node">
<title>34</title>
<path fill="none" stroke="#d8c356" stroke-width="2" d="M1183,-108C1183,-108 1041,-108 1041,-108 1035,-108 1029,-102 1029,-96 1029,-96 1029,-84 1029,-84 1029,-78 1035,-72 1041,-72 1041,-72 1183,-72 1183,-72 1189,-72 1195,-78 1195,-84 1195,-84 1195,-96 1195,-96 1195,-102 1189,-108 1183,-108"/>
<text xml:space="preserve" text-anchor="middle" x="1112" y="-87.25" font-family="sans" font-size="10.00">csvtk_plot_vcftools_stats</text>
</g>
<!-- 32&#45;&gt;34 -->
<g id="edge68" class="edge">
<title>32&#45;&gt;34</title>
<path fill="none" stroke="grey" stroke-width="2" d="M1160.6,-143.34C1153.57,-135.77 1145.2,-126.75 1137.4,-118.35"/>
<polygon fill="grey" stroke="grey" stroke-width="2" points="1140.05,-116.07 1130.68,-111.12 1134.92,-120.83 1140.05,-116.07"/>
</g>
<!-- 32&#45;&gt;38 -->
<g id="edge77" class="edge">
<title>32&#45;&gt;38</title>
<path fill="none" stroke="grey" stroke-width="2" d="M1126.27,-153.97C1030.73,-140.73 824.94,-112.2 726.55,-98.56"/>
<polygon fill="grey" stroke="grey" stroke-width="2" points="727.07,-95.1 716.68,-97.19 726.11,-102.03 727.07,-95.1"/>
</g>
<!-- 33&#45;&gt;32 -->
<g id="edge65" class="edge">
<title>33&#45;&gt;32</title>
<path fill="none" stroke="grey" stroke-width="2" d="M1225.6,-215.34C1218.57,-207.77 1210.2,-198.75 1202.4,-190.35"/>
<polygon fill="grey" stroke="grey" stroke-width="2" points="1205.05,-188.07 1195.68,-183.12 1199.92,-192.83 1205.05,-188.07"/>
</g>
<!-- 34&#45;&gt;0 -->
<g id="edge8" class="edge">
<title>34&#45;&gt;0</title>
<path fill="none" stroke="grey" stroke-width="2" d="M1028.19,-74.01C1023.73,-73.31 1019.31,-72.63 1015,-72 865.2,-50.03 686.17,-31.02 607.48,-23.02"/>
<polygon fill="grey" stroke="grey" stroke-width="2" points="608.17,-19.58 597.87,-22.05 607.47,-26.54 608.17,-19.58"/>
</g>
<!-- 35&#45;&gt;0 -->
<g id="edge6" class="edge">
<title>35&#45;&gt;0</title>
<path fill="none" stroke="grey" stroke-width="2" d="M556.39,-503.13C558.02,-428.88 564.26,-144.14 566.33,-49.67"/>
<polygon fill="grey" stroke="grey" stroke-width="2" points="569.82,-50.01 566.54,-39.94 562.82,-49.86 569.82,-50.01"/>
</g>
<!-- 39 -->
<g id="node40" class="node">
<title>39</title>
<path fill="none" stroke="#bed856" stroke-width="2" d="M613,-468C613,-468 583,-468 583,-468 577,-468 571,-462 571,-456 571,-456 571,-444 571,-444 571,-438 577,-432 583,-432 583,-432 613,-432 613,-432 619,-432 625,-438 625,-444 625,-444 625,-456 625,-456 625,-462 619,-468 613,-468"/>
<text xml:space="preserve" text-anchor="middle" x="598" y="-447.25" font-family="sans" font-size="10.00">fastqc</text>
</g>
<!-- 35&#45;&gt;39 -->
<g id="edge80" class="edge">
<title>35&#45;&gt;39</title>
<path fill="none" stroke="grey" stroke-width="2" d="M566.6,-503.34C570.84,-496.26 575.85,-487.92 580.6,-480"/>
<polygon fill="grey" stroke="grey" stroke-width="2" points="583.56,-481.87 585.7,-471.5 577.56,-478.27 583.56,-481.87"/>
</g>
<!-- 36&#45;&gt;0 -->
<g id="edge9" class="edge">
<title>36&#45;&gt;0</title>
<path fill="none" stroke="grey" stroke-width="2" d="M1324.1,-1007.12C1320,-980.26 1313,-927.84 1313,-883 1313,-883 1313,-883 1313,-521 1313,-480.55 1320.7,-462.38 1294,-432 1262.27,-395.89 1235.09,-417.32 1192,-396 1165.81,-383.04 1162.94,-373.44 1137,-360 1098.38,-339.99 1084.26,-344.69 1046,-324 885.53,-237.23 881.62,-160.32 722,-72 685.37,-51.73 639.61,-37.25 607.33,-28.6"/>
<polygon fill="grey" stroke="grey" stroke-width="2" points="608.31,-25.23 597.75,-26.11 606.55,-32.01 608.31,-25.23"/>
</g>
<!-- 37&#45;&gt;36 -->
<g id="edge71" class="edge">
<title>37&#45;&gt;36</title>
<path fill="none" stroke="grey" stroke-width="2" d="M1240.57,-1079.15C1254.48,-1070.76 1271.28,-1060.62 1286.36,-1051.52"/>
<polygon fill="grey" stroke="grey" stroke-width="2" points="1288.14,-1054.54 1294.89,-1046.38 1284.52,-1048.55 1288.14,-1054.54"/>
</g>
<!-- 38&#45;&gt;0 -->
<g id="edge2" class="edge">
<title>38&#45;&gt;0</title>
<path fill="none" stroke="grey" stroke-width="2" d="M645.23,-71.15C632.77,-62.84 617.73,-52.82 604.18,-43.79"/>
<polygon fill="grey" stroke="grey" stroke-width="2" points="606.5,-41.13 596.24,-38.49 602.62,-46.95 606.5,-41.13"/>
</g>
<!-- 39&#45;&gt;38 -->
<g id="edge78" class="edge">
<title>39&#45;&gt;38</title>
<path fill="none" stroke="grey" stroke-width="2" d="M599.86,-431.09C602.5,-404.18 607,-351.71 607,-307 607,-307 607,-307 607,-233 607,-190.34 631.55,-146.49 650.47,-119.02"/>
<polygon fill="grey" stroke="grey" stroke-width="2" points="653.16,-121.27 656.13,-111.1 647.47,-117.2 653.16,-121.27"/>
</g>
<!-- 40&#45;&gt;38 -->
<g id="edge75" class="edge">
<title>40&#45;&gt;38</title>
<path fill="none" stroke="grey" stroke-width="2" d="M690.58,-575.09C684.2,-565.14 676.78,-552.32 672,-540 657.38,-502.29 653,-491.45 653,-451 653,-451 653,-451 653,-233 653,-194.31 660.01,-150.21 665.52,-121.56"/>
<polygon fill="grey" stroke="grey" stroke-width="2" points="668.94,-122.29 667.47,-111.8 662.08,-120.92 668.94,-122.29"/>
</g>
<!-- 41&#45;&gt;38 -->
<g id="edge76" class="edge">
<title>41&#45;&gt;38</title>
<path fill="none" stroke="grey" stroke-width="2" d="M780.3,-215.02C759.05,-190.69 720.96,-147.07 696.09,-118.58"/>
<polygon fill="grey" stroke="grey" stroke-width="2" points="698.78,-116.35 689.57,-111.12 693.51,-120.95 698.78,-116.35"/>
</g>
<!-- 42&#45;&gt;41 -->
<g id="edge83" class="edge">
<title>42&#45;&gt;41</title>
<path fill="none" stroke="grey" stroke-width="2" d="M839.36,-287.34C833.23,-279.93 825.95,-271.14 819.12,-262.9"/>
<polygon fill="grey" stroke="grey" stroke-width="2" points="821.84,-260.7 812.76,-255.23 816.45,-265.17 821.84,-260.7"/>
</g>
<!-- 43&#45;&gt;42 -->
<g id="edge86" class="edge">
<title>43&#45;&gt;42</title>
<path fill="none" stroke="grey" stroke-width="2" d="M958.31,-359.15C940.95,-350.47 919.85,-339.92 901.18,-330.59"/>
<polygon fill="grey" stroke="grey" stroke-width="2" points="902.84,-327.51 892.33,-326.17 899.71,-333.77 902.84,-327.51"/>
</g>
</g>
</svg>
