<?xml version="1.0" encoding="UTF-8" standalone="no"?>
<!DOCTYPE svg PUBLIC "-//W3C//DTD SVG 1.1//EN"
 "http://www.w3.org/Graphics/SVG/1.1/DTD/svg11.dtd">
<!-- Generated by graphviz version 2.43.0 (0)
 -->
<!-- Title: snakemake_dag Pages: 1 -->
<svg width="312pt" height="692pt"
 viewBox="0.00 0.00 312.00 692.00" xmlns="http://www.w3.org/2000/svg" xmlns:xlink="http://www.w3.org/1999/xlink">
<g id="graph0" class="graph" transform="scale(1 1) rotate(0) translate(4 688)">
<title>snakemake_dag</title>
<polygon fill="white" stroke="transparent" points="-4,4 -4,-688 308,-688 308,4 -4,4"/>
<!-- 0 -->
<g id="node1" class="node">
<title>0</title>
<path fill="none" stroke="#d85656" stroke-width="2" d="M180,-36C180,-36 150,-36 150,-36 144,-36 138,-30 138,-24 138,-24 138,-12 138,-12 138,-6 144,0 150,0 150,0 180,0 180,0 186,0 192,-6 192,-12 192,-12 192,-24 192,-24 192,-30 186,-36 180,-36"/>
<text text-anchor="middle" x="165" y="-15.5" font-family="sans" font-size="10.00">all</text>
</g>
<!-- 1 -->
<g id="node2" class="node">
<title>1</title>
<path fill="none" stroke="#56c1d8" stroke-width="2" d="M180,-108C180,-108 150,-108 150,-108 144,-108 138,-102 138,-96 138,-96 138,-84 138,-84 138,-78 144,-72 150,-72 150,-72 180,-72 180,-72 186,-72 192,-78 192,-84 192,-84 192,-96 192,-96 192,-102 186,-108 180,-108"/>
<text text-anchor="middle" x="165" y="-87.5" font-family="sans" font-size="10.00">ts_date</text>
</g>
<!-- 1&#45;&gt;0 -->
<g id="edge1" class="edge">
<title>1&#45;&gt;0</title>
<path fill="none" stroke="grey" stroke-width="2" d="M165,-71.7C165,-63.98 165,-54.71 165,-46.11"/>
<polygon fill="grey" stroke="grey" stroke-width="2" points="168.5,-46.1 165,-36.1 161.5,-46.1 168.5,-46.1"/>
</g>
<!-- 2 -->
<g id="node3" class="node">
<title>2</title>
<path fill="none" stroke="#56a9d8" stroke-width="2" d="M193,-180C193,-180 137,-180 137,-180 131,-180 125,-174 125,-168 125,-168 125,-156 125,-156 125,-150 131,-144 137,-144 137,-144 193,-144 193,-144 199,-144 205,-150 205,-156 205,-156 205,-168 205,-168 205,-174 199,-180 193,-180"/>
<text text-anchor="middle" x="165" y="-159.5" font-family="sans" font-size="10.00">ts_preprocess</text>
</g>
<!-- 2&#45;&gt;1 -->
<g id="edge2" class="edge">
<title>2&#45;&gt;1</title>
<path fill="none" stroke="grey" stroke-width="2" d="M165,-143.7C165,-135.98 165,-126.71 165,-118.11"/>
<polygon fill="grey" stroke="grey" stroke-width="2" points="168.5,-118.1 165,-108.1 161.5,-118.1 168.5,-118.1"/>
</g>
<!-- 3 -->
<g id="node4" class="node">
<title>3</title>
<path fill="none" stroke="#5692d8" stroke-width="2" d="M201,-252C201,-252 129,-252 129,-252 123,-252 117,-246 117,-240 117,-240 117,-228 117,-228 117,-222 123,-216 129,-216 129,-216 201,-216 201,-216 207,-216 213,-222 213,-228 213,-228 213,-240 213,-240 213,-246 207,-252 201,-252"/>
<text text-anchor="middle" x="165" y="-231.5" font-family="sans" font-size="10.00">tsinfer_inference</text>
</g>
<!-- 3&#45;&gt;2 -->
<g id="edge3" class="edge">
<title>3&#45;&gt;2</title>
<path fill="none" stroke="grey" stroke-width="2" d="M165,-215.7C165,-207.98 165,-198.71 165,-190.11"/>
<polygon fill="grey" stroke="grey" stroke-width="2" points="168.5,-190.1 165,-180.1 161.5,-190.1 168.5,-190.1"/>
</g>
<!-- 4 -->
<g id="node5" class="node">
<title>4</title>
<path fill="none" stroke="#5682d8" stroke-width="2" d="M121.5,-324C121.5,-324 82.5,-324 82.5,-324 76.5,-324 70.5,-318 70.5,-312 70.5,-312 70.5,-300 70.5,-300 70.5,-294 76.5,-288 82.5,-288 82.5,-288 121.5,-288 121.5,-288 127.5,-288 133.5,-294 133.5,-300 133.5,-300 133.5,-312 133.5,-312 133.5,-318 127.5,-324 121.5,-324"/>
<text text-anchor="middle" x="102" y="-303.5" font-family="sans" font-size="10.00">vcf_to_vcz</text>
</g>
<!-- 4&#45;&gt;3 -->
<g id="edge5" class="edge">
<title>4&#45;&gt;3</title>
<path fill="none" stroke="grey" stroke-width="2" d="M117.57,-287.7C125.2,-279.22 134.52,-268.86 142.88,-259.58"/>
<polygon fill="grey" stroke="grey" stroke-width="2" points="145.52,-261.88 149.61,-252.1 140.31,-257.2 145.52,-261.88"/>
</g>
<!-- 5 -->
<g id="node6" class="node">
<title>5</title>
<path fill="none" stroke="#c6d856" stroke-width="2" d="M136,-396C136,-396 68,-396 68,-396 62,-396 56,-390 56,-384 56,-384 56,-372 56,-372 56,-366 62,-360 68,-360 68,-360 136,-360 136,-360 142,-360 148,-366 148,-372 148,-372 148,-384 148,-384 148,-390 142,-396 136,-396"/>
<text text-anchor="middle" x="102" y="-375.5" font-family="sans" font-size="10.00">fastdfe_infer_aa</text>
</g>
<!-- 5&#45;&gt;4 -->
<g id="edge6" class="edge">
<title>5&#45;&gt;4</title>
<path fill="none" stroke="grey" stroke-width="2" d="M102,-359.7C102,-351.98 102,-342.71 102,-334.11"/>
<polygon fill="grey" stroke="grey" stroke-width="2" points="105.5,-334.1 102,-324.1 98.5,-334.1 105.5,-334.1"/>
</g>
<!-- 6 -->
<g id="node7" class="node">
<title>6</title>
<path fill="none" stroke="#56d8c9" stroke-width="2" d="M160,-468C160,-468 44,-468 44,-468 38,-468 32,-462 32,-456 32,-456 32,-444 32,-444 32,-438 38,-432 44,-432 44,-432 160,-432 160,-432 166,-432 172,-438 172,-444 172,-444 172,-456 172,-456 172,-462 166,-468 160,-468"/>
<text text-anchor="middle" x="102" y="-447.5" font-family="sans" font-size="10.00">reheader_shapeit4_output</text>
</g>
<!-- 6&#45;&gt;5 -->
<g id="edge7" class="edge">
<title>6&#45;&gt;5</title>
<path fill="none" stroke="grey" stroke-width="2" d="M102,-431.7C102,-423.98 102,-414.71 102,-406.11"/>
<polygon fill="grey" stroke="grey" stroke-width="2" points="105.5,-406.1 102,-396.1 98.5,-406.1 105.5,-406.1"/>
</g>
<!-- 7 -->
<g id="node8" class="node">
<title>7</title>
<path fill="none" stroke="#56d0d8" stroke-width="2" d="M171.5,-540C171.5,-540 106.5,-540 106.5,-540 100.5,-540 94.5,-534 94.5,-528 94.5,-528 94.5,-516 94.5,-516 94.5,-510 100.5,-504 106.5,-504 106.5,-504 171.5,-504 171.5,-504 177.5,-504 183.5,-510 183.5,-516 183.5,-516 183.5,-528 183.5,-528 183.5,-534 177.5,-540 171.5,-540"/>
<text text-anchor="middle" x="139" y="-519.5" font-family="sans" font-size="10.00">shapeit4_phase</text>
</g>
<!-- 7&#45;&gt;6 -->
<g id="edge9" class="edge">
<title>7&#45;&gt;6</title>
<path fill="none" stroke="grey" stroke-width="2" d="M129.85,-503.7C125.6,-495.64 120.44,-485.89 115.73,-476.98"/>
<polygon fill="grey" stroke="grey" stroke-width="2" points="118.81,-475.31 111.04,-468.1 112.62,-478.58 118.81,-475.31"/>
</g>
<!-- 8 -->
<g id="node9" class="node">
<title>8</title>
<path fill="none" stroke="#d86e56" stroke-width="2" d="M120,-612C120,-612 12,-612 12,-612 6,-612 0,-606 0,-600 0,-600 0,-588 0,-588 0,-582 6,-576 12,-576 12,-576 120,-576 120,-576 126,-576 132,-582 132,-588 132,-588 132,-600 132,-600 132,-606 126,-612 120,-612"/>
<text text-anchor="middle" x="66" y="-591.5" font-family="sans" font-size="10.00">bcftools_filter_to_biallelic</text>
</g>
<!-- 8&#45;&gt;6 -->
<g id="edge8" class="edge">
<title>8&#45;&gt;6</title>
<path fill="none" stroke="grey" stroke-width="2" d="M69.47,-575.85C73.2,-557.86 79.48,-528.81 86,-504 88.26,-495.41 90.97,-486.11 93.52,-477.74"/>
<polygon fill="grey" stroke="grey" stroke-width="2" points="96.89,-478.68 96.5,-468.1 90.2,-476.62 96.89,-478.68"/>
</g>
<!-- 8&#45;&gt;7 -->
<g id="edge10" class="edge">
<title>8&#45;&gt;7</title>
<path fill="none" stroke="grey" stroke-width="2" d="M84.04,-575.7C93.06,-567.05 104.12,-556.45 113.94,-547.03"/>
<polygon fill="grey" stroke="grey" stroke-width="2" points="116.37,-549.55 121.16,-540.1 111.52,-544.5 116.37,-549.55"/>
</g>
<!-- 9 -->
<g id="node10" class="node">
<title>9</title>
<path fill="none" stroke="#d87d56" stroke-width="2" d="M112.5,-684C112.5,-684 19.5,-684 19.5,-684 13.5,-684 7.5,-678 7.5,-672 7.5,-672 7.5,-660 7.5,-660 7.5,-654 13.5,-648 19.5,-648 19.5,-648 112.5,-648 112.5,-648 118.5,-648 124.5,-654 124.5,-660 124.5,-660 124.5,-672 124.5,-672 124.5,-678 118.5,-684 112.5,-684"/>
<text text-anchor="middle" x="66" y="-663.5" font-family="sans" font-size="10.00">bcftools_format_filter</text>
</g>
<!-- 9&#45;&gt;8 -->
<g id="edge12" class="edge">
<title>9&#45;&gt;8</title>
<path fill="none" stroke="grey" stroke-width="2" d="M66,-647.7C66,-639.98 66,-630.71 66,-622.11"/>
<polygon fill="grey" stroke="grey" stroke-width="2" points="69.5,-622.1 66,-612.1 62.5,-622.1 69.5,-622.1"/>
</g>
<!-- 10 -->
<g id="node11" class="node">
<title>10</title>
<path fill="none" stroke="#d8bc56" stroke-width="2" d="M254,-612C254,-612 162,-612 162,-612 156,-612 150,-606 150,-600 150,-600 150,-588 150,-588 150,-582 156,-576 162,-576 162,-576 254,-576 254,-576 260,-576 266,-582 266,-588 266,-588 266,-600 266,-600 266,-606 260,-612 254,-612"/>
<text text-anchor="middle" x="208" y="-591.5" font-family="sans" font-size="10.00">convert_genetic_map</text>
</g>
<!-- 10&#45;&gt;7 -->
<g id="edge11" class="edge">
<title>10&#45;&gt;7</title>
<path fill="none" stroke="grey" stroke-width="2" d="M190.94,-575.7C182.5,-567.14 172.18,-556.66 162.96,-547.3"/>
<polygon fill="grey" stroke="grey" stroke-width="2" points="165.37,-544.77 155.86,-540.1 160.39,-549.68 165.37,-544.77"/>
</g>
<!-- 11 -->
<g id="node12" class="node">
<title>11</title>
<path fill="none" stroke="#d8d356" stroke-width="2" d="M258.5,-684C258.5,-684 157.5,-684 157.5,-684 151.5,-684 145.5,-678 145.5,-672 145.5,-672 145.5,-660 145.5,-660 145.5,-654 151.5,-648 157.5,-648 157.5,-648 258.5,-648 258.5,-648 264.5,-648 270.5,-654 270.5,-660 270.5,-660 270.5,-672 270.5,-672 270.5,-678 264.5,-684 258.5,-684"/>
<text text-anchor="middle" x="208" y="-663.5" font-family="sans" font-size="10.00">download_genetic_map</text>
</g>
<!-- 11&#45;&gt;10 -->
<g id="edge13" class="edge">
<title>11&#45;&gt;10</title>
<path fill="none" stroke="grey" stroke-width="2" d="M208,-647.7C208,-639.98 208,-630.71 208,-622.11"/>
<polygon fill="grey" stroke="grey" stroke-width="2" points="211.5,-622.1 208,-612.1 204.5,-622.1 211.5,-622.1"/>
</g>
<!-- 12 -->
<g id="node13" class="node">
<title>12</title>
<path fill="none" stroke="#9fd856" stroke-width="2" d="M292,-324C292,-324 164,-324 164,-324 158,-324 152,-318 152,-312 152,-312 152,-300 152,-300 152,-294 158,-288 164,-288 164,-288 292,-288 292,-288 298,-288 304,-294 304,-300 304,-300 304,-312 304,-312 304,-318 298,-324 292,-324"/>
<text text-anchor="middle" x="228" y="-303.5" font-family="sans" font-size="10.00">make_sampleinfo_population</text>
</g>
<!-- 12&#45;&gt;3 -->
<g id="edge4" class="edge">
<title>12&#45;&gt;3</title>
<path fill="none" stroke="grey" stroke-width="2" d="M212.43,-287.7C204.8,-279.22 195.48,-268.86 187.12,-259.58"/>
<polygon fill="grey" stroke="grey" stroke-width="2" points="189.69,-257.2 180.39,-252.1 184.48,-261.88 189.69,-257.2"/>
</g>
<!-- 13 -->
<g id="node14" class="node">
<title>13</title>
<path fill="none" stroke="#78d856" stroke-width="2" d="M275.5,-396C275.5,-396 180.5,-396 180.5,-396 174.5,-396 168.5,-390 168.5,-384 168.5,-384 168.5,-372 168.5,-372 168.5,-366 174.5,-360 180.5,-360 180.5,-360 275.5,-360 275.5,-360 281.5,-360 287.5,-366 287.5,-372 287.5,-372 287.5,-384 287.5,-384 287.5,-390 281.5,-396 275.5,-396"/>
<text text-anchor="middle" x="228" y="-375.5" font-family="sans" font-size="10.00">make_tidy_sampleinfo</text>
</g>
<!-- 13&#45;&gt;12 -->
<g id="edge14" class="edge">
<title>13&#45;&gt;12</title>
<path fill="none" stroke="grey" stroke-width="2" d="M228,-359.7C228,-351.98 228,-342.71 228,-334.11"/>
<polygon fill="grey" stroke="grey" stroke-width="2" points="231.5,-334.1 228,-324.1 224.5,-334.1 231.5,-334.1"/>
</g>
</g>
</svg>
