<?xml version="1.0" encoding="UTF-8"?>
<svg xmlns="http://www.w3.org/2000/svg" xmlns:xlink="http://www.w3.org/1999/xlink" width="864" height="216" viewBox="0 0 864 216">
<defs>
<clipPath id="clip-0">
<path clip-rule="nonzero" d="M 17.933594 11.957031 L 852.046875 11.957031 L 852.046875 198.070312 L 17.933594 198.070312 Z M 17.933594 11.957031 "/>
</clipPath>
<clipPath id="clip-1">
<path clip-rule="nonzero" d="M 17.933594 11.957031 L 852.046875 11.957031 L 852.046875 198.070312 L 17.933594 198.070312 Z M 17.933594 11.957031 "/>
</clipPath>
</defs>
<rect x="-86.4" y="-21.6" width="1036.8" height="259.2" fill="rgb(100%, 100%, 100%)" fill-opacity="1"/>
<rect x="-86.4" y="-21.6" width="1036.8" height="259.2" fill="rgb(100%, 100%, 100%)" fill-opacity="1"/>
<path fill="none" stroke-width="2.327953" stroke-linecap="round" stroke-linejoin="round" stroke="rgb(100%, 100%, 100%)" stroke-opacity="1" stroke-miterlimit="10" d="M 0 216 L 864 216 L 864 0 L 0 0 Z M 0 216 "/>
<g clip-path="url(#clip-0)">
<path fill-rule="nonzero" fill="rgb(100%, 100%, 100%)" fill-opacity="1" d="M 17.933594 198.066406 L 852.046875 198.066406 L 852.046875 11.953125 L 17.933594 11.953125 Z M 17.933594 198.066406 "/>
</g>
<path fill="none" stroke-width="1.707165" stroke-linecap="butt" stroke-linejoin="round" stroke="rgb(82.745098%, 82.745098%, 82.745098%)" stroke-opacity="1" stroke-miterlimit="1" d="M 55.847656 20.414062 L 55.847656 189.609375 "/>
<path fill="none" stroke-width="1.707165" stroke-linecap="butt" stroke-linejoin="round" stroke="rgb(82.745098%, 82.745098%, 82.745098%)" stroke-opacity="1" stroke-miterlimit="1" d="M 207.503906 20.414062 L 207.503906 189.609375 "/>
<path fill="none" stroke-width="1.707165" stroke-linecap="butt" stroke-linejoin="round" stroke="rgb(82.745098%, 82.745098%, 82.745098%)" stroke-opacity="1" stroke-miterlimit="1" d="M 207.503906 20.414062 L 209.035156 22.125 L 210.566406 23.832031 L 212.097656 25.542969 L 213.632812 27.25 L 215.164062 28.960938 L 216.695312 30.667969 L 218.226562 32.378906 L 219.757812 34.085938 L 221.289062 35.796875 L 222.824219 37.503906 L 224.355469 39.214844 L 225.886719 40.921875 L 227.417969 42.632812 L 228.949219 44.339844 L 230.480469 46.050781 L 232.015625 47.757812 L 233.546875 49.46875 L 235.078125 51.175781 L 236.609375 52.886719 L 238.140625 54.59375 L 239.671875 56.304688 L 241.207031 58.011719 L 242.738281 59.722656 L 244.269531 61.429688 L 245.800781 63.140625 L 247.332031 64.847656 L 248.863281 66.558594 L 250.398438 68.265625 L 251.929688 69.976562 L 253.460938 71.683594 L 254.992188 73.394531 L 256.523438 75.101562 L 258.054688 76.8125 L 259.585938 78.519531 L 261.121094 80.230469 L 262.652344 81.941406 L 264.183594 83.648438 L 265.714844 85.359375 L 267.246094 87.066406 L 268.777344 88.777344 L 270.3125 90.484375 L 271.84375 92.195312 L 273.375 93.902344 L 274.90625 95.613281 L 276.4375 97.320312 L 277.96875 99.03125 L 279.503906 100.738281 L 281.035156 102.449219 L 282.566406 104.15625 L 284.097656 105.867188 L 285.628906 107.574219 L 287.160156 109.285156 L 288.695312 110.992188 L 290.226562 112.703125 L 291.757812 114.410156 L 293.289062 116.121094 L 294.820312 117.828125 L 296.351562 119.539062 L 297.886719 121.246094 L 299.417969 122.957031 L 300.949219 124.664062 L 302.480469 126.375 L 304.011719 128.082031 L 305.542969 129.792969 L 307.078125 131.5 L 308.609375 133.210938 L 310.140625 134.917969 L 311.671875 136.628906 L 313.203125 138.335938 L 314.734375 140.046875 L 316.269531 141.753906 L 317.800781 143.464844 L 319.332031 145.171875 L 320.863281 146.882812 L 322.394531 148.589844 L 323.925781 150.300781 L 325.457031 152.007812 L 326.992188 153.71875 L 328.523438 155.425781 L 330.054688 157.136719 L 331.585938 158.84375 L 333.117188 160.554688 L 334.648438 162.261719 L 336.183594 163.972656 L 337.714844 165.679688 L 339.246094 167.390625 L 340.777344 169.097656 L 342.308594 170.808594 L 343.839844 172.515625 L 345.375 174.226562 L 346.90625 175.933594 L 348.4375 177.644531 L 349.96875 179.351562 L 353.03125 182.773438 L 354.566406 184.480469 L 356.097656 186.191406 L 357.628906 187.898438 L 359.160156 189.609375 "/>
<path fill="none" stroke-width="1.707165" stroke-linecap="butt" stroke-linejoin="round" stroke="rgb(82.745098%, 82.745098%, 82.745098%)" stroke-opacity="1" stroke-miterlimit="1" d="M 359.160156 20.414062 L 360.691406 22.125 L 362.222656 23.832031 L 363.757812 25.542969 L 365.289062 27.25 L 366.820312 28.960938 L 368.351562 30.667969 L 369.882812 32.378906 L 371.414062 34.085938 L 372.949219 35.796875 L 374.480469 37.503906 L 376.011719 39.214844 L 377.542969 40.921875 L 379.074219 42.632812 L 380.605469 44.339844 L 382.140625 46.050781 L 383.671875 47.757812 L 385.203125 49.46875 L 386.734375 51.175781 L 388.265625 52.886719 L 389.796875 54.59375 L 391.328125 56.304688 L 392.863281 58.011719 L 394.394531 59.722656 L 395.925781 61.429688 L 397.457031 63.140625 L 398.988281 64.847656 L 400.519531 66.558594 L 402.054688 68.265625 L 403.585938 69.976562 L 405.117188 71.683594 L 406.648438 73.394531 L 408.179688 75.101562 L 409.710938 76.8125 L 411.246094 78.519531 L 414.308594 81.941406 L 415.839844 83.648438 L 417.371094 85.359375 L 418.902344 87.066406 L 420.4375 88.777344 L 421.96875 90.484375 L 423.5 92.195312 L 425.03125 93.902344 L 426.5625 95.613281 L 428.09375 97.320312 L 429.628906 99.03125 L 431.160156 100.738281 L 432.691406 102.449219 L 434.222656 104.15625 L 435.753906 105.867188 L 437.285156 107.574219 L 438.820312 109.285156 L 440.351562 110.992188 L 441.882812 112.703125 L 443.414062 114.410156 L 444.945312 116.121094 L 446.476562 117.828125 L 448.011719 119.539062 L 449.542969 121.246094 L 451.074219 122.957031 L 452.605469 124.664062 L 454.136719 126.375 L 455.667969 128.082031 L 457.199219 129.792969 L 458.734375 131.5 L 460.265625 133.210938 L 461.796875 134.917969 L 463.328125 136.628906 L 464.859375 138.335938 L 466.390625 140.046875 L 467.925781 141.753906 L 469.457031 143.464844 L 470.988281 145.171875 L 472.519531 146.882812 L 474.050781 148.589844 L 475.582031 150.300781 L 477.117188 152.007812 L 478.648438 153.71875 L 480.179688 155.425781 L 481.710938 157.136719 L 483.242188 158.84375 L 484.773438 160.554688 L 486.308594 162.261719 L 487.839844 163.972656 L 489.371094 165.679688 L 490.902344 167.390625 L 492.433594 169.097656 L 493.964844 170.808594 L 495.5 172.515625 L 497.03125 174.226562 L 498.5625 175.933594 L 500.09375 177.644531 L 501.625 179.351562 L 503.15625 181.0625 L 504.691406 182.773438 L 506.222656 184.480469 L 507.753906 186.191406 L 509.285156 187.898438 L 510.816406 189.609375 "/>
<path fill="none" stroke-width="1.707165" stroke-linecap="butt" stroke-linejoin="round" stroke="rgb(82.745098%, 82.745098%, 82.745098%)" stroke-opacity="1" stroke-miterlimit="1" d="M 510.816406 20.414062 L 512.347656 22.125 L 513.882812 23.832031 L 515.414062 25.542969 L 516.945312 27.25 L 518.476562 28.960938 L 520.007812 30.667969 L 521.539062 32.378906 L 523.070312 34.085938 L 524.605469 35.796875 L 526.136719 37.503906 L 527.667969 39.214844 L 529.199219 40.921875 L 530.730469 42.632812 L 532.261719 44.339844 L 533.796875 46.050781 L 535.328125 47.757812 L 536.859375 49.46875 L 538.390625 51.175781 L 539.921875 52.886719 L 541.453125 54.59375 L 542.988281 56.304688 L 544.519531 58.011719 L 546.050781 59.722656 L 547.582031 61.429688 L 549.113281 63.140625 L 550.644531 64.847656 L 552.179688 66.558594 L 553.710938 68.265625 L 555.242188 69.976562 L 556.773438 71.683594 L 558.304688 73.394531 L 559.835938 75.101562 L 561.371094 76.8125 L 562.902344 78.519531 L 565.964844 81.941406 L 567.496094 83.648438 L 569.027344 85.359375 L 570.5625 87.066406 L 572.09375 88.777344 L 573.625 90.484375 L 575.15625 92.195312 L 576.6875 93.902344 L 578.21875 95.613281 L 579.753906 97.320312 L 581.285156 99.03125 L 582.816406 100.738281 L 584.347656 102.449219 L 585.878906 104.15625 L 587.410156 105.867188 L 588.945312 107.574219 L 590.476562 109.285156 L 592.007812 110.992188 L 593.539062 112.703125 L 595.070312 114.410156 L 596.601562 116.121094 L 598.132812 117.828125 L 599.667969 119.539062 L 601.199219 121.246094 L 602.730469 122.957031 L 604.261719 124.664062 L 605.792969 126.375 L 607.324219 128.082031 L 608.859375 129.792969 L 610.390625 131.5 L 611.921875 133.210938 L 613.453125 134.917969 L 614.984375 136.628906 L 616.515625 138.335938 L 618.050781 140.046875 L 619.582031 141.753906 L 621.113281 143.464844 L 622.644531 145.171875 L 624.175781 146.882812 L 625.707031 148.589844 L 627.242188 150.300781 L 628.773438 152.007812 L 630.304688 153.71875 L 631.835938 155.425781 L 633.367188 157.136719 L 634.898438 158.84375 L 636.433594 160.554688 L 637.964844 162.261719 L 639.496094 163.972656 L 641.027344 165.679688 L 642.558594 167.390625 L 644.089844 169.097656 L 645.625 170.808594 L 647.15625 172.515625 L 648.6875 174.226562 L 650.21875 175.933594 L 651.75 177.644531 L 653.28125 179.351562 L 654.816406 181.0625 L 656.347656 182.773438 L 657.878906 184.480469 L 659.410156 186.191406 L 660.941406 187.898438 L 662.472656 189.609375 "/>
<path fill="none" stroke-width="1.707165" stroke-linecap="butt" stroke-linejoin="round" stroke="rgb(82.745098%, 82.745098%, 82.745098%)" stroke-opacity="1" stroke-miterlimit="1" d="M 662.472656 20.414062 L 664.003906 22.125 L 665.539062 23.832031 L 667.070312 25.542969 L 668.601562 27.25 L 670.132812 28.960938 L 671.664062 30.667969 L 673.195312 32.378906 L 674.730469 34.085938 L 676.261719 35.796875 L 677.792969 37.503906 L 679.324219 39.214844 L 680.855469 40.921875 L 682.386719 42.632812 L 683.921875 44.339844 L 685.453125 46.050781 L 686.984375 47.757812 L 688.515625 49.46875 L 690.046875 51.175781 L 691.578125 52.886719 L 693.113281 54.59375 L 694.644531 56.304688 L 696.175781 58.011719 L 697.707031 59.722656 L 699.238281 61.429688 L 700.769531 63.140625 L 702.304688 64.847656 L 703.835938 66.558594 L 705.367188 68.265625 L 706.898438 69.976562 L 708.429688 71.683594 L 709.960938 73.394531 L 711.496094 75.101562 L 713.027344 76.8125 L 714.558594 78.519531 L 717.621094 81.941406 L 719.152344 83.648438 L 720.6875 85.359375 L 722.21875 87.066406 L 723.75 88.777344 L 725.28125 90.484375 L 726.8125 92.195312 L 728.34375 93.902344 L 729.875 95.613281 L 731.410156 97.320312 L 732.941406 99.03125 L 734.472656 100.738281 L 736.003906 102.449219 L 737.535156 104.15625 L 739.066406 105.867188 L 740.601562 107.574219 L 742.132812 109.285156 L 743.664062 110.992188 L 745.195312 112.703125 L 746.726562 114.410156 L 748.257812 116.121094 L 749.792969 117.828125 L 751.324219 119.539062 L 752.855469 121.246094 L 754.386719 122.957031 L 755.917969 124.664062 L 757.449219 126.375 L 758.984375 128.082031 L 760.515625 129.792969 L 762.046875 131.5 L 763.578125 133.210938 L 765.109375 134.917969 L 766.640625 136.628906 L 768.175781 138.335938 L 769.707031 140.046875 L 771.238281 141.753906 L 772.769531 143.464844 L 774.300781 145.171875 L 775.832031 146.882812 L 777.367188 148.589844 L 778.898438 150.300781 L 780.429688 152.007812 L 781.960938 153.71875 L 783.492188 155.425781 L 785.023438 157.136719 L 786.558594 158.84375 L 788.089844 160.554688 L 789.621094 162.261719 L 791.152344 163.972656 L 792.683594 165.679688 L 794.214844 167.390625 L 795.746094 169.097656 L 797.28125 170.808594 L 798.8125 172.515625 L 800.34375 174.226562 L 801.875 175.933594 L 803.40625 177.644531 L 804.9375 179.351562 L 806.472656 181.0625 L 808.003906 182.773438 L 809.535156 184.480469 L 811.066406 186.191406 L 812.597656 187.898438 L 814.128906 189.609375 "/>
<path fill-rule="nonzero" fill="rgb(100%, 100%, 100%)" fill-opacity="1" stroke-width="0.708661" stroke-linecap="round" stroke-linejoin="round" stroke="rgb(0%, 0%, 0%)" stroke-opacity="1" stroke-miterlimit="10" d="M 62.601562 20.414062 C 62.601562 24.144531 59.578125 27.171875 55.847656 27.171875 C 52.117188 27.171875 49.089844 24.144531 49.089844 20.414062 C 49.089844 16.683594 52.117188 13.660156 55.847656 13.660156 C 59.578125 13.660156 62.601562 16.683594 62.601562 20.414062 "/>
<path fill-rule="nonzero" fill="rgb(100%, 100%, 100%)" fill-opacity="1" stroke-width="0.708661" stroke-linecap="round" stroke-linejoin="round" stroke="rgb(0%, 0%, 0%)" stroke-opacity="1" stroke-miterlimit="10" d="M 214.261719 20.414062 C 214.261719 24.144531 211.234375 27.171875 207.503906 27.171875 C 203.773438 27.171875 200.746094 24.144531 200.746094 20.414062 C 200.746094 16.683594 203.773438 13.660156 207.503906 13.660156 C 211.234375 13.660156 214.261719 16.683594 214.261719 20.414062 "/>
<path fill-rule="nonzero" fill="rgb(100%, 100%, 100%)" fill-opacity="1" stroke-width="0.708661" stroke-linecap="round" stroke-linejoin="round" stroke="rgb(0%, 0%, 0%)" stroke-opacity="1" stroke-miterlimit="10" d="M 365.917969 20.414062 C 365.917969 24.144531 362.890625 27.171875 359.160156 27.171875 C 355.429688 27.171875 352.402344 24.144531 352.402344 20.414062 C 352.402344 16.683594 355.429688 13.660156 359.160156 13.660156 C 362.890625 13.660156 365.917969 16.683594 365.917969 20.414062 "/>
<path fill-rule="nonzero" fill="rgb(100%, 100%, 100%)" fill-opacity="1" stroke-width="0.708661" stroke-linecap="round" stroke-linejoin="round" stroke="rgb(0%, 0%, 0%)" stroke-opacity="1" stroke-miterlimit="10" d="M 517.574219 20.414062 C 517.574219 24.144531 514.546875 27.171875 510.816406 27.171875 C 507.085938 27.171875 504.0625 24.144531 504.0625 20.414062 C 504.0625 16.683594 507.085938 13.660156 510.816406 13.660156 C 514.546875 13.660156 517.574219 16.683594 517.574219 20.414062 "/>
<path fill-rule="nonzero" fill="rgb(100%, 100%, 100%)" fill-opacity="1" stroke-width="0.708661" stroke-linecap="round" stroke-linejoin="round" stroke="rgb(0%, 0%, 0%)" stroke-opacity="1" stroke-miterlimit="10" d="M 669.230469 20.414062 C 669.230469 24.144531 666.207031 27.171875 662.472656 27.171875 C 658.742188 27.171875 655.71875 24.144531 655.71875 20.414062 C 655.71875 16.683594 658.742188 13.660156 662.472656 13.660156 C 666.207031 13.660156 669.230469 16.683594 669.230469 20.414062 "/>
<path fill-rule="nonzero" fill="rgb(100%, 100%, 100%)" fill-opacity="1" stroke-width="0.708661" stroke-linecap="round" stroke-linejoin="round" stroke="rgb(0%, 0%, 0%)" stroke-opacity="1" stroke-miterlimit="10" d="M 820.886719 20.414062 C 820.886719 24.144531 817.863281 27.171875 814.128906 27.171875 C 810.398438 27.171875 807.375 24.144531 807.375 20.414062 C 807.375 16.683594 810.398438 13.660156 814.128906 13.660156 C 817.863281 13.660156 820.886719 16.683594 820.886719 20.414062 "/>
<path fill-rule="nonzero" fill="rgb(100%, 100%, 100%)" fill-opacity="1" stroke-width="0.708661" stroke-linecap="round" stroke-linejoin="round" stroke="rgb(0%, 0%, 0%)" stroke-opacity="1" stroke-miterlimit="10" d="M 62.601562 189.609375 C 62.601562 193.339844 59.578125 196.363281 55.847656 196.363281 C 52.117188 196.363281 49.089844 193.339844 49.089844 189.609375 C 49.089844 185.875 52.117188 182.851562 55.847656 182.851562 C 59.578125 182.851562 62.601562 185.875 62.601562 189.609375 "/>
<path fill-rule="nonzero" fill="rgb(100%, 100%, 100%)" fill-opacity="1" stroke-width="0.708661" stroke-linecap="round" stroke-linejoin="round" stroke="rgb(0%, 0%, 0%)" stroke-opacity="1" stroke-miterlimit="10" d="M 214.261719 189.609375 C 214.261719 193.339844 211.234375 196.363281 207.503906 196.363281 C 203.773438 196.363281 200.746094 193.339844 200.746094 189.609375 C 200.746094 185.875 203.773438 182.851562 207.503906 182.851562 C 211.234375 182.851562 214.261719 185.875 214.261719 189.609375 "/>
<path fill-rule="nonzero" fill="rgb(100%, 100%, 100%)" fill-opacity="1" stroke-width="0.708661" stroke-linecap="round" stroke-linejoin="round" stroke="rgb(0%, 0%, 0%)" stroke-opacity="1" stroke-miterlimit="10" d="M 365.917969 189.609375 C 365.917969 193.339844 362.890625 196.363281 359.160156 196.363281 C 355.429688 196.363281 352.402344 193.339844 352.402344 189.609375 C 352.402344 185.875 355.429688 182.851562 359.160156 182.851562 C 362.890625 182.851562 365.917969 185.875 365.917969 189.609375 "/>
<path fill-rule="nonzero" fill="rgb(100%, 100%, 100%)" fill-opacity="1" stroke-width="0.708661" stroke-linecap="round" stroke-linejoin="round" stroke="rgb(0%, 0%, 0%)" stroke-opacity="1" stroke-miterlimit="10" d="M 517.574219 189.609375 C 517.574219 193.339844 514.546875 196.363281 510.816406 196.363281 C 507.085938 196.363281 504.0625 193.339844 504.0625 189.609375 C 504.0625 185.875 507.085938 182.851562 510.816406 182.851562 C 514.546875 182.851562 517.574219 185.875 517.574219 189.609375 "/>
<path fill-rule="nonzero" fill="rgb(100%, 100%, 100%)" fill-opacity="1" stroke-width="0.708661" stroke-linecap="round" stroke-linejoin="round" stroke="rgb(0%, 0%, 0%)" stroke-opacity="1" stroke-miterlimit="10" d="M 669.230469 189.609375 C 669.230469 193.339844 666.207031 196.363281 662.472656 196.363281 C 658.742188 196.363281 655.71875 193.339844 655.71875 189.609375 C 655.71875 185.875 658.742188 182.851562 662.472656 182.851562 C 666.207031 182.851562 669.230469 185.875 669.230469 189.609375 "/>
<path fill-rule="nonzero" fill="rgb(0%, 0%, 0%)" fill-opacity="1" stroke-width="0.708661" stroke-linecap="round" stroke-linejoin="round" stroke="rgb(0%, 0%, 0%)" stroke-opacity="1" stroke-miterlimit="10" d="M 820.886719 189.609375 C 820.886719 193.339844 817.863281 196.363281 814.128906 196.363281 C 810.398438 196.363281 807.375 193.339844 807.375 189.609375 C 807.375 185.875 810.398438 182.851562 814.128906 182.851562 C 817.863281 182.851562 820.886719 185.875 820.886719 189.609375 "/>
<g clip-path="url(#clip-1)">
<path fill="none" stroke-width="2.327953" stroke-linecap="round" stroke-linejoin="round" stroke="rgb(20%, 20%, 20%)" stroke-opacity="1" stroke-miterlimit="10" d="M 17.933594 198.066406 L 852.046875 198.066406 L 852.046875 11.953125 L 17.933594 11.953125 Z M 17.933594 198.066406 "/>
</g>
</svg>
