<?xml version="1.0" encoding="UTF-8"?>
<svg xmlns="http://www.w3.org/2000/svg" xmlns:xlink="http://www.w3.org/1999/xlink" width="864" height="216" viewBox="0 0 864 216">
<defs>
<clipPath id="clip-0">
<path clip-rule="nonzero" d="M 17.933594 11.957031 L 852.046875 11.957031 L 852.046875 198.070312 L 17.933594 198.070312 Z M 17.933594 11.957031 "/>
</clipPath>
<clipPath id="clip-1">
<path clip-rule="nonzero" d="M 17.933594 11.957031 L 852.046875 11.957031 L 852.046875 198.070312 L 17.933594 198.070312 Z M 17.933594 11.957031 "/>
</clipPath>
</defs>
<rect x="-86.4" y="-21.6" width="1036.8" height="259.2" fill="rgb(100%, 100%, 100%)" fill-opacity="1"/>
<rect x="-86.4" y="-21.6" width="1036.8" height="259.2" fill="rgb(100%, 100%, 100%)" fill-opacity="1"/>
<path fill="none" stroke-width="2.327953" stroke-linecap="round" stroke-linejoin="round" stroke="rgb(100%, 100%, 100%)" stroke-opacity="1" stroke-miterlimit="10" d="M 0 216 L 864 216 L 864 0 L 0 0 Z M 0 216 "/>
<g clip-path="url(#clip-0)">
<path fill-rule="nonzero" fill="rgb(100%, 100%, 100%)" fill-opacity="1" d="M 17.933594 198.066406 L 852.046875 198.066406 L 852.046875 11.953125 L 17.933594 11.953125 Z M 17.933594 198.066406 "/>
</g>
<path fill="none" stroke-width="1.707165" stroke-linecap="butt" stroke-linejoin="round" stroke="rgb(82.745098%, 82.745098%, 82.745098%)" stroke-opacity="1" stroke-miterlimit="1" d="M 55.847656 20.414062 L 55.847656 189.609375 "/>
<path fill="none" stroke-width="1.707165" stroke-linecap="butt" stroke-linejoin="round" stroke="rgb(82.745098%, 82.745098%, 82.745098%)" stroke-opacity="1" stroke-miterlimit="1" d="M 55.847656 20.414062 L 56.25 22.125 L 56.652344 23.832031 L 57.054688 25.542969 L 57.460938 27.25 L 57.863281 28.960938 L 58.265625 30.667969 L 58.667969 32.378906 L 59.070312 34.085938 L 59.476562 35.796875 L 59.878906 37.503906 L 60.28125 39.214844 L 60.683594 40.921875 L 61.085938 42.632812 L 61.492188 44.339844 L 61.894531 46.050781 L 62.296875 47.757812 L 62.699219 49.46875 L 63.101562 51.175781 L 63.507812 52.886719 L 63.910156 54.59375 L 64.3125 56.304688 L 64.714844 58.011719 L 65.117188 59.722656 L 65.523438 61.429688 L 65.925781 63.140625 L 66.328125 64.847656 L 66.730469 66.558594 L 67.132812 68.265625 L 67.539062 69.976562 L 67.941406 71.683594 L 68.34375 73.394531 L 68.746094 75.101562 L 69.148438 76.8125 L 69.554688 78.519531 L 70.359375 81.941406 L 70.761719 83.648438 L 71.164062 85.359375 L 71.570312 87.066406 L 71.972656 88.777344 L 72.375 90.484375 L 72.777344 92.195312 L 73.179688 93.902344 L 73.585938 95.613281 L 73.988281 97.320312 L 74.390625 99.03125 L 74.792969 100.738281 L 75.195312 102.449219 L 75.601562 104.15625 L 76.003906 105.867188 L 76.40625 107.574219 L 76.808594 109.285156 L 77.210938 110.992188 L 77.617188 112.703125 L 78.019531 114.410156 L 78.421875 116.121094 L 78.824219 117.828125 L 79.226562 119.539062 L 79.632812 121.246094 L 80.035156 122.957031 L 80.4375 124.664062 L 80.839844 126.375 L 81.242188 128.082031 L 81.648438 129.792969 L 82.050781 131.5 L 82.453125 133.210938 L 82.855469 134.917969 L 83.257812 136.628906 L 83.664062 138.335938 L 84.066406 140.046875 L 84.46875 141.753906 L 84.871094 143.464844 L 85.273438 145.171875 L 85.679688 146.882812 L 86.082031 148.589844 L 86.484375 150.300781 L 86.886719 152.007812 L 87.289062 153.71875 L 87.695312 155.425781 L 88.097656 157.136719 L 88.5 158.84375 L 88.902344 160.554688 L 89.304688 162.261719 L 89.710938 163.972656 L 90.113281 165.679688 L 90.515625 167.390625 L 90.917969 169.097656 L 91.320312 170.808594 L 91.726562 172.515625 L 92.128906 174.226562 L 92.53125 175.933594 L 92.933594 177.644531 L 93.335938 179.351562 L 93.742188 181.0625 L 94.144531 182.773438 L 94.546875 184.480469 L 94.949219 186.191406 L 95.351562 187.898438 L 95.757812 189.609375 "/>
<path fill="none" stroke-width="1.707165" stroke-linecap="butt" stroke-linejoin="round" stroke="rgb(82.745098%, 82.745098%, 82.745098%)" stroke-opacity="1" stroke-miterlimit="1" d="M 55.847656 20.414062 L 56.652344 22.125 L 57.460938 23.832031 L 58.265625 25.542969 L 59.070312 27.25 L 59.878906 28.960938 L 60.683594 30.667969 L 61.492188 32.378906 L 62.296875 34.085938 L 63.101562 35.796875 L 63.910156 37.503906 L 64.714844 39.214844 L 65.523438 40.921875 L 66.328125 42.632812 L 67.132812 44.339844 L 67.941406 46.050781 L 68.746094 47.757812 L 69.554688 49.46875 L 70.359375 51.175781 L 71.164062 52.886719 L 71.972656 54.59375 L 72.777344 56.304688 L 73.585938 58.011719 L 74.390625 59.722656 L 75.195312 61.429688 L 76.003906 63.140625 L 76.808594 64.847656 L 77.617188 66.558594 L 78.421875 68.265625 L 79.226562 69.976562 L 80.035156 71.683594 L 80.839844 73.394531 L 81.648438 75.101562 L 82.453125 76.8125 L 83.257812 78.519531 L 84.066406 80.230469 L 84.871094 81.941406 L 85.679688 83.648438 L 86.484375 85.359375 L 87.289062 87.066406 L 88.097656 88.777344 L 88.902344 90.484375 L 89.710938 92.195312 L 90.515625 93.902344 L 91.320312 95.613281 L 92.128906 97.320312 L 92.933594 99.03125 L 93.742188 100.738281 L 94.546875 102.449219 L 95.351562 104.15625 L 96.160156 105.867188 L 96.964844 107.574219 L 97.773438 109.285156 L 98.578125 110.992188 L 99.382812 112.703125 L 100.191406 114.410156 L 100.996094 116.121094 L 101.804688 117.828125 L 102.609375 119.539062 L 103.417969 121.246094 L 104.222656 122.957031 L 105.027344 124.664062 L 105.835938 126.375 L 106.640625 128.082031 L 107.449219 129.792969 L 108.253906 131.5 L 109.058594 133.210938 L 109.867188 134.917969 L 110.671875 136.628906 L 111.480469 138.335938 L 112.285156 140.046875 L 113.089844 141.753906 L 113.898438 143.464844 L 114.703125 145.171875 L 115.511719 146.882812 L 116.316406 148.589844 L 117.121094 150.300781 L 117.929688 152.007812 L 118.734375 153.71875 L 119.542969 155.425781 L 120.347656 157.136719 L 121.152344 158.84375 L 121.960938 160.554688 L 122.765625 162.261719 L 123.574219 163.972656 L 124.378906 165.679688 L 125.183594 167.390625 L 125.992188 169.097656 L 126.796875 170.808594 L 127.605469 172.515625 L 128.410156 174.226562 L 129.214844 175.933594 L 130.023438 177.644531 L 130.828125 179.351562 L 131.636719 181.0625 L 132.441406 182.773438 L 133.246094 184.480469 L 134.054688 186.191406 L 134.859375 187.898438 L 135.667969 189.609375 "/>
<path fill="none" stroke-width="1.707165" stroke-linecap="butt" stroke-linejoin="round" stroke="rgb(82.745098%, 82.745098%, 82.745098%)" stroke-opacity="1" stroke-miterlimit="1" d="M 95.757812 20.414062 L 96.5625 22.125 L 97.367188 23.832031 L 98.175781 25.542969 L 98.980469 27.25 L 99.789062 28.960938 L 100.59375 30.667969 L 101.402344 32.378906 L 102.207031 34.085938 L 103.011719 35.796875 L 103.820312 37.503906 L 104.625 39.214844 L 105.433594 40.921875 L 106.238281 42.632812 L 107.042969 44.339844 L 107.851562 46.050781 L 108.65625 47.757812 L 109.464844 49.46875 L 110.269531 51.175781 L 111.074219 52.886719 L 111.882812 54.59375 L 112.6875 56.304688 L 113.496094 58.011719 L 114.300781 59.722656 L 115.105469 61.429688 L 115.914062 63.140625 L 116.71875 64.847656 L 117.527344 66.558594 L 118.332031 68.265625 L 119.136719 69.976562 L 119.945312 71.683594 L 120.75 73.394531 L 121.558594 75.101562 L 122.363281 76.8125 L 123.167969 78.519531 L 123.976562 80.230469 L 124.78125 81.941406 L 125.589844 83.648438 L 126.394531 85.359375 L 127.199219 87.066406 L 128.007812 88.777344 L 128.8125 90.484375 L 129.621094 92.195312 L 130.425781 93.902344 L 131.230469 95.613281 L 132.039062 97.320312 L 132.84375 99.03125 L 133.652344 100.738281 L 134.457031 102.449219 L 135.261719 104.15625 L 136.070312 105.867188 L 136.875 107.574219 L 137.683594 109.285156 L 138.488281 110.992188 L 139.292969 112.703125 L 140.101562 114.410156 L 140.90625 116.121094 L 141.714844 117.828125 L 142.519531 119.539062 L 143.324219 121.246094 L 144.132812 122.957031 L 144.9375 124.664062 L 145.746094 126.375 L 146.550781 128.082031 L 147.355469 129.792969 L 148.164062 131.5 L 148.96875 133.210938 L 149.777344 134.917969 L 150.582031 136.628906 L 151.386719 138.335938 L 152.195312 140.046875 L 153 141.753906 L 153.808594 143.464844 L 154.613281 145.171875 L 155.417969 146.882812 L 156.226562 148.589844 L 157.03125 150.300781 L 157.839844 152.007812 L 158.644531 153.71875 L 159.449219 155.425781 L 160.257812 157.136719 L 161.0625 158.84375 L 161.871094 160.554688 L 162.675781 162.261719 L 163.480469 163.972656 L 164.289062 165.679688 L 165.09375 167.390625 L 165.902344 169.097656 L 166.707031 170.808594 L 167.511719 172.515625 L 168.320312 174.226562 L 169.125 175.933594 L 169.933594 177.644531 L 170.738281 179.351562 L 171.542969 181.0625 L 172.351562 182.773438 L 173.15625 184.480469 L 173.964844 186.191406 L 174.769531 187.898438 L 175.574219 189.609375 "/>
<path fill="none" stroke-width="1.707165" stroke-linecap="butt" stroke-linejoin="round" stroke="rgb(82.745098%, 82.745098%, 82.745098%)" stroke-opacity="1" stroke-miterlimit="1" d="M 135.667969 20.414062 L 136.472656 22.125 L 137.277344 23.832031 L 138.085938 25.542969 L 138.890625 27.25 L 139.699219 28.960938 L 140.503906 30.667969 L 141.308594 32.378906 L 142.117188 34.085938 L 142.921875 35.796875 L 143.730469 37.503906 L 144.535156 39.214844 L 145.339844 40.921875 L 146.148438 42.632812 L 146.953125 44.339844 L 147.761719 46.050781 L 148.566406 47.757812 L 149.371094 49.46875 L 150.179688 51.175781 L 150.984375 52.886719 L 151.792969 54.59375 L 152.597656 56.304688 L 153.402344 58.011719 L 154.210938 59.722656 L 155.015625 61.429688 L 155.824219 63.140625 L 156.628906 64.847656 L 157.433594 66.558594 L 158.242188 68.265625 L 159.046875 69.976562 L 159.855469 71.683594 L 160.660156 73.394531 L 161.464844 75.101562 L 162.273438 76.8125 L 163.078125 78.519531 L 163.886719 80.230469 L 164.691406 81.941406 L 165.496094 83.648438 L 166.304688 85.359375 L 167.109375 87.066406 L 167.917969 88.777344 L 168.722656 90.484375 L 169.527344 92.195312 L 170.335938 93.902344 L 171.140625 95.613281 L 171.949219 97.320312 L 172.753906 99.03125 L 173.558594 100.738281 L 174.367188 102.449219 L 175.171875 104.15625 L 175.980469 105.867188 L 176.785156 107.574219 L 177.589844 109.285156 L 178.398438 110.992188 L 179.203125 112.703125 L 180.011719 114.410156 L 180.816406 116.121094 L 181.621094 117.828125 L 182.429688 119.539062 L 183.234375 121.246094 L 184.042969 122.957031 L 184.847656 124.664062 L 185.652344 126.375 L 186.460938 128.082031 L 187.265625 129.792969 L 188.074219 131.5 L 188.878906 133.210938 L 189.683594 134.917969 L 190.492188 136.628906 L 191.296875 138.335938 L 192.105469 140.046875 L 192.910156 141.753906 L 193.714844 143.464844 L 194.523438 145.171875 L 195.328125 146.882812 L 196.136719 148.589844 L 196.941406 150.300781 L 197.746094 152.007812 L 198.554688 153.71875 L 199.359375 155.425781 L 200.167969 157.136719 L 200.972656 158.84375 L 201.777344 160.554688 L 202.585938 162.261719 L 203.390625 163.972656 L 204.199219 165.679688 L 205.003906 167.390625 L 205.808594 169.097656 L 206.617188 170.808594 L 207.421875 172.515625 L 208.230469 174.226562 L 209.035156 175.933594 L 209.84375 177.644531 L 210.648438 179.351562 L 211.453125 181.0625 L 212.261719 182.773438 L 213.066406 184.480469 L 213.875 186.191406 L 214.679688 187.898438 L 215.484375 189.609375 "/>
<path fill="none" stroke-width="1.707165" stroke-linecap="butt" stroke-linejoin="round" stroke="rgb(82.745098%, 82.745098%, 82.745098%)" stroke-opacity="1" stroke-miterlimit="1" d="M 255.394531 20.414062 L 255.394531 189.609375 "/>
<path fill="none" stroke-width="1.707165" stroke-linecap="butt" stroke-linejoin="round" stroke="rgb(82.745098%, 82.745098%, 82.745098%)" stroke-opacity="1" stroke-miterlimit="1" d="M 255.394531 20.414062 L 255.796875 22.125 L 256.203125 23.832031 L 256.605469 25.542969 L 257.007812 27.25 L 257.410156 28.960938 L 257.8125 30.667969 L 258.21875 32.378906 L 258.621094 34.085938 L 259.023438 35.796875 L 259.425781 37.503906 L 259.828125 39.214844 L 260.234375 40.921875 L 260.636719 42.632812 L 261.039062 44.339844 L 261.441406 46.050781 L 261.84375 47.757812 L 262.25 49.46875 L 262.652344 51.175781 L 263.054688 52.886719 L 263.457031 54.59375 L 263.859375 56.304688 L 264.265625 58.011719 L 264.667969 59.722656 L 265.070312 61.429688 L 265.472656 63.140625 L 265.875 64.847656 L 266.28125 66.558594 L 266.683594 68.265625 L 267.085938 69.976562 L 267.488281 71.683594 L 267.890625 73.394531 L 268.296875 75.101562 L 268.699219 76.8125 L 269.101562 78.519531 L 269.90625 81.941406 L 270.3125 83.648438 L 270.714844 85.359375 L 271.117188 87.066406 L 271.519531 88.777344 L 271.921875 90.484375 L 272.328125 92.195312 L 272.730469 93.902344 L 273.132812 95.613281 L 273.535156 97.320312 L 273.9375 99.03125 L 274.34375 100.738281 L 274.746094 102.449219 L 275.148438 104.15625 L 275.550781 105.867188 L 275.953125 107.574219 L 276.359375 109.285156 L 276.761719 110.992188 L 277.164062 112.703125 L 277.566406 114.410156 L 277.96875 116.121094 L 278.375 117.828125 L 278.777344 119.539062 L 279.179688 121.246094 L 279.582031 122.957031 L 279.984375 124.664062 L 280.390625 126.375 L 280.792969 128.082031 L 281.195312 129.792969 L 281.597656 131.5 L 282 133.210938 L 282.40625 134.917969 L 282.808594 136.628906 L 283.210938 138.335938 L 283.613281 140.046875 L 284.015625 141.753906 L 284.421875 143.464844 L 284.824219 145.171875 L 285.226562 146.882812 L 285.628906 148.589844 L 286.03125 150.300781 L 286.4375 152.007812 L 286.839844 153.71875 L 287.242188 155.425781 L 287.644531 157.136719 L 288.046875 158.84375 L 288.453125 160.554688 L 288.855469 162.261719 L 289.257812 163.972656 L 289.660156 165.679688 L 290.0625 167.390625 L 290.46875 169.097656 L 290.871094 170.808594 L 291.273438 172.515625 L 291.675781 174.226562 L 292.078125 175.933594 L 292.484375 177.644531 L 292.886719 179.351562 L 293.691406 182.773438 L 294.09375 184.480469 L 294.5 186.191406 L 294.902344 187.898438 L 295.304688 189.609375 "/>
<path fill="none" stroke-width="1.707165" stroke-linecap="butt" stroke-linejoin="round" stroke="rgb(82.745098%, 82.745098%, 82.745098%)" stroke-opacity="1" stroke-miterlimit="1" d="M 295.304688 20.414062 L 295.707031 22.125 L 296.109375 23.832031 L 296.515625 25.542969 L 296.917969 27.25 L 297.320312 28.960938 L 297.722656 30.667969 L 298.125 32.378906 L 298.53125 34.085938 L 298.933594 35.796875 L 299.335938 37.503906 L 299.738281 39.214844 L 300.140625 40.921875 L 300.546875 42.632812 L 300.949219 44.339844 L 301.351562 46.050781 L 301.753906 47.757812 L 302.15625 49.46875 L 302.5625 51.175781 L 302.964844 52.886719 L 303.367188 54.59375 L 303.769531 56.304688 L 304.171875 58.011719 L 304.578125 59.722656 L 304.980469 61.429688 L 305.382812 63.140625 L 305.785156 64.847656 L 306.1875 66.558594 L 306.59375 68.265625 L 306.996094 69.976562 L 307.398438 71.683594 L 307.800781 73.394531 L 308.203125 75.101562 L 308.609375 76.8125 L 309.011719 78.519531 L 309.816406 81.941406 L 310.21875 83.648438 L 310.625 85.359375 L 311.027344 87.066406 L 311.429688 88.777344 L 311.832031 90.484375 L 312.234375 92.195312 L 312.640625 93.902344 L 313.042969 95.613281 L 313.445312 97.320312 L 313.847656 99.03125 L 314.253906 100.738281 L 314.65625 102.449219 L 315.058594 104.15625 L 315.460938 105.867188 L 315.863281 107.574219 L 316.269531 109.285156 L 316.671875 110.992188 L 317.074219 112.703125 L 317.476562 114.410156 L 317.878906 116.121094 L 318.285156 117.828125 L 318.6875 119.539062 L 319.089844 121.246094 L 319.492188 122.957031 L 319.894531 124.664062 L 320.300781 126.375 L 320.703125 128.082031 L 321.105469 129.792969 L 321.507812 131.5 L 321.910156 133.210938 L 322.316406 134.917969 L 322.71875 136.628906 L 323.121094 138.335938 L 323.523438 140.046875 L 323.925781 141.753906 L 324.332031 143.464844 L 324.734375 145.171875 L 325.136719 146.882812 L 325.539062 148.589844 L 325.941406 150.300781 L 326.347656 152.007812 L 326.75 153.71875 L 327.152344 155.425781 L 327.554688 157.136719 L 327.957031 158.84375 L 328.363281 160.554688 L 328.765625 162.261719 L 329.167969 163.972656 L 329.570312 165.679688 L 329.972656 167.390625 L 330.378906 169.097656 L 330.78125 170.808594 L 331.183594 172.515625 L 331.585938 174.226562 L 331.988281 175.933594 L 332.394531 177.644531 L 332.796875 179.351562 L 333.601562 182.773438 L 334.003906 184.480469 L 334.410156 186.191406 L 334.8125 187.898438 L 335.214844 189.609375 "/>
<path fill="none" stroke-width="1.707165" stroke-linecap="butt" stroke-linejoin="round" stroke="rgb(82.745098%, 82.745098%, 82.745098%)" stroke-opacity="1" stroke-miterlimit="1" d="M 335.214844 20.414062 L 335.617188 22.125 L 336.019531 23.832031 L 336.425781 25.542969 L 336.828125 27.25 L 337.230469 28.960938 L 337.632812 30.667969 L 338.035156 32.378906 L 338.441406 34.085938 L 338.84375 35.796875 L 339.246094 37.503906 L 339.648438 39.214844 L 340.050781 40.921875 L 340.457031 42.632812 L 340.859375 44.339844 L 341.261719 46.050781 L 341.664062 47.757812 L 342.066406 49.46875 L 342.472656 51.175781 L 342.875 52.886719 L 343.277344 54.59375 L 343.679688 56.304688 L 344.082031 58.011719 L 344.488281 59.722656 L 344.890625 61.429688 L 345.292969 63.140625 L 345.695312 64.847656 L 346.097656 66.558594 L 346.503906 68.265625 L 346.90625 69.976562 L 347.308594 71.683594 L 347.710938 73.394531 L 348.113281 75.101562 L 348.519531 76.8125 L 348.921875 78.519531 L 349.726562 81.941406 L 350.128906 83.648438 L 350.535156 85.359375 L 350.9375 87.066406 L 351.339844 88.777344 L 351.742188 90.484375 L 352.144531 92.195312 L 352.550781 93.902344 L 352.953125 95.613281 L 353.355469 97.320312 L 353.757812 99.03125 L 354.160156 100.738281 L 354.566406 102.449219 L 354.96875 104.15625 L 355.371094 105.867188 L 355.773438 107.574219 L 356.175781 109.285156 L 356.582031 110.992188 L 356.984375 112.703125 L 357.386719 114.410156 L 357.789062 116.121094 L 358.191406 117.828125 L 358.597656 119.539062 L 359 121.246094 L 359.402344 122.957031 L 359.804688 124.664062 L 360.207031 126.375 L 360.613281 128.082031 L 361.015625 129.792969 L 361.417969 131.5 L 361.820312 133.210938 L 362.222656 134.917969 L 362.628906 136.628906 L 363.03125 138.335938 L 363.433594 140.046875 L 363.835938 141.753906 L 364.238281 143.464844 L 364.644531 145.171875 L 365.046875 146.882812 L 365.449219 148.589844 L 365.851562 150.300781 L 366.253906 152.007812 L 366.660156 153.71875 L 367.0625 155.425781 L 367.464844 157.136719 L 367.867188 158.84375 L 368.269531 160.554688 L 368.675781 162.261719 L 369.078125 163.972656 L 369.480469 165.679688 L 369.882812 167.390625 L 370.285156 169.097656 L 370.691406 170.808594 L 371.09375 172.515625 L 371.496094 174.226562 L 371.898438 175.933594 L 372.300781 177.644531 L 372.707031 179.351562 L 373.511719 182.773438 L 373.914062 184.480469 L 374.316406 186.191406 L 374.722656 187.898438 L 375.125 189.609375 "/>
<path fill="none" stroke-width="1.707165" stroke-linecap="butt" stroke-linejoin="round" stroke="rgb(82.745098%, 82.745098%, 82.745098%)" stroke-opacity="1" stroke-miterlimit="1" d="M 335.214844 20.414062 L 336.019531 22.125 L 336.828125 23.832031 L 337.632812 25.542969 L 338.441406 27.25 L 339.246094 28.960938 L 340.050781 30.667969 L 340.859375 32.378906 L 341.664062 34.085938 L 342.472656 35.796875 L 343.277344 37.503906 L 344.082031 39.214844 L 344.890625 40.921875 L 345.695312 42.632812 L 346.503906 44.339844 L 347.308594 46.050781 L 348.113281 47.757812 L 348.921875 49.46875 L 349.726562 51.175781 L 350.535156 52.886719 L 351.339844 54.59375 L 352.144531 56.304688 L 352.953125 58.011719 L 353.757812 59.722656 L 354.566406 61.429688 L 355.371094 63.140625 L 356.175781 64.847656 L 356.984375 66.558594 L 357.789062 68.265625 L 358.597656 69.976562 L 359.402344 71.683594 L 360.207031 73.394531 L 361.015625 75.101562 L 361.820312 76.8125 L 362.628906 78.519531 L 364.238281 81.941406 L 365.046875 83.648438 L 365.851562 85.359375 L 366.660156 87.066406 L 367.464844 88.777344 L 368.269531 90.484375 L 369.078125 92.195312 L 369.882812 93.902344 L 370.691406 95.613281 L 371.496094 97.320312 L 372.300781 99.03125 L 373.109375 100.738281 L 373.914062 102.449219 L 374.722656 104.15625 L 375.527344 105.867188 L 376.332031 107.574219 L 377.140625 109.285156 L 377.945312 110.992188 L 378.753906 112.703125 L 379.558594 114.410156 L 380.363281 116.121094 L 381.171875 117.828125 L 381.976562 119.539062 L 382.785156 121.246094 L 383.589844 122.957031 L 384.394531 124.664062 L 385.203125 126.375 L 386.007812 128.082031 L 386.816406 129.792969 L 387.621094 131.5 L 388.425781 133.210938 L 389.234375 134.917969 L 390.039062 136.628906 L 390.847656 138.335938 L 391.652344 140.046875 L 392.457031 141.753906 L 393.265625 143.464844 L 394.070312 145.171875 L 394.878906 146.882812 L 395.683594 148.589844 L 396.488281 150.300781 L 397.296875 152.007812 L 398.101562 153.71875 L 398.910156 155.425781 L 399.714844 157.136719 L 400.519531 158.84375 L 401.328125 160.554688 L 402.132812 162.261719 L 402.941406 163.972656 L 403.746094 165.679688 L 404.550781 167.390625 L 405.359375 169.097656 L 406.164062 170.808594 L 406.972656 172.515625 L 407.777344 174.226562 L 408.582031 175.933594 L 409.390625 177.644531 L 410.195312 179.351562 L 411.003906 181.0625 L 411.808594 182.773438 L 412.613281 184.480469 L 413.421875 186.191406 L 414.226562 187.898438 L 415.035156 189.609375 "/>
<path fill="none" stroke-width="1.707165" stroke-linecap="butt" stroke-linejoin="round" stroke="rgb(82.745098%, 82.745098%, 82.745098%)" stroke-opacity="1" stroke-miterlimit="1" d="M 415.035156 20.414062 L 415.4375 22.125 L 415.839844 23.832031 L 416.242188 25.542969 L 416.644531 27.25 L 417.050781 28.960938 L 417.453125 30.667969 L 417.855469 32.378906 L 418.257812 34.085938 L 418.660156 35.796875 L 419.066406 37.503906 L 419.46875 39.214844 L 419.871094 40.921875 L 420.273438 42.632812 L 420.679688 44.339844 L 421.082031 46.050781 L 421.484375 47.757812 L 421.886719 49.46875 L 422.289062 51.175781 L 422.695312 52.886719 L 423.097656 54.59375 L 423.5 56.304688 L 423.902344 58.011719 L 424.304688 59.722656 L 424.710938 61.429688 L 425.113281 63.140625 L 425.515625 64.847656 L 425.917969 66.558594 L 426.320312 68.265625 L 426.726562 69.976562 L 427.128906 71.683594 L 427.53125 73.394531 L 427.933594 75.101562 L 428.335938 76.8125 L 428.742188 78.519531 L 429.546875 81.941406 L 429.949219 83.648438 L 430.351562 85.359375 L 430.757812 87.066406 L 431.160156 88.777344 L 431.5625 90.484375 L 431.964844 92.195312 L 432.367188 93.902344 L 432.773438 95.613281 L 433.175781 97.320312 L 433.578125 99.03125 L 433.980469 100.738281 L 434.382812 102.449219 L 434.789062 104.15625 L 435.191406 105.867188 L 435.59375 107.574219 L 435.996094 109.285156 L 436.398438 110.992188 L 436.804688 112.703125 L 437.207031 114.410156 L 437.609375 116.121094 L 438.011719 117.828125 L 438.414062 119.539062 L 438.820312 121.246094 L 439.222656 122.957031 L 439.625 124.664062 L 440.027344 126.375 L 440.429688 128.082031 L 440.835938 129.792969 L 441.238281 131.5 L 441.640625 133.210938 L 442.042969 134.917969 L 442.445312 136.628906 L 442.851562 138.335938 L 443.253906 140.046875 L 443.65625 141.753906 L 444.058594 143.464844 L 444.460938 145.171875 L 444.867188 146.882812 L 445.269531 148.589844 L 445.671875 150.300781 L 446.074219 152.007812 L 446.476562 153.71875 L 446.882812 155.425781 L 447.285156 157.136719 L 447.6875 158.84375 L 448.089844 160.554688 L 448.492188 162.261719 L 448.898438 163.972656 L 449.300781 165.679688 L 449.703125 167.390625 L 450.105469 169.097656 L 450.507812 170.808594 L 450.914062 172.515625 L 451.316406 174.226562 L 451.71875 175.933594 L 452.121094 177.644531 L 452.523438 179.351562 L 452.929688 181.0625 L 453.332031 182.773438 L 453.734375 184.480469 L 454.136719 186.191406 L 454.539062 187.898438 L 454.945312 189.609375 "/>
<path fill="none" stroke-width="1.707165" stroke-linecap="butt" stroke-linejoin="round" stroke="rgb(82.745098%, 82.745098%, 82.745098%)" stroke-opacity="1" stroke-miterlimit="1" d="M 534.761719 20.414062 L 534.359375 22.125 L 533.957031 23.832031 L 533.554688 25.542969 L 533.152344 27.25 L 532.746094 28.960938 L 532.34375 30.667969 L 531.941406 32.378906 L 531.539062 34.085938 L 531.136719 35.796875 L 530.730469 37.503906 L 530.328125 39.214844 L 529.925781 40.921875 L 529.523438 42.632812 L 529.121094 44.339844 L 528.714844 46.050781 L 528.3125 47.757812 L 527.910156 49.46875 L 527.507812 51.175781 L 527.105469 52.886719 L 526.699219 54.59375 L 526.296875 56.304688 L 525.894531 58.011719 L 525.492188 59.722656 L 525.089844 61.429688 L 524.683594 63.140625 L 524.28125 64.847656 L 523.878906 66.558594 L 523.476562 68.265625 L 523.070312 69.976562 L 522.667969 71.683594 L 522.265625 73.394531 L 521.863281 75.101562 L 521.460938 76.8125 L 521.054688 78.519531 L 520.25 81.941406 L 519.847656 83.648438 L 519.445312 85.359375 L 519.039062 87.066406 L 518.636719 88.777344 L 518.234375 90.484375 L 517.832031 92.195312 L 517.429688 93.902344 L 517.023438 95.613281 L 516.621094 97.320312 L 516.21875 99.03125 L 515.816406 100.738281 L 515.414062 102.449219 L 515.007812 104.15625 L 514.605469 105.867188 L 514.203125 107.574219 L 513.800781 109.285156 L 513.398438 110.992188 L 512.992188 112.703125 L 512.589844 114.410156 L 512.1875 116.121094 L 511.785156 117.828125 L 511.382812 119.539062 L 510.976562 121.246094 L 510.574219 122.957031 L 510.171875 124.664062 L 509.769531 126.375 L 509.367188 128.082031 L 508.960938 129.792969 L 508.558594 131.5 L 508.15625 133.210938 L 507.753906 134.917969 L 507.351562 136.628906 L 506.945312 138.335938 L 506.542969 140.046875 L 506.140625 141.753906 L 505.738281 143.464844 L 505.335938 145.171875 L 504.929688 146.882812 L 504.527344 148.589844 L 504.125 150.300781 L 503.722656 152.007812 L 503.320312 153.71875 L 502.914062 155.425781 L 502.511719 157.136719 L 502.109375 158.84375 L 501.707031 160.554688 L 501.304688 162.261719 L 500.898438 163.972656 L 500.496094 165.679688 L 500.09375 167.390625 L 499.691406 169.097656 L 499.289062 170.808594 L 498.882812 172.515625 L 498.480469 174.226562 L 498.078125 175.933594 L 497.675781 177.644531 L 497.273438 179.351562 L 496.867188 181.0625 L 496.464844 182.773438 L 496.0625 184.480469 L 495.660156 186.191406 L 495.257812 187.898438 L 494.851562 189.609375 "/>
<path fill="none" stroke-width="1.707165" stroke-linecap="butt" stroke-linejoin="round" stroke="rgb(82.745098%, 82.745098%, 82.745098%)" stroke-opacity="1" stroke-miterlimit="1" d="M 574.671875 20.414062 L 574.269531 22.125 L 573.867188 23.832031 L 573.464844 25.542969 L 573.058594 27.25 L 572.65625 28.960938 L 572.253906 30.667969 L 571.851562 32.378906 L 571.449219 34.085938 L 571.042969 35.796875 L 570.640625 37.503906 L 570.238281 39.214844 L 569.835938 40.921875 L 569.433594 42.632812 L 569.027344 44.339844 L 568.625 46.050781 L 568.222656 47.757812 L 567.820312 49.46875 L 567.417969 51.175781 L 567.011719 52.886719 L 566.609375 54.59375 L 566.207031 56.304688 L 565.804688 58.011719 L 565.402344 59.722656 L 564.996094 61.429688 L 564.59375 63.140625 L 564.191406 64.847656 L 563.789062 66.558594 L 563.386719 68.265625 L 562.980469 69.976562 L 562.578125 71.683594 L 562.175781 73.394531 L 561.773438 75.101562 L 561.371094 76.8125 L 560.964844 78.519531 L 560.160156 81.941406 L 559.757812 83.648438 L 559.355469 85.359375 L 558.949219 87.066406 L 558.546875 88.777344 L 558.144531 90.484375 L 557.742188 92.195312 L 557.339844 93.902344 L 556.933594 95.613281 L 556.53125 97.320312 L 556.128906 99.03125 L 555.726562 100.738281 L 555.324219 102.449219 L 554.917969 104.15625 L 554.515625 105.867188 L 554.113281 107.574219 L 553.710938 109.285156 L 553.308594 110.992188 L 552.902344 112.703125 L 552.5 114.410156 L 552.097656 116.121094 L 551.695312 117.828125 L 551.292969 119.539062 L 550.886719 121.246094 L 550.484375 122.957031 L 550.082031 124.664062 L 549.679688 126.375 L 549.277344 128.082031 L 548.871094 129.792969 L 548.46875 131.5 L 548.066406 133.210938 L 547.664062 134.917969 L 547.261719 136.628906 L 546.855469 138.335938 L 546.453125 140.046875 L 546.050781 141.753906 L 545.648438 143.464844 L 545.246094 145.171875 L 544.839844 146.882812 L 544.4375 148.589844 L 544.035156 150.300781 L 543.632812 152.007812 L 543.230469 153.71875 L 542.824219 155.425781 L 542.421875 157.136719 L 542.019531 158.84375 L 541.617188 160.554688 L 541.214844 162.261719 L 540.808594 163.972656 L 540.40625 165.679688 L 540.003906 167.390625 L 539.601562 169.097656 L 539.199219 170.808594 L 538.792969 172.515625 L 538.390625 174.226562 L 537.988281 175.933594 L 537.585938 177.644531 L 537.183594 179.351562 L 536.777344 181.0625 L 536.375 182.773438 L 535.972656 184.480469 L 535.570312 186.191406 L 535.167969 187.898438 L 534.761719 189.609375 "/>
<path fill="none" stroke-width="1.707165" stroke-linecap="butt" stroke-linejoin="round" stroke="rgb(82.745098%, 82.745098%, 82.745098%)" stroke-opacity="1" stroke-miterlimit="1" d="M 574.671875 20.414062 L 574.671875 189.609375 "/>
<path fill="none" stroke-width="1.707165" stroke-linecap="butt" stroke-linejoin="round" stroke="rgb(82.745098%, 82.745098%, 82.745098%)" stroke-opacity="1" stroke-miterlimit="1" d="M 574.671875 20.414062 L 575.074219 22.125 L 575.480469 23.832031 L 575.882812 25.542969 L 576.285156 27.25 L 576.6875 28.960938 L 577.089844 30.667969 L 577.496094 32.378906 L 577.898438 34.085938 L 578.300781 35.796875 L 578.703125 37.503906 L 579.105469 39.214844 L 579.511719 40.921875 L 579.914062 42.632812 L 580.316406 44.339844 L 580.71875 46.050781 L 581.121094 47.757812 L 581.527344 49.46875 L 581.929688 51.175781 L 582.332031 52.886719 L 582.734375 54.59375 L 583.136719 56.304688 L 583.542969 58.011719 L 583.945312 59.722656 L 584.347656 61.429688 L 584.75 63.140625 L 585.152344 64.847656 L 585.558594 66.558594 L 585.960938 68.265625 L 586.363281 69.976562 L 586.765625 71.683594 L 587.167969 73.394531 L 587.574219 75.101562 L 587.976562 76.8125 L 588.378906 78.519531 L 589.183594 81.941406 L 589.589844 83.648438 L 589.992188 85.359375 L 590.394531 87.066406 L 590.796875 88.777344 L 591.199219 90.484375 L 591.605469 92.195312 L 592.007812 93.902344 L 592.410156 95.613281 L 592.8125 97.320312 L 593.214844 99.03125 L 593.621094 100.738281 L 594.023438 102.449219 L 594.425781 104.15625 L 594.828125 105.867188 L 595.230469 107.574219 L 595.636719 109.285156 L 596.039062 110.992188 L 596.441406 112.703125 L 596.84375 114.410156 L 597.246094 116.121094 L 597.652344 117.828125 L 598.054688 119.539062 L 598.457031 121.246094 L 598.859375 122.957031 L 599.261719 124.664062 L 599.667969 126.375 L 600.070312 128.082031 L 600.472656 129.792969 L 600.875 131.5 L 601.277344 133.210938 L 601.683594 134.917969 L 602.085938 136.628906 L 602.488281 138.335938 L 602.890625 140.046875 L 603.292969 141.753906 L 603.699219 143.464844 L 604.101562 145.171875 L 604.503906 146.882812 L 604.90625 148.589844 L 605.308594 150.300781 L 605.714844 152.007812 L 606.117188 153.71875 L 606.519531 155.425781 L 606.921875 157.136719 L 607.324219 158.84375 L 607.730469 160.554688 L 608.132812 162.261719 L 608.535156 163.972656 L 608.9375 165.679688 L 609.339844 167.390625 L 609.746094 169.097656 L 610.148438 170.808594 L 610.550781 172.515625 L 610.953125 174.226562 L 611.355469 175.933594 L 611.761719 177.644531 L 612.164062 179.351562 L 612.96875 182.773438 L 613.371094 184.480469 L 613.777344 186.191406 L 614.179688 187.898438 L 614.582031 189.609375 "/>
<path fill="none" stroke-width="1.707165" stroke-linecap="butt" stroke-linejoin="round" stroke="rgb(82.745098%, 82.745098%, 82.745098%)" stroke-opacity="1" stroke-miterlimit="1" d="M 614.582031 20.414062 L 614.984375 22.125 L 615.386719 23.832031 L 615.792969 25.542969 L 616.195312 27.25 L 616.597656 28.960938 L 617 30.667969 L 617.402344 32.378906 L 617.808594 34.085938 L 618.210938 35.796875 L 618.613281 37.503906 L 619.015625 39.214844 L 619.417969 40.921875 L 619.824219 42.632812 L 620.226562 44.339844 L 620.628906 46.050781 L 621.03125 47.757812 L 621.433594 49.46875 L 621.839844 51.175781 L 622.242188 52.886719 L 622.644531 54.59375 L 623.046875 56.304688 L 623.449219 58.011719 L 623.855469 59.722656 L 624.257812 61.429688 L 624.660156 63.140625 L 625.0625 64.847656 L 625.464844 66.558594 L 625.871094 68.265625 L 626.273438 69.976562 L 626.675781 71.683594 L 627.078125 73.394531 L 627.480469 75.101562 L 627.886719 76.8125 L 628.289062 78.519531 L 629.09375 81.941406 L 629.496094 83.648438 L 629.902344 85.359375 L 630.304688 87.066406 L 630.707031 88.777344 L 631.109375 90.484375 L 631.515625 92.195312 L 631.917969 93.902344 L 632.320312 95.613281 L 632.722656 97.320312 L 633.125 99.03125 L 633.53125 100.738281 L 633.933594 102.449219 L 634.335938 104.15625 L 634.738281 105.867188 L 635.140625 107.574219 L 635.546875 109.285156 L 635.949219 110.992188 L 636.351562 112.703125 L 636.753906 114.410156 L 637.15625 116.121094 L 637.5625 117.828125 L 637.964844 119.539062 L 638.367188 121.246094 L 638.769531 122.957031 L 639.171875 124.664062 L 639.578125 126.375 L 639.980469 128.082031 L 640.382812 129.792969 L 640.785156 131.5 L 641.1875 133.210938 L 641.59375 134.917969 L 641.996094 136.628906 L 642.398438 138.335938 L 642.800781 140.046875 L 643.203125 141.753906 L 643.609375 143.464844 L 644.011719 145.171875 L 644.414062 146.882812 L 644.816406 148.589844 L 645.21875 150.300781 L 645.625 152.007812 L 646.027344 153.71875 L 646.429688 155.425781 L 646.832031 157.136719 L 647.234375 158.84375 L 647.640625 160.554688 L 648.042969 162.261719 L 648.445312 163.972656 L 648.847656 165.679688 L 649.25 167.390625 L 649.65625 169.097656 L 650.058594 170.808594 L 650.460938 172.515625 L 650.863281 174.226562 L 651.265625 175.933594 L 651.671875 177.644531 L 652.074219 179.351562 L 652.878906 182.773438 L 653.28125 184.480469 L 653.6875 186.191406 L 654.089844 187.898438 L 654.492188 189.609375 "/>
<path fill="none" stroke-width="1.707165" stroke-linecap="butt" stroke-linejoin="round" stroke="rgb(82.745098%, 82.745098%, 82.745098%)" stroke-opacity="1" stroke-miterlimit="1" d="M 734.3125 20.414062 L 733.90625 22.125 L 733.503906 23.832031 L 733.101562 25.542969 L 732.699219 27.25 L 732.296875 28.960938 L 731.890625 30.667969 L 731.488281 32.378906 L 731.085938 34.085938 L 730.683594 35.796875 L 730.28125 37.503906 L 729.875 39.214844 L 729.472656 40.921875 L 729.070312 42.632812 L 728.667969 44.339844 L 728.265625 46.050781 L 727.859375 47.757812 L 727.457031 49.46875 L 727.054688 51.175781 L 726.652344 52.886719 L 726.25 54.59375 L 725.84375 56.304688 L 725.441406 58.011719 L 725.039062 59.722656 L 724.636719 61.429688 L 724.234375 63.140625 L 723.828125 64.847656 L 723.425781 66.558594 L 723.023438 68.265625 L 722.621094 69.976562 L 722.21875 71.683594 L 721.8125 73.394531 L 721.410156 75.101562 L 721.007812 76.8125 L 720.605469 78.519531 L 720.203125 80.230469 L 719.796875 81.941406 L 719.394531 83.648438 L 718.992188 85.359375 L 718.589844 87.066406 L 718.1875 88.777344 L 717.78125 90.484375 L 717.378906 92.195312 L 716.976562 93.902344 L 716.574219 95.613281 L 716.171875 97.320312 L 715.765625 99.03125 L 715.363281 100.738281 L 714.960938 102.449219 L 714.558594 104.15625 L 714.15625 105.867188 L 713.75 107.574219 L 713.347656 109.285156 L 712.945312 110.992188 L 712.542969 112.703125 L 712.140625 114.410156 L 711.734375 116.121094 L 711.332031 117.828125 L 710.929688 119.539062 L 710.527344 121.246094 L 710.125 122.957031 L 709.71875 124.664062 L 709.316406 126.375 L 708.914062 128.082031 L 708.511719 129.792969 L 708.109375 131.5 L 707.703125 133.210938 L 707.300781 134.917969 L 706.898438 136.628906 L 706.496094 138.335938 L 706.09375 140.046875 L 705.6875 141.753906 L 705.285156 143.464844 L 704.882812 145.171875 L 704.480469 146.882812 L 704.078125 148.589844 L 703.671875 150.300781 L 703.269531 152.007812 L 702.867188 153.71875 L 702.464844 155.425781 L 702.0625 157.136719 L 701.65625 158.84375 L 701.253906 160.554688 L 700.851562 162.261719 L 700.449219 163.972656 L 700.046875 165.679688 L 699.640625 167.390625 L 699.238281 169.097656 L 698.835938 170.808594 L 698.433594 172.515625 L 698.03125 174.226562 L 697.625 175.933594 L 697.222656 177.644531 L 696.820312 179.351562 L 696.015625 182.773438 L 695.609375 184.480469 L 695.207031 186.191406 L 694.804688 187.898438 L 694.402344 189.609375 "/>
<path fill="none" stroke-width="1.707165" stroke-linecap="butt" stroke-linejoin="round" stroke="rgb(82.745098%, 82.745098%, 82.745098%)" stroke-opacity="1" stroke-miterlimit="1" d="M 734.3125 20.414062 L 734.3125 189.609375 "/>
<path fill="none" stroke-width="1.707165" stroke-linecap="butt" stroke-linejoin="round" stroke="rgb(82.745098%, 82.745098%, 82.745098%)" stroke-opacity="1" stroke-miterlimit="1" d="M 734.3125 20.414062 L 734.714844 22.125 L 735.117188 23.832031 L 735.519531 25.542969 L 735.921875 27.25 L 736.328125 28.960938 L 736.730469 30.667969 L 737.132812 32.378906 L 737.535156 34.085938 L 737.941406 35.796875 L 738.34375 37.503906 L 738.746094 39.214844 L 739.148438 40.921875 L 739.550781 42.632812 L 739.957031 44.339844 L 740.359375 46.050781 L 740.761719 47.757812 L 741.164062 49.46875 L 741.566406 51.175781 L 741.972656 52.886719 L 742.375 54.59375 L 742.777344 56.304688 L 743.179688 58.011719 L 743.582031 59.722656 L 743.988281 61.429688 L 744.390625 63.140625 L 744.792969 64.847656 L 745.195312 66.558594 L 745.597656 68.265625 L 746.003906 69.976562 L 746.40625 71.683594 L 746.808594 73.394531 L 747.210938 75.101562 L 747.613281 76.8125 L 748.019531 78.519531 L 748.824219 81.941406 L 749.226562 83.648438 L 749.628906 85.359375 L 750.035156 87.066406 L 750.4375 88.777344 L 750.839844 90.484375 L 751.242188 92.195312 L 751.644531 93.902344 L 752.050781 95.613281 L 752.453125 97.320312 L 752.855469 99.03125 L 753.257812 100.738281 L 753.660156 102.449219 L 754.066406 104.15625 L 754.46875 105.867188 L 754.871094 107.574219 L 755.273438 109.285156 L 755.675781 110.992188 L 756.082031 112.703125 L 756.484375 114.410156 L 756.886719 116.121094 L 757.289062 117.828125 L 757.691406 119.539062 L 758.097656 121.246094 L 758.5 122.957031 L 758.902344 124.664062 L 759.304688 126.375 L 759.707031 128.082031 L 760.113281 129.792969 L 760.515625 131.5 L 760.917969 133.210938 L 761.320312 134.917969 L 761.722656 136.628906 L 762.128906 138.335938 L 762.53125 140.046875 L 762.933594 141.753906 L 763.335938 143.464844 L 763.738281 145.171875 L 764.144531 146.882812 L 764.546875 148.589844 L 764.949219 150.300781 L 765.351562 152.007812 L 765.753906 153.71875 L 766.160156 155.425781 L 766.5625 157.136719 L 766.964844 158.84375 L 767.367188 160.554688 L 767.769531 162.261719 L 768.175781 163.972656 L 768.578125 165.679688 L 768.980469 167.390625 L 769.382812 169.097656 L 769.785156 170.808594 L 770.191406 172.515625 L 770.59375 174.226562 L 770.996094 175.933594 L 771.398438 177.644531 L 771.800781 179.351562 L 772.207031 181.0625 L 772.609375 182.773438 L 773.011719 184.480469 L 773.414062 186.191406 L 773.816406 187.898438 L 774.222656 189.609375 "/>
<path fill="none" stroke-width="1.707165" stroke-linecap="butt" stroke-linejoin="round" stroke="rgb(82.745098%, 82.745098%, 82.745098%)" stroke-opacity="1" stroke-miterlimit="1" d="M 774.222656 20.414062 L 774.625 22.125 L 775.027344 23.832031 L 775.429688 25.542969 L 775.832031 27.25 L 776.238281 28.960938 L 776.640625 30.667969 L 777.042969 32.378906 L 777.445312 34.085938 L 777.847656 35.796875 L 778.253906 37.503906 L 778.65625 39.214844 L 779.058594 40.921875 L 779.460938 42.632812 L 779.863281 44.339844 L 780.269531 46.050781 L 780.671875 47.757812 L 781.074219 49.46875 L 781.476562 51.175781 L 781.878906 52.886719 L 782.285156 54.59375 L 782.6875 56.304688 L 783.089844 58.011719 L 783.492188 59.722656 L 783.894531 61.429688 L 784.300781 63.140625 L 784.703125 64.847656 L 785.105469 66.558594 L 785.507812 68.265625 L 785.910156 69.976562 L 786.316406 71.683594 L 786.71875 73.394531 L 787.121094 75.101562 L 787.523438 76.8125 L 787.925781 78.519531 L 788.332031 80.230469 L 788.734375 81.941406 L 789.136719 83.648438 L 789.539062 85.359375 L 789.941406 87.066406 L 790.347656 88.777344 L 790.75 90.484375 L 791.152344 92.195312 L 791.554688 93.902344 L 791.957031 95.613281 L 792.363281 97.320312 L 792.765625 99.03125 L 793.167969 100.738281 L 793.570312 102.449219 L 793.972656 104.15625 L 794.378906 105.867188 L 794.78125 107.574219 L 795.183594 109.285156 L 795.585938 110.992188 L 795.988281 112.703125 L 796.394531 114.410156 L 796.796875 116.121094 L 797.199219 117.828125 L 797.601562 119.539062 L 798.003906 121.246094 L 798.410156 122.957031 L 798.8125 124.664062 L 799.214844 126.375 L 799.617188 128.082031 L 800.019531 129.792969 L 800.425781 131.5 L 800.828125 133.210938 L 801.230469 134.917969 L 801.632812 136.628906 L 802.035156 138.335938 L 802.441406 140.046875 L 802.84375 141.753906 L 803.246094 143.464844 L 803.648438 145.171875 L 804.050781 146.882812 L 804.457031 148.589844 L 804.859375 150.300781 L 805.261719 152.007812 L 805.664062 153.71875 L 806.066406 155.425781 L 806.472656 157.136719 L 806.875 158.84375 L 807.277344 160.554688 L 807.679688 162.261719 L 808.082031 163.972656 L 808.488281 165.679688 L 808.890625 167.390625 L 809.292969 169.097656 L 809.695312 170.808594 L 810.097656 172.515625 L 810.503906 174.226562 L 810.90625 175.933594 L 811.308594 177.644531 L 811.710938 179.351562 L 812.113281 181.0625 L 812.519531 182.773438 L 812.921875 184.480469 L 813.324219 186.191406 L 813.726562 187.898438 L 814.128906 189.609375 "/>
<path fill-rule="nonzero" fill="rgb(100%, 100%, 100%)" fill-opacity="1" stroke-width="0.708661" stroke-linecap="round" stroke-linejoin="round" stroke="rgb(0%, 0%, 0%)" stroke-opacity="1" stroke-miterlimit="10" d="M 59.402344 20.414062 C 59.402344 25.15625 52.292969 25.15625 52.292969 20.414062 C 52.292969 15.675781 59.402344 15.675781 59.402344 20.414062 "/>
<path fill-rule="nonzero" fill="rgb(100%, 100%, 100%)" fill-opacity="1" stroke-width="0.708661" stroke-linecap="round" stroke-linejoin="round" stroke="rgb(0%, 0%, 0%)" stroke-opacity="1" stroke-miterlimit="10" d="M 99.3125 20.414062 C 99.3125 25.15625 92.203125 25.15625 92.203125 20.414062 C 92.203125 15.675781 99.3125 15.675781 99.3125 20.414062 "/>
<path fill-rule="nonzero" fill="rgb(0%, 0%, 0%)" fill-opacity="1" stroke-width="0.708661" stroke-linecap="round" stroke-linejoin="round" stroke="rgb(0%, 0%, 0%)" stroke-opacity="1" stroke-miterlimit="10" d="M 139.222656 20.414062 C 139.222656 25.15625 132.109375 25.15625 132.109375 20.414062 C 132.109375 15.675781 139.222656 15.675781 139.222656 20.414062 "/>
<path fill-rule="nonzero" fill="rgb(100%, 100%, 100%)" fill-opacity="1" stroke-width="0.708661" stroke-linecap="round" stroke-linejoin="round" stroke="rgb(0%, 0%, 0%)" stroke-opacity="1" stroke-miterlimit="10" d="M 179.132812 20.414062 C 179.132812 25.15625 172.019531 25.15625 172.019531 20.414062 C 172.019531 15.675781 179.132812 15.675781 179.132812 20.414062 "/>
<path fill-rule="nonzero" fill="rgb(0%, 0%, 0%)" fill-opacity="1" stroke-width="0.708661" stroke-linecap="round" stroke-linejoin="round" stroke="rgb(0%, 0%, 0%)" stroke-opacity="1" stroke-miterlimit="10" d="M 219.039062 20.414062 C 219.039062 25.15625 211.929688 25.15625 211.929688 20.414062 C 211.929688 15.675781 219.039062 15.675781 219.039062 20.414062 "/>
<path fill-rule="nonzero" fill="rgb(0%, 0%, 0%)" fill-opacity="1" stroke-width="0.708661" stroke-linecap="round" stroke-linejoin="round" stroke="rgb(0%, 0%, 0%)" stroke-opacity="1" stroke-miterlimit="10" d="M 258.949219 20.414062 C 258.949219 25.15625 251.839844 25.15625 251.839844 20.414062 C 251.839844 15.675781 258.949219 15.675781 258.949219 20.414062 "/>
<path fill-rule="nonzero" fill="rgb(100%, 100%, 100%)" fill-opacity="1" stroke-width="0.708661" stroke-linecap="round" stroke-linejoin="round" stroke="rgb(0%, 0%, 0%)" stroke-opacity="1" stroke-miterlimit="10" d="M 298.859375 20.414062 C 298.859375 25.15625 291.75 25.15625 291.75 20.414062 C 291.75 15.675781 298.859375 15.675781 298.859375 20.414062 "/>
<path fill-rule="nonzero" fill="rgb(100%, 100%, 100%)" fill-opacity="1" stroke-width="0.708661" stroke-linecap="round" stroke-linejoin="round" stroke="rgb(0%, 0%, 0%)" stroke-opacity="1" stroke-miterlimit="10" d="M 338.769531 20.414062 C 338.769531 25.15625 331.660156 25.15625 331.660156 20.414062 C 331.660156 15.675781 338.769531 15.675781 338.769531 20.414062 "/>
<path fill-rule="nonzero" fill="rgb(100%, 100%, 100%)" fill-opacity="1" stroke-width="0.708661" stroke-linecap="round" stroke-linejoin="round" stroke="rgb(0%, 0%, 0%)" stroke-opacity="1" stroke-miterlimit="10" d="M 378.679688 20.414062 C 378.679688 25.15625 371.570312 25.15625 371.570312 20.414062 C 371.570312 15.675781 378.679688 15.675781 378.679688 20.414062 "/>
<path fill-rule="nonzero" fill="rgb(100%, 100%, 100%)" fill-opacity="1" stroke-width="0.708661" stroke-linecap="round" stroke-linejoin="round" stroke="rgb(0%, 0%, 0%)" stroke-opacity="1" stroke-miterlimit="10" d="M 418.589844 20.414062 C 418.589844 25.15625 411.480469 25.15625 411.480469 20.414062 C 411.480469 15.675781 418.589844 15.675781 418.589844 20.414062 "/>
<path fill-rule="nonzero" fill="rgb(100%, 100%, 100%)" fill-opacity="1" stroke-width="0.708661" stroke-linecap="round" stroke-linejoin="round" stroke="rgb(0%, 0%, 0%)" stroke-opacity="1" stroke-miterlimit="10" d="M 458.5 20.414062 C 458.5 25.15625 451.386719 25.15625 451.386719 20.414062 C 451.386719 15.675781 458.5 15.675781 458.5 20.414062 "/>
<path fill-rule="nonzero" fill="rgb(0%, 0%, 0%)" fill-opacity="1" stroke-width="0.708661" stroke-linecap="round" stroke-linejoin="round" stroke="rgb(0%, 0%, 0%)" stroke-opacity="1" stroke-miterlimit="10" d="M 498.410156 20.414062 C 498.410156 25.15625 491.296875 25.15625 491.296875 20.414062 C 491.296875 15.675781 498.410156 15.675781 498.410156 20.414062 "/>
<path fill-rule="nonzero" fill="rgb(100%, 100%, 100%)" fill-opacity="1" stroke-width="0.708661" stroke-linecap="round" stroke-linejoin="round" stroke="rgb(0%, 0%, 0%)" stroke-opacity="1" stroke-miterlimit="10" d="M 538.316406 20.414062 C 538.316406 25.15625 531.207031 25.15625 531.207031 20.414062 C 531.207031 15.675781 538.316406 15.675781 538.316406 20.414062 "/>
<path fill-rule="nonzero" fill="rgb(100%, 100%, 100%)" fill-opacity="1" stroke-width="0.708661" stroke-linecap="round" stroke-linejoin="round" stroke="rgb(0%, 0%, 0%)" stroke-opacity="1" stroke-miterlimit="10" d="M 578.226562 20.414062 C 578.226562 25.15625 571.117188 25.15625 571.117188 20.414062 C 571.117188 15.675781 578.226562 15.675781 578.226562 20.414062 "/>
<path fill-rule="nonzero" fill="rgb(100%, 100%, 100%)" fill-opacity="1" stroke-width="0.708661" stroke-linecap="round" stroke-linejoin="round" stroke="rgb(0%, 0%, 0%)" stroke-opacity="1" stroke-miterlimit="10" d="M 618.136719 20.414062 C 618.136719 25.15625 611.027344 25.15625 611.027344 20.414062 C 611.027344 15.675781 618.136719 15.675781 618.136719 20.414062 "/>
<path fill-rule="nonzero" fill="rgb(100%, 100%, 100%)" fill-opacity="1" stroke-width="0.708661" stroke-linecap="round" stroke-linejoin="round" stroke="rgb(0%, 0%, 0%)" stroke-opacity="1" stroke-miterlimit="10" d="M 658.046875 20.414062 C 658.046875 25.15625 650.9375 25.15625 650.9375 20.414062 C 650.9375 15.675781 658.046875 15.675781 658.046875 20.414062 "/>
<path fill-rule="nonzero" fill="rgb(100%, 100%, 100%)" fill-opacity="1" stroke-width="0.708661" stroke-linecap="round" stroke-linejoin="round" stroke="rgb(0%, 0%, 0%)" stroke-opacity="1" stroke-miterlimit="10" d="M 697.957031 20.414062 C 697.957031 25.15625 690.847656 25.15625 690.847656 20.414062 C 690.847656 15.675781 697.957031 15.675781 697.957031 20.414062 "/>
<path fill-rule="nonzero" fill="rgb(0%, 0%, 0%)" fill-opacity="1" stroke-width="0.708661" stroke-linecap="round" stroke-linejoin="round" stroke="rgb(0%, 0%, 0%)" stroke-opacity="1" stroke-miterlimit="10" d="M 737.867188 20.414062 C 737.867188 25.15625 730.757812 25.15625 730.757812 20.414062 C 730.757812 15.675781 737.867188 15.675781 737.867188 20.414062 "/>
<path fill-rule="nonzero" fill="rgb(0%, 0%, 0%)" fill-opacity="1" stroke-width="0.708661" stroke-linecap="round" stroke-linejoin="round" stroke="rgb(0%, 0%, 0%)" stroke-opacity="1" stroke-miterlimit="10" d="M 777.777344 20.414062 C 777.777344 25.15625 770.664062 25.15625 770.664062 20.414062 C 770.664062 15.675781 777.777344 15.675781 777.777344 20.414062 "/>
<path fill-rule="nonzero" fill="rgb(100%, 100%, 100%)" fill-opacity="1" stroke-width="0.708661" stroke-linecap="round" stroke-linejoin="round" stroke="rgb(0%, 0%, 0%)" stroke-opacity="1" stroke-miterlimit="10" d="M 817.6875 20.414062 C 817.6875 25.15625 810.574219 25.15625 810.574219 20.414062 C 810.574219 15.675781 817.6875 15.675781 817.6875 20.414062 "/>
<path fill-rule="nonzero" fill="rgb(100%, 100%, 100%)" fill-opacity="1" stroke-width="0.708661" stroke-linecap="round" stroke-linejoin="round" stroke="rgb(0%, 0%, 0%)" stroke-opacity="1" stroke-miterlimit="10" d="M 59.402344 189.609375 C 59.402344 194.347656 52.292969 194.347656 52.292969 189.609375 C 52.292969 184.867188 59.402344 184.867188 59.402344 189.609375 "/>
<path fill-rule="nonzero" fill="rgb(100%, 100%, 100%)" fill-opacity="1" stroke-width="0.708661" stroke-linecap="round" stroke-linejoin="round" stroke="rgb(0%, 0%, 0%)" stroke-opacity="1" stroke-miterlimit="10" d="M 99.3125 189.609375 C 99.3125 194.347656 92.203125 194.347656 92.203125 189.609375 C 92.203125 184.867188 99.3125 184.867188 99.3125 189.609375 "/>
<path fill-rule="nonzero" fill="rgb(100%, 100%, 100%)" fill-opacity="1" stroke-width="0.708661" stroke-linecap="round" stroke-linejoin="round" stroke="rgb(0%, 0%, 0%)" stroke-opacity="1" stroke-miterlimit="10" d="M 139.222656 189.609375 C 139.222656 194.347656 132.109375 194.347656 132.109375 189.609375 C 132.109375 184.867188 139.222656 184.867188 139.222656 189.609375 "/>
<path fill-rule="nonzero" fill="rgb(100%, 100%, 100%)" fill-opacity="1" stroke-width="0.708661" stroke-linecap="round" stroke-linejoin="round" stroke="rgb(0%, 0%, 0%)" stroke-opacity="1" stroke-miterlimit="10" d="M 179.132812 189.609375 C 179.132812 194.347656 172.019531 194.347656 172.019531 189.609375 C 172.019531 184.867188 179.132812 184.867188 179.132812 189.609375 "/>
<path fill-rule="nonzero" fill="rgb(0%, 0%, 0%)" fill-opacity="1" stroke-width="0.708661" stroke-linecap="round" stroke-linejoin="round" stroke="rgb(0%, 0%, 0%)" stroke-opacity="1" stroke-miterlimit="10" d="M 219.039062 189.609375 C 219.039062 194.347656 211.929688 194.347656 211.929688 189.609375 C 211.929688 184.867188 219.039062 184.867188 219.039062 189.609375 "/>
<path fill-rule="nonzero" fill="rgb(0%, 0%, 0%)" fill-opacity="1" stroke-width="0.708661" stroke-linecap="round" stroke-linejoin="round" stroke="rgb(0%, 0%, 0%)" stroke-opacity="1" stroke-miterlimit="10" d="M 258.949219 189.609375 C 258.949219 194.347656 251.839844 194.347656 251.839844 189.609375 C 251.839844 184.867188 258.949219 184.867188 258.949219 189.609375 "/>
<path fill-rule="nonzero" fill="rgb(0%, 0%, 0%)" fill-opacity="1" stroke-width="0.708661" stroke-linecap="round" stroke-linejoin="round" stroke="rgb(0%, 0%, 0%)" stroke-opacity="1" stroke-miterlimit="10" d="M 298.859375 189.609375 C 298.859375 194.347656 291.75 194.347656 291.75 189.609375 C 291.75 184.867188 298.859375 184.867188 298.859375 189.609375 "/>
<path fill-rule="nonzero" fill="rgb(100%, 100%, 100%)" fill-opacity="1" stroke-width="0.708661" stroke-linecap="round" stroke-linejoin="round" stroke="rgb(0%, 0%, 0%)" stroke-opacity="1" stroke-miterlimit="10" d="M 338.769531 189.609375 C 338.769531 194.347656 331.660156 194.347656 331.660156 189.609375 C 331.660156 184.867188 338.769531 184.867188 338.769531 189.609375 "/>
<path fill-rule="nonzero" fill="rgb(100%, 100%, 100%)" fill-opacity="1" stroke-width="0.708661" stroke-linecap="round" stroke-linejoin="round" stroke="rgb(0%, 0%, 0%)" stroke-opacity="1" stroke-miterlimit="10" d="M 378.679688 189.609375 C 378.679688 194.347656 371.570312 194.347656 371.570312 189.609375 C 371.570312 184.867188 378.679688 184.867188 378.679688 189.609375 "/>
<path fill-rule="nonzero" fill="rgb(100%, 100%, 100%)" fill-opacity="1" stroke-width="0.708661" stroke-linecap="round" stroke-linejoin="round" stroke="rgb(0%, 0%, 0%)" stroke-opacity="1" stroke-miterlimit="10" d="M 418.589844 189.609375 C 418.589844 194.347656 411.480469 194.347656 411.480469 189.609375 C 411.480469 184.867188 418.589844 184.867188 418.589844 189.609375 "/>
<path fill-rule="nonzero" fill="rgb(100%, 100%, 100%)" fill-opacity="1" stroke-width="0.708661" stroke-linecap="round" stroke-linejoin="round" stroke="rgb(0%, 0%, 0%)" stroke-opacity="1" stroke-miterlimit="10" d="M 458.5 189.609375 C 458.5 194.347656 451.386719 194.347656 451.386719 189.609375 C 451.386719 184.867188 458.5 184.867188 458.5 189.609375 "/>
<path fill-rule="nonzero" fill="rgb(100%, 100%, 100%)" fill-opacity="1" stroke-width="0.708661" stroke-linecap="round" stroke-linejoin="round" stroke="rgb(0%, 0%, 0%)" stroke-opacity="1" stroke-miterlimit="10" d="M 498.410156 189.609375 C 498.410156 194.347656 491.296875 194.347656 491.296875 189.609375 C 491.296875 184.867188 498.410156 184.867188 498.410156 189.609375 "/>
<path fill-rule="nonzero" fill="rgb(100%, 100%, 100%)" fill-opacity="1" stroke-width="0.708661" stroke-linecap="round" stroke-linejoin="round" stroke="rgb(0%, 0%, 0%)" stroke-opacity="1" stroke-miterlimit="10" d="M 538.316406 189.609375 C 538.316406 194.347656 531.207031 194.347656 531.207031 189.609375 C 531.207031 184.867188 538.316406 184.867188 538.316406 189.609375 "/>
<path fill-rule="nonzero" fill="rgb(100%, 100%, 100%)" fill-opacity="1" stroke-width="0.708661" stroke-linecap="round" stroke-linejoin="round" stroke="rgb(0%, 0%, 0%)" stroke-opacity="1" stroke-miterlimit="10" d="M 578.226562 189.609375 C 578.226562 194.347656 571.117188 194.347656 571.117188 189.609375 C 571.117188 184.867188 578.226562 184.867188 578.226562 189.609375 "/>
<path fill-rule="nonzero" fill="rgb(100%, 100%, 100%)" fill-opacity="1" stroke-width="0.708661" stroke-linecap="round" stroke-linejoin="round" stroke="rgb(0%, 0%, 0%)" stroke-opacity="1" stroke-miterlimit="10" d="M 618.136719 189.609375 C 618.136719 194.347656 611.027344 194.347656 611.027344 189.609375 C 611.027344 184.867188 618.136719 184.867188 618.136719 189.609375 "/>
<path fill-rule="nonzero" fill="rgb(100%, 100%, 100%)" fill-opacity="1" stroke-width="0.708661" stroke-linecap="round" stroke-linejoin="round" stroke="rgb(0%, 0%, 0%)" stroke-opacity="1" stroke-miterlimit="10" d="M 658.046875 189.609375 C 658.046875 194.347656 650.9375 194.347656 650.9375 189.609375 C 650.9375 184.867188 658.046875 184.867188 658.046875 189.609375 "/>
<path fill-rule="nonzero" fill="rgb(0%, 0%, 0%)" fill-opacity="1" stroke-width="0.708661" stroke-linecap="round" stroke-linejoin="round" stroke="rgb(0%, 0%, 0%)" stroke-opacity="1" stroke-miterlimit="10" d="M 697.957031 189.609375 C 697.957031 194.347656 690.847656 194.347656 690.847656 189.609375 C 690.847656 184.867188 697.957031 184.867188 697.957031 189.609375 "/>
<path fill-rule="nonzero" fill="rgb(0%, 0%, 0%)" fill-opacity="1" stroke-width="0.708661" stroke-linecap="round" stroke-linejoin="round" stroke="rgb(0%, 0%, 0%)" stroke-opacity="1" stroke-miterlimit="10" d="M 737.867188 189.609375 C 737.867188 194.347656 730.757812 194.347656 730.757812 189.609375 C 730.757812 184.867188 737.867188 184.867188 737.867188 189.609375 "/>
<path fill-rule="nonzero" fill="rgb(0%, 0%, 0%)" fill-opacity="1" stroke-width="0.708661" stroke-linecap="round" stroke-linejoin="round" stroke="rgb(0%, 0%, 0%)" stroke-opacity="1" stroke-miterlimit="10" d="M 777.777344 189.609375 C 777.777344 194.347656 770.664062 194.347656 770.664062 189.609375 C 770.664062 184.867188 777.777344 184.867188 777.777344 189.609375 "/>
<path fill-rule="nonzero" fill="rgb(0%, 0%, 0%)" fill-opacity="1" stroke-width="0.708661" stroke-linecap="round" stroke-linejoin="round" stroke="rgb(0%, 0%, 0%)" stroke-opacity="1" stroke-miterlimit="10" d="M 817.6875 189.609375 C 817.6875 194.347656 810.574219 194.347656 810.574219 189.609375 C 810.574219 184.867188 817.6875 184.867188 817.6875 189.609375 "/>
<g clip-path="url(#clip-1)">
<path fill="none" stroke-width="2.327953" stroke-linecap="round" stroke-linejoin="round" stroke="rgb(20%, 20%, 20%)" stroke-opacity="1" stroke-miterlimit="10" d="M 17.933594 198.066406 L 852.046875 198.066406 L 852.046875 11.953125 L 17.933594 11.953125 Z M 17.933594 198.066406 "/>
</g>
</svg>
