<?xml version="1.0" encoding="UTF-8" standalone="no"?>
<svg
   width="5351.9307"
   height="5748.1631"
   viewBox="0 0 5351.9307 5748.1631"
   version="1.1"
   id="svg4"
   xmlns="http://www.w3.org/2000/svg"
   xmlns:svg="http://www.w3.org/2000/svg">
  <defs
     id="defs8" />
  <path
     d="m 5211.6124,0.15262388 c -0.55,0.216 -4.375,1.16600002 -8.5,2.11100002 -9.633,2.208 -19.623,6.152 -34,13.4240001 -13.222,6.688 -32.451,13.849 -73.5,27.372 -36.672,12.082 -61.185,19.601 -79,24.233 -30.069,7.819 -137.042,38.262996 -195.167,55.543996 -38.403,11.417 -113.389,29.519 -204.446,49.356 -29.532,6.433 -36.482,8.607 -49.602,15.514 -12.094,6.367 -22.189,13.661 -34.606,25.007 -8.542,7.805 -11.732,9.94 -24.5,16.396 -22.304,11.279 -59.427,27.596 -93.179,40.957 -49.288,19.51 -92.617,38.175 -105.5,45.447 -4.4,2.483 -15.2,9.095 -24,14.693 -22.098,14.057 -24.161,15.243 -57.5,33.06 -48.28,25.801 -67.742,36.938 -76.05,43.519 -3.234,2.561 -19.604,28.566 -32.912,52.282 -3.893,6.938 -6.02,18.942 -6.031,34.039 l -0.01,9.861 -14.025,13.513 c -16.875,16.257 -26.262,27.709 -32.598,39.765 -2.602,4.95 -14.715,25.65 -26.919,46 -27.833,46.412 -29.925,50.523 -31.878,62.658 -3.463,21.52 -25.816,132.726 -30.219,150.342 -1.375,5.5 -7.878,29.949 -14.45,54.331 -23.747,88.092 -24.776,92.478 -26.422,112.669 -2.68,32.87898 -12.591,193.37898 -14.017,226.99998 -0.327,7.7 -1.053,18.275 -1.613,23.5 -2.46,22.95 -14.33,102.232 -32.939,220 -10.693,67.671 -14.169,94.407 -19.369,149 -6.131,64.367 -9.138,107.775 -10.506,151.675 -1.163,37.332 -0.546,55.17 5.526,159.825 1.841,31.738 1.485,39.274 -3.73,79 -1.661,12.65 -3.355,30.2 -3.764,39 -0.602,12.926 -1.171,17.096 -2.967,21.707 -4.699,12.07 -21.679,35.044 -31.178,42.185 -9.945,7.476 -24.079,14.965 -57.733,30.593 -17.453,8.104 -34.426,16.222 -37.716,18.039 -17.019,9.397 -56.426,37.107 -109.621,77.083 -25.883,19.451 -85.408,60.369 -133.661,91.88 l -19.121,12.488 -5.979,13.512 c -7.858,17.762 -10.734,25.61 -12.178,33.232 -0.655,3.455 -2.037,7.696 -3.073,9.425 -3.112,5.198 -14.896,15.604 -26.324,23.246 -14.377,9.613 -19.131,11.897 -29.371,14.111 -16.447,3.555 -113.238,19.228 -141.655,22.937 -4.4,0.574 -30.5,3.532 -58,6.573 -106.666,11.796 -135.686,16.577 -163.5,26.938 -23.406,8.719 -83.85,27.445 -160,49.569 -21.928,6.371 -34.539,10.594 -41.5,13.897 -13.804,6.551 -37.956,20.205 -78,44.095 -18.7,11.157 -39.625,23.215 -46.5,26.795 -44.606,23.23 -193.433,112.19 -216.052,129.144 -19.181,14.376 -187.984,159.242 -203.913,174.997 -23.459,23.203 -70.216,91.174 -124.355,180.777 -7.498,12.41 -13.118,20.562 -15.856,23 -16.767,14.932 -24.98,22.874 -28.853,27.905 -10.023,13.019 -12.167,14.066 -47.752,23.311 -12.254,3.184 -22.604,6.112 -22.998,6.507 -1.625,1.624 3.601,3.455 17.053,5.975 25.885,4.848 32.726,7.034 32.726,10.454 0,2.58 -5.015,11.744 -23.324,42.625 -8.804,14.85 -19.14,33.075 -22.969,40.5 -9.219,17.879 -23.779,39.338 -60.774,89.566 -7.84,10.644 -25.697,29.975 -46.941,50.816 -14.287,14.015 -20.992,21.649 -20.992,23.899 0,3.511 19.245,-5.19 50,-22.607 10.175,-5.762 18.601,-10.383 18.723,-10.268 0.123,0.114 -1.781,5.291 -4.231,11.504 -8.523,21.611 -13.556,37.903 -18.462,59.758 -7.921,35.289 -26.1,107.415 -76.199,302.332 -13.783,53.625 -26.114,103.575 -27.401,111 -1.288,7.425 -2.822,19.8 -3.41,27.5 -2.655,34.83 -3.537,39.877 -11.618,66.5 -1.92,6.325 -5.515,19.082 -7.988,28.348 -5.595,20.962 -10.834,34.13 -24.729,62.152 -12.142,24.485 -14.25,29.5 -12.403,29.5 1.988,0 15.74,-14.976 37.649,-41 l 2.104,-2.5 -1.534,4 c -0.843,2.2 -8.223,19.75 -16.399,39 -8.177,19.25 -14.748,35.134 -14.603,35.298 0.145,0.163 4.704,-2.58 10.132,-6.097 26.129,-16.928 43.726,-23.384 48.714,-17.872 2.215,2.447 2.149,6.979 -0.829,56.671 -1.351,22.55 -2.926,55.4 -3.5,73 -2.37,72.674 -4.295,96.129 -18.075,220.284 -3.646,32.852 -3.921,37.06 -2.904,44.5 4.263,31.173 20.655,92.199 59.287,220.716 31.403,104.469 29.763,97.528 34.142,144.5 6.208,66.587 14.712,241.421 14.91,306.5 0.106,35.071 -0.093,36.275 -8.518,51.597 -6.851,12.457 -15.899,24.185 -27.01,35.009 -9.22,8.981 -9.444,9.124 -16.348,10.424 -9.014,1.697 -28.258,1.765 -56.5,0.201 -12.375,-0.686 -35.775,-1.706 -52,-2.266 -43.216,-1.493 -52.12,-2.334 -111.453,-10.517 -47.774,-6.589 -57.338,-7.616 -83.5,-8.965 -34.059,-1.757 -59.68,-3.686 -86.354,-6.499 -33.294,-3.512 -38.51,-2.355 -19.137,4.244 6.019,2.05 10.044,3.737 8.944,3.748 -1.1,0.012 -22.316,-1.093 -47.147,-2.455 l -45.147,-2.476 -46.853,-11.155 -46.853,-11.155 -54.243,-1.835 -54.244,-1.834 -17.256,3.484 -17.257,3.483 -37.732,-1.701 c -20.753,-0.935 -37.949,-1.484 -38.214,-1.22 -0.265,0.265 0.415,4.736 1.511,9.935 1.095,5.199 2.263,13.286 2.596,17.97 0.774,10.897 -0.081,11.911 -7.206,8.549 -6.654,-3.14 -19.048,-6.587 -43.004,-11.962 -26.417,-5.928 -71.56998,-14.819 -72.17598,-14.212 -0.265,0.265 -1.141,5.572 -1.947,11.795 -0.807,6.222 -1.629,11.831 -1.828,12.463 -0.245,0.782 -7.96,-0.754 -24.057,-4.789 -13.033,-3.267 -23.84,-5.797 -24.015,-5.623 -0.175,0.175 2.153,4.523 5.172,9.662 3.019,5.139 5.337,9.497 5.15,9.684 -0.187,0.187 -5.24,-1.249 -11.228,-3.191 -13.595,-4.408 -20.522,-5.415 -20.522,-2.983 0,2.768 2.678,7.134 9.564,15.594 3.579,4.398 6.269,7.996 5.978,7.996 -0.292,0 -17.521,-6.823 -38.286,-15.163 -20.766,-8.339 -40.456,-15.755 -43.756,-16.479 -12.018,-2.638 -46.916,-4.856 -109.25,-6.944 -10.588,-0.355 -19.25,-0.305 -19.25,0.11 0,0.415 5.442,8.375 12.094,17.688 6.651,9.314 11.886,17.141 11.633,17.395 -0.253,0.253 -12.34,-1.579 -26.86,-4.072 -32.435,-5.568 -45.867,-7.461 -45.867,-6.465 0,1.892 13.12,10.727 42.466,28.598 9.332,5.683 16.675,10.332 16.319,10.332 -0.356,0 -17.809,-1.575 -38.785,-3.5 -37.435,-3.435 -39.054,-3.5 -87.819,-3.521 l -49.681,-0.02 -38.989,-11.908 c -21.443,-6.549 -39.135,-11.76 -39.315,-11.58 -0.18,0.18 0.133,2.06 0.697,4.178 1.966,7.391 2.394,16.695 0.863,18.727 -1.383,1.835 -1.566,1.835 -8.335,0 -6.465,-1.752 -11.435,-1.872 -75.466,-1.812 -37.699,0.035 -69.311,0.359 -70.249,0.719 -1.388,0.532 2.063,5.716 18.601,27.935 32.59,43.788 48.96,67.345 54.836,78.907 l 3.157,6.213 -2.261,1.831 c -2.721,2.204 -7.424,2.31 -15.539,0.351 -3.3,-0.797 -6.45,-1.463 -7,-1.48 -1.337,-0.042 4.537,3.859 25.75,17.103 9.762,6.095 17.75,11.544 17.75,12.109 0,1.567 -8.178,0.252 -19.5,-3.134 -9.284,-2.777 -13.687,-3.286 -61.5,-7.102 -34.592,-2.761 -59.179,-5.253 -74.889,-7.591 -12.864,-1.914 -23.51,-3.356 -23.657,-3.203 -0.148,0.153 3.998,5.003 9.213,10.778 11.268,12.479 24.942,28.927 28.664,34.482 5.364,8.004 2.987,13.859 -14.157,34.867 -5.321,6.52 -13.381,16.421 -17.911,22.003 -4.53,5.581 -10.04,13.587 -12.244,17.789 -7.886,15.039 -17.82,20.089 -55.993,28.467 -2.252,0.494 -0.866,2.088 15.447,17.769 l 17.921,17.227 -20.447,1.258 c -45.339,2.79 -71.947005,6.52 -71.947005,10.088 0,1.771 6.161005,4.256 17.412005,7.022 l 10.987,2.702 -12.949,0.675 c -21.038005,1.096 -52.846005,3.778 -54.276005,4.576 -1.973,1.1 8.911,5.649 35.826,14.973 49.560005,17.17 58.339005,20.585 57.716005,22.455 -0.915,2.745 -20.79,5.583 -64.216005,9.172 -33.903,2.801 -37.629,3.27 -35.471,4.459 2.072,1.141 19.321,4.555 48.471005,9.595 l 25,4.322 -32.000005,-0.427 -32,-0.427 18.177,4.726 c 9.998,2.6 18.42,4.974 18.716,5.276 1.301005,1.327 -70.887,12.137 -90.9349997,13.616 -5.477,0.405 -9.28300001,0.873 -8.45800001,1.042 0.825,0.168 12.52499971,0.917 25.99999971,1.664 20.46,1.133 127.643005,1.213 650.000005,0.483 l 625.49998,-0.875 53,-2.501 c 235.664,-11.122 310.618,-13.756 330.5,-11.615 26.927,2.9 231.62,7.249 642.5,13.65 53.9,0.84 140.75,2.195 193,3.011 52.25,0.816 157.325,1.924 233.5,2.462 151.324,1.07 248.537,2.578 268,4.157 38.196,3.098 89.23,1.85 215,-5.259 42.326,-2.393 60.166,-2.199 100.5,1.092 37.836,3.087 50.682,4.804 65.5,8.755 12.049,3.212 14.897,3.608 26.5,3.684 7.15,0.047 17.139,-0.539 22.198,-1.302 l 9.197,-1.388 -0.572,-2.861 c -0.516,-2.578 -0.188,-3.025 3.302,-4.502 3.4,-1.44 5.237,-1.501 14.987,-0.502 14.101,1.447 25.008,1.446 38.861,-0 11.382,-1.189 36.496,-0.631 119.527,2.656 44.312,1.754 52.774,2.285 65,4.079 15.768,2.314 25.985,1.74 26.015,-1.461 0.039,-4.16 0.873,-4.326 25.612,-5.092 l 23.873,-0.741 11.107,-3.724 c 14.528,-4.871 16.818,-6.359 20.107,-13.064 l 2.703,-5.512 h 9.069 c 9.872,0 10.987,-0.43 17.764,-6.852 4.63,-4.388 4.781,-7.131 0.742,-13.5 l -3.008,-4.743 3.577,-1.495 c 3.178,-1.328 4.879,-1.325 15.221,0.022 10.577,1.378 12.533,1.977 21.358,6.543 5.343,2.764 10.985,5.016 12.538,5.005 1.552,-0.01 5.747,-1.794 9.322,-3.963 3.575,-2.17 8.731,-5.29 11.458,-6.935 2.879,-1.736 7.281,-3.322 10.5,-3.781 10.606,-1.514 54.545,-0.898 69.317,0.972 21.41,2.71 50.95,3.867 90.225,3.533 l 36,-0.306 16.878,-8.25 c 9.554,-4.67 18.161,-8.25 19.836,-8.25 1.627,0 5.747,0.743 9.156,1.652 3.761,1.002 7.562,1.394 9.665,0.997 5.154,-0.974 9.965,-4.241 9.965,-6.769 0,-1.182 -2.044,-6.476 -4.541,-11.764 -3.759,-7.96 -5.697,-10.703 -11.25,-15.929 l -6.709,-6.313 6.5,0.678 c 8.911,0.928 13.192,3.043 22.4,11.065 13.986,12.185 16.963,14.298 21.5,15.266 5.541,1.182 7.464,0.524 6.635,-2.271 -0.345,-1.162 -1.258,-4.362 -2.029,-7.112 -5.362,-19.126 -8.375,-24.03 -32.602,-53.077 -10.688,-12.814 -12.301,-14.328 -17.978,-16.876 -9.695,-4.351 -28.28,-10.948 -53.698,-19.06 -21.553,-6.88 -24.875,-7.652 -45,-10.461 -13.318,-1.86 -40.99,-7.125 -71.495,-13.605 l -49.767,-10.572 -42.37,9.212 -42.371,9.212 -38.862,-10.282 -38.863,-10.281 -22.602,-14.346 -22.602,-14.345 -23.031,-28.759 c -28.318,-35.363 -48.239,-61.823 -52.093,-69.194 -3.307,-6.326 -3.23,-7.061 1.802,-17.066 7.871,-15.65 15.932,-26.558 42.397,-57.369 23.162,-26.966 49.119,-59.354 53.936,-67.301 2.057,-3.393 5.106,-9.468 6.776,-13.5 3.625,-8.754 13.773,-47.099 17.29,-65.33 5.836,-30.263 14.627,-94.317 14.627,-106.586 0,-3.089 -1.342,-16.26 -2.982,-29.268 -1.639,-13.008 -3.393,-30.512 -3.896,-38.898 -1.355,-22.59 -3.702,-27.349 -31.76,-64.403 -12.685,-16.754 -16.627,-23.298 -17.747,-29.469 -0.362,-1.993 -2.974,-6.943 -5.805,-11 -4.965,-7.115 -33.739,-36.783 -48.464,-49.969 l -7.155,-6.407 -1.083,-14 c -3.477,-44.942 -3.626,-78.323 -0.509,-114 1.831,-20.961 3.041,-28.904 4.975,-32.643 0.822,-1.591 5.779,-6.056 11.014,-9.922 5.235,-3.867 12.222,-9.776 15.527,-13.133 13.217,-13.423 32.078,-43.523 51.257,-81.802 14.969,-29.877 23.833,-50.623 30.588,-71.598 14.417,-44.764 58.75,-177.496 70.109,-209.902 23.528,-67.125 29.543,-82.361 33.555,-84.989 3.218,-2.109 35.216,-27.663 78.376,-62.591 42.827,-34.66 44.392,-36.33 82.017,-87.537 38.817,-52.827 44.376,-59.822 52.436,-65.969 10.601,-8.085 43.791,-25.379 89.755,-46.767 23.558,-10.962 56.632,-28.312 78.292,-41.07 21.552,-12.694 30.735,-16.536 39.595,-16.565 6.952,-0.023 8.843,5.44 8.881,25.656 0.013,7.243 0.297,13.88 0.631,14.75 1.763,4.595 7.14,-0.145 16.274,-14.347 l 6.065,-9.43 0.277,15.171 0.277,15.172 13.211,-22.242 c 20.063,-33.777 27.174,-44.297 32.866,-48.619 2.708,-2.056 9.705,-7.378 15.549,-11.826 5.844,-4.448 15.519,-10.597 21.5,-13.665 6.145,-3.151 14.683,-8.65 19.633,-12.645 10.132,-8.176 8.917,-8.846 12.73,7.013 1.256,5.225 2.576,10.06 2.934,10.744 0.371,0.711 3.189,-3.892 6.58,-10.75 3.262,-6.597 6.17,-11.989 6.464,-11.982 0.293,0.01 2.558,3.92 5.033,8.697 2.475,4.776 8.279,14.784 12.898,22.238 14.875,24.006 29.738,50.757 31.522,56.734 0.955,3.201 9.778,30.569 19.606,60.819 37.673,115.946 40.49,126.284 41.829,153.5 l 0.862,17.5 4.227,9.5 c 9.668,21.73 39.154,73.95 49.61,87.859 5.556,7.392 9.75,10.141 15.469,10.141 3.732,0 4.802,0.542 8.27,4.188 4.529,4.76 9.902,15.462 12.206,24.312 0.86,3.3 1.975,12.525 2.479,20.5 0.97,15.335 2.471,22.006 6.406,28.453 3.764,6.168 31.353,37.421 38.895,44.06 9.492,8.355 28.719,21.633 38.221,26.395 11.778,5.902 14.563,6.274 41.432,5.529 l 23.568,-0.653 6.837,7.633 6.837,7.633 1.326,13.225 c 1.952,19.465 3.282,23.564 8.323,25.652 2.375,0.983 3.589,0.928 6.525,-0.299 6.784,-2.834 9.67,-11.406 11.642,-34.569 0.583,-6.843 1.212,-12.594 1.399,-12.781 0.186,-0.187 2.887,2.413 6.002,5.777 5.752,6.214 9.336,12.231 11.581,19.445 2.02,6.494 9.177,22.5 10.06,22.5 1.411,0 9.679,-13.289 11.339,-18.226 0.874,-2.599 2.482,-11.416 3.573,-19.594 1.558,-11.681 6.527,-37.459 8.419,-43.68 0.167,-0.55 2.169,4.625 4.447,11.5 2.774,8.37 4.361,15.199 4.803,20.667 0.637,7.874 0.513,8.56 -3.438,19.103 -4.942,13.184 -6.131,18.115 -5.066,20.996 0.858,2.32 4.223,3.611 7.994,3.067 2.494,-0.36 14.748,-14.084 17.335,-19.414 0.823,-1.695 3.308,-10.02 5.524,-18.5 3.754,-14.37 4.028,-16.35 4.033,-29.101 0,-11.941 -0.374,-15.155 -2.975,-25.241 -4.656,-18.058 -9.39,-29.408 -20.639,-49.485 l -10.417,-18.592 3.268,-1.361 c 1.797,-0.748 5.396,-1.362 7.997,-1.365 4.216,0 5.949,0.806 16,7.48 14.36,9.535 24.034,14.764 35.302,19.08 4.933,1.89 15.719,6.477 23.969,10.195 22.35,10.071 33.511,14.492 38.247,15.151 3.283,0.457 6.913,-0.254 16,-3.137 l 11.753,-3.727 6.989,2.342 c 8.518,2.854 9.476,4.389 9.496,15.21 0.015,7.798 0.049,7.902 3.897,11.75 2.986,2.985 4.661,3.878 7.25,3.867 5.813,-0.027 7.252,-2.132 8.954,-13.101 1.284,-8.279 2.433,-11.884 3.785,-11.884 1.186,0 3.803,14.918 4.65,26.5 0.731,10.009 3.593,18.408 5.727,16.81 11.228,-8.405 15.242,-12.169 16.811,-15.762 4.826,-11.052 5.874,-42.286 2.097,-62.535 -2.033,-10.9 -3.585,-15.436 -12.205,-35.677 -5.432,-12.754 -10.163,-24.332 -10.513,-25.727 -0.854,-3.404 -6.193,-8.168 -24.529,-21.884 -8.475,-6.34 -16.827,-13.034 -18.56,-14.876 -1.734,-1.842 -14.715,-22.181 -28.848,-45.198 -22.139,-36.058 -27.499,-45.607 -38.728,-69 -25.485,-53.091 -30.327,-65.321 -33.715,-85.151 -6.496,-38.022 -7.351,-55.487 -9.669,-197.5 -1.962,-120.206 -1.569,-136.045 4.829,-194.5 1.851,-16.914 2.19,-25.71 2.193,-57 0,-40.223 -1.614,-95.093 -3.921,-133 -6.819,-112.022 -8.092,-139.948 -6.702,-147 0.542,-2.75 2.633,-11.975 4.646,-20.5 4.707,-19.925 9.112,-40.697 11.096,-52.321 2.363,-13.84 9.574,-46.054 10.541,-47.09 0.502,-0.538 5.192,0.768 11.456,3.19 l 10.606,4.101 -0.602,-2.69 c -0.332,-1.479 -4.132,-14.615 -8.446,-29.19 -4.314,-14.575 -7.77,-26.59 -7.68,-26.7 0.089,-0.111 3.216,0.496 6.948,1.347 3.732,0.851 7.026,1.307 7.32,1.013 0.294,-0.294 -1.537,-6.751 -4.069,-14.348 -2.532,-7.598 -4.604,-14.376 -4.604,-15.063 0,-0.963 5.379,-1.249 23.5,-1.249 12.925,0 23.5,-0.219 23.5,-0.486 0,-0.267 -7.187,-9.538 -15.972,-20.602 l -15.971,-20.117 -6.467,-19.647 c -7.931,-24.099 -15.261,-48.623 -15.736,-52.648 -0.299,-2.53 -0.043,-2.946 1.628,-2.653 2.985,0.523 14.298,8.84 26.397,19.408 2.994,2.616 5.586,4.614 5.759,4.44 0.173,-0.173 -1.206,-15.813 -3.064,-34.755 -1.859,-18.942 -3.278,-34.548 -3.154,-34.679 0.124,-0.132 2.612,1.798 5.53,4.289 2.918,2.491 5.437,4.396 5.599,4.234 0.162,-0.161 -1.476,-6.142 -3.639,-13.289 -7.166,-23.675 -11.874,-44.181 -12.939,-56.355 -1.616,-18.479 -4.76,-36.29 -16.09,-91.14 -8.868,-42.932 -10.78,-50.787 -17,-69.823 -5.328,-16.311 -18.047,-51.234 -24.22,-66.507 l -3.569,-8.83 3.704,0.548 c 8.402,1.245 45.392,4.757 45.8,4.35 0.242,-0.243 -5.597,-11.758 -12.978,-25.59 -7.38,-13.831 -12.9,-25.146 -12.268,-25.144 0.633,0 11.676,2.939 24.542,6.525 12.866,3.586 23.494,6.397 23.619,6.246 0.124,-0.151 -6.891,-11.075 -15.591,-24.275 -8.7,-13.2 -15.832,-24.45 -15.849,-25 -0.018,-0.55 10.422,-6.307 23.198,-12.794 12.777,-6.486 27.056,-14.147 31.731,-17.024 11.048,-6.798 11.285,-8.107 3.984,-22.019 -5.556,-10.587 -6.016,-13.951 -1.984,-14.509 3.66,-0.506 5,-2.001 5,-5.579 0,-5.943 -10.496,-25.031 -20.111,-36.575 -11.547,-13.864 -41.525,-74.681 -44.372,-90.018 -0.56,-3.019 -0.149,-4.177 2.903,-8.174 6.37,-8.342 36.074,-32.653 72.08,-58.994 l 17,-12.436 5.19,-9.939 c 2.855,-5.467 6.411,-13.66 7.903,-18.207 3.147,-9.593 3.026,-10.402 -3.738,-24.947 -9.695,-20.847 -13.972,-30.923 -17.004,-40.054 -2.827,-8.516 -3.238,-11.104 -3.291,-20.731 -0.089,-16.242 2.353,-19.476 15.44,-20.445 l 7.5,-0.555 0.317,-3.856 c 0.174,-2.121 -0.612,-11.143 -1.746,-20.049 -6.752,-53.028 -6.352,-45.502 -7.041,-132.595 l -0.636,-80.5 -7.267,-50.5 c -9.97,-69.286 -18.509,-130.308 -22.738,-162.5 l -3.547,-27 -0.888,-74.5 c -1.126,-94.517 -2.706,-167.682 -3.995,-185 -0.552,-7.425 -1.949,-18.45 -3.105,-24.5 -2.858,-14.963 -1.776,-29.178 3.656,-48 0.793,-2.75 1.712,-8.439 2.041,-12.642 l 0.599,-7.641 6.675,-0.699 c 8.622,-0.903 13.068,-3.017 14.734,-7.005 0.722,-1.728 2.937,-16.838 4.922,-33.577 5.58,-47.043 5.88,-48.603 12.093,-62.84 4.52,-10.356 5.91,-15.042 8.42,-28.387 1.653,-8.791 3.006,-16.371 3.006,-16.846 0,-0.475 0.944,-0.863 2.099,-0.863 1.154,0 3.685,-0.753 5.623,-1.672 6.629,-3.146 6.397,-0.348 7.123,-85.631 l 0.655,-76.91298 11.4,-6.142 11.4,-6.142 12.883,-35.5 c 17.279,-47.616 34.966,-94.83 41.02,-109.5 2.724,-6.6 7.181,-18.525 9.904,-26.5 10.769,-31.539 49.252,-159.287 108.866,-361.396 9.977,-33.821 23.222,-85.146 28.026,-108.6 l 3.06,-14.936 -2.031,-11.904 c -1.117,-6.547 -3.169,-17.474 -4.559,-24.284 -3.978,-19.475 -7.469,-40.61 -7.469,-45.214 0,-2.317 1.078,-8.477 2.396,-13.689 1.317,-5.212 3.795,-17.802 5.506,-27.977 7.789,-46.33 9.443,-67.246 6.646,-84.058 -2.761,-16.594996 -13.55,-45.100996 -24.281,-64.148996 -11.388,-20.214 -18.714,-27.722 -27.71,-28.396 -2.44,-0.182 -9.02,-1.493 -14.622,-2.914 -20.7,-5.2470001 -50.299,-10.61100012 -60.935,-11.04200012 -5.775,-0.235 -10.95,-0.25 -11.5,-0.034"
     stroke="none"
     fill="#000000"
     fill-rule="evenodd"
     id="path2" />
</svg>
