<?xml version="1.0" encoding="UTF-8" standalone="no"?>
<!-- Uploaded to: SVG Repo, www.svgrepo.com, Generator: SVG Repo Mixer Tools -->

<svg
   fill="#000000"
   height="800px"
   width="800px"
   version="1.1"
   id="Layer_1"
   viewBox="0 0 512.002 512.002"
   xml:space="preserve"
   sodipodi:docname="flower-pink.svg"
   inkscape:version="1.1.2 (0a00cf5339, 2022-02-04)"
   xmlns:inkscape="http://www.inkscape.org/namespaces/inkscape"
   xmlns:sodipodi="http://sodipodi.sourceforge.net/DTD/sodipodi-0.dtd"
   xmlns="http://www.w3.org/2000/svg"
   xmlns:svg="http://www.w3.org/2000/svg"><defs
   id="defs1559" /><sodipodi:namedview
   id="namedview1557"
   pagecolor="#ffffff"
   bordercolor="#666666"
   borderopacity="1.0"
   inkscape:pageshadow="2"
   inkscape:pageopacity="0.0"
   inkscape:pagecheckerboard="0"
   showgrid="false"
   inkscape:zoom="1.09125"
   inkscape:cx="202.97824"
   inkscape:cy="400"
   inkscape:window-width="2560"
   inkscape:window-height="1600"
   inkscape:window-x="0"
   inkscape:window-y="0"
   inkscape:window-maximized="1"
   inkscape:current-layer="Layer_1" />
<g
   id="g1548">
	<g
   id="g1546">
		<path
   d="M511.477,197.586c-1.364-4.198-5.163-7.128-9.568-7.382c-22.209-1.28-43.503-8.794-61.58-21.73    c-31.892-22.825-75.651-20.589-106.256,4.762c14.777-36.965,3.397-79.399-28.229-102.725    c-17.89-13.195-31.617-31.126-39.697-51.852c-1.603-4.111-5.564-6.818-9.977-6.818c-4.413,0-8.374,2.707-9.977,6.818    c-8.08,20.724-21.804,38.652-39.69,51.846c-31.75,23.421-43.092,66.103-28.051,103.165c-30.603-25.759-74.698-28.157-106.78-5.198    c-18.078,12.936-39.372,20.451-61.58,21.731c-4.406,0.255-8.204,3.185-9.569,7.382c-1.363,4.196-0.013,8.8,3.402,11.594    c17.213,14.088,30.022,32.681,37.044,53.768c11.794,35.418,45.621,58.789,83.024,58.787c2.102,0,4.222-0.074,6.343-0.225    c-33.904,21.16-49.779,62.322-37.866,99.902c6.717,21.191,7.283,43.765,1.638,65.281c-1.119,4.268,0.494,8.787,4.064,11.38    c3.57,2.594,8.366,2.732,12.078,0.348c18.717-12.017,40.358-18.454,62.583-18.615c39.219-0.285,73.309-27.817,83.158-66.283    c9.849,38.465,43.94,65.997,83.158,66.283c22.225,0.162,43.866,6.597,62.583,18.615c1.766,1.134,6.672,3.437,12.082-0.347    c3.615-2.531,5.184-7.112,4.064-11.379c-5.645-21.518-5.079-44.093,1.638-65.283c11.911-37.58-3.964-78.743-37.867-99.902    c39.856,2.822,76.922-21.148,89.38-58.562c7.022-21.087,19.831-39.68,37.044-53.768    C511.49,206.386,512.84,201.783,511.477,197.586z M450.71,256.181c-9.775,29.354-39.88,47.674-71.573,43.563l-50.527-6.556    c-5.071-0.706-9.944,2.283-11.604,7.146c-1.684,4.934,0.428,10.364,5.005,12.86l44.798,24.439    c28.059,15.308,41.639,47.82,32.292,77.308c-5.634,17.775-7.609,36.374-5.898,54.764c-16.959-7.309-35.252-11.177-53.896-11.313    c-30.93-0.225-57.649-23.179-63.542-54.581l-9.082-50.125c-0.922-5.082-5.34-8.784-10.505-8.799c-0.011,0-0.021,0-0.032,0    c-5.152,0-9.576,3.67-10.525,8.737l-9.393,50.159c-5.884,31.418-32.61,54.384-63.548,54.609    c-18.643,0.136-36.937,4.004-53.896,11.313c1.711-18.39-0.263-36.988-5.898-54.764c-9.348-29.488,4.233-62.001,32.292-77.309    l44.796-24.436c4.524-2.468,6.648-7.808,5.055-12.709c-1.448-4.456-5.594-7.399-10.176-7.399c-0.458,0-0.921,0.031-1.386,0.088    l-50.606,6.567c-31.693,4.117-61.798-14.208-71.573-43.563c-5.89-17.689-15.222-33.892-27.415-47.762    c18.02-4.055,35.098-11.68,50.263-22.533c25.156-18.001,60.273-15.134,83.508,6.827l37.121,35.035    c3.746,3.535,9.479,3.902,13.647,0.873c4.166-3.03,5.584-8.597,3.375-13.252l-21.884-46.101    c-13.706-28.876-5.584-63.166,19.314-81.533c15.003-11.068,27.529-24.95,36.953-40.832c9.426,15.884,21.955,29.77,36.961,40.84    c24.895,18.363,33.019,52.647,19.316,81.524l-21.877,46.103c-2.213,4.663-0.784,10.242,3.398,13.267    c4.182,3.025,9.927,2.637,13.663-0.924l36.731-35.004c23.227-21.954,58.345-24.823,83.502-6.822    c15.164,10.852,32.243,18.477,50.263,22.532C465.932,222.289,456.6,238.491,450.71,256.181z"
   id="path1544" />
	</g>
</g>
<g
   id="g1554">
	<g
   id="g1552">
		<path
   d="M255.999,226.86c-28.511,0-51.705,23.194-51.705,51.704c0,28.51,23.195,51.704,51.705,51.704s51.705-23.194,51.705-51.704    C307.704,250.055,284.509,226.86,255.999,226.86z M255.999,308.853c-16.702,0-30.289-13.587-30.289-30.288    s13.588-30.288,30.289-30.288s30.289,13.587,30.289,30.288S272.701,308.853,255.999,308.853z"
   id="path1550" />
	</g>
</g>
<path
   style="fill:#ffd5d5;stroke-width:6.25852"
   d="m 186.75341,720.10976 c 0.79186,-25.07991 -1.99977,-43.88466 -11.53889,-77.72717 -2.07402,-7.35816 -2.32469,-9.92714 -2.32481,-23.82589 -1.2e-4,-14.10882 0.2355,-16.44296 2.49757,-24.74227 6.3115,-23.15619 21.43842,-45.22508 40.06382,-58.44965 3.33201,-2.36582 23.00278,-13.56198 43.71284,-24.88034 20.71005,-11.31836 38.69825,-21.26264 39.97377,-22.0984 6.74475,-4.41932 8.74528,-15.90273 4.01554,-23.04985 -2.83346,-4.28165 -8.85199,-7.60423 -13.77433,-7.60423 -1.80626,0 -22.37028,2.47423 -45.69781,5.49828 -23.32753,3.02406 -45.81335,5.49828 -49.9685,5.49828 -27.44622,0 -54.2186,-10.94016 -73.1841,-29.90566 -12.20009,-12.20009 -18.10373,-21.95013 -25.726691,-42.48838 -8.6104,-23.19868 -18.04909,-40.58823 -32.19289,-59.31119 l -8.461688,-11.20121 3.854215,-0.9718 c 24.42548,-6.15863 45.591064,-15.593 68.051844,-30.33348 27.103,-17.78706 42.83565,-22.77826 68.13083,-21.61459 17.76035,0.81706 32.95221,5.2581 47.74027,13.95595 10.31605,6.06757 14.3085,9.50478 47.94783,41.27962 17.03181,16.0878 32.48945,29.98421 34.35032,30.88091 2.37382,1.14389 4.9515,1.53691 8.63853,1.31712 9.03031,-0.53831 15.35913,-7.41326 15.36201,-16.68765 9.2e-4,-4.05516 -2.14303,-9.09969 -18.82827,-44.29423 -10.35633,-21.84483 -20.05382,-43.37166 -21.54998,-47.8374 -8.33282,-24.8718 -6.79393,-52.58055 4.21339,-75.86473 8.14565,-17.23079 15.46981,-25.97382 34.33352,-40.98477 19.70599,-15.68119 36.63593,-33.88724 48.52493,-52.182535 2.61653,-4.026427 4.89192,-7.455372 5.05642,-7.619879 0.16451,-0.164508 2.88317,3.542212 6.04146,8.237154 3.15829,4.694943 8.00735,11.422858 10.77569,14.950922 7.5584,9.632668 27.77284,29.357398 38.7025,37.764888 23.12608,17.78942 35.80295,37.7606 40.84438,64.34639 1.85889,9.80278 1.86579,28.25444 0.0141,37.71696 -2.3952,12.24001 -5.83755,20.63617 -25.13902,61.31593 -16.78774,35.38184 -18.91266,40.37626 -18.90922,44.44444 0.01,11.69151 11.48249,19.78634 22.76526,16.06269 2.40864,-0.79492 12.19085,-9.53587 34.9163,-31.1997 17.36361,-16.55246 33.94718,-31.9044 36.85238,-34.11541 17.76343,-13.51895 37.003,-20.53478 58.97892,-21.50701 24.46057,-1.08216 42.1804,4.30508 65.32885,19.86151 12.71705,8.54621 23.71407,14.72569 35.00825,19.67192 9.22792,4.04133 27.94098,10.55177 35.84557,12.47099 l 3.85422,0.93579 -8.54483,11.2767 c -13.94097,18.39806 -23.49252,36.01864 -32.10973,59.2357 -7.66737,20.65789 -13.53924,30.32111 -25.86757,42.56973 -19.16338,19.03947 -45.57671,29.82431 -73.04323,29.82431 -4.15515,0 -26.64097,-2.47422 -49.9685,-5.49828 -23.32753,-3.02405 -43.89155,-5.49828 -45.69781,-5.49828 -4.92234,0 -10.94087,3.32258 -13.77433,7.60423 -4.72974,7.14712 -2.72921,18.63053 4.01554,23.04985 1.27552,0.83576 19.26372,10.78004 39.97377,22.0984 20.71006,11.31836 40.38083,22.51936 43.71284,24.89112 21.68393,15.43481 37.51236,41.00367 41.8184,67.55244 2.56005,15.78386 1.5656,28.51997 -3.65494,46.80981 -7.07811,24.79772 -10.1895,47.82971 -9.47705,70.15365 0.36426,11.41373 0.24702,12.82833 -1.02835,12.40757 -0.79172,-0.26119 -6.18176,-2.13538 -11.97786,-4.16485 -18.33613,-6.42031 -33.56613,-9.67386 -51.77549,-11.06072 -6.55212,-0.49902 -17.27791,-1.30774 -23.83509,-1.79715 -7.7347,-0.5773 -14.81569,-1.72149 -20.16037,-3.25764 -32.34689,-9.29708 -58.61233,-34.77795 -69.56445,-67.48652 -1.29176,-3.85784 -5.88886,-26.51433 -10.21579,-50.34776 -5.02622,-27.68526 -8.50982,-44.59327 -9.64686,-46.82207 -2.18058,-4.27427 -7.67924,-8.05976 -12.68201,-8.73077 -7.38608,-0.99068 -16.05718,4.5513 -18.23541,11.65482 -0.54093,1.76403 -4.49275,21.97589 -8.78184,44.91524 -4.28908,22.93936 -8.84053,44.90064 -10.11434,48.80284 -9.9066,30.34805 -33.43812,55.06636 -62.52994,65.68356 -10.92943,3.98875 -19.17291,5.37523 -38.05861,6.40114 -26.43872,1.43619 -43.75524,4.65173 -64.858,12.04361 -5.7961,2.03025 -11.18614,3.90508 -11.97786,4.16627 -1.27443,0.42046 -1.39364,-0.97717 -1.03963,-12.18927 z M 420.96518,513.67644 c 41.54794,-11.30764 67.11875,-52.85636 58.39965,-94.89064 -3.35688,-16.18338 -10.619,-29.45869 -22.5583,-41.23712 -31.68231,-31.25541 -81.93075,-31.25541 -113.61306,0 -11.9393,11.77843 -19.20142,25.05374 -22.5583,41.23712 -8.75325,42.19891 17.39692,84.42033 58.74627,94.85031 10.32875,2.60533 10.58863,2.6315 22.90951,2.30693 8.06422,-0.21243 13.59167,-0.88333 18.67423,-2.2666 z"
   id="path1763"
   transform="scale(0.6400025)" /><path
   style="fill:#ffd5d5;stroke-width:6.25852"
   d="m 393.49563,481.57836 c -10.43504,-1.56975 -19.04128,-5.90383 -26.4654,-13.32795 -9.04103,-9.04103 -13.62443,-20.1324 -13.62443,-32.96977 0,-22.40848 15.32257,-41.16236 37.4304,-45.81251 8.00788,-1.68437 10.31972,-1.68437 18.3276,0 36.61128,7.70079 50.13448,52.45377 23.80597,78.78228 -10.32666,10.32666 -25.45966,15.43612 -39.47414,13.32795 z"
   id="path1802"
   transform="scale(0.6400025)" /><path
   style="fill:#ff8080;stroke-width:6.25852"
   d="m 186.89481,728.75143 c -0.0258,-1.63803 -0.011,-8.33906 0.0327,-14.89118 0.12578,-18.84458 -2.6958,-37.62928 -9.42877,-62.77205 -3.69085,-13.78264 -3.81238,-14.69308 -4.09777,-30.69874 -0.27155,-15.22981 -0.11472,-17.19764 2.04493,-25.65865 4.664,-18.27253 15.97684,-37.20076 30.47003,-50.9813 8.14418,-7.74374 15.13549,-12.09348 52.04509,-32.3806 12.60023,-6.92564 25.17755,-13.9436 27.9496,-15.59547 2.77205,-1.65187 7.20932,-4.12832 9.86062,-5.5032 5.46848,-2.83579 7.82214,-5.66361 9.30857,-11.18377 2.29336,-8.51688 -2.07527,-16.82512 -10.54848,-20.06107 -3.90894,-1.49284 -4.83944,-1.47291 -20.78939,0.44508 -9.18352,1.10432 -17.93442,2.18494 -19.44644,2.40138 -6.04384,0.86514 -49.9223,5.87257 -56.36999,6.43296 -15.18867,1.32013 -34.10083,-2.77865 -50.84648,-11.01983 -12.11091,-5.96024 -19.93934,-11.74725 -29.18188,-21.57214 -9.51599,-10.11555 -14.38072,-18.36759 -22.583846,-38.30891 -11.776878,-28.62893 -18.57402,-41.14983 -32.797966,-60.41659 -4.142892,-5.61166 -7.53253,-10.39215 -7.53253,-10.6233 0,-0.23116 2.371134,-1.13837 5.269187,-2.01605 14.541284,-4.40383 22.765071,-7.14984 23.550973,-7.86396 0.478809,-0.43506 1.416351,-0.79103 2.083427,-0.79103 2.388004,0 26.619255,-12.71683 39.892335,-20.93594 28.79896,-17.83323 39.84595,-21.64073 62.53741,-21.55435 19.99856,0.0761 33.45281,3.30667 50.16869,12.04617 10.49982,5.48958 15.88837,9.88303 42.78364,34.88276 12.38137,11.50874 26.6353,24.75537 31.67539,29.43694 5.04009,4.68157 10.49077,9.07785 12.11261,9.7695 4.03695,1.72161 9.1665,1.54518 13.54604,-0.46591 4.35997,-2.0021 6.31379,-4.04571 8.21247,-8.58992 2.76892,-6.62694 1.91764,-10.08133 -7.24226,-29.38839 -30.94915,-65.23397 -34.37565,-73.97583 -36.37947,-92.81304 -1.94902,-18.3222 1.53267,-36.33004 10.61164,-54.88495 7.38187,-15.08649 12.48162,-21.20225 30.78139,-36.91384 23.81587,-20.44753 38.70632,-36.23848 49.2239,-52.200713 2.73852,-4.156187 5.33266,-7.775193 5.76475,-8.042237 0.75862,-0.468855 3.95939,3.571075 14.62895,18.464292 6.40573,8.941498 25.76023,28.534548 39.40436,39.890018 25.78238,21.45768 36.41863,37.45874 42.23949,63.54474 1.31173,5.87841 1.75026,31.79875 0.65893,38.94617 -1.46864,9.61842 -7.33373,24.02123 -25.00218,61.39748 -20.06313,42.44201 -21.2113,45.87717 -17.63349,52.75692 4.17725,8.03236 14.60184,11.84786 22.00498,8.05402 3.19615,-1.63791 12.96242,-10.4615 44.74959,-40.43017 11.40706,-10.75447 23.47033,-21.72924 26.80725,-24.38836 19.78175,-15.76358 49.18208,-23.86746 75.24759,-20.74115 16.23373,1.94708 30.03449,7.45458 48.56854,19.38236 22.61114,14.55162 38.75558,22.10133 64.37533,30.10416 5.1661,1.61373 9.3929,3.09852 9.3929,3.29953 0,0.20102 -2.82086,4.18103 -6.26859,8.84449 -15.34688,20.75846 -23.1213,34.91725 -33.95319,61.83555 -7.7857,19.34821 -13.04068,28.39959 -22.15274,38.1567 -20.63595,22.09677 -53.26574,35.52197 -80.5682,33.14898 -5.48265,-0.47651 -42.30399,-4.70279 -55.45361,-6.36483 -25.26406,-3.19325 -36.801,-4.29869 -39.52669,-3.78735 -2.22067,0.4166 -4.73004,2.05347 -7.69797,5.0214 -5.26927,5.26928 -6.3829,9.75037 -4.19743,16.88986 1.27616,4.16892 4.54125,8.82499 6.18858,8.82499 0.58881,0 9.33142,4.7779 20.49124,11.19861 1.00802,0.57995 11.11111,6.16978 22.45132,12.42185 38.86055,21.42456 44.87992,25.41739 55.38975,36.74176 10.39518,11.20083 19.67158,27.77926 23.90973,42.73056 5.54472,19.56061 5.15252,32.86187 -1.79373,60.83389 -6.75666,27.20855 -8.77509,42.35417 -8.77646,65.85569 -5.2e-4,8.83121 -0.32485,13.05842 -1.00191,13.05842 -0.55061,0 -8.07639,-2.25814 -16.72394,-5.01807 -8.64754,-2.75995 -16.75373,-5.19422 -18.01375,-5.4095 -1.26003,-0.21528 -3.32188,-0.63327 -4.5819,-0.92886 -6.70634,-1.57326 -19.55657,-3.09465 -39.40436,-4.66525 -19.68443,-1.55769 -25.38599,-2.50601 -34.28724,-5.70294 -33.27094,-11.94941 -58.45462,-40.24339 -66.06051,-74.21932 -1.72667,-7.71309 -8.11248,-40.49935 -11.11979,-57.09157 -3.18938,-17.59677 -6.11355,-30.02623 -7.64818,-32.50931 -1.06985,-1.73107 -3.92022,-4.09058 -6.6992,-5.54556 -4.10302,-2.14821 -5.48093,-2.43595 -9.08032,-1.89619 -4.88311,0.73226 -11.04497,4.7991 -12.94991,8.54696 -1.12056,2.20468 -4.13906,14.97158 -5.6137,23.74348 -0.26608,1.58277 -3.55955,18.39377 -7.31883,37.35778 -5.18836,26.17306 -7.58919,36.32975 -9.96525,42.15778 -9.46619,23.21875 -26.64734,42.33002 -48.06178,53.46099 -15.61503,8.11652 -24.53136,10.18219 -52.44385,12.14986 -11.77271,0.8299 -28.95023,3.0565 -38.2051,4.95225 -4.13445,0.8469 -15.72251,4.27733 -24.97813,7.3943 -5.26401,1.77274 -10.10846,3.22317 -10.76544,3.22317 -0.72715,0 -1.21282,-1.16528 -1.24129,-2.97824 z m 223.929,-213.291 c 10.1036,-1.33545 16.22523,-3.16702 24.67659,-7.38317 9.06702,-4.52327 15.22095,-9.12568 22.74597,-17.01128 10.25183,-10.74308 16.44092,-21.64322 20.22783,-35.62497 2.84246,-10.49471 2.87064,-29.95534 0.0582,-40.16364 -6.31936,-22.9372 -21.13933,-41.44002 -41.64555,-51.99476 -13.09854,-6.74194 -21.38955,-8.65172 -37.34502,-8.60219 -11.92715,0.037 -14.12955,0.30449 -21.5122,2.61245 -19.41638,6.06994 -34.68565,17.22961 -45.26887,33.08514 -5.59398,8.38076 -7.71762,12.9081 -10.74616,22.9095 -2.21988,7.33087 -2.49917,9.7241 -2.5132,21.53494 -0.0129,10.88235 0.34856,14.61451 1.9971,20.61856 11.04729,40.23458 48.51959,65.41295 89.32533,60.01942 z"
   id="path902"
   transform="scale(0.6400025)" /><path
   style="fill:#ff8080;stroke-width:6.25852"
   d="m 386.71249,479.82979 c -8.32255,-2.69074 -12.97295,-5.55853 -19.3444,-11.9292 -9.33928,-9.33814 -13.6453,-19.63195 -13.6453,-32.61995 0,-22.83792 15.54434,-41.21833 38.8629,-45.95347 6.63878,-1.3481 7.86976,-1.34922 14.6501,-0.0134 18.7198,3.688 33.11469,16.72485 37.63669,34.08599 2.86203,10.98807 1.44811,23.37406 -3.86625,33.86842 -2.90291,5.73243 -12.94562,15.73351 -19.08171,19.0026 -10.00428,5.32994 -25.03543,6.84919 -35.21203,3.55903 z"
   id="path941"
   transform="scale(0.6400025)" /><path
   style="fill:#ffaaaa;stroke-width:6.25852"
   d="m 187.45167,729.63546 c -0.23374,-1.11622 -0.60448,-10.27693 -0.82387,-20.35711 -0.45337,-20.83064 -1.77226,-29.72278 -8.35405,-56.32397 l -4.18634,-16.91961 -0.0882,-17.44465 c -0.0827,-16.34545 0.0648,-17.95857 2.33929,-25.60079 7.31704,-24.58435 22.54558,-45.55623 42.67639,-58.77148 4.78809,-3.14323 24.78809,-14.64618 44.44445,-25.56212 19.65636,-10.91595 36.85261,-21.05007 38.21389,-22.52026 3.12153,-3.37127 4.73222,-9.2335 3.95712,-14.40222 -1.07232,-7.15074 -9.2564,-14.00757 -16.70495,-13.99581 -1.91011,0.003 -18.52448,1.82501 -36.92081,4.04888 -47.67355,5.76309 -54.08149,6.32763 -65.45046,5.76623 -23.26284,-1.14871 -46.15207,-11.11092 -63.55767,-27.66257 C 109.3629,426.92534 105.54847,420.7385 92.92008,391.10736 82.392532,366.40563 76.508193,355.74942 63.595772,338.00271 c -3.723818,-5.11798 -6.993477,-9.88628 -7.26591,-10.59623 -0.370541,-0.96562 2.340941,-2.18659 10.76266,-4.84636 21.946344,-6.93117 32.753241,-12.07374 62.651458,-29.81334 28.58646,-16.9613 38.83182,-19.99056 64.02684,-18.93096 15.65279,0.65829 26.3901,3.17416 39.30626,9.20992 14.44906,6.75208 17.78425,9.40447 53.63233,42.6523 37.78945,35.04837 37.61218,34.90891 44.37848,34.91418 6.8779,0.005 12.30815,-3.29233 15.40137,-9.35296 3.71247,-7.27394 2.5983,-11.0508 -12.91911,-43.79367 -27.63049,-58.30239 -31.03463,-68.95063 -29.99746,-93.83295 0.55293,-13.26503 2.73647,-22.42478 8.53905,-35.82048 7.40829,-17.10264 12.7766,-23.74642 35.19639,-43.55886 23.16018,-20.46671 35.83064,-34.22886 49.26884,-53.513885 1.6454,-2.361294 3.41958,-4.028776 3.94263,-3.705516 0.52305,0.32326 4.49468,5.395417 8.82585,11.271459 10.28004,13.946792 20.84043,25.419872 35.00282,38.027972 28.59807,25.4595 35.95009,33.75351 43.18252,48.71531 7.21292,14.92144 8.33378,20.06884 8.89189,40.83445 0.31189,11.60482 0.11965,19.61337 -0.54523,22.71362 -2.15144,10.03184 -7.35705,22.34704 -31.14973,73.69271 -11.22405,24.22199 -13.6333,31.44286 -12.14657,36.40512 1.10423,3.68559 6.81072,9.54538 10.75666,11.04562 2.91026,1.10649 8.74926,1.12868 11.51662,0.0438 3.0088,-1.17956 8.49762,-6.03131 40.80972,-36.07311 31.27183,-29.07464 35.71192,-32.74356 46.37036,-38.31655 15.2736,-7.98615 31.28327,-11.83479 49.23057,-11.83479 21.13997,0 36.5116,4.99346 59.04801,19.18167 22.2091,13.98214 37.35292,21.25163 60.47435,29.0295 7.32235,2.46318 13.31336,4.7195 13.31336,5.01403 0,0.29454 -3.46868,5.3527 -7.70819,11.24036 -13.40877,18.6216 -21.15857,32.86123 -31.24652,57.41302 -9.41924,22.92428 -15.04959,31.98184 -26.93887,43.33668 -15.27694,14.59022 -35.10996,24.65279 -55.63455,28.22699 -9.47051,1.64922 -27.81119,0.50815 -65.90759,-4.10044 -18.66811,-2.25832 -37.53152,-4.39729 -41.91869,-4.75327 -7.59342,-0.61611 -8.14948,-0.53284 -11.57375,1.73323 -4.85731,3.21441 -8.39395,8.06403 -8.96035,12.2869 -0.63816,4.75784 1.13209,10.76935 4.11448,13.97223 1.36128,1.46192 18.96991,11.81168 39.13027,22.99945 43.26973,24.01208 49.96763,28.26223 59.1914,37.55992 18.01873,18.16312 28.85419,42.40207 29.87783,66.83682 0.53776,12.83661 -0.43375,20.0381 -5.68665,42.15349 -5.38653,22.67799 -6.91796,33.66473 -7.69776,55.22541 -0.39675,10.96963 -0.88711,20.08896 -1.08969,20.26518 -0.20258,0.17621 -7.58482,-1.92049 -16.40498,-4.65934 -20.69858,-6.42736 -29.10203,-8.02958 -54.12153,-10.31896 -26.50021,-2.42488 -32.85015,-3.36535 -40.99263,-6.07126 -25.64712,-8.52308 -49.47714,-30.06594 -60.74357,-54.91353 -4.2786,-9.43623 -6.77481,-19.61267 -13.70822,-55.88489 -7.35206,-38.46237 -9.72308,-49.32178 -11.55309,-52.91373 -1.69083,-3.31874 -9.94771,-8.01164 -14.06996,-7.99683 -4.12384,0.0149 -9.86915,2.68657 -12.99111,6.04129 -3.1027,3.33401 -4.44276,8.6559 -12.20093,48.45461 -10.31765,52.92865 -12.37416,59.85524 -22.35186,75.28403 -9.53174,14.73918 -22.5975,26.87952 -37.67947,35.01073 -14.66142,7.90446 -23.73313,10.13701 -50.8591,12.51641 -33.90936,2.97443 -40.91678,4.42379 -75.36295,15.58755 -0.62487,0.20251 -1.32736,-0.54507 -1.5611,-1.66131 z M 414.66208,515.08532 c 15.11692,-2.66511 28.30431,-9.35839 39.63292,-20.11573 12.55185,-11.91891 19.98438,-23.788 24.17927,-38.6122 2.97445,-10.5113 3.00099,-31.55287 0.0529,-41.95679 -4.62896,-16.33586 -15.08681,-32.2376 -27.82599,-42.31096 -7.2701,-5.74875 -18.59501,-11.97317 -26.53357,-14.58345 -12.65536,-4.16121 -34.85405,-4.25017 -46.95456,-0.18817 -33.86086,11.36672 -56.13806,38.97047 -58.00318,71.87195 -1.22776,21.65812 4.00086,39.02893 16.79121,55.78473 11.90197,15.59197 31.21144,27.28556 50.25319,30.43274 7.38091,1.2199 20.50537,1.07108 28.40779,-0.32212 z"
   id="path904"
   transform="scale(0.6400025)" /><path
   style="fill:#ffaaaa;stroke-width:6.25852"
   d="m 389.70232,480.21865 c -8.53364,-1.92612 -15.9518,-6.31275 -22.60859,-13.3693 -10.98491,-11.64458 -15.11605,-25.22859 -12.12858,-39.88112 3.73375,-18.31273 15.1461,-30.64961 33.46298,-36.17385 19.8523,-5.98731 43.46867,4.88887 52.83681,24.33324 6.70315,13.91295 6.00424,30.64127 -1.83939,44.0254 -2.70825,4.62128 -13.04845,14.43626 -17.71905,16.81902 -8.91305,4.5471 -22.61675,6.36543 -32.00418,4.24661 z"
   id="path943"
   transform="scale(0.6400025)" /></svg>
