<?xml version="1.0" encoding="UTF-8" standalone="no"?>
<!-- Uploaded to: SVG Repo, www.svgrepo.com, Generator: SVG Repo Mixer Tools -->

<svg
   fill="#000000"
   height="800px"
   width="800px"
   version="1.1"
   id="Layer_1"
   viewBox="0 0 512.002 512.002"
   xml:space="preserve"
   sodipodi:docname="flower-white.svg"
   inkscape:version="1.1.2 (0a00cf5339, 2022-02-04)"
   xmlns:inkscape="http://www.inkscape.org/namespaces/inkscape"
   xmlns:sodipodi="http://sodipodi.sourceforge.net/DTD/sodipodi-0.dtd"
   xmlns="http://www.w3.org/2000/svg"
   xmlns:svg="http://www.w3.org/2000/svg"><defs
   id="defs17" /><sodipodi:namedview
   id="namedview15"
   pagecolor="#ffffff"
   bordercolor="#666666"
   borderopacity="1.0"
   inkscape:pageshadow="2"
   inkscape:pageopacity="0.0"
   inkscape:pagecheckerboard="0"
   showgrid="false"
   inkscape:zoom="1.09125"
   inkscape:cx="400"
   inkscape:cy="400"
   inkscape:window-width="2560"
   inkscape:window-height="1600"
   inkscape:window-x="0"
   inkscape:window-y="0"
   inkscape:window-maximized="1"
   inkscape:current-layer="Layer_1" />
<g
   id="g6">
	<g
   id="g4">
		<path
   d="M511.477,197.586c-1.364-4.198-5.163-7.128-9.568-7.382c-22.209-1.28-43.503-8.794-61.58-21.73    c-31.892-22.825-75.651-20.589-106.256,4.762c14.777-36.965,3.397-79.399-28.229-102.725    c-17.89-13.195-31.617-31.126-39.697-51.852c-1.603-4.111-5.564-6.818-9.977-6.818c-4.413,0-8.374,2.707-9.977,6.818    c-8.08,20.724-21.804,38.652-39.69,51.846c-31.75,23.421-43.092,66.103-28.051,103.165c-30.603-25.759-74.698-28.157-106.78-5.198    c-18.078,12.936-39.372,20.451-61.58,21.731c-4.406,0.255-8.204,3.185-9.569,7.382c-1.363,4.196-0.013,8.8,3.402,11.594    c17.213,14.088,30.022,32.681,37.044,53.768c11.794,35.418,45.621,58.789,83.024,58.787c2.102,0,4.222-0.074,6.343-0.225    c-33.904,21.16-49.779,62.322-37.866,99.902c6.717,21.191,7.283,43.765,1.638,65.281c-1.119,4.268,0.494,8.787,4.064,11.38    c3.57,2.594,8.366,2.732,12.078,0.348c18.717-12.017,40.358-18.454,62.583-18.615c39.219-0.285,73.309-27.817,83.158-66.283    c9.849,38.465,43.94,65.997,83.158,66.283c22.225,0.162,43.866,6.597,62.583,18.615c1.766,1.134,6.672,3.437,12.082-0.347    c3.615-2.531,5.184-7.112,4.064-11.379c-5.645-21.518-5.079-44.093,1.638-65.283c11.911-37.58-3.964-78.743-37.867-99.902    c39.856,2.822,76.922-21.148,89.38-58.562c7.022-21.087,19.831-39.68,37.044-53.768    C511.49,206.386,512.84,201.783,511.477,197.586z M450.71,256.181c-9.775,29.354-39.88,47.674-71.573,43.563l-50.527-6.556    c-5.071-0.706-9.944,2.283-11.604,7.146c-1.684,4.934,0.428,10.364,5.005,12.86l44.798,24.439    c28.059,15.308,41.639,47.82,32.292,77.308c-5.634,17.775-7.609,36.374-5.898,54.764c-16.959-7.309-35.252-11.177-53.896-11.313    c-30.93-0.225-57.649-23.179-63.542-54.581l-9.082-50.125c-0.922-5.082-5.34-8.784-10.505-8.799c-0.011,0-0.021,0-0.032,0    c-5.152,0-9.576,3.67-10.525,8.737l-9.393,50.159c-5.884,31.418-32.61,54.384-63.548,54.609    c-18.643,0.136-36.937,4.004-53.896,11.313c1.711-18.39-0.263-36.988-5.898-54.764c-9.348-29.488,4.233-62.001,32.292-77.309    l44.796-24.436c4.524-2.468,6.648-7.808,5.055-12.709c-1.448-4.456-5.594-7.399-10.176-7.399c-0.458,0-0.921,0.031-1.386,0.088    l-50.606,6.567c-31.693,4.117-61.798-14.208-71.573-43.563c-5.89-17.689-15.222-33.892-27.415-47.762    c18.02-4.055,35.098-11.68,50.263-22.533c25.156-18.001,60.273-15.134,83.508,6.827l37.121,35.035    c3.746,3.535,9.479,3.902,13.647,0.873c4.166-3.03,5.584-8.597,3.375-13.252l-21.884-46.101    c-13.706-28.876-5.584-63.166,19.314-81.533c15.003-11.068,27.529-24.95,36.953-40.832c9.426,15.884,21.955,29.77,36.961,40.84    c24.895,18.363,33.019,52.647,19.316,81.524l-21.877,46.103c-2.213,4.663-0.784,10.242,3.398,13.267    c4.182,3.025,9.927,2.637,13.663-0.924l36.731-35.004c23.227-21.954,58.345-24.823,83.502-6.822    c15.164,10.852,32.243,18.477,50.263,22.532C465.932,222.289,456.6,238.491,450.71,256.181z"
   id="path2" />
	</g>
</g>
<g
   id="g12">
	<g
   id="g10">
		<path
   d="M255.999,226.86c-28.511,0-51.705,23.194-51.705,51.704c0,28.51,23.195,51.704,51.705,51.704s51.705-23.194,51.705-51.704    C307.704,250.055,284.509,226.86,255.999,226.86z M255.999,308.853c-16.702,0-30.289-13.587-30.289-30.288    s13.588-30.288,30.289-30.288s30.289,13.587,30.289,30.288S272.701,308.853,255.999,308.853z"
   id="path8" />
	</g>
</g>
<path
   style="fill:#ffffff;stroke-width:6.25852"
   d="m 186.75341,720.10976 c 0.79186,-25.07991 -1.99977,-43.88466 -11.53889,-77.72717 -2.07402,-7.35816 -2.32469,-9.92714 -2.32481,-23.82589 -1.2e-4,-14.10882 0.2355,-16.44296 2.49757,-24.74227 6.3115,-23.15619 21.43842,-45.22508 40.06382,-58.44965 3.33201,-2.36582 23.00278,-13.56198 43.71284,-24.88034 20.71005,-11.31836 38.69825,-21.26264 39.97377,-22.0984 6.74475,-4.41932 8.74528,-15.90273 4.01554,-23.04985 -2.83346,-4.28165 -8.85199,-7.60423 -13.77433,-7.60423 -1.80626,0 -22.37028,2.47423 -45.69781,5.49828 -23.32753,3.02406 -45.81335,5.49828 -49.9685,5.49828 -27.44622,0 -54.2186,-10.94016 -73.1841,-29.90566 -12.20009,-12.20009 -18.10373,-21.95013 -25.726691,-42.48838 -8.6104,-23.19868 -18.04909,-40.58823 -32.19289,-59.31119 l -8.461688,-11.20121 3.854215,-0.9718 c 24.42548,-6.15863 45.591064,-15.593 68.051844,-30.33348 27.103,-17.78706 42.83565,-22.77826 68.13083,-21.61459 17.76035,0.81706 32.95221,5.2581 47.74027,13.95595 10.31605,6.06757 14.3085,9.50478 47.94783,41.27962 17.03181,16.0878 32.48945,29.98421 34.35032,30.88091 2.37382,1.14389 4.9515,1.53691 8.63853,1.31712 9.03031,-0.53831 15.35913,-7.41326 15.36201,-16.68765 9.2e-4,-4.05516 -2.14303,-9.09969 -18.82827,-44.29423 -10.35633,-21.84483 -20.05382,-43.37166 -21.54998,-47.8374 -8.33282,-24.8718 -6.79393,-52.58055 4.21339,-75.86473 8.14565,-17.23079 15.46981,-25.97382 34.33352,-40.98477 19.70599,-15.68119 36.63593,-33.88724 48.52493,-52.182535 2.61653,-4.026427 4.89192,-7.455372 5.05642,-7.619879 0.16451,-0.164508 2.88317,3.542212 6.04146,8.237154 3.15829,4.694943 8.00735,11.422858 10.77569,14.950922 7.5584,9.632668 27.77284,29.357398 38.7025,37.764888 23.12608,17.78942 35.80295,37.7606 40.84438,64.34639 1.85889,9.80278 1.86579,28.25444 0.0141,37.71696 -2.3952,12.24001 -5.83755,20.63617 -25.13902,61.31593 -16.78774,35.38184 -18.91266,40.37626 -18.90922,44.44444 0.01,11.69151 11.48249,19.78634 22.76526,16.06269 2.40864,-0.79492 12.19085,-9.53587 34.9163,-31.1997 17.36361,-16.55246 33.94718,-31.9044 36.85238,-34.11541 17.76343,-13.51895 37.003,-20.53478 58.97892,-21.50701 24.46057,-1.08216 42.1804,4.30508 65.32885,19.86151 12.71705,8.54621 23.71407,14.72569 35.00825,19.67192 9.22792,4.04133 27.94098,10.55177 35.84557,12.47099 l 3.85422,0.93579 -8.54483,11.2767 c -13.94097,18.39806 -23.49252,36.01864 -32.10973,59.2357 -7.66737,20.65789 -13.53924,30.32111 -25.86757,42.56973 -19.16338,19.03947 -45.57671,29.82431 -73.04323,29.82431 -4.15515,0 -26.64097,-2.47422 -49.9685,-5.49828 -23.32753,-3.02405 -43.89155,-5.49828 -45.69781,-5.49828 -4.92234,0 -10.94087,3.32258 -13.77433,7.60423 -4.72974,7.14712 -2.72921,18.63053 4.01554,23.04985 1.27552,0.83576 19.26372,10.78004 39.97377,22.0984 20.71006,11.31836 40.38083,22.51936 43.71284,24.89112 21.68393,15.43481 37.51236,41.00367 41.8184,67.55244 2.56005,15.78386 1.5656,28.51997 -3.65494,46.80981 -7.07811,24.79772 -10.1895,47.82971 -9.47705,70.15365 0.36426,11.41373 0.24702,12.82833 -1.02835,12.40757 -0.79172,-0.26119 -6.18176,-2.13538 -11.97786,-4.16485 -18.33613,-6.42031 -33.56613,-9.67386 -51.77549,-11.06072 -6.55212,-0.49902 -17.27791,-1.30774 -23.83509,-1.79715 -7.7347,-0.5773 -14.81569,-1.72149 -20.16037,-3.25764 -32.34689,-9.29708 -58.61233,-34.77795 -69.56445,-67.48652 -1.29176,-3.85784 -5.88886,-26.51433 -10.21579,-50.34776 -5.02622,-27.68526 -8.50982,-44.59327 -9.64686,-46.82207 -2.18058,-4.27427 -7.67924,-8.05976 -12.68201,-8.73077 -7.38608,-0.99068 -16.05718,4.5513 -18.23541,11.65482 -0.54093,1.76403 -4.49275,21.97589 -8.78184,44.91524 -4.28908,22.93936 -8.84053,44.90064 -10.11434,48.80284 -9.9066,30.34805 -33.43812,55.06636 -62.52994,65.68356 -10.92943,3.98875 -19.17291,5.37523 -38.05861,6.40114 -26.43872,1.43619 -43.75524,4.65173 -64.858,12.04361 -5.7961,2.03025 -11.18614,3.90508 -11.97786,4.16627 -1.27443,0.42046 -1.39364,-0.97717 -1.03963,-12.18927 z M 420.96518,513.67644 c 41.54794,-11.30764 67.11875,-52.85636 58.39965,-94.89064 -3.35688,-16.18338 -10.619,-29.45869 -22.5583,-41.23712 -31.68231,-31.25541 -81.93075,-31.25541 -113.61306,0 -11.9393,11.77843 -19.20142,25.05374 -22.5583,41.23712 -8.75325,42.19891 17.39692,84.42033 58.74627,94.85031 10.32875,2.60533 10.58863,2.6315 22.90951,2.30693 8.06422,-0.21243 13.59167,-0.88333 18.67423,-2.2666 z"
   id="path933"
   transform="scale(0.6400025)" /><path
   style="fill:#ffffff;stroke-width:6.25852"
   d="m 393.49563,481.57836 c -10.43504,-1.56975 -19.04128,-5.90383 -26.4654,-13.32795 -9.04103,-9.04103 -13.62443,-20.1324 -13.62443,-32.96977 0,-22.40848 15.32257,-41.16236 37.4304,-45.81251 8.00788,-1.68437 10.31972,-1.68437 18.3276,0 36.61128,7.70079 50.13448,52.45377 23.80597,78.78228 -10.32666,10.32666 -25.45966,15.43612 -39.47414,13.32795 z"
   id="path972"
   transform="scale(0.6400025)" /></svg>
