<?xml version="1.0" encoding="UTF-8" standalone="no"?>
<!-- Uploaded to: SVG Repo, www.svgrepo.com, Generator: SVG Repo Mixer Tools -->

<svg
   fill="#000000"
   height="800px"
   width="800px"
   version="1.1"
   id="Layer_1"
   viewBox="0 0 512.002 512.002"
   xml:space="preserve"
   sodipodi:docname="flower-red.svg"
   inkscape:version="1.1.2 (0a00cf5339, 2022-02-04)"
   xmlns:inkscape="http://www.inkscape.org/namespaces/inkscape"
   xmlns:sodipodi="http://sodipodi.sourceforge.net/DTD/sodipodi-0.dtd"
   xmlns="http://www.w3.org/2000/svg"
   xmlns:svg="http://www.w3.org/2000/svg"><defs
   id="defs17" /><sodipodi:namedview
   id="namedview15"
   pagecolor="#ffffff"
   bordercolor="#666666"
   borderopacity="1.0"
   inkscape:pageshadow="2"
   inkscape:pageopacity="0.0"
   inkscape:pagecheckerboard="0"
   showgrid="false"
   inkscape:zoom="1.09125"
   inkscape:cx="400"
   inkscape:cy="400"
   inkscape:window-width="2560"
   inkscape:window-height="1600"
   inkscape:window-x="0"
   inkscape:window-y="0"
   inkscape:window-maximized="1"
   inkscape:current-layer="Layer_1" />
<g
   id="g6">
	<g
   id="g4">
		<path
   d="M511.477,197.586c-1.364-4.198-5.163-7.128-9.568-7.382c-22.209-1.28-43.503-8.794-61.58-21.73    c-31.892-22.825-75.651-20.589-106.256,4.762c14.777-36.965,3.397-79.399-28.229-102.725    c-17.89-13.195-31.617-31.126-39.697-51.852c-1.603-4.111-5.564-6.818-9.977-6.818c-4.413,0-8.374,2.707-9.977,6.818    c-8.08,20.724-21.804,38.652-39.69,51.846c-31.75,23.421-43.092,66.103-28.051,103.165c-30.603-25.759-74.698-28.157-106.78-5.198    c-18.078,12.936-39.372,20.451-61.58,21.731c-4.406,0.255-8.204,3.185-9.569,7.382c-1.363,4.196-0.013,8.8,3.402,11.594    c17.213,14.088,30.022,32.681,37.044,53.768c11.794,35.418,45.621,58.789,83.024,58.787c2.102,0,4.222-0.074,6.343-0.225    c-33.904,21.16-49.779,62.322-37.866,99.902c6.717,21.191,7.283,43.765,1.638,65.281c-1.119,4.268,0.494,8.787,4.064,11.38    c3.57,2.594,8.366,2.732,12.078,0.348c18.717-12.017,40.358-18.454,62.583-18.615c39.219-0.285,73.309-27.817,83.158-66.283    c9.849,38.465,43.94,65.997,83.158,66.283c22.225,0.162,43.866,6.597,62.583,18.615c1.766,1.134,6.672,3.437,12.082-0.347    c3.615-2.531,5.184-7.112,4.064-11.379c-5.645-21.518-5.079-44.093,1.638-65.283c11.911-37.58-3.964-78.743-37.867-99.902    c39.856,2.822,76.922-21.148,89.38-58.562c7.022-21.087,19.831-39.68,37.044-53.768    C511.49,206.386,512.84,201.783,511.477,197.586z M450.71,256.181c-9.775,29.354-39.88,47.674-71.573,43.563l-50.527-6.556    c-5.071-0.706-9.944,2.283-11.604,7.146c-1.684,4.934,0.428,10.364,5.005,12.86l44.798,24.439    c28.059,15.308,41.639,47.82,32.292,77.308c-5.634,17.775-7.609,36.374-5.898,54.764c-16.959-7.309-35.252-11.177-53.896-11.313    c-30.93-0.225-57.649-23.179-63.542-54.581l-9.082-50.125c-0.922-5.082-5.34-8.784-10.505-8.799c-0.011,0-0.021,0-0.032,0    c-5.152,0-9.576,3.67-10.525,8.737l-9.393,50.159c-5.884,31.418-32.61,54.384-63.548,54.609    c-18.643,0.136-36.937,4.004-53.896,11.313c1.711-18.39-0.263-36.988-5.898-54.764c-9.348-29.488,4.233-62.001,32.292-77.309    l44.796-24.436c4.524-2.468,6.648-7.808,5.055-12.709c-1.448-4.456-5.594-7.399-10.176-7.399c-0.458,0-0.921,0.031-1.386,0.088    l-50.606,6.567c-31.693,4.117-61.798-14.208-71.573-43.563c-5.89-17.689-15.222-33.892-27.415-47.762    c18.02-4.055,35.098-11.68,50.263-22.533c25.156-18.001,60.273-15.134,83.508,6.827l37.121,35.035    c3.746,3.535,9.479,3.902,13.647,0.873c4.166-3.03,5.584-8.597,3.375-13.252l-21.884-46.101    c-13.706-28.876-5.584-63.166,19.314-81.533c15.003-11.068,27.529-24.95,36.953-40.832c9.426,15.884,21.955,29.77,36.961,40.84    c24.895,18.363,33.019,52.647,19.316,81.524l-21.877,46.103c-2.213,4.663-0.784,10.242,3.398,13.267    c4.182,3.025,9.927,2.637,13.663-0.924l36.731-35.004c23.227-21.954,58.345-24.823,83.502-6.822    c15.164,10.852,32.243,18.477,50.263,22.532C465.932,222.289,456.6,238.491,450.71,256.181z"
   id="path2" />
	</g>
</g>
<g
   id="g12">
	<g
   id="g10">
		<path
   d="M255.999,226.86c-28.511,0-51.705,23.194-51.705,51.704c0,28.51,23.195,51.704,51.705,51.704s51.705-23.194,51.705-51.704    C307.704,250.055,284.509,226.86,255.999,226.86z M255.999,308.853c-16.702,0-30.289-13.587-30.289-30.288    s13.588-30.288,30.289-30.288s30.289,13.587,30.289,30.288S272.701,308.853,255.999,308.853z"
   id="path8" />
	</g>
</g>
<path
   style="fill:#f4d7d7;stroke-width:6.25852"
   d="m 186.75341,720.10976 c 0.79186,-25.07991 -1.99977,-43.88466 -11.53889,-77.72717 -2.07402,-7.35816 -2.32469,-9.92714 -2.32481,-23.82589 -1.2e-4,-14.10882 0.2355,-16.44296 2.49757,-24.74227 6.3115,-23.15619 21.43842,-45.22508 40.06382,-58.44965 3.33201,-2.36582 23.00278,-13.56198 43.71284,-24.88034 20.71005,-11.31836 38.69825,-21.26264 39.97377,-22.0984 6.74475,-4.41932 8.74528,-15.90273 4.01554,-23.04985 -2.83346,-4.28165 -8.85199,-7.60423 -13.77433,-7.60423 -1.80626,0 -22.37028,2.47423 -45.69781,5.49828 -23.32753,3.02406 -45.81335,5.49828 -49.9685,5.49828 -27.44622,0 -54.2186,-10.94016 -73.1841,-29.90566 -12.20009,-12.20009 -18.10373,-21.95013 -25.726691,-42.48838 -8.6104,-23.19868 -18.04909,-40.58823 -32.19289,-59.31119 l -8.461688,-11.20121 3.854215,-0.9718 c 24.42548,-6.15863 45.591064,-15.593 68.051844,-30.33348 27.103,-17.78706 42.83565,-22.77826 68.13083,-21.61459 17.76035,0.81706 32.95221,5.2581 47.74027,13.95595 10.31605,6.06757 14.3085,9.50478 47.94783,41.27962 17.03181,16.0878 32.48945,29.98421 34.35032,30.88091 2.37382,1.14389 4.9515,1.53691 8.63853,1.31712 9.03031,-0.53831 15.35913,-7.41326 15.36201,-16.68765 9.2e-4,-4.05516 -2.14303,-9.09969 -18.82827,-44.29423 -10.35633,-21.84483 -20.05382,-43.37166 -21.54998,-47.8374 -8.33282,-24.8718 -6.79393,-52.58055 4.21339,-75.86473 8.14565,-17.23079 15.46981,-25.97382 34.33352,-40.98477 19.70599,-15.68119 36.63593,-33.88724 48.52493,-52.182535 2.61653,-4.026427 4.89192,-7.455372 5.05642,-7.619879 0.16451,-0.164508 2.88317,3.542212 6.04146,8.237154 3.15829,4.694943 8.00735,11.422858 10.77569,14.950922 7.5584,9.632668 27.77284,29.357398 38.7025,37.764888 23.12608,17.78942 35.80295,37.7606 40.84438,64.34639 1.85889,9.80278 1.86579,28.25444 0.0141,37.71696 -2.3952,12.24001 -5.83755,20.63617 -25.13902,61.31593 -16.78774,35.38184 -18.91266,40.37626 -18.90922,44.44444 0.01,11.69151 11.48249,19.78634 22.76526,16.06269 2.40864,-0.79492 12.19085,-9.53587 34.9163,-31.1997 17.36361,-16.55246 33.94718,-31.9044 36.85238,-34.11541 17.76343,-13.51895 37.003,-20.53478 58.97892,-21.50701 24.46057,-1.08216 42.1804,4.30508 65.32885,19.86151 12.71705,8.54621 23.71407,14.72569 35.00825,19.67192 9.22792,4.04133 27.94098,10.55177 35.84557,12.47099 l 3.85422,0.93579 -8.54483,11.2767 c -13.94097,18.39806 -23.49252,36.01864 -32.10973,59.2357 -7.66737,20.65789 -13.53924,30.32111 -25.86757,42.56973 -19.16338,19.03947 -45.57671,29.82431 -73.04323,29.82431 -4.15515,0 -26.64097,-2.47422 -49.9685,-5.49828 -23.32753,-3.02405 -43.89155,-5.49828 -45.69781,-5.49828 -4.92234,0 -10.94087,3.32258 -13.77433,7.60423 -4.72974,7.14712 -2.72921,18.63053 4.01554,23.04985 1.27552,0.83576 19.26372,10.78004 39.97377,22.0984 20.71006,11.31836 40.38083,22.51936 43.71284,24.89112 21.68393,15.43481 37.51236,41.00367 41.8184,67.55244 2.56005,15.78386 1.5656,28.51997 -3.65494,46.80981 -7.07811,24.79772 -10.1895,47.82971 -9.47705,70.15365 0.36426,11.41373 0.24702,12.82833 -1.02835,12.40757 -0.79172,-0.26119 -6.18176,-2.13538 -11.97786,-4.16485 -18.33613,-6.42031 -33.56613,-9.67386 -51.77549,-11.06072 -6.55212,-0.49902 -17.27791,-1.30774 -23.83509,-1.79715 -7.7347,-0.5773 -14.81569,-1.72149 -20.16037,-3.25764 -32.34689,-9.29708 -58.61233,-34.77795 -69.56445,-67.48652 -1.29176,-3.85784 -5.88886,-26.51433 -10.21579,-50.34776 -5.02622,-27.68526 -8.50982,-44.59327 -9.64686,-46.82207 -2.18058,-4.27427 -7.67924,-8.05976 -12.68201,-8.73077 -7.38608,-0.99068 -16.05718,4.5513 -18.23541,11.65482 -0.54093,1.76403 -4.49275,21.97589 -8.78184,44.91524 -4.28908,22.93936 -8.84053,44.90064 -10.11434,48.80284 -9.9066,30.34805 -33.43812,55.06636 -62.52994,65.68356 -10.92943,3.98875 -19.17291,5.37523 -38.05861,6.40114 -26.43872,1.43619 -43.75524,4.65173 -64.858,12.04361 -5.7961,2.03025 -11.18614,3.90508 -11.97786,4.16627 -1.27443,0.42046 -1.39364,-0.97717 -1.03963,-12.18927 z M 420.96518,513.67644 c 41.54794,-11.30764 67.11875,-52.85636 58.39965,-94.89064 -3.35688,-16.18338 -10.619,-29.45869 -22.5583,-41.23712 -31.68231,-31.25541 -81.93075,-31.25541 -113.61306,0 -11.9393,11.77843 -19.20142,25.05374 -22.5583,41.23712 -8.75325,42.19891 17.39692,84.42033 58.74627,94.85031 10.32875,2.60533 10.58863,2.6315 22.90951,2.30693 8.06422,-0.21243 13.59167,-0.88333 18.67423,-2.2666 z"
   id="path908"
   transform="scale(0.6400025)" /><path
   style="fill:#f4d7d7;stroke-width:6.25852"
   d="m 393.49563,481.57836 c -10.43504,-1.56975 -19.04128,-5.90383 -26.4654,-13.32795 -9.04103,-9.04103 -13.62443,-20.1324 -13.62443,-32.96977 0,-22.40848 15.32257,-41.16236 37.4304,-45.81251 8.00788,-1.68437 10.31972,-1.68437 18.3276,0 36.61128,7.70079 50.13448,52.45377 23.80597,78.78228 -10.32666,10.32666 -25.45966,15.43612 -39.47414,13.32795 z"
   id="path947"
   transform="scale(0.6400025)" /><path
   style="fill:#ff5555;stroke-width:6.25852"
   d="m 186.94158,729.63517 c 0,-10.90216 -0.84057,-38.25831 -1.23088,-40.059 -0.27313,-1.26002 -1.18148,-6.41466 -2.01857,-11.45475 -1.22918,-7.4009 -4.60459,-21.64763 -8.25029,-34.82245 -0.48762,-1.76217 -0.72092,-2.76513 -1.81185,-7.78923 -0.62172,-2.86323 -0.55404,-30.69669 0.0836,-34.38859 0.25884,-1.49865 0.67794,-3.41352 0.93134,-4.25527 0.2534,-0.84176 0.60998,-2.28506 0.79241,-3.20733 1.57391,-7.95708 10.71038,-26.25925 17.97512,-36.0077 6.12729,-8.22213 18.16097,-19.89416 24.09728,-23.37307 2.33985,-1.37124 4.25428,-2.79762 4.25428,-3.16975 0,-0.37211 0.51546,-0.68034 1.14547,-0.68494 1.03395,-0.007 24.33239,-12.84683 25.42955,-14.01369 0.25201,-0.26801 2.31386,-1.42423 4.58191,-2.56937 2.26804,-1.14515 6.59793,-3.48199 9.62199,-5.19297 3.02405,-1.711 7.56014,-4.1957 10.08018,-5.52155 4.68171,-2.46317 9.27301,-5.02383 19.56112,-10.90964 3.19847,-1.82984 6.11628,-3.32698 6.48401,-3.32698 2.22191,0 7.41678,-9.83609 7.39764,-14.00683 -0.0287,-6.25625 -5.26157,-13.46099 -11.50999,-15.84728 -3.66696,-1.40043 -5.13437,-1.44656 -13.9321,-0.43789 -12.39984,1.42166 -19.29002,2.30646 -25.4119,3.26329 -1.51203,0.23632 -5.01719,0.65078 -7.78924,0.92103 -2.77205,0.27025 -6.48339,0.69265 -8.24742,0.93865 -5.95047,0.82985 -13.20107,1.65435 -32.31509,3.6747 -14.3152,1.51311 -22.47044,1.30552 -34.58067,-0.88027 -0.75601,-0.13646 -3.23024,-0.77274 -5.49828,-1.41396 -2.26804,-0.64122 -4.53608,-1.26819 -5.04009,-1.39326 -6.82474,-1.69358 -26.05471,-11.77593 -31.05907,-16.28439 -1.53848,-1.38602 -3.07288,-2.52005 -3.40979,-2.52005 -0.50688,0 -5.21628,-4.71741 -14.61375,-14.63863 -2.8155,-2.97241 -9.97007,-15.26597 -12.813156,-22.01658 -1.592013,-3.78007 -3.442159,-8.10996 -4.111436,-9.62199 -0.669278,-1.51203 -2.433608,-5.84192 -3.920735,-9.62199 -6.902059,-17.54408 -16.729441,-34.99187 -29.297805,-52.01609 -4.142892,-5.61166 -7.53253,-10.41464 -7.53253,-10.67327 0,-0.36464 5.237662,-2.1458 8.247423,-2.80467 1.136107,-0.24872 18.980247,-6.19701 20.618556,-6.87315 11.53951,-4.76238 26.107703,-12.16149 36.655213,-18.617 5.04009,-3.08474 9.36999,-5.834 9.62199,-6.10947 1.09824,-1.20049 26.48447,-14.50484 27.97192,-14.65944 0.23973,-0.0249 0.53896,-0.0769 0.66497,-0.11542 0.4617,-0.14131 3.15324,-0.7595 10.95848,-2.51694 10.52161,-2.36907 29.25951,-2.02753 41.96248,0.76486 9.90642,2.17766 11.36339,2.5247 11.68385,2.78301 0.126,0.10156 0.53837,0.25082 0.91638,0.33168 0.378,0.0808 1.71821,0.71755 2.97823,1.41487 1.26003,0.69731 2.49714,1.25286 2.74914,1.23453 0.59094,-0.043 12.22497,5.53119 12.82933,6.14686 0.252,0.25672 2.22587,1.61277 4.38635,3.01344 4.42454,2.86847 17.36922,14.019 27.70299,23.86329 3.78888,3.60941 11.83012,11.1382 17.86941,16.73063 6.0393,5.59243 15.10425,13.99561 20.14434,18.67372 9.80384,9.09972 13.05884,11.0324 18.52727,11.00064 9.9977,-0.0581 17.6966,-8.7499 16.51524,-18.64524 -0.38999,-3.26673 -8.13205,-21.08192 -17.17653,-39.52478 -3.49009,-7.11676 -16.40356,-35.63517 -20.04,-44.25682 -3.48348,-8.25898 -5.6055,-15.08685 -6.18151,-19.8898 -0.24178,-2.01604 -0.76106,-4.90264 -1.15395,-6.41466 -0.39289,-1.51203 -0.63597,-7.90378 -0.54017,-14.2039 0.18547,-12.19772 1.76092,-21.38662 5.54789,-32.3584 1.25059,-3.62327 2.36272,-7.00013 2.4714,-7.50414 0.10868,-0.50401 0.45369,-1.12257 0.76669,-1.37457 0.313,-0.25201 1.90485,-3.13861 3.53746,-6.41466 1.63259,-3.27606 3.95383,-7.26917 5.15829,-8.87357 1.20445,-1.6044 2.18991,-3.22744 2.18991,-3.60676 0,-1.01777 19.05072,-19.59299 20.09455,-19.59299 0.49012,0 1.2209,-0.52355 1.62395,-1.16346 0.40305,-0.6399 4.03179,-3.90044 8.06386,-7.24563 14.77164,-12.25522 30.96997,-30.133988 41.51634,-45.823272 2.60231,-3.871329 5.12143,-7.27979 5.59805,-7.574356 0.89451,-0.552837 5.63191,5.278711 13.36021,16.445898 2.44161,3.528064 4.91175,6.827033 5.4892,7.331042 0.57746,0.504008 3.90997,4.172058 7.4056,8.151228 6.05924,6.89738 18.86477,18.94297 26.4055,24.83846 8.00566,6.25899 23.63905,22.10014 27.86893,28.2393 4.31995,6.26986 9.65292,15.8806 9.13821,16.46832 -0.13275,0.15159 0.48978,1.39151 1.38342,2.75537 0.89363,1.36385 1.43131,2.47974 1.19483,2.47974 -0.23647,0 0.40154,2.37113 1.41781,5.26919 2.2944,6.5428 2.40524,7.0639 3.6546,17.18213 0.92741,7.51084 0.66001,28.5366 -0.41955,32.98969 -1.48718,6.13449 -5.96493,18.68713 -9.47977,26.57503 -2.24586,5.04009 -4.18602,9.57617 -4.31146,10.08018 -0.12544,0.50401 -2.00417,4.62772 -4.17496,9.1638 -23.14285,48.35947 -26.03936,55.06015 -25.97427,60.08797 0.0299,2.30381 0.68237,5.3966 1.45009,6.87285 4.2249,8.12398 14.90552,11.90327 22.36813,7.91486 2.56359,-1.37012 21.66221,-18.73967 44.68967,-40.64373 15.57561,-14.81576 23.84832,-22.19036 29.25043,-26.07492 3.08298,-2.21691 6.03591,-4.34062 6.56207,-4.71932 1.44117,-1.03732 14.64561,-7.56142 15.30391,-7.56142 0.31524,0 1.73403,-0.47574 3.15287,-1.05719 3.38508,-1.38724 3.06811,-1.30185 13.11807,-3.53409 12.40774,-2.75594 31.11731,-3.07186 41.90979,-0.70765 9.89028,2.16656 10.72441,2.36308 11.01117,2.59423 0.12601,0.10156 0.64147,0.28775 1.14548,0.41375 0.50401,0.126 1.12256,0.33219 1.37457,0.45819 0.252,0.126 0.76747,0.29526 1.14547,0.37612 0.37801,0.0808 1.61512,0.66238 2.74915,1.29226 1.13402,0.62988 2.06817,0.82145 2.07588,0.42571 0.007,-0.39573 0.317,-0.25659 0.68729,0.3092 0.37029,0.56579 3.55985,2.52085 7.08791,4.34458 6.65252,3.4388 7.42415,3.89771 21.65145,12.87668 12.73163,8.03503 32.11994,17.18177 46.71448,22.03829 12.83272,4.27024 15.81355,5.1476 18.00292,5.29887 2.022,0.13971 1.28724,1.50916 -6.38705,11.90422 -12.61699,17.09009 -22.84062,35.26688 -29.51441,52.47428 -1.36833,3.52806 -3.28328,8.16275 -4.25541,10.29929 -0.97214,2.13655 -1.76753,4.05687 -1.76753,4.26738 0,0.21052 -1.17361,2.99851 -2.60803,6.19555 -1.43441,3.19704 -2.66284,6.13019 -2.72984,6.51812 -0.067,0.38791 -0.53949,1.21265 -1.04997,1.83276 -0.51048,0.62009 -3.34285,4.42642 -6.29415,8.45849 -4.93113,6.73692 -11.12466,13.1248 -19.54698,20.16037 -8.91476,7.44691 -30.07423,17.22697 -41.53965,19.19991 -15.76346,2.71253 -22.68636,2.59159 -53.15005,-0.92855 -6.43509,-0.74358 -11.20105,-1.32341 -14.2039,-1.72802 -3.38783,-0.4565 -9.03457,-1.16817 -15.12027,-1.90564 -2.01604,-0.2443 -5.21192,-0.64804 -7.10195,-0.89719 -3.65384,-0.48166 -5.23209,-0.67489 -19.20838,-2.35176 -10.75615,-1.29052 -13.92813,-0.79065 -18.40633,2.90066 -6.21489,5.12284 -8.0283,11.12031 -5.64929,18.68379 0.86099,2.73729 2.23626,5.57319 3.05617,6.30199 1.26514,1.12455 11.56411,7.03089 29.44036,16.88371 2.26804,1.25008 6.59794,3.6527 9.62199,5.33916 3.02406,1.68647 7.35396,4.00323 9.622,5.14838 2.26804,1.14514 4.32989,2.33596 4.5819,2.64627 0.64174,0.79018 7.61517,4.27512 8.60316,4.29938 0.44765,0.011 1.06621,0.38021 1.37457,0.8205 0.30835,0.44028 5.09673,3.41665 10.64083,6.61414 5.5441,3.19749 12.02246,7.2254 14.39636,8.9509 5.33212,3.87574 15.36796,14.19289 20.56616,21.14264 3.42127,4.57408 13.10379,21.86517 13.32286,23.79203 0.0445,0.39159 0.83962,2.91712 1.7669,5.6123 2.42457,7.04716 4.54481,17.83681 5.09995,25.95311 0.64478,9.42695 -0.86739,19.94682 -5.70779,39.70785 -6.69253,27.32241 -8.79451,43.24491 -8.6079,65.20486 0.0578,6.80459 -0.14024,12.61736 -0.44015,12.91727 -0.29992,0.29991 -7.86231,-1.78407 -16.80533,-4.63108 -8.94301,-2.84701 -17.70332,-5.40734 -19.46735,-5.68963 -1.76403,-0.28228 -3.82589,-0.68844 -4.5819,-0.90256 -5.64624,-1.59917 -38.1095,-5.01337 -46.7354,-4.91521 -1.33047,0.0151 -18.76518,-2.74169 -20.61856,-3.26027 -0.50401,-0.14103 -1.60582,-0.55664 -2.44848,-0.92359 -0.84266,-0.36695 -2.07977,-0.75937 -2.74914,-0.87204 -2.05421,-0.34576 -17.11125,-7.67517 -20.01498,-9.74281 -1.50534,-1.0719 -2.74331,-1.61156 -2.75102,-1.19922 -0.007,0.41232 -0.317,0.29519 -0.68729,-0.2603 -0.9289,-1.3935 -11.02285,-9.51913 -11.88597,-9.56822 -1.44285,-0.0821 -14.61824,-16.68378 -19.03722,-23.98793 -2.5252,-4.17393 -5.88913,-10.88757 -7.47538,-14.91921 -2.50155,-6.35795 -8.81111,-33.18497 -10.02183,-42.61088 -0.22658,-1.76403 -0.63377,-3.92545 -0.90484,-4.80314 -0.27109,-0.8777 -0.67253,-2.73337 -0.89211,-4.12371 -0.40199,-2.54542 -1.52371,-8.5495 -1.7563,-9.40076 -0.10861,-0.39749 -0.72123,-3.72354 -1.94104,-10.53837 -3.30407,-18.45914 -6.08465,-30.37947 -7.69376,-32.98307 -2.83654,-4.58961 -10.62163,-8.19821 -15.95965,-7.39772 -4.6804,0.70186 -10.87996,4.83492 -12.77772,8.5185 -1.09415,2.12378 -4.31015,16.10281 -5.73136,24.9126 -0.21009,1.30228 -0.78483,4.22346 -1.27721,6.4915 -0.49238,2.26804 -1.1434,5.56701 -1.4467,7.33104 -0.30331,1.76403 -0.65354,3.6197 -0.77829,4.12371 -0.28967,1.17027 -1.32361,6.64712 -1.8165,9.62199 -0.20876,1.26003 -0.81649,4.19306 -1.35052,6.51786 -0.53403,2.32479 -1.17264,5.62376 -1.41912,7.33104 -1.31697,9.12223 -7.13141,32.37652 -9.5287,38.1092 -11.69223,27.95971 -34.65272,49.41779 -62.92405,58.80665 -7.13987,2.37114 -20.00102,4.93787 -24.28408,4.84645 -8.41347,-0.17959 -38.88814,3.24208 -51.03442,5.7301 -4.13445,0.8469 -15.72251,4.27733 -24.97813,7.3943 -5.26401,1.77274 -10.10846,3.22317 -10.76544,3.22317 -0.65699,0 -1.19452,-0.94253 -1.19452,-2.0945 z M 416.95304,514.56626 c 14.72086,-3.16774 27.207,-9.93498 38.81924,-21.03925 11.20098,-10.711 18.68021,-23.25585 22.70683,-38.086 1.59919,-5.88986 1.9905,-9.85312 1.9905,-20.16037 0,-14.6546 -1.67229,-22.61857 -7.19876,-34.28293 -19.15615,-40.43159 -67.49076,-58.02128 -107.38093,-39.07752 -8.8116,4.18461 -14.06801,7.8521 -21.6622,15.11408 -11.18429,10.69504 -18.64367,23.1958 -22.72645,38.086 -2.84653,10.38149 -2.83474,29.76393 0.0246,40.32074 4.01265,14.81526 11.49676,27.371 22.70192,38.086 11.09561,10.61024 22.17328,16.71575 37.37645,20.60021 6.93582,1.77213 10.1403,2.07481 19.31221,1.82414 6.04811,-0.1653 13.2646,-0.78859 16.03665,-1.3851 z"
   id="path986"
   transform="scale(0.6400025)" /><path
   style="fill:#ff2a2a;stroke-width:6.25852"
   d="m 394.55999,481.76885 c -0.14654,-0.14654 -1.45671,-0.42894 -2.91149,-0.62754 -11.72346,-1.60055 -25.05567,-11.18862 -31.94996,-22.97734 -1.98765,-3.39871 -3.69433,-6.63888 -3.79263,-7.20036 -0.0983,-0.56149 -0.61964,-2.87655 -1.15852,-5.1446 -1.25722,-5.29134 -1.25722,-15.78539 0,-21.07674 0.53888,-2.26804 1.07563,-4.53608 1.19277,-5.04009 1.71678,-7.38655 15.00099,-22.39563 23.01284,-26.00093 14.78859,-6.6548 26.63187,-6.7522 41.20737,-0.33887 6.71044,2.95265 17.28875,13.16516 20.63883,19.92513 1.24887,2.52005 2.68305,4.88487 3.18705,5.25516 0.50401,0.37029 0.64443,0.67957 0.31204,0.68728 -0.33239,0.008 -0.0367,2.16618 0.65727,4.79657 3.3617,12.74362 1.11711,25.00163 -6.98258,38.13274 -1.69917,2.75467 -8.33969,9.3952 -11.09436,11.09436 -9.50917,5.86556 -16.99882,8.29567 -26.51427,8.60287 -3.04586,0.0983 -5.65782,0.0589 -5.80436,-0.0876 z"
   id="path1062"
   transform="scale(0.6400025)" /><path
   style="fill:#ff2a2a;stroke-width:6.25852"
   d="m 187.45779,729.62218 c -0.22671,-1.10892 -0.61991,-10.8822 -0.87378,-21.7184 -0.50844,-21.70164 -2.38679,-33.46592 -9.51043,-59.56472 -3.3519,-12.2803 -3.37635,-12.49897 -3.32936,-29.78236 0.0557,-20.47511 1.26471,-26.2732 8.59891,-41.23711 6.33928,-12.93398 11.11873,-19.81213 20.58584,-29.62522 9.32861,-9.66954 15.28959,-14.10649 28.45706,-21.18155 5.04009,-2.70812 10.73163,-5.90832 12.64788,-7.11156 1.91623,-1.20326 12.43169,-7.0794 23.36769,-13.0581 10.93599,-5.97871 22.75128,-12.45485 26.25619,-14.39142 7.80835,-4.31436 11.55676,-9.13389 12.18443,-15.66614 0.92674,-9.64478 -7.51011,-18.55364 -17.57063,-18.55364 -2.27962,0 -13.7434,1.22505 -25.47506,2.72234 -69.42872,8.86104 -79.56674,9.17695 -99.6581,3.1054 -15.40617,-4.65571 -29.42271,-13.12567 -42.06565,-25.41959 C 108.92455,426.32727 104.57597,419.0992 93.537004,392.37109 84.154492,369.65366 76.744609,356.18863 63.51748,337.8204 c -3.757712,-5.21825 -7.04353,-10.03843 -7.301819,-10.71152 -0.314303,-0.81907 0.787465,-1.5623 3.331419,-2.24732 22.222543,-5.98391 46.04056,-16.80014 68.28575,-31.00989 3.52685,-2.25288 11.77427,-6.87697 18.32761,-10.27576 10.11337,-5.24514 13.39764,-6.47123 21.71874,-8.10801 22.31317,-4.38905 45.52956,-1.64352 65.53519,7.75005 14.77242,6.93635 17.93508,9.50909 61.2019,49.78594 13.10423,12.19868 25.64916,23.39718 27.8776,24.88559 10.36369,6.92197 24.49839,0.17755 25.518,-12.176 0.46381,-5.61962 -1.46289,-10.74584 -14.17869,-37.72386 -11.64829,-24.71321 -23.13559,-50.5744 -25.67457,-57.80079 -8.33208,-23.71454 -5.6647,-56.11491 6.45166,-78.36752 8.43805,-15.49713 13.07661,-20.62387 39.32886,-43.46795 6.91245,-6.01504 16.27413,-15.0872 20.80374,-20.16036 7.68444,-8.60657 11.15298,-12.968823 21.03899,-26.459894 3.27684,-4.471789 4.11941,-5.141435 5.26883,-4.187502 0.75252,0.624536 4.79969,5.912785 8.99372,11.751664 9.24743,12.874202 24.57876,29.115082 39.41718,41.755672 25.60523,21.81266 36.80014,36.57389 43.42839,57.26321 3.0745,9.59668 3.96136,18.22398 3.60631,35.08158 -0.30376,14.42232 -0.5518,16.40723 -2.8878,23.10857 -4.10115,11.76511 -10.97825,27.62775 -23.20735,53.52974 -6.28549,13.31307 -12.91317,27.74606 -14.72817,32.07331 -5.35428,12.76549 -4.20093,20.06327 4.06604,25.72789 3.22268,2.20821 10.37662,3.41394 14.34556,2.4178 2.67963,-0.67254 14.30323,-10.92467 44.58668,-39.32584 30.39639,-28.5071 38.33588,-34.51775 53.44246,-40.45905 12.32966,-4.84916 21.54813,-6.35735 39.11195,-6.39891 13.71427,-0.0324 17.22769,0.26266 24.26109,2.03788 9.40597,2.37405 20.57455,7.78033 37.62291,18.2118 26.23308,16.05136 40.79767,22.52824 69.94074,31.10273 1.75652,0.5168 1.11488,1.72787 -6.56788,12.39675 -14.02894,19.48168 -21.021,32.49169 -32.67888,60.80503 -8.73767,21.22107 -13.81761,28.96963 -27.57616,42.06267 -9.05354,8.61563 -16.67758,13.54691 -29.48637,19.072 -11.72758,5.05871 -20.43607,7.12155 -32.76631,7.76155 -11.91777,0.61859 -18.56153,0.0366 -65.47434,-5.73607 -18.11856,-2.22949 -34.94316,-4.05362 -37.388,-4.05362 -5.42254,0 -8.52349,1.51422 -12.80411,6.25234 -3.74222,4.1422 -4.81741,7.79275 -3.96648,13.46722 1.01323,6.75664 3.65984,9.47061 16.13456,16.54517 14.42148,8.17859 39.24942,21.93796 45.44773,25.18664 2.59678,1.36104 10.43184,5.89309 17.41123,10.07122 10.04948,6.01603 14.56447,9.42334 21.69968,16.37608 14.11877,13.7577 23.98396,30.29453 28.74447,48.1838 2.14304,8.05322 2.4438,10.94074 2.48168,23.82589 0.0395,13.44727 -0.20642,15.72505 -2.96867,27.49141 -8.42179,35.87422 -10.22771,48.03414 -10.24816,69.00455 -0.007,7.91233 -0.38643,14.97448 -0.84157,15.69366 -0.69017,1.09055 -3.69213,0.45273 -18.08448,-3.84236 -20.98324,-6.262 -27.11466,-7.43301 -48.87206,-9.33394 -24.50903,-2.14134 -37.94188,-4.0914 -45.20876,-6.56303 -8.03181,-2.73179 -22.68547,-10.51531 -28.10167,-14.92663 -2.26804,-1.84725 -5.65158,-4.48561 -7.51897,-5.86303 -4.92684,-3.63411 -19.30604,-23.1878 -23.54056,-32.01186 -5.21395,-10.86503 -8.72441,-24.96051 -16.1506,-64.84923 -7.68589,-41.28363 -8.70448,-45.18586 -12.80891,-49.0715 -2.98309,-2.82408 -8.47174,-5.01175 -12.48132,-4.97481 -3.2159,0.0296 -9.16387,3.03625 -11.96841,6.04989 -3.1184,3.35088 -4.46841,8.74907 -12.2324,48.9128 -10.26418,53.09751 -13.79603,63.86435 -26.4753,80.7099 -19.07825,25.34718 -45.02343,38.90293 -78.88538,41.21579 -27.44406,1.87451 -44.34041,4.58605 -60.93929,9.7796 -7.30813,2.2866 -15.03739,4.70183 -17.17613,5.36716 -3.72981,1.1603 -3.90544,1.12737 -4.30079,-0.80651 z M 412.24513,515.42544 c 9.19996,-1.15358 20.22142,-5.0399 28.87843,-10.18294 6.92784,-4.11575 19.8554,-15.95633 24.85047,-22.76098 11.61097,-15.81731 16.56264,-35.29462 14.39227,-56.61187 -2.75529,-27.06251 -19.45706,-50.76102 -44.62747,-63.32289 -10.843,-5.41147 -19.22811,-7.52634 -32.13353,-8.1047 -24.56794,-1.10099 -44.36307,6.94267 -61.92908,25.16462 -10.67313,11.07168 -17.94455,24.11919 -21.13785,37.92883 -1.4685,6.35063 -1.4685,29.13963 0,35.49026 3.17692,13.73877 10.46067,26.77965 21.20796,37.97087 19.44893,20.25228 41.86377,28.01933 70.4988,24.4288 z"
   id="path1138"
   transform="scale(0.6400025)" /></svg>
