<svg xmlns="http://www.w3.org/2000/svg" xmlns:ev="http://www.w3.org/2001/xml-events" xmlns:xlink="http://www.w3.org/1999/xlink" baseProfile="full" height="500" version="1.1" width="1000"><defs><style type="text/css"><![CDATA[.background path {fill: #808080; fill-opacity: 0}.background path:nth-child(odd) {fill-opacity: .1}.x-regions rect {fill: yellow; stroke: black; opacity: 0.5}.axes {font-size: 14px}.x-axis .tick .lab {font-weight: bold; dominant-baseline: hanging}.axes, .tree {font-size: 14px; text-anchor: middle}.axes line, .edge {stroke: black; fill: none}.axes .ax-skip {stroke-dasharray: 4}.y-axis .grid {stroke: #FAFAFA}.node > .sym {fill: black; stroke: none}.site > .sym {stroke: black}.mut text {fill: red; font-style: italic}.mut.extra text {fill: hotpink}.mut line {fill: none; stroke: none}.mut .sym {fill: none; stroke: red}.mut.extra .sym {stroke: hotpink}.node .mut .sym {stroke-width: 1.5px}.tree text, .tree-sequence text {dominant-baseline: central}.plotbox .lab.lft {text-anchor: end}.plotbox .lab.rgt {text-anchor: start}.polytomy line {stroke: black; stroke-dasharray: 1px, 1px}.polytomy text {paint-order:stroke;stroke-width:0.3em;stroke:white}.node.p0 > .sym {fill: #1f77b4} .node.p1 > .sym {fill: #ff7f0e} .node.p2 > .sym {fill: #2ca02c}]]></style></defs><g class="tree t0"><g class="axes"><g class="x-axis"><g class="title" transform="translate(500 500)"><text class="lab" text-anchor="middle" transform="translate(0 -11)">Genome position</text></g><line class="ax-line" x1="20" x2="980" y1="463.2" y2="463.2"/><g class="ticks"><g class="tick" transform="translate(20 463.2)"><line x1="0" x2="0" y1="0" y2="5"/><g transform="translate(0 6)"><text class="lab">0</text></g></g><g class="tick" transform="translate(980 463.2)"><line x1="0" x2="0" y1="0" y2="5"/><g transform="translate(0 6)"><text class="lab">121</text></g></g></g></g></g><g class="plotbox"><g class="c2 node n10261 p0 root" transform="translate(435.25 26.8)"><g class="a10261 c2 node n4451 p0" transform="translate(-375.25 306.931)"><g class="a4451 i0 leaf node n0 p0 sample" transform="translate(-24 97.6685)"><path class="edge" d="M 0 0 V -97.6685 H 24"/><rect class="sym" height="6" width="6" x="-3" y="-3"/><text class="lab" transform="translate(0 11)"/></g><g class="a4451 c2 node n590 p2" transform="translate(24 79.825)"><g class="a590 i9 leaf node n19 p1 sample" transform="translate(-16 17.8435)"><path class="edge" d="M 0 0 V -17.8435 H 16"/><rect class="sym" height="6" width="6" x="-3" y="-3"/><text class="lab" transform="translate(0 11)"/></g><g class="a590 i11 leaf node n23 p2 sample" transform="translate(16 17.8435)"><path class="edge" d="M 0 0 V -17.8435 H -16"/><rect class="sym" height="6" width="6" x="-3" y="-3"/><text class="lab" transform="translate(0 11)"/></g><path class="edge" d="M 0 0 V -79.825 H -24"/><circle class="sym" cx="0" cy="0" r="3"/><text class="lab rgt" transform="translate(3 -7)"/></g><path class="edge" d="M 0 0 V -306.931 H 375.25"/><circle class="sym" cx="0" cy="0" r="3"/><text class="lab lft" transform="translate(-3 -7)"/></g><g class="a10261 c2 node n10175 p0" transform="translate(375.25 8.50815)"><g class="a10175 i2 leaf node n5 p0 sample" transform="translate(153.5 396.092)"><path class="edge" d="M 0 0 V -396.092 H -153.5"/><rect class="sym" height="6" width="6" x="-3" y="-3"/><text class="lab" transform="translate(0 11)"/></g><g class="a10175 c2 node n9200 p0" transform="translate(-153.5 75.8589)"><g class="a9200 c2 node n1835 p1" transform="translate(251 287.909)"><g class="a1835 i13 leaf node n27 p2 sample" transform="translate(24 32.3241)"><path class="edge" d="M 0 0 V -32.3241 H -24"/><rect class="sym" height="6" width="6" x="-3" y="-3"/><text class="lab" transform="translate(0 11)"/></g><g class="a1835 c2 node n462 p1" transform="translate(-24 16.0597)"><g class="a462 i5 leaf node n11 p1 sample" transform="translate(-16 16.2643)"><path class="edge" d="M 0 0 V -16.2643 H 16"/><rect class="sym" height="6" width="6" x="-3" y="-3"/><text class="lab" transform="translate(0 11)"/></g><g class="a462 i8 leaf node n17 p1 sample" transform="translate(16 16.2643)"><path class="edge" d="M 0 0 V -16.2643 H -16"/><rect class="sym" height="6" width="6" x="-3" y="-3"/><text class="lab" transform="translate(0 11)"/></g><path class="edge" d="M 0 0 V -16.0597 H 24"/><circle class="sym" cx="0" cy="0" r="3"/><text class="lab lft" transform="translate(-3 -7)"/></g><path class="edge" d="M 0 0 V -287.909 H -251"/><circle class="sym" cx="0" cy="0" r="3"/><text class="lab rgt" transform="translate(3 -7)"/></g><g class="a9200 c2 node n8316 p0" transform="translate(-251 46.4561)"><g class="a8316 c2 node n6954 p0" transform="translate(-196 70.7213)"><g class="a6954 i4 leaf node n9 p0 sample" transform="translate(50 203.056)"><path class="edge" d="M 0 0 V -203.056 H -50"/><rect class="sym" height="6" width="6" x="-3" y="-3"/><text class="lab" transform="translate(0 11)"/></g><g class="a6954 c2 node n6268 p0" transform="translate(-50 32.635)"><g class="a6268 i0 leaf node n1 p0 sample" transform="translate(-28 170.421)"><path class="edge" d="M 0 0 V -170.421 H 28"/><rect class="sym" height="6" width="6" x="-3" y="-3"/><text class="lab" transform="translate(0 11)"/></g><g class="a6268 c2 node n5652 p0" transform="translate(28 26.5606)"><g class="a5652 i1 leaf node n2 p0 sample" transform="translate(-24 143.86)"><path class="edge" d="M 0 0 V -143.86 H 24"/><rect class="sym" height="6" width="6" x="-3" y="-3"/><text class="lab" transform="translate(0 11)"/></g><g class="a5652 c2 node n2583 p0" transform="translate(24 96.3532)"><g class="a2583 i3 leaf node n6 p0 sample" transform="translate(-16 47.5067)"><path class="edge" d="M 0 0 V -47.5067 H 16"/><rect class="sym" height="6" width="6" x="-3" y="-3"/><text class="lab" transform="translate(0 11)"/></g><g class="a2583 i4 leaf node n8 p0 sample" transform="translate(16 47.5067)"><path class="edge" d="M 0 0 V -47.5067 H -16"/><rect class="sym" height="6" width="6" x="-3" y="-3"/><text class="lab" transform="translate(0 11)"/></g><path class="edge" d="M 0 0 V -96.3532 H -24"/><circle class="sym" cx="0" cy="0" r="3"/><text class="lab rgt" transform="translate(3 -7)"/></g><path class="edge" d="M 0 0 V -26.5606 H -28"/><circle class="sym" cx="0" cy="0" r="3"/><text class="lab rgt" transform="translate(3 -7)"/></g><path class="edge" d="M 0 0 V -32.635 H 50"/><circle class="sym" cx="0" cy="0" r="3"/><text class="lab lft" transform="translate(-3 -7)"/></g><path class="edge" d="M 0 0 V -70.7213 H 196"/><circle class="sym" cx="0" cy="0" r="3"/><text class="lab lft" transform="translate(-3 -7)"/></g><g class="a8316 c2 node n8040 p0" transform="translate(196 12.1667)"><g class="a8040 c2 node n1584 p1" transform="translate(210 233.371)"><g class="a1584 i11 leaf node n22 p2 sample" transform="translate(24 28.2388)"><path class="edge" d="M 0 0 V -28.2388 H -24"/><rect class="sym" height="6" width="6" x="-3" y="-3"/><text class="lab" transform="translate(0 11)"/></g><g class="a1584 c2 node n1531 p1" transform="translate(-24 0.823052)"><g class="a1531 i7 leaf node n15 p1 sample" transform="translate(-16 27.4157)"><path class="edge" d="M 0 0 V -27.4157 H 16"/><rect class="sym" height="6" width="6" x="-3" y="-3"/><text class="lab" transform="translate(0 11)"/></g><g class="a1531 i12 leaf node n24 p2 sample" transform="translate(16 27.4157)"><path class="edge" d="M 0 0 V -27.4157 H -16"/><rect class="sym" height="6" width="6" x="-3" y="-3"/><text class="lab" transform="translate(0 11)"/></g><path class="edge" d="M 0 0 V -0.823052 H 24"/><circle class="sym" cx="0" cy="0" r="3"/><text class="lab lft" transform="translate(-3 -7)"/></g><path class="edge" d="M 0 0 V -233.371 H -210"/><circle class="sym" cx="0" cy="0" r="3"/><text class="lab rgt" transform="translate(3 -7)"/></g><g class="a8040 c2 node n6748 p0" transform="translate(-210 67.7091)"><g class="a6748 i1 leaf node n3 p0 sample" transform="translate(-100 193.901)"><path class="edge" d="M 0 0 V -193.901 H 100"/><rect class="sym" height="6" width="6" x="-3" y="-3"/><text class="lab" transform="translate(0 11)"/></g><g class="a6748 c2 node n5139 p1" transform="translate(100 70.9124)"><g class="a5139 c2 node n2706 p1" transform="translate(-144 72.3761)"><g class="a2706 i2 leaf node n4 p0 sample" transform="translate(-24 50.6126)"><path class="edge" d="M 0 0 V -50.6126 H 24"/><rect class="sym" height="6" width="6" x="-3" y="-3"/><text class="lab" transform="translate(0 11)"/></g><g class="a2706 c2 node n81 p1" transform="translate(24 43.5222)"><g class="a81 i7 leaf node n14 p1 sample" transform="translate(-16 7.09036)"><path class="edge" d="M 0 0 V -7.09036 H 16"/><rect class="sym" height="6" width="6" x="-3" y="-3"/><text class="lab" transform="translate(0 11)"/></g><g class="a81 i9 leaf node n18 p1 sample" transform="translate(16 7.09036)"><path class="edge" d="M 0 0 V -7.09036 H -16"/><rect class="sym" height="6" width="6" x="-3" y="-3"/><text class="lab" transform="translate(0 11)"/></g><path class="edge" d="M 0 0 V -43.5222 H -24"/><circle class="sym" cx="0" cy="0" r="3"/><text class="lab rgt" transform="translate(3 -7)"/></g><path class="edge" d="M 0 0 V -72.3761 H 144"/><circle class="sym" cx="0" cy="0" r="3"/><text class="lab lft" transform="translate(-3 -7)"/></g><g class="a5139 c2 node n2794 p1" transform="translate(144 70.4773)"><g class="a2794 c2 node n1022 p2" transform="translate(88 30.4644)"><g class="a1022 i10 leaf node n20 p2 sample" transform="translate(-16 22.047)"><path class="edge" d="M 0 0 V -22.047 H 16"/><rect class="sym" height="6" width="6" x="-3" y="-3"/><text class="lab" transform="translate(0 11)"/></g><g class="a1022 i14 leaf node n29 p2 sample" transform="translate(16 22.047)"><path class="edge" d="M 0 0 V -22.047 H -16"/><rect class="sym" height="6" width="6" x="-3" y="-3"/><text class="lab" transform="translate(0 11)"/></g><path class="edge" d="M 0 0 V -30.4644 H -88"/><circle class="sym" cx="0" cy="0" r="3"/><text class="lab rgt" transform="translate(3 -7)"/></g><g class="a2794 c2 node n2091 p1" transform="translate(-88 15.4617)"><g class="a2091 c2 node n1801 p1" transform="translate(68 5.37327)"><g class="a1801 i5 leaf node n10 p1 sample" transform="translate(-36 31.6765)"><path class="edge" d="M 0 0 V -31.6765 H 36"/><rect class="sym" height="6" width="6" x="-3" y="-3"/><text class="lab" transform="translate(0 11)"/></g><g class="a1801 c2 node n1332 p2" transform="translate(36 6.76581)"><g class="a1332 i13 leaf node n26 p2 sample" transform="translate(24 24.9107)"><path class="edge" d="M 0 0 V -24.9107 H -24"/><rect class="sym" height="6" width="6" x="-3" y="-3"/><text class="lab" transform="translate(0 11)"/></g><g class="a1332 c2 node n928 p2" transform="translate(-24 3.73673)"><g class="a928 i10 leaf node n21 p2 sample" transform="translate(-16 21.174)"><path class="edge" d="M 0 0 V -21.174 H 16"/><rect class="sym" height="6" width="6" x="-3" y="-3"/><text class="lab" transform="translate(0 11)"/></g><g class="a928 i12 leaf node n25 p2 sample" transform="translate(16 21.174)"><path class="edge" d="M 0 0 V -21.174 H -16"/><rect class="sym" height="6" width="6" x="-3" y="-3"/><text class="lab" transform="translate(0 11)"/></g><path class="edge" d="M 0 0 V -3.73673 H 24"/><circle class="sym" cx="0" cy="0" r="3"/><text class="lab lft" transform="translate(-3 -7)"/></g><path class="edge" d="M 0 0 V -6.76581 H -36"/><circle class="sym" cx="0" cy="0" r="3"/><text class="lab rgt" transform="translate(3 -7)"/></g><path class="edge" d="M 0 0 V -5.37327 H -68"/><circle class="sym" cx="0" cy="0" r="3"/><text class="lab rgt" transform="translate(3 -7)"/></g><g class="a2091 c2 node n2060 p1" transform="translate(-68 0.7475)"><g class="a2060 c2 node n1644 p1" transform="translate(44 7.19411)"><g class="a1644 i6 leaf node n13 p1 sample" transform="translate(24 29.1082)"><path class="edge" d="M 0 0 V -29.1082 H -24"/><rect class="sym" height="6" width="6" x="-3" y="-3"/><text class="lab" transform="translate(0 11)"/></g><g class="a1644 c2 node n191 p1" transform="translate(-24 17.652)"><g class="a191 i6 leaf node n12 p1 sample" transform="translate(-16 11.4562)"><path class="edge" d="M 0 0 V -11.4562 H 16"/><rect class="sym" height="6" width="6" x="-3" y="-3"/><text class="lab" transform="translate(0 11)"/></g><g class="a191 i8 leaf node n16 p1 sample" transform="translate(16 11.4562)"><path class="edge" d="M 0 0 V -11.4562 H -16"/><rect class="sym" height="6" width="6" x="-3" y="-3"/><text class="lab" transform="translate(0 11)"/></g><path class="edge" d="M 0 0 V -17.652 H 24"/><circle class="sym" cx="0" cy="0" r="3"/><text class="lab lft" transform="translate(-3 -7)"/></g><path class="edge" d="M 0 0 V -7.19411 H -44"/><circle class="sym" cx="0" cy="0" r="3"/><text class="lab rgt" transform="translate(3 -7)"/></g><g class="a2060 c2 node n1965 p1" transform="translate(-44 1.62356)"><g class="a1965 i3 leaf node n7 p0 sample" transform="translate(-16 34.6787)"><path class="edge" d="M 0 0 V -34.6787 H 16"/><rect class="sym" height="6" width="6" x="-3" y="-3"/><text class="lab" transform="translate(0 11)"/></g><g class="a1965 i14 leaf node n28 p2 sample" transform="translate(16 34.6787)"><path class="edge" d="M 0 0 V -34.6787 H -16"/><rect class="sym" height="6" width="6" x="-3" y="-3"/><text class="lab" transform="translate(0 11)"/></g><path class="edge" d="M 0 0 V -1.62356 H 44"/><circle class="sym" cx="0" cy="0" r="3"/><text class="lab lft" transform="translate(-3 -7)"/></g><path class="edge" d="M 0 0 V -0.7475 H 68"/><circle class="sym" cx="0" cy="0" r="3"/><text class="lab lft" transform="translate(-3 -7)"/></g><path class="edge" d="M 0 0 V -15.4617 H 88"/><circle class="sym" cx="0" cy="0" r="3"/><text class="lab lft" transform="translate(-3 -7)"/></g><path class="edge" d="M 0 0 V -70.4773 H -144"/><circle class="sym" cx="0" cy="0" r="3"/><text class="lab rgt" transform="translate(3 -7)"/></g><path class="edge" d="M 0 0 V -70.9124 H -100"/><circle class="sym" cx="0" cy="0" r="3"/><text class="lab rgt" transform="translate(3 -7)"/></g><path class="edge" d="M 0 0 V -67.7091 H 210"/><circle class="sym" cx="0" cy="0" r="3"/><text class="lab lft" transform="translate(-3 -7)"/></g><path class="edge" d="M 0 0 V -12.1667 H -196"/><circle class="sym" cx="0" cy="0" r="3"/><text class="lab rgt" transform="translate(3 -7)"/></g><path class="edge" d="M 0 0 V -46.4561 H 251"/><circle class="sym" cx="0" cy="0" r="3"/><text class="lab lft" transform="translate(-3 -7)"/></g><path class="edge" d="M 0 0 V -75.8589 H 153.5"/><circle class="sym" cx="0" cy="0" r="3"/><text class="lab lft" transform="translate(-3 -7)"/></g><path class="edge" d="M 0 0 V -8.50815 H -375.25"/><circle class="sym" cx="0" cy="0" r="3"/><text class="lab rgt" transform="translate(3 -7)"/></g><circle class="sym" cx="0" cy="0" r="3"/><text class="lab" transform="translate(0 -11)"/></g></g></g></svg>