<svg xmlns="http://www.w3.org/2000/svg" xmlns:ev="http://www.w3.org/2001/xml-events" xmlns:xlink="http://www.w3.org/1999/xlink" baseProfile="full" height="500" version="1.1" width="1000"><defs><style type="text/css"><![CDATA[.background path {fill: #808080; fill-opacity: 0}.background path:nth-child(odd) {fill-opacity: .1}.x-regions rect {fill: yellow; stroke: black; opacity: 0.5}.axes {font-size: 14px}.x-axis .tick .lab {font-weight: bold; dominant-baseline: hanging}.axes, .tree {font-size: 14px; text-anchor: middle}.axes line, .edge {stroke: black; fill: none}.axes .ax-skip {stroke-dasharray: 4}.y-axis .grid {stroke: #FAFAFA}.node > .sym {fill: black; stroke: none}.site > .sym {stroke: black}.mut text {fill: red; font-style: italic}.mut.extra text {fill: hotpink}.mut line {fill: none; stroke: none}.mut .sym {fill: none; stroke: red}.mut.extra .sym {stroke: hotpink}.node .mut .sym {stroke-width: 1.5px}.tree text, .tree-sequence text {dominant-baseline: central}.plotbox .lab.lft {text-anchor: end}.plotbox .lab.rgt {text-anchor: start}.polytomy line {stroke: black; stroke-dasharray: 1px, 1px}.polytomy text {paint-order:stroke;stroke-width:0.3em;stroke:white}]]></style></defs><g class="tree t0"><g class="axes"><g class="y-axis"><g class="title" transform="translate(0 239.1)"><text class="lab" text-anchor="middle" transform="translate(11) rotate(-90)">Time ago (generations)</text></g><line class="ax-line" x1="56.8" x2="56.8" y1="468.2" y2="10"/><g class="ticks"><g class="tick" transform="translate(56.8 468.2)"><line x1="0" x2="-5" y1="0" y2="0"/><g transform="translate(-6 0)"><text class="lab" text-anchor="end">0.00</text></g></g><g class="tick" transform="translate(56.8 460.465)"><line x1="0" x2="-5" y1="0" y2="0"/><g transform="translate(-6 0)"><text class="lab" text-anchor="end">236.85</text></g></g><g class="tick" transform="translate(56.8 455.702)"><line x1="0" x2="-5" y1="0" y2="0"/><g transform="translate(-6 0)"><text class="lab" text-anchor="end">382.69</text></g></g><g class="tick" transform="translate(56.8 450.456)"><line x1="0" x2="-5" y1="0" y2="0"/><g transform="translate(-6 0)"><text class="lab" text-anchor="end">543.30</text></g></g><g class="tick" transform="translate(56.8 448.734)"><line x1="0" x2="-5" y1="0" y2="0"/><g transform="translate(-6 0)"><text class="lab" text-anchor="end">596.06</text></g></g><g class="tick" transform="translate(56.8 445.1)"><line x1="0" x2="-5" y1="0" y2="0"/><g transform="translate(-6 0)"><text class="lab" text-anchor="end">707.31</text></g></g><g class="tick" transform="translate(56.8 444.148)"><line x1="0" x2="-5" y1="0" y2="0"/><g transform="translate(-6 0)"><text class="lab" text-anchor="end">736.47</text></g></g><g class="tick" transform="translate(56.8 441.024)"><line x1="0" x2="-5" y1="0" y2="0"/><g transform="translate(-6 0)"><text class="lab" text-anchor="end">832.13</text></g></g><g class="tick" transform="translate(56.8 438.291)"><line x1="0" x2="-5" y1="0" y2="0"/><g transform="translate(-6 0)"><text class="lab" text-anchor="end">915.81</text></g></g><g class="tick" transform="translate(56.8 437.393)"><line x1="0" x2="-5" y1="0" y2="0"/><g transform="translate(-6 0)"><text class="lab" text-anchor="end">943.31</text></g></g><g class="tick" transform="translate(56.8 436.444)"><line x1="0" x2="-5" y1="0" y2="0"/><g transform="translate(-6 0)"><text class="lab" text-anchor="end">972.35</text></g></g><g class="tick" transform="translate(56.8 433.642)"><line x1="0" x2="-5" y1="0" y2="0"/><g transform="translate(-6 0)"><text class="lab" text-anchor="end">1058.14</text></g></g><g class="tick" transform="translate(56.8 432.936)"><line x1="0" x2="-5" y1="0" y2="0"/><g transform="translate(-6 0)"><text class="lab" text-anchor="end">1079.77</text></g></g><g class="tick" transform="translate(56.8 430.367)"><line x1="0" x2="-5" y1="0" y2="0"/><g transform="translate(-6 0)"><text class="lab" text-anchor="end">1158.43</text></g></g><g class="tick" transform="translate(56.8 428.596)"><line x1="0" x2="-5" y1="0" y2="0"/><g transform="translate(-6 0)"><text class="lab" text-anchor="end">1212.66</text></g></g><g class="tick" transform="translate(56.8 427.78)"><line x1="0" x2="-5" y1="0" y2="0"/><g transform="translate(-6 0)"><text class="lab" text-anchor="end">1237.63</text></g></g><g class="tick" transform="translate(56.8 416.372)"><line x1="0" x2="-5" y1="0" y2="0"/><g transform="translate(-6 0)"><text class="lab" text-anchor="end">1586.94</text></g></g><g class="tick" transform="translate(56.8 412.984)"><line x1="0" x2="-5" y1="0" y2="0"/><g transform="translate(-6 0)"><text class="lab" text-anchor="end">1690.70</text></g></g><g class="tick" transform="translate(56.8 410.912)"><line x1="0" x2="-5" y1="0" y2="0"/><g transform="translate(-6 0)"><text class="lab" text-anchor="end">1754.13</text></g></g><g class="tick" transform="translate(56.8 361.648)"><line x1="0" x2="-5" y1="0" y2="0"/><g transform="translate(-6 0)"><text class="lab" text-anchor="end">3262.58</text></g></g><g class="tick" transform="translate(56.8 334.025)"><line x1="0" x2="-5" y1="0" y2="0"/><g transform="translate(-6 0)"><text class="lab" text-anchor="end">4108.39</text></g></g><g class="tick" transform="translate(56.8 311.255)"><line x1="0" x2="-5" y1="0" y2="0"/><g transform="translate(-6 0)"><text class="lab" text-anchor="end">4805.59</text></g></g><g class="tick" transform="translate(56.8 282.279)"><line x1="0" x2="-5" y1="0" y2="0"/><g transform="translate(-6 0)"><text class="lab" text-anchor="end">5692.84</text></g></g><g class="tick" transform="translate(56.8 256.663)"><line x1="0" x2="-5" y1="0" y2="0"/><g transform="translate(-6 0)"><text class="lab" text-anchor="end">6477.20</text></g></g><g class="tick" transform="translate(56.8 246.676)"><line x1="0" x2="-5" y1="0" y2="0"/><g transform="translate(-6 0)"><text class="lab" text-anchor="end">6783.00</text></g></g><g class="tick" transform="translate(56.8 182.795)"><line x1="0" x2="-5" y1="0" y2="0"/><g transform="translate(-6 0)"><text class="lab" text-anchor="end">8738.99</text></g></g><g class="tick" transform="translate(56.8 169.522)"><line x1="0" x2="-5" y1="0" y2="0"/><g transform="translate(-6 0)"><text class="lab" text-anchor="end">9145.42</text></g></g><g class="tick" transform="translate(56.8 118.841)"><line x1="0" x2="-5" y1="0" y2="0"/><g transform="translate(-6 0)"><text class="lab" text-anchor="end">10697.27</text></g></g><g class="tick" transform="translate(56.8 36.082)"><line x1="0" x2="-5" y1="0" y2="0"/><g transform="translate(-6 0)"><text class="lab" text-anchor="end">13231.31</text></g></g><g class="tick" transform="translate(56.8 26.8)"><line x1="0" x2="-5" y1="0" y2="0"/><g transform="translate(-6 0)"><text class="lab" text-anchor="end">13515.52</text></g></g></g></g></g><g class="plotbox"><g class="c2 node n10261 p0 root" transform="translate(456.132 26.8)"><g class="a10261 c2 node n4451 p0" transform="translate(-360.865 334.848)"><g class="a4451 i0 leaf node n0 p0 sample" transform="translate(-23.08 106.552)"><path class="edge" d="M 0 0 V -106.552 H 23.08"/><rect class="sym" height="6" width="6" x="-3" y="-3"/><text class="lab" transform="translate(0 11)">0</text></g><g class="a4451 c2 node n590 p2" transform="translate(23.08 87.0854)"><g class="a590 i9 leaf node n19 p1 sample" transform="translate(-15.3867 19.4664)"><path class="edge" d="M 0 0 V -19.4664 H 15.3867"/><rect class="sym" height="6" width="6" x="-3" y="-3"/><text class="lab" transform="translate(0 11)">19</text></g><g class="a590 i11 leaf node n23 p2 sample" transform="translate(15.3867 19.4664)"><path class="edge" d="M 0 0 V -19.4664 H -15.3867"/><rect class="sym" height="6" width="6" x="-3" y="-3"/><text class="lab" transform="translate(0 11)">23</text></g><path class="edge" d="M 0 0 V -87.0854 H -23.08"/><circle class="sym" cx="0" cy="0" r="3"/><text class="lab rgt" transform="translate(3 -7)">590</text></g><path class="edge" d="M 0 0 V -334.848 H 360.865"/><circle class="sym" cx="0" cy="0" r="3"/><text class="lab lft" transform="translate(-3 -7)">4451</text></g><g class="a10261 c2 node n10175 p0" transform="translate(360.865 9.282)"><g class="a10175 i2 leaf node n5 p0 sample" transform="translate(147.616 432.118)"><path class="edge" d="M 0 0 V -432.118 H -147.616"/><rect class="sym" height="6" width="6" x="-3" y="-3"/><text class="lab" transform="translate(0 11)">5</text></g><g class="a10175 c2 node n9200 p0" transform="translate(-147.616 82.7586)"><g class="a9200 c2 node n1835 p1" transform="translate(241.378 314.095)"><g class="a1835 i13 leaf node n27 p2 sample" transform="translate(23.08 35.2641)"><path class="edge" d="M 0 0 V -35.2641 H -23.08"/><rect class="sym" height="6" width="6" x="-3" y="-3"/><text class="lab" transform="translate(0 11)">27</text></g><g class="a1835 c2 node n462 p1" transform="translate(-23.08 17.5204)"><g class="a462 i5 leaf node n11 p1 sample" transform="translate(-15.3867 17.7436)"><path class="edge" d="M 0 0 V -17.7436 H 15.3867"/><rect class="sym" height="6" width="6" x="-3" y="-3"/><text class="lab" transform="translate(0 11)">11</text></g><g class="a462 i8 leaf node n17 p1 sample" transform="translate(15.3867 17.7436)"><path class="edge" d="M 0 0 V -17.7436 H -15.3867"/><rect class="sym" height="6" width="6" x="-3" y="-3"/><text class="lab" transform="translate(0 11)">17</text></g><path class="edge" d="M 0 0 V -17.5204 H 23.08"/><circle class="sym" cx="0" cy="0" r="3"/><text class="lab lft" transform="translate(-3 -7)">462</text></g><path class="edge" d="M 0 0 V -314.095 H -241.378"/><circle class="sym" cx="0" cy="0" r="3"/><text class="lab rgt" transform="translate(3 -7)">1835</text></g><g class="a9200 c2 node n8316 p0" transform="translate(-241.378 50.6815)"><g class="a8316 c2 node n6954 p0" transform="translate(-188.487 77.1537)"><g class="a6954 i4 leaf node n9 p0 sample" transform="translate(48.0833 221.524)"><path class="edge" d="M 0 0 V -221.524 H -48.0833"/><rect class="sym" height="6" width="6" x="-3" y="-3"/><text class="lab" transform="translate(0 11)">9</text></g><g class="a6954 c2 node n6268 p0" transform="translate(-48.0833 35.6033)"><g class="a6268 i0 leaf node n1 p0 sample" transform="translate(-26.9267 185.921)"><path class="edge" d="M 0 0 V -185.921 H 26.9267"/><rect class="sym" height="6" width="6" x="-3" y="-3"/><text class="lab" transform="translate(0 11)">1</text></g><g class="a6268 c2 node n5652 p0" transform="translate(26.9267 28.9764)"><g class="a5652 i1 leaf node n2 p0 sample" transform="translate(-23.08 156.945)"><path class="edge" d="M 0 0 V -156.945 H 23.08"/><rect class="sym" height="6" width="6" x="-3" y="-3"/><text class="lab" transform="translate(0 11)">2</text></g><g class="a5652 c2 node n2583 p0" transform="translate(23.08 105.117)"><g class="a2583 i3 leaf node n6 p0 sample" transform="translate(-15.3867 51.8276)"><path class="edge" d="M 0 0 V -51.8276 H 15.3867"/><rect class="sym" height="6" width="6" x="-3" y="-3"/><text class="lab" transform="translate(0 11)">6</text></g><g class="a2583 i4 leaf node n8 p0 sample" transform="translate(15.3867 51.8276)"><path class="edge" d="M 0 0 V -51.8276 H -15.3867"/><rect class="sym" height="6" width="6" x="-3" y="-3"/><text class="lab" transform="translate(0 11)">8</text></g><path class="edge" d="M 0 0 V -105.117 H -23.08"/><circle class="sym" cx="0" cy="0" r="3"/><text class="lab rgt" transform="translate(3 -7)">2583</text></g><path class="edge" d="M 0 0 V -28.9764 H -26.9267"/><circle class="sym" cx="0" cy="0" r="3"/><text class="lab rgt" transform="translate(3 -7)">5652</text></g><path class="edge" d="M 0 0 V -35.6033 H 48.0833"/><circle class="sym" cx="0" cy="0" r="3"/><text class="lab lft" transform="translate(-3 -7)">6268</text></g><path class="edge" d="M 0 0 V -77.1537 H 188.487"/><circle class="sym" cx="0" cy="0" r="3"/><text class="lab lft" transform="translate(-3 -7)">6954</text></g><g class="a8316 c2 node n8040 p0" transform="translate(188.487 13.2733)"><g class="a8040 c2 node n1584 p1" transform="translate(201.95 254.597)"><g class="a1584 i11 leaf node n22 p2 sample" transform="translate(23.08 30.8072)"><path class="edge" d="M 0 0 V -30.8072 H -23.08"/><rect class="sym" height="6" width="6" x="-3" y="-3"/><text class="lab" transform="translate(0 11)">22</text></g><g class="a1584 c2 node n1531 p1" transform="translate(-23.08 0.897912)"><g class="a1531 i7 leaf node n15 p1 sample" transform="translate(-15.3867 29.9093)"><path class="edge" d="M 0 0 V -29.9093 H 15.3867"/><rect class="sym" height="6" width="6" x="-3" y="-3"/><text class="lab" transform="translate(0 11)">15</text></g><g class="a1531 i12 leaf node n24 p2 sample" transform="translate(15.3867 29.9093)"><path class="edge" d="M 0 0 V -29.9093 H -15.3867"/><rect class="sym" height="6" width="6" x="-3" y="-3"/><text class="lab" transform="translate(0 11)">24</text></g><path class="edge" d="M 0 0 V -0.897912 H 23.08"/><circle class="sym" cx="0" cy="0" r="3"/><text class="lab lft" transform="translate(-3 -7)">1531</text></g><path class="edge" d="M 0 0 V -254.597 H -201.95"/><circle class="sym" cx="0" cy="0" r="3"/><text class="lab rgt" transform="translate(3 -7)">1584</text></g><g class="a8040 c2 node n6748 p0" transform="translate(-201.95 73.8676)"><g class="a6748 i1 leaf node n3 p0 sample" transform="translate(-96.1667 211.537)"><path class="edge" d="M 0 0 V -211.537 H 96.1667"/><rect class="sym" height="6" width="6" x="-3" y="-3"/><text class="lab" transform="translate(0 11)">3</text></g><g class="a6748 c2 node n5139 p1" transform="translate(96.1667 77.3621)"><g class="a5139 c2 node n2706 p1" transform="translate(-138.48 78.959)"><g class="a2706 i2 leaf node n4 p0 sample" transform="translate(-23.08 55.216)"><path class="edge" d="M 0 0 V -55.216 H 23.08"/><rect class="sym" height="6" width="6" x="-3" y="-3"/><text class="lab" transform="translate(0 11)">4</text></g><g class="a2706 c2 node n81 p1" transform="translate(23.08 47.4808)"><g class="a81 i7 leaf node n14 p1 sample" transform="translate(-15.3867 7.73525)"><path class="edge" d="M 0 0 V -7.73525 H 15.3867"/><rect class="sym" height="6" width="6" x="-3" y="-3"/><text class="lab" transform="translate(0 11)">14</text></g><g class="a81 i9 leaf node n18 p1 sample" transform="translate(15.3867 7.73525)"><path class="edge" d="M 0 0 V -7.73525 H -15.3867"/><rect class="sym" height="6" width="6" x="-3" y="-3"/><text class="lab" transform="translate(0 11)">18</text></g><path class="edge" d="M 0 0 V -47.4808 H -23.08"/><circle class="sym" cx="0" cy="0" r="3"/><text class="lab rgt" transform="translate(3 -7)">81</text></g><path class="edge" d="M 0 0 V -78.959 H 138.48"/><circle class="sym" cx="0" cy="0" r="3"/><text class="lab lft" transform="translate(-3 -7)">2706</text></g><g class="a5139 c2 node n2794 p1" transform="translate(138.48 76.8875)"><g class="a2794 c2 node n1022 p2" transform="translate(84.6267 33.2353)"><g class="a1022 i10 leaf node n20 p2 sample" transform="translate(-15.3867 24.0523)"><path class="edge" d="M 0 0 V -24.0523 H 15.3867"/><rect class="sym" height="6" width="6" x="-3" y="-3"/><text class="lab" transform="translate(0 11)">20</text></g><g class="a1022 i14 leaf node n29 p2 sample" transform="translate(15.3867 24.0523)"><path class="edge" d="M 0 0 V -24.0523 H -15.3867"/><rect class="sym" height="6" width="6" x="-3" y="-3"/><text class="lab" transform="translate(0 11)">29</text></g><path class="edge" d="M 0 0 V -33.2353 H -84.6267"/><circle class="sym" cx="0" cy="0" r="3"/><text class="lab rgt" transform="translate(3 -7)">1022</text></g><g class="a2794 c2 node n2091 p1" transform="translate(-84.6267 16.868)"><g class="a2091 c2 node n1801 p1" transform="translate(65.3933 5.86199)"><g class="a1801 i5 leaf node n10 p1 sample" transform="translate(-34.62 34.5576)"><path class="edge" d="M 0 0 V -34.5576 H 34.62"/><rect class="sym" height="6" width="6" x="-3" y="-3"/><text class="lab" transform="translate(0 11)">10</text></g><g class="a1801 c2 node n1332 p2" transform="translate(34.62 7.38118)"><g class="a1332 i13 leaf node n26 p2 sample" transform="translate(23.08 27.1764)"><path class="edge" d="M 0 0 V -27.1764 H -23.08"/><rect class="sym" height="6" width="6" x="-3" y="-3"/><text class="lab" transform="translate(0 11)">26</text></g><g class="a1332 c2 node n928 p2" transform="translate(-23.08 4.0766)"><g class="a928 i10 leaf node n21 p2 sample" transform="translate(-15.3867 23.0998)"><path class="edge" d="M 0 0 V -23.0998 H 15.3867"/><rect class="sym" height="6" width="6" x="-3" y="-3"/><text class="lab" transform="translate(0 11)">21</text></g><g class="a928 i12 leaf node n25 p2 sample" transform="translate(15.3867 23.0998)"><path class="edge" d="M 0 0 V -23.0998 H -15.3867"/><rect class="sym" height="6" width="6" x="-3" y="-3"/><text class="lab" transform="translate(0 11)">25</text></g><path class="edge" d="M 0 0 V -4.0766 H 23.08"/><circle class="sym" cx="0" cy="0" r="3"/><text class="lab lft" transform="translate(-3 -7)">928</text></g><path class="edge" d="M 0 0 V -7.38118 H -34.62"/><circle class="sym" cx="0" cy="0" r="3"/><text class="lab rgt" transform="translate(3 -7)">1332</text></g><path class="edge" d="M 0 0 V -5.86199 H -65.3933"/><circle class="sym" cx="0" cy="0" r="3"/><text class="lab rgt" transform="translate(3 -7)">1801</text></g><g class="a2091 c2 node n2060 p1" transform="translate(-65.3933 0.815488)"><g class="a2060 c2 node n1644 p1" transform="translate(42.3133 7.84844)"><g class="a1644 i6 leaf node n13 p1 sample" transform="translate(23.08 31.7557)"><path class="edge" d="M 0 0 V -31.7557 H -23.08"/><rect class="sym" height="6" width="6" x="-3" y="-3"/><text class="lab" transform="translate(0 11)">13</text></g><g class="a1644 c2 node n191 p1" transform="translate(-23.08 19.2575)"><g class="a191 i6 leaf node n12 p1 sample" transform="translate(-15.3867 12.4982)"><path class="edge" d="M 0 0 V -12.4982 H 15.3867"/><rect class="sym" height="6" width="6" x="-3" y="-3"/><text class="lab" transform="translate(0 11)">12</text></g><g class="a191 i8 leaf node n16 p1 sample" transform="translate(15.3867 12.4982)"><path class="edge" d="M 0 0 V -12.4982 H -15.3867"/><rect class="sym" height="6" width="6" x="-3" y="-3"/><text class="lab" transform="translate(0 11)">16</text></g><path class="edge" d="M 0 0 V -19.2575 H 23.08"/><circle class="sym" cx="0" cy="0" r="3"/><text class="lab lft" transform="translate(-3 -7)">191</text></g><path class="edge" d="M 0 0 V -7.84844 H -42.3133"/><circle class="sym" cx="0" cy="0" r="3"/><text class="lab rgt" transform="translate(3 -7)">1644</text></g><g class="a2060 c2 node n1965 p1" transform="translate(-42.3133 1.77123)"><g class="a1965 i3 leaf node n7 p0 sample" transform="translate(-15.3867 37.8329)"><path class="edge" d="M 0 0 V -37.8329 H 15.3867"/><rect class="sym" height="6" width="6" x="-3" y="-3"/><text class="lab" transform="translate(0 11)">7</text></g><g class="a1965 i14 leaf node n28 p2 sample" transform="translate(15.3867 37.8329)"><path class="edge" d="M 0 0 V -37.8329 H -15.3867"/><rect class="sym" height="6" width="6" x="-3" y="-3"/><text class="lab" transform="translate(0 11)">28</text></g><path class="edge" d="M 0 0 V -1.77123 H 42.3133"/><circle class="sym" cx="0" cy="0" r="3"/><text class="lab lft" transform="translate(-3 -7)">1965</text></g><path class="edge" d="M 0 0 V -0.815488 H 65.3933"/><circle class="sym" cx="0" cy="0" r="3"/><text class="lab lft" transform="translate(-3 -7)">2060</text></g><path class="edge" d="M 0 0 V -16.868 H 84.6267"/><circle class="sym" cx="0" cy="0" r="3"/><text class="lab lft" transform="translate(-3 -7)">2091</text></g><path class="edge" d="M 0 0 V -76.8875 H -138.48"/><circle class="sym" cx="0" cy="0" r="3"/><text class="lab rgt" transform="translate(3 -7)">2794</text></g><path class="edge" d="M 0 0 V -77.3621 H -96.1667"/><circle class="sym" cx="0" cy="0" r="3"/><text class="lab rgt" transform="translate(3 -7)">5139</text></g><path class="edge" d="M 0 0 V -73.8676 H 201.95"/><circle class="sym" cx="0" cy="0" r="3"/><text class="lab lft" transform="translate(-3 -7)">6748</text></g><path class="edge" d="M 0 0 V -13.2733 H -188.487"/><circle class="sym" cx="0" cy="0" r="3"/><text class="lab rgt" transform="translate(3 -7)">8040</text></g><path class="edge" d="M 0 0 V -50.6815 H 241.378"/><circle class="sym" cx="0" cy="0" r="3"/><text class="lab lft" transform="translate(-3 -7)">8316</text></g><path class="edge" d="M 0 0 V -82.7586 H 147.616"/><circle class="sym" cx="0" cy="0" r="3"/><text class="lab lft" transform="translate(-3 -7)">9200</text></g><path class="edge" d="M 0 0 V -9.282 H -360.865"/><circle class="sym" cx="0" cy="0" r="3"/><text class="lab rgt" transform="translate(3 -7)">10175</text></g><circle class="sym" cx="0" cy="0" r="3"/><text class="lab" transform="translate(0 -11)">10261</text></g></g></g></svg>