<?xml version="1.0" encoding="UTF-8"?>
<svg xmlns="http://www.w3.org/2000/svg" xmlns:xlink="http://www.w3.org/1999/xlink" width="720" height="864" viewBox="0 0 720 864">
<defs>
<clipPath id="clip-0">
<path clip-rule="nonzero" d="M 17.933594 11.957031 L 708.046875 11.957031 L 708.046875 846.070312 L 17.933594 846.070312 Z M 17.933594 11.957031 "/>
</clipPath>
<clipPath id="clip-1">
<path clip-rule="nonzero" d="M 17.933594 11.957031 L 708.046875 11.957031 L 708.046875 846.070312 L 17.933594 846.070312 Z M 17.933594 11.957031 "/>
</clipPath>
</defs>
<rect x="-72" y="-86.4" width="864" height="1036.8" fill="rgb(100%, 100%, 100%)" fill-opacity="1"/>
<rect x="-72" y="-86.4" width="864" height="1036.8" fill="rgb(100%, 100%, 100%)" fill-opacity="1"/>
<path fill="none" stroke-width="2.327953" stroke-linecap="round" stroke-linejoin="round" stroke="rgb(100%, 100%, 100%)" stroke-opacity="1" stroke-miterlimit="10" d="M 0 864 L 720 864 L 720 0 L 0 0 Z M 0 864 "/>
<g clip-path="url(#clip-0)">
<path fill-rule="nonzero" fill="rgb(100%, 100%, 100%)" fill-opacity="1" d="M 17.933594 846.066406 L 708.046875 846.066406 L 708.046875 11.953125 L 17.933594 11.953125 Z M 17.933594 846.066406 "/>
</g>
<path fill="none" stroke-width="1.707165" stroke-linecap="butt" stroke-linejoin="round" stroke="rgb(82.745098%, 82.745098%, 82.745098%)" stroke-opacity="1" stroke-miterlimit="1" d="M 138.925781 49.871094 L 138.019531 50.964844 L 137.117188 52.058594 L 134.398438 55.339844 L 133.496094 56.433594 L 131.683594 58.621094 L 130.777344 59.71875 L 129.875 60.8125 L 127.15625 64.09375 L 126.253906 65.1875 L 124.441406 67.375 L 123.535156 68.472656 L 122.632812 69.566406 L 119.914062 72.847656 L 119.011719 73.941406 L 116.292969 77.222656 L 115.386719 78.320312 L 114.484375 79.414062 L 111.765625 82.695312 L 110.863281 83.789062 L 109.050781 85.976562 L 108.144531 87.074219 L 107.242188 88.167969 L 104.523438 91.449219 L 103.621094 92.542969 L 100.902344 95.824219 L 100 96.921875 L 97.28125 100.203125 L 96.378906 101.296875 L 93.660156 104.578125 L 92.757812 105.671875 L 91.851562 106.769531 L 90.039062 108.957031 L 89.136719 110.050781 L 85.511719 114.425781 L 84.609375 115.523438 L 81.890625 118.804688 L 80.988281 119.898438 L 78.269531 123.179688 L 77.367188 124.273438 L 76.460938 125.371094 L 74.648438 127.558594 L 73.746094 128.652344 L 71.027344 131.933594 L 70.125 133.027344 L 69.21875 134.125 L 67.40625 136.3125 L 66.503906 137.40625 L 63.785156 140.6875 L 62.882812 141.78125 L 61.976562 142.875 L 61.070312 143.972656 L 60.164062 145.066406 L 59.261719 146.160156 L 55.636719 150.535156 L 54.734375 151.628906 L 53.828125 152.722656 L 52.921875 153.820312 L 52.015625 154.914062 L 51.113281 156.007812 L 49.300781 158.195312 "/>
<path fill="none" stroke-width="1.707165" stroke-linecap="butt" stroke-linejoin="round" stroke="rgb(82.745098%, 82.745098%, 82.745098%)" stroke-opacity="1" stroke-miterlimit="1" d="M 228.550781 49.871094 L 227.644531 50.964844 L 226.742188 52.058594 L 224.023438 55.339844 L 223.121094 56.433594 L 221.308594 58.621094 L 220.402344 59.71875 L 219.5 60.8125 L 216.78125 64.09375 L 215.878906 65.1875 L 214.066406 67.375 L 213.160156 68.472656 L 212.257812 69.566406 L 208.632812 73.941406 L 207.730469 75.035156 L 205.917969 77.222656 L 205.011719 78.320312 L 204.109375 79.414062 L 201.390625 82.695312 L 200.488281 83.789062 L 198.675781 85.976562 L 197.769531 87.074219 L 196.867188 88.167969 L 194.148438 91.449219 L 193.246094 92.542969 L 190.527344 95.824219 L 189.625 96.921875 L 186.90625 100.203125 L 186.003906 101.296875 L 183.285156 104.578125 L 182.382812 105.671875 L 181.476562 106.769531 L 178.757812 110.050781 L 177.855469 111.144531 L 175.136719 114.425781 L 174.234375 115.523438 L 171.515625 118.804688 L 170.613281 119.898438 L 167.894531 123.179688 L 166.992188 124.273438 L 166.085938 125.371094 L 164.273438 127.558594 L 163.371094 128.652344 L 160.652344 131.933594 L 159.75 133.027344 L 158.84375 134.125 L 157.03125 136.3125 L 156.128906 137.40625 L 153.410156 140.6875 L 152.507812 141.78125 L 151.601562 142.875 L 150.695312 143.972656 L 148.882812 146.160156 L 147.980469 147.253906 L 145.261719 150.535156 L 144.359375 151.628906 L 143.453125 152.722656 L 142.546875 153.820312 L 141.640625 154.914062 L 140.738281 156.007812 L 138.925781 158.195312 "/>
<path fill="none" stroke-width="1.707165" stroke-linecap="butt" stroke-linejoin="round" stroke="rgb(82.745098%, 82.745098%, 82.745098%)" stroke-opacity="1" stroke-miterlimit="1" d="M 228.550781 49.871094 L 228.550781 158.195312 "/>
<path fill="none" stroke-width="1.707165" stroke-linecap="butt" stroke-linejoin="round" stroke="rgb(82.745098%, 82.745098%, 82.745098%)" stroke-opacity="1" stroke-miterlimit="1" d="M 318.175781 49.871094 L 318.175781 158.195312 "/>
<path fill="none" stroke-width="1.707165" stroke-linecap="butt" stroke-linejoin="round" stroke="rgb(82.745098%, 82.745098%, 82.745098%)" stroke-opacity="1" stroke-miterlimit="1" d="M 318.175781 49.871094 L 319.988281 52.058594 L 320.890625 53.152344 L 323.609375 56.433594 L 324.511719 57.527344 L 325.417969 58.621094 L 326.324219 59.71875 L 327.230469 60.8125 L 328.132812 61.90625 L 330.851562 65.1875 L 331.753906 66.28125 L 332.660156 67.375 L 333.566406 68.472656 L 335.378906 70.660156 L 336.28125 71.753906 L 339 75.035156 L 339.902344 76.128906 L 340.808594 77.222656 L 341.714844 78.320312 L 342.621094 79.414062 L 343.523438 80.507812 L 346.242188 83.789062 L 347.144531 84.882812 L 348.050781 85.976562 L 348.957031 87.074219 L 349.863281 88.167969 L 350.765625 89.261719 L 353.484375 92.542969 L 354.386719 93.636719 L 356.199219 95.824219 L 357.105469 96.921875 L 358.007812 98.015625 L 360.726562 101.296875 L 361.628906 102.390625 L 364.347656 105.671875 L 365.253906 106.769531 L 366.15625 107.863281 L 368.875 111.144531 L 369.777344 112.238281 L 371.589844 114.425781 L 372.496094 115.523438 L 373.398438 116.617188 L 376.117188 119.898438 L 377.019531 120.992188 L 379.738281 124.273438 L 380.640625 125.371094 L 383.359375 128.652344 L 384.261719 129.746094 L 386.980469 133.027344 L 387.882812 134.125 L 390.601562 137.40625 L 391.503906 138.5 L 395.128906 142.875 L 396.03125 143.972656 L 398.75 147.253906 L 399.652344 148.347656 L 402.371094 151.628906 L 403.273438 152.722656 L 404.179688 153.820312 L 405.992188 156.007812 L 406.894531 157.101562 L 407.800781 158.195312 "/>
<path fill="none" stroke-width="1.707165" stroke-linecap="butt" stroke-linejoin="round" stroke="rgb(82.745098%, 82.745098%, 82.745098%)" stroke-opacity="1" stroke-miterlimit="1" d="M 318.175781 49.871094 L 319.988281 50.964844 L 321.796875 52.058594 L 323.609375 53.152344 L 325.417969 54.246094 L 327.230469 55.339844 L 329.039062 56.433594 L 330.851562 57.527344 L 332.660156 58.621094 L 334.472656 59.71875 L 336.28125 60.8125 L 338.09375 61.90625 L 339.902344 63 L 341.714844 64.09375 L 343.523438 65.1875 L 345.335938 66.28125 L 347.144531 67.375 L 348.957031 68.472656 L 350.765625 69.566406 L 352.578125 70.660156 L 354.386719 71.753906 L 356.199219 72.847656 L 358.007812 73.941406 L 359.820312 75.035156 L 361.628906 76.128906 L 363.441406 77.222656 L 365.253906 78.320312 L 367.0625 79.414062 L 368.875 80.507812 L 370.683594 81.601562 L 372.496094 82.695312 L 374.304688 83.789062 L 376.117188 84.882812 L 377.925781 85.976562 L 379.738281 87.074219 L 381.546875 88.167969 L 383.359375 89.261719 L 385.167969 90.355469 L 386.980469 91.449219 L 388.789062 92.542969 L 390.601562 93.636719 L 392.410156 94.730469 L 394.222656 95.824219 L 396.03125 96.921875 L 397.84375 98.015625 L 399.652344 99.109375 L 401.464844 100.203125 L 403.273438 101.296875 L 405.085938 102.390625 L 406.894531 103.484375 L 408.707031 104.578125 L 410.515625 105.671875 L 412.328125 106.769531 L 414.136719 107.863281 L 415.949219 108.957031 L 417.757812 110.050781 L 419.570312 111.144531 L 421.378906 112.238281 L 425.003906 114.425781 L 426.8125 115.523438 L 428.625 116.617188 L 430.433594 117.710938 L 432.246094 118.804688 L 434.054688 119.898438 L 435.867188 120.992188 L 437.675781 122.085938 L 439.488281 123.179688 L 441.296875 124.273438 L 443.109375 125.371094 L 444.917969 126.464844 L 446.730469 127.558594 L 448.539062 128.652344 L 450.351562 129.746094 L 452.160156 130.839844 L 453.972656 131.933594 L 455.78125 133.027344 L 457.59375 134.125 L 459.402344 135.21875 L 461.214844 136.3125 L 463.023438 137.40625 L 464.835938 138.5 L 466.644531 139.59375 L 468.457031 140.6875 L 470.265625 141.78125 L 472.078125 142.875 L 473.886719 143.972656 L 475.699219 145.066406 L 477.507812 146.160156 L 479.320312 147.253906 L 481.128906 148.347656 L 484.753906 150.535156 L 486.5625 151.628906 L 488.375 152.722656 L 490.183594 153.820312 L 491.996094 154.914062 L 493.804688 156.007812 L 495.617188 157.101562 L 497.425781 158.195312 "/>
<path fill="none" stroke-width="1.707165" stroke-linecap="butt" stroke-linejoin="round" stroke="rgb(82.745098%, 82.745098%, 82.745098%)" stroke-opacity="1" stroke-miterlimit="1" d="M 407.800781 49.871094 L 409.613281 50.964844 L 411.421875 52.058594 L 413.234375 53.152344 L 415.042969 54.246094 L 416.855469 55.339844 L 418.664062 56.433594 L 420.476562 57.527344 L 422.285156 58.621094 L 424.097656 59.71875 L 425.90625 60.8125 L 427.71875 61.90625 L 429.527344 63 L 431.339844 64.09375 L 433.148438 65.1875 L 434.960938 66.28125 L 436.769531 67.375 L 438.582031 68.472656 L 440.390625 69.566406 L 442.203125 70.660156 L 444.011719 71.753906 L 445.824219 72.847656 L 447.632812 73.941406 L 449.445312 75.035156 L 451.253906 76.128906 L 453.066406 77.222656 L 454.878906 78.320312 L 456.6875 79.414062 L 458.5 80.507812 L 460.308594 81.601562 L 462.121094 82.695312 L 463.929688 83.789062 L 465.742188 84.882812 L 467.550781 85.976562 L 469.363281 87.074219 L 471.171875 88.167969 L 472.984375 89.261719 L 474.792969 90.355469 L 476.605469 91.449219 L 478.414062 92.542969 L 480.226562 93.636719 L 482.035156 94.730469 L 483.847656 95.824219 L 485.65625 96.921875 L 487.46875 98.015625 L 489.277344 99.109375 L 491.089844 100.203125 L 492.898438 101.296875 L 494.710938 102.390625 L 496.519531 103.484375 L 498.332031 104.578125 L 500.140625 105.671875 L 501.953125 106.769531 L 503.761719 107.863281 L 505.574219 108.957031 L 507.382812 110.050781 L 509.195312 111.144531 L 511.003906 112.238281 L 514.628906 114.425781 L 516.4375 115.523438 L 518.25 116.617188 L 520.058594 117.710938 L 521.871094 118.804688 L 523.679688 119.898438 L 525.492188 120.992188 L 527.300781 122.085938 L 529.113281 123.179688 L 530.921875 124.273438 L 532.734375 125.371094 L 534.542969 126.464844 L 536.355469 127.558594 L 538.164062 128.652344 L 539.976562 129.746094 L 541.785156 130.839844 L 543.597656 131.933594 L 545.40625 133.027344 L 547.21875 134.125 L 549.027344 135.21875 L 550.839844 136.3125 L 552.648438 137.40625 L 554.460938 138.5 L 556.269531 139.59375 L 558.082031 140.6875 L 559.890625 141.78125 L 561.703125 142.875 L 563.511719 143.972656 L 565.324219 145.066406 L 567.132812 146.160156 L 568.945312 147.253906 L 570.753906 148.347656 L 572.566406 149.441406 L 574.375 150.535156 L 578 152.722656 L 579.808594 153.820312 L 581.621094 154.914062 L 583.429688 156.007812 L 585.242188 157.101562 L 587.050781 158.195312 "/>
<path fill="none" stroke-width="1.707165" stroke-linecap="butt" stroke-linejoin="round" stroke="rgb(82.745098%, 82.745098%, 82.745098%)" stroke-opacity="1" stroke-miterlimit="1" d="M 587.050781 49.871094 L 588.863281 52.058594 L 589.765625 53.152344 L 592.484375 56.433594 L 593.386719 57.527344 L 594.292969 58.621094 L 595.199219 59.71875 L 596.105469 60.8125 L 597.007812 61.90625 L 599.726562 65.1875 L 600.628906 66.28125 L 601.535156 67.375 L 602.441406 68.472656 L 603.347656 69.566406 L 604.25 70.660156 L 607.875 75.035156 L 608.777344 76.128906 L 609.683594 77.222656 L 610.589844 78.320312 L 611.496094 79.414062 L 612.398438 80.507812 L 615.117188 83.789062 L 616.019531 84.882812 L 616.925781 85.976562 L 617.832031 87.074219 L 618.738281 88.167969 L 619.640625 89.261719 L 622.359375 92.542969 L 623.261719 93.636719 L 625.074219 95.824219 L 625.980469 96.921875 L 626.882812 98.015625 L 629.601562 101.296875 L 630.503906 102.390625 L 633.222656 105.671875 L 634.125 106.769531 L 637.75 111.144531 L 638.652344 112.238281 L 640.464844 114.425781 L 641.371094 115.523438 L 642.273438 116.617188 L 644.992188 119.898438 L 645.894531 120.992188 L 648.613281 124.273438 L 649.515625 125.371094 L 652.234375 128.652344 L 653.136719 129.746094 L 655.855469 133.027344 L 656.757812 134.125 L 659.476562 137.40625 L 660.378906 138.5 L 663.097656 141.78125 L 664 142.875 L 664.90625 143.972656 L 667.625 147.253906 L 668.527344 148.347656 L 671.246094 151.628906 L 672.148438 152.722656 L 673.054688 153.820312 L 674.867188 156.007812 L 675.769531 157.101562 L 676.675781 158.195312 "/>
<path fill="none" stroke-width="1.707165" stroke-linecap="butt" stroke-linejoin="round" stroke="rgb(82.745098%, 82.745098%, 82.745098%)" stroke-opacity="1" stroke-miterlimit="1" d="M 49.300781 158.195312 L 49.300781 266.523438 "/>
<path fill="none" stroke-width="1.707165" stroke-linecap="butt" stroke-linejoin="round" stroke="rgb(82.745098%, 82.745098%, 82.745098%)" stroke-opacity="1" stroke-miterlimit="1" d="M 49.300781 158.195312 L 51.113281 160.382812 L 52.015625 161.476562 L 52.921875 162.574219 L 54.734375 164.761719 L 55.636719 165.855469 L 59.261719 170.230469 L 60.164062 171.324219 L 61.070312 172.421875 L 62.882812 174.609375 L 63.785156 175.703125 L 66.503906 178.984375 L 67.40625 180.078125 L 68.3125 181.175781 L 70.125 183.363281 L 71.027344 184.457031 L 73.746094 187.738281 L 74.648438 188.832031 L 75.554688 189.925781 L 76.460938 191.023438 L 77.367188 192.117188 L 78.269531 193.210938 L 80.988281 196.492188 L 81.890625 197.585938 L 83.703125 199.773438 L 84.609375 200.871094 L 85.511719 201.964844 L 89.136719 206.339844 L 90.039062 207.433594 L 90.945312 208.527344 L 91.851562 209.625 L 92.757812 210.71875 L 93.660156 211.8125 L 96.378906 215.09375 L 97.28125 216.1875 L 99.09375 218.375 L 100 219.472656 L 100.902344 220.566406 L 103.621094 223.847656 L 104.523438 224.941406 L 106.335938 227.128906 L 107.242188 228.226562 L 108.144531 229.320312 L 110.863281 232.601562 L 111.765625 233.695312 L 114.484375 236.976562 L 115.386719 238.074219 L 119.011719 242.449219 L 119.914062 243.542969 L 122.632812 246.824219 L 123.535156 247.921875 L 126.253906 251.203125 L 127.15625 252.296875 L 129.875 255.578125 L 130.777344 256.675781 L 133.496094 259.957031 L 134.398438 261.050781 L 137.117188 264.332031 L 138.019531 265.425781 L 138.925781 266.523438 "/>
<path fill="none" stroke-width="1.707165" stroke-linecap="butt" stroke-linejoin="round" stroke="rgb(82.745098%, 82.745098%, 82.745098%)" stroke-opacity="1" stroke-miterlimit="1" d="M 228.550781 158.195312 L 228.550781 266.523438 "/>
<path fill="none" stroke-width="1.707165" stroke-linecap="butt" stroke-linejoin="round" stroke="rgb(82.745098%, 82.745098%, 82.745098%)" stroke-opacity="1" stroke-miterlimit="1" d="M 318.175781 158.195312 L 318.175781 266.523438 "/>
<path fill="none" stroke-width="1.707165" stroke-linecap="butt" stroke-linejoin="round" stroke="rgb(82.745098%, 82.745098%, 82.745098%)" stroke-opacity="1" stroke-miterlimit="1" d="M 318.175781 158.195312 L 319.988281 160.382812 L 320.890625 161.476562 L 321.796875 162.574219 L 323.609375 164.761719 L 324.511719 165.855469 L 327.230469 169.136719 L 328.132812 170.230469 L 329.039062 171.324219 L 329.945312 172.421875 L 330.851562 173.515625 L 331.753906 174.609375 L 335.378906 178.984375 L 336.28125 180.078125 L 337.1875 181.175781 L 339 183.363281 L 339.902344 184.457031 L 342.621094 187.738281 L 343.523438 188.832031 L 344.429688 189.925781 L 345.335938 191.023438 L 346.242188 192.117188 L 347.144531 193.210938 L 349.863281 196.492188 L 350.765625 197.585938 L 352.578125 199.773438 L 353.484375 200.871094 L 354.386719 201.964844 L 357.105469 205.246094 L 358.007812 206.339844 L 359.820312 208.527344 L 360.726562 209.625 L 361.628906 210.71875 L 365.253906 215.09375 L 366.15625 216.1875 L 367.96875 218.375 L 368.875 219.472656 L 369.777344 220.566406 L 372.496094 223.847656 L 373.398438 224.941406 L 375.210938 227.128906 L 376.117188 228.226562 L 377.019531 229.320312 L 379.738281 232.601562 L 380.640625 233.695312 L 383.359375 236.976562 L 384.261719 238.074219 L 386.980469 241.355469 L 387.882812 242.449219 L 390.601562 245.730469 L 391.503906 246.824219 L 392.410156 247.921875 L 395.128906 251.203125 L 396.03125 252.296875 L 398.75 255.578125 L 399.652344 256.675781 L 402.371094 259.957031 L 403.273438 261.050781 L 405.992188 264.332031 L 406.894531 265.425781 L 407.800781 266.523438 "/>
<path fill="none" stroke-width="1.707165" stroke-linecap="butt" stroke-linejoin="round" stroke="rgb(82.745098%, 82.745098%, 82.745098%)" stroke-opacity="1" stroke-miterlimit="1" d="M 407.800781 158.195312 L 409.613281 160.382812 L 410.515625 161.476562 L 411.421875 162.574219 L 413.234375 164.761719 L 414.136719 165.855469 L 416.855469 169.136719 L 417.757812 170.230469 L 418.664062 171.324219 L 419.570312 172.421875 L 420.476562 173.515625 L 421.378906 174.609375 L 425.003906 178.984375 L 425.90625 180.078125 L 426.8125 181.175781 L 428.625 183.363281 L 429.527344 184.457031 L 432.246094 187.738281 L 433.148438 188.832031 L 434.054688 189.925781 L 434.960938 191.023438 L 435.867188 192.117188 L 436.769531 193.210938 L 439.488281 196.492188 L 440.390625 197.585938 L 442.203125 199.773438 L 443.109375 200.871094 L 444.011719 201.964844 L 446.730469 205.246094 L 447.632812 206.339844 L 449.445312 208.527344 L 450.351562 209.625 L 451.253906 210.71875 L 454.878906 215.09375 L 455.78125 216.1875 L 457.59375 218.375 L 458.5 219.472656 L 459.402344 220.566406 L 462.121094 223.847656 L 463.023438 224.941406 L 464.835938 227.128906 L 465.742188 228.226562 L 466.644531 229.320312 L 469.363281 232.601562 L 470.265625 233.695312 L 472.984375 236.976562 L 473.886719 238.074219 L 476.605469 241.355469 L 477.507812 242.449219 L 480.226562 245.730469 L 481.128906 246.824219 L 482.035156 247.921875 L 484.753906 251.203125 L 485.65625 252.296875 L 488.375 255.578125 L 489.277344 256.675781 L 491.996094 259.957031 L 492.898438 261.050781 L 495.617188 264.332031 L 496.519531 265.425781 L 497.425781 266.523438 "/>
<path fill="none" stroke-width="1.707165" stroke-linecap="butt" stroke-linejoin="round" stroke="rgb(82.745098%, 82.745098%, 82.745098%)" stroke-opacity="1" stroke-miterlimit="1" d="M 497.425781 158.195312 L 499.238281 160.382812 L 500.140625 161.476562 L 501.046875 162.574219 L 502.859375 164.761719 L 503.761719 165.855469 L 506.480469 169.136719 L 507.382812 170.230469 L 508.289062 171.324219 L 509.195312 172.421875 L 510.101562 173.515625 L 511.003906 174.609375 L 514.628906 178.984375 L 515.53125 180.078125 L 516.4375 181.175781 L 518.25 183.363281 L 519.152344 184.457031 L 521.871094 187.738281 L 522.773438 188.832031 L 523.679688 189.925781 L 524.585938 191.023438 L 525.492188 192.117188 L 526.394531 193.210938 L 529.113281 196.492188 L 530.015625 197.585938 L 531.828125 199.773438 L 532.734375 200.871094 L 533.636719 201.964844 L 536.355469 205.246094 L 537.257812 206.339844 L 539.070312 208.527344 L 539.976562 209.625 L 540.878906 210.71875 L 543.597656 214 L 544.5 215.09375 L 547.21875 218.375 L 548.125 219.472656 L 549.027344 220.566406 L 551.746094 223.847656 L 552.648438 224.941406 L 554.460938 227.128906 L 555.367188 228.226562 L 556.269531 229.320312 L 558.988281 232.601562 L 559.890625 233.695312 L 562.609375 236.976562 L 563.511719 238.074219 L 566.230469 241.355469 L 567.132812 242.449219 L 569.851562 245.730469 L 570.753906 246.824219 L 571.660156 247.921875 L 573.472656 250.109375 L 574.375 251.203125 L 578 255.578125 L 578.902344 256.675781 L 581.621094 259.957031 L 582.523438 261.050781 L 585.242188 264.332031 L 586.144531 265.425781 L 587.050781 266.523438 "/>
<path fill="none" stroke-width="1.707165" stroke-linecap="butt" stroke-linejoin="round" stroke="rgb(82.745098%, 82.745098%, 82.745098%)" stroke-opacity="1" stroke-miterlimit="1" d="M 676.675781 158.195312 L 676.675781 266.523438 "/>
<path fill="none" stroke-width="1.707165" stroke-linecap="butt" stroke-linejoin="round" stroke="rgb(82.745098%, 82.745098%, 82.745098%)" stroke-opacity="1" stroke-miterlimit="1" d="M 49.300781 266.523438 L 49.300781 374.847656 "/>
<path fill="none" stroke-width="1.707165" stroke-linecap="butt" stroke-linejoin="round" stroke="rgb(82.745098%, 82.745098%, 82.745098%)" stroke-opacity="1" stroke-miterlimit="1" d="M 138.925781 266.523438 L 138.925781 374.847656 "/>
<path fill="none" stroke-width="1.707165" stroke-linecap="butt" stroke-linejoin="round" stroke="rgb(82.745098%, 82.745098%, 82.745098%)" stroke-opacity="1" stroke-miterlimit="1" d="M 407.800781 266.523438 L 405.992188 267.617188 L 404.179688 268.710938 L 402.371094 269.804688 L 400.558594 270.898438 L 398.75 271.992188 L 396.9375 273.085938 L 395.128906 274.179688 L 393.316406 275.277344 L 391.503906 276.371094 L 389.695312 277.464844 L 387.882812 278.558594 L 386.074219 279.652344 L 384.261719 280.746094 L 382.453125 281.839844 L 380.640625 282.933594 L 378.832031 284.027344 L 377.019531 285.125 L 375.210938 286.21875 L 373.398438 287.3125 L 371.589844 288.40625 L 369.777344 289.5 L 367.96875 290.59375 L 366.15625 291.6875 L 364.347656 292.78125 L 362.535156 293.878906 L 360.726562 294.972656 L 358.914062 296.066406 L 357.105469 297.160156 L 355.292969 298.253906 L 353.484375 299.347656 L 351.671875 300.441406 L 349.863281 301.535156 L 348.050781 302.628906 L 346.242188 303.726562 L 344.429688 304.820312 L 342.621094 305.914062 L 340.808594 307.007812 L 339 308.101562 L 337.1875 309.195312 L 335.378906 310.289062 L 331.753906 312.476562 L 329.945312 313.574219 L 328.132812 314.667969 L 326.324219 315.761719 L 324.511719 316.855469 L 322.703125 317.949219 L 320.890625 319.042969 L 319.082031 320.136719 L 317.269531 321.230469 L 315.460938 322.328125 L 313.648438 323.421875 L 311.839844 324.515625 L 310.027344 325.609375 L 308.21875 326.703125 L 306.40625 327.796875 L 304.597656 328.890625 L 302.785156 329.984375 L 300.976562 331.078125 L 299.164062 332.175781 L 297.355469 333.269531 L 295.542969 334.363281 L 293.734375 335.457031 L 291.921875 336.550781 L 290.113281 337.644531 L 288.300781 338.738281 L 286.492188 339.832031 L 284.679688 340.929688 L 282.871094 342.023438 L 281.058594 343.117188 L 279.25 344.210938 L 277.4375 345.304688 L 275.628906 346.398438 L 273.816406 347.492188 L 272.007812 348.585938 L 270.195312 349.679688 L 268.382812 350.777344 L 266.574219 351.871094 L 264.761719 352.964844 L 262.953125 354.058594 L 261.140625 355.152344 L 259.332031 356.246094 L 257.519531 357.339844 L 255.710938 358.433594 L 253.898438 359.527344 L 252.089844 360.625 L 250.277344 361.71875 L 248.46875 362.8125 L 246.65625 363.90625 L 244.847656 365 L 243.035156 366.09375 L 241.226562 367.1875 L 239.414062 368.28125 L 237.605469 369.378906 L 235.792969 370.472656 L 233.984375 371.566406 L 232.171875 372.660156 L 230.363281 373.753906 L 228.550781 374.847656 "/>
<path fill="none" stroke-width="1.707165" stroke-linecap="butt" stroke-linejoin="round" stroke="rgb(82.745098%, 82.745098%, 82.745098%)" stroke-opacity="1" stroke-miterlimit="1" d="M 497.425781 266.523438 L 495.617188 267.617188 L 493.804688 268.710938 L 491.996094 269.804688 L 490.183594 270.898438 L 488.375 271.992188 L 486.5625 273.085938 L 484.753906 274.179688 L 482.941406 275.277344 L 481.128906 276.371094 L 479.320312 277.464844 L 477.507812 278.558594 L 475.699219 279.652344 L 473.886719 280.746094 L 472.078125 281.839844 L 470.265625 282.933594 L 468.457031 284.027344 L 466.644531 285.125 L 464.835938 286.21875 L 463.023438 287.3125 L 461.214844 288.40625 L 459.402344 289.5 L 457.59375 290.59375 L 455.78125 291.6875 L 453.972656 292.78125 L 452.160156 293.878906 L 450.351562 294.972656 L 448.539062 296.066406 L 446.730469 297.160156 L 444.917969 298.253906 L 443.109375 299.347656 L 441.296875 300.441406 L 439.488281 301.535156 L 437.675781 302.628906 L 435.867188 303.726562 L 434.054688 304.820312 L 432.246094 305.914062 L 430.433594 307.007812 L 428.625 308.101562 L 426.8125 309.195312 L 425.003906 310.289062 L 421.378906 312.476562 L 419.570312 313.574219 L 417.757812 314.667969 L 415.949219 315.761719 L 414.136719 316.855469 L 412.328125 317.949219 L 410.515625 319.042969 L 408.707031 320.136719 L 406.894531 321.230469 L 405.085938 322.328125 L 403.273438 323.421875 L 401.464844 324.515625 L 399.652344 325.609375 L 397.84375 326.703125 L 396.03125 327.796875 L 394.222656 328.890625 L 392.410156 329.984375 L 390.601562 331.078125 L 388.789062 332.175781 L 386.980469 333.269531 L 385.167969 334.363281 L 383.359375 335.457031 L 381.546875 336.550781 L 379.738281 337.644531 L 377.925781 338.738281 L 376.117188 339.832031 L 374.304688 340.929688 L 372.496094 342.023438 L 370.683594 343.117188 L 368.875 344.210938 L 367.0625 345.304688 L 365.253906 346.398438 L 361.628906 348.585938 L 359.820312 349.679688 L 358.007812 350.777344 L 356.199219 351.871094 L 354.386719 352.964844 L 352.578125 354.058594 L 350.765625 355.152344 L 348.957031 356.246094 L 347.144531 357.339844 L 345.335938 358.433594 L 343.523438 359.527344 L 341.714844 360.625 L 339.902344 361.71875 L 338.09375 362.8125 L 336.28125 363.90625 L 334.472656 365 L 332.660156 366.09375 L 330.851562 367.1875 L 329.039062 368.28125 L 327.230469 369.378906 L 325.417969 370.472656 L 323.609375 371.566406 L 321.796875 372.660156 L 319.988281 373.753906 L 318.175781 374.847656 "/>
<path fill="none" stroke-width="1.707165" stroke-linecap="butt" stroke-linejoin="round" stroke="rgb(82.745098%, 82.745098%, 82.745098%)" stroke-opacity="1" stroke-miterlimit="1" d="M 497.425781 266.523438 L 496.519531 267.617188 L 495.617188 268.710938 L 492.898438 271.992188 L 491.996094 273.085938 L 491.089844 274.179688 L 490.183594 275.277344 L 489.277344 276.371094 L 488.375 277.464844 L 485.65625 280.746094 L 484.753906 281.839844 L 482.941406 284.027344 L 482.035156 285.125 L 481.128906 286.21875 L 480.226562 287.3125 L 477.507812 290.59375 L 476.605469 291.6875 L 475.699219 292.78125 L 474.792969 293.878906 L 473.886719 294.972656 L 472.984375 296.066406 L 470.265625 299.347656 L 469.363281 300.441406 L 467.550781 302.628906 L 466.644531 303.726562 L 465.742188 304.820312 L 463.023438 308.101562 L 462.121094 309.195312 L 459.402344 312.476562 L 458.5 313.574219 L 455.78125 316.855469 L 454.878906 317.949219 L 452.160156 321.230469 L 451.253906 322.328125 L 450.351562 323.421875 L 447.632812 326.703125 L 446.730469 327.796875 L 444.011719 331.078125 L 443.109375 332.175781 L 440.390625 335.457031 L 439.488281 336.550781 L 436.769531 339.832031 L 435.867188 340.929688 L 433.148438 344.210938 L 432.246094 345.304688 L 429.527344 348.585938 L 428.625 349.679688 L 427.71875 350.777344 L 425.90625 352.964844 L 425.003906 354.058594 L 421.378906 358.433594 L 420.476562 359.527344 L 419.570312 360.625 L 417.757812 362.8125 L 416.855469 363.90625 L 414.136719 367.1875 L 413.234375 368.28125 L 412.328125 369.378906 L 410.515625 371.566406 L 409.613281 372.660156 L 407.800781 374.847656 "/>
<path fill="none" stroke-width="1.707165" stroke-linecap="butt" stroke-linejoin="round" stroke="rgb(82.745098%, 82.745098%, 82.745098%)" stroke-opacity="1" stroke-miterlimit="1" d="M 587.050781 266.523438 L 586.144531 267.617188 L 585.242188 268.710938 L 582.523438 271.992188 L 581.621094 273.085938 L 580.714844 274.179688 L 579.808594 275.277344 L 578.902344 276.371094 L 578 277.464844 L 574.375 281.839844 L 573.472656 282.933594 L 572.566406 284.027344 L 571.660156 285.125 L 570.753906 286.21875 L 569.851562 287.3125 L 567.132812 290.59375 L 566.230469 291.6875 L 565.324219 292.78125 L 564.417969 293.878906 L 563.511719 294.972656 L 562.609375 296.066406 L 559.890625 299.347656 L 558.988281 300.441406 L 557.175781 302.628906 L 556.269531 303.726562 L 555.367188 304.820312 L 552.648438 308.101562 L 551.746094 309.195312 L 549.027344 312.476562 L 548.125 313.574219 L 544.5 317.949219 L 543.597656 319.042969 L 541.785156 321.230469 L 540.878906 322.328125 L 539.976562 323.421875 L 537.257812 326.703125 L 536.355469 327.796875 L 533.636719 331.078125 L 532.734375 332.175781 L 530.015625 335.457031 L 529.113281 336.550781 L 526.394531 339.832031 L 525.492188 340.929688 L 522.773438 344.210938 L 521.871094 345.304688 L 519.152344 348.585938 L 518.25 349.679688 L 517.34375 350.777344 L 515.53125 352.964844 L 514.628906 354.058594 L 511.003906 358.433594 L 510.101562 359.527344 L 509.195312 360.625 L 507.382812 362.8125 L 506.480469 363.90625 L 503.761719 367.1875 L 502.859375 368.28125 L 501.953125 369.378906 L 500.140625 371.566406 L 499.238281 372.660156 L 497.425781 374.847656 "/>
<path fill="none" stroke-width="1.707165" stroke-linecap="butt" stroke-linejoin="round" stroke="rgb(82.745098%, 82.745098%, 82.745098%)" stroke-opacity="1" stroke-miterlimit="1" d="M 676.675781 266.523438 L 675.769531 267.617188 L 674.867188 268.710938 L 672.148438 271.992188 L 671.246094 273.085938 L 670.339844 274.179688 L 669.433594 275.277344 L 668.527344 276.371094 L 667.625 277.464844 L 664 281.839844 L 663.097656 282.933594 L 662.191406 284.027344 L 661.285156 285.125 L 660.378906 286.21875 L 659.476562 287.3125 L 656.757812 290.59375 L 655.855469 291.6875 L 654.949219 292.78125 L 654.042969 293.878906 L 653.136719 294.972656 L 652.234375 296.066406 L 649.515625 299.347656 L 648.613281 300.441406 L 646.800781 302.628906 L 645.894531 303.726562 L 644.992188 304.820312 L 642.273438 308.101562 L 641.371094 309.195312 L 638.652344 312.476562 L 637.75 313.574219 L 634.125 317.949219 L 633.222656 319.042969 L 631.410156 321.230469 L 630.503906 322.328125 L 629.601562 323.421875 L 626.882812 326.703125 L 625.980469 327.796875 L 623.261719 331.078125 L 622.359375 332.175781 L 619.640625 335.457031 L 618.738281 336.550781 L 616.019531 339.832031 L 615.117188 340.929688 L 612.398438 344.210938 L 611.496094 345.304688 L 608.777344 348.585938 L 607.875 349.679688 L 606.96875 350.777344 L 604.25 354.058594 L 603.347656 355.152344 L 600.628906 358.433594 L 599.726562 359.527344 L 598.820312 360.625 L 597.007812 362.8125 L 596.105469 363.90625 L 593.386719 367.1875 L 592.484375 368.28125 L 591.578125 369.378906 L 589.765625 371.566406 L 588.863281 372.660156 L 587.050781 374.847656 "/>
<path fill="none" stroke-width="1.707165" stroke-linecap="butt" stroke-linejoin="round" stroke="rgb(82.745098%, 82.745098%, 82.745098%)" stroke-opacity="1" stroke-miterlimit="1" d="M 676.675781 266.523438 L 676.675781 374.847656 "/>
<path fill="none" stroke-width="1.707165" stroke-linecap="butt" stroke-linejoin="round" stroke="rgb(82.745098%, 82.745098%, 82.745098%)" stroke-opacity="1" stroke-miterlimit="1" d="M 49.300781 374.847656 L 49.300781 483.175781 "/>
<path fill="none" stroke-width="1.707165" stroke-linecap="butt" stroke-linejoin="round" stroke="rgb(82.745098%, 82.745098%, 82.745098%)" stroke-opacity="1" stroke-miterlimit="1" d="M 49.300781 374.847656 L 51.113281 377.035156 L 52.015625 378.128906 L 52.921875 379.226562 L 54.734375 381.414062 L 55.636719 382.507812 L 59.261719 386.882812 L 60.164062 387.980469 L 62.882812 391.261719 L 63.785156 392.355469 L 66.503906 395.636719 L 67.40625 396.730469 L 68.3125 397.828125 L 70.125 400.015625 L 71.027344 401.109375 L 73.746094 404.390625 L 74.648438 405.484375 L 75.554688 406.578125 L 76.460938 407.675781 L 77.367188 408.769531 L 78.269531 409.863281 L 80.988281 413.144531 L 81.890625 414.238281 L 82.796875 415.332031 L 83.703125 416.429688 L 84.609375 417.523438 L 85.511719 418.617188 L 89.136719 422.992188 L 90.039062 424.085938 L 90.945312 425.179688 L 91.851562 426.277344 L 92.757812 427.371094 L 93.660156 428.464844 L 96.378906 431.746094 L 97.28125 432.839844 L 98.1875 433.933594 L 99.09375 435.03125 L 100 436.125 L 100.902344 437.21875 L 103.621094 440.5 L 104.523438 441.59375 L 106.335938 443.78125 L 107.242188 444.878906 L 108.144531 445.972656 L 110.863281 449.253906 L 111.765625 450.347656 L 114.484375 453.628906 L 115.386719 454.726562 L 119.011719 459.101562 L 119.914062 460.195312 L 121.726562 462.382812 L 122.632812 463.480469 L 123.535156 464.574219 L 126.253906 467.855469 L 127.15625 468.949219 L 129.875 472.230469 L 130.777344 473.328125 L 133.496094 476.609375 L 134.398438 477.703125 L 137.117188 480.984375 L 138.019531 482.082031 L 138.925781 483.175781 "/>
<path fill="none" stroke-width="1.707165" stroke-linecap="butt" stroke-linejoin="round" stroke="rgb(82.745098%, 82.745098%, 82.745098%)" stroke-opacity="1" stroke-miterlimit="1" d="M 138.925781 374.847656 L 140.738281 377.035156 L 141.640625 378.128906 L 142.546875 379.226562 L 144.359375 381.414062 L 145.261719 382.507812 L 147.980469 385.789062 L 148.882812 386.882812 L 149.789062 387.980469 L 152.507812 391.261719 L 153.410156 392.355469 L 156.128906 395.636719 L 157.03125 396.730469 L 157.9375 397.828125 L 159.75 400.015625 L 160.652344 401.109375 L 163.371094 404.390625 L 164.273438 405.484375 L 165.179688 406.578125 L 166.085938 407.675781 L 166.992188 408.769531 L 167.894531 409.863281 L 170.613281 413.144531 L 171.515625 414.238281 L 172.421875 415.332031 L 173.328125 416.429688 L 174.234375 417.523438 L 175.136719 418.617188 L 177.855469 421.898438 L 178.757812 422.992188 L 180.570312 425.179688 L 181.476562 426.277344 L 182.382812 427.371094 L 183.285156 428.464844 L 186.003906 431.746094 L 186.90625 432.839844 L 187.8125 433.933594 L 188.71875 435.03125 L 189.625 436.125 L 190.527344 437.21875 L 193.246094 440.5 L 194.148438 441.59375 L 195.960938 443.78125 L 196.867188 444.878906 L 197.769531 445.972656 L 200.488281 449.253906 L 201.390625 450.347656 L 204.109375 453.628906 L 205.011719 454.726562 L 207.730469 458.007812 L 208.632812 459.101562 L 211.351562 462.382812 L 212.257812 463.480469 L 213.160156 464.574219 L 215.878906 467.855469 L 216.78125 468.949219 L 219.5 472.230469 L 220.402344 473.328125 L 223.121094 476.609375 L 224.023438 477.703125 L 226.742188 480.984375 L 227.644531 482.082031 L 228.550781 483.175781 "/>
<path fill="none" stroke-width="1.707165" stroke-linecap="butt" stroke-linejoin="round" stroke="rgb(82.745098%, 82.745098%, 82.745098%)" stroke-opacity="1" stroke-miterlimit="1" d="M 407.800781 374.847656 L 406.894531 375.941406 L 405.992188 377.035156 L 405.085938 378.128906 L 404.179688 379.226562 L 403.273438 380.320312 L 402.371094 381.414062 L 399.652344 384.695312 L 398.75 385.789062 L 397.84375 386.882812 L 396.9375 387.980469 L 396.03125 389.074219 L 395.128906 390.167969 L 391.503906 394.542969 L 390.601562 395.636719 L 389.695312 396.730469 L 388.789062 397.828125 L 387.882812 398.921875 L 386.980469 400.015625 L 384.261719 403.296875 L 383.359375 404.390625 L 381.546875 406.578125 L 380.640625 407.675781 L 379.738281 408.769531 L 377.019531 412.050781 L 376.117188 413.144531 L 374.304688 415.332031 L 373.398438 416.429688 L 372.496094 417.523438 L 369.777344 420.804688 L 368.875 421.898438 L 366.15625 425.179688 L 365.253906 426.277344 L 361.628906 430.652344 L 360.726562 431.746094 L 358.914062 433.933594 L 358.007812 435.03125 L 357.105469 436.125 L 354.386719 439.40625 L 353.484375 440.5 L 350.765625 443.78125 L 349.863281 444.878906 L 347.144531 448.160156 L 346.242188 449.253906 L 343.523438 452.535156 L 342.621094 453.628906 L 341.714844 454.726562 L 339.902344 456.914062 L 339 458.007812 L 336.28125 461.289062 L 335.378906 462.382812 L 334.472656 463.480469 L 331.753906 466.761719 L 330.851562 467.855469 L 328.132812 471.136719 L 327.230469 472.230469 L 326.324219 473.328125 L 324.511719 475.515625 L 323.609375 476.609375 L 320.890625 479.890625 L 319.988281 480.984375 L 319.082031 482.082031 L 318.175781 483.175781 "/>
<path fill="none" stroke-width="1.707165" stroke-linecap="butt" stroke-linejoin="round" stroke="rgb(82.745098%, 82.745098%, 82.745098%)" stroke-opacity="1" stroke-miterlimit="1" d="M 407.800781 374.847656 L 407.800781 483.175781 "/>
<path fill="none" stroke-width="1.707165" stroke-linecap="butt" stroke-linejoin="round" stroke="rgb(82.745098%, 82.745098%, 82.745098%)" stroke-opacity="1" stroke-miterlimit="1" d="M 497.425781 374.847656 L 497.425781 483.175781 "/>
<path fill="none" stroke-width="1.707165" stroke-linecap="butt" stroke-linejoin="round" stroke="rgb(82.745098%, 82.745098%, 82.745098%)" stroke-opacity="1" stroke-miterlimit="1" d="M 587.050781 374.847656 L 587.050781 483.175781 "/>
<path fill="none" stroke-width="1.707165" stroke-linecap="butt" stroke-linejoin="round" stroke="rgb(82.745098%, 82.745098%, 82.745098%)" stroke-opacity="1" stroke-miterlimit="1" d="M 676.675781 374.847656 L 676.675781 483.175781 "/>
<path fill="none" stroke-width="1.707165" stroke-linecap="butt" stroke-linejoin="round" stroke="rgb(82.745098%, 82.745098%, 82.745098%)" stroke-opacity="1" stroke-miterlimit="1" d="M 228.550781 483.175781 L 226.742188 484.269531 L 224.929688 485.363281 L 223.121094 486.457031 L 221.308594 487.550781 L 219.5 488.644531 L 217.6875 489.738281 L 215.878906 490.832031 L 214.066406 491.929688 L 212.257812 493.023438 L 208.632812 495.210938 L 206.824219 496.304688 L 205.011719 497.398438 L 203.203125 498.492188 L 201.390625 499.585938 L 199.582031 500.679688 L 197.769531 501.777344 L 195.960938 502.871094 L 194.148438 503.964844 L 192.339844 505.058594 L 190.527344 506.152344 L 188.71875 507.246094 L 186.90625 508.339844 L 185.097656 509.433594 L 183.285156 510.53125 L 181.476562 511.625 L 179.664062 512.71875 L 177.855469 513.8125 L 176.042969 514.90625 L 174.234375 516 L 172.421875 517.09375 L 170.613281 518.1875 L 168.800781 519.28125 L 166.992188 520.378906 L 165.179688 521.472656 L 163.371094 522.566406 L 161.558594 523.660156 L 159.75 524.753906 L 157.9375 525.847656 L 156.128906 526.941406 L 154.316406 528.035156 L 152.507812 529.132812 L 148.882812 531.320312 L 147.074219 532.414062 L 145.261719 533.507812 L 143.453125 534.601562 L 141.640625 535.695312 L 139.832031 536.789062 L 138.019531 537.882812 L 136.210938 538.980469 L 134.398438 540.074219 L 132.589844 541.167969 L 130.777344 542.261719 L 128.96875 543.355469 L 127.15625 544.449219 L 125.347656 545.542969 L 123.535156 546.636719 L 121.726562 547.730469 L 119.914062 548.828125 L 118.105469 549.921875 L 116.292969 551.015625 L 114.484375 552.109375 L 112.671875 553.203125 L 110.863281 554.296875 L 109.050781 555.390625 L 107.242188 556.484375 L 105.429688 557.582031 L 103.621094 558.675781 L 101.808594 559.769531 L 100 560.863281 L 98.1875 561.957031 L 96.378906 563.050781 L 94.566406 564.144531 L 92.757812 565.238281 L 90.945312 566.332031 L 89.136719 567.429688 L 85.511719 569.617188 L 83.703125 570.710938 L 81.890625 571.804688 L 80.082031 572.898438 L 78.269531 573.992188 L 76.460938 575.085938 L 74.648438 576.183594 L 72.839844 577.277344 L 71.027344 578.371094 L 69.21875 579.464844 L 67.40625 580.558594 L 65.597656 581.652344 L 63.785156 582.746094 L 61.976562 583.839844 L 60.164062 584.933594 L 58.355469 586.03125 L 56.542969 587.125 L 54.734375 588.21875 L 52.921875 589.3125 L 51.113281 590.40625 L 49.300781 591.5 "/>
<path fill="none" stroke-width="1.707165" stroke-linecap="butt" stroke-linejoin="round" stroke="rgb(82.745098%, 82.745098%, 82.745098%)" stroke-opacity="1" stroke-miterlimit="1" d="M 318.175781 483.175781 L 316.367188 484.269531 L 314.554688 485.363281 L 312.746094 486.457031 L 310.933594 487.550781 L 309.125 488.644531 L 307.3125 489.738281 L 305.503906 490.832031 L 303.691406 491.929688 L 301.882812 493.023438 L 298.257812 495.210938 L 296.449219 496.304688 L 294.636719 497.398438 L 292.828125 498.492188 L 291.015625 499.585938 L 289.207031 500.679688 L 287.394531 501.777344 L 285.585938 502.871094 L 283.773438 503.964844 L 281.964844 505.058594 L 280.152344 506.152344 L 278.34375 507.246094 L 276.53125 508.339844 L 274.722656 509.433594 L 272.910156 510.53125 L 271.101562 511.625 L 269.289062 512.71875 L 267.480469 513.8125 L 265.667969 514.90625 L 263.859375 516 L 262.046875 517.09375 L 260.238281 518.1875 L 258.425781 519.28125 L 256.617188 520.378906 L 254.804688 521.472656 L 252.996094 522.566406 L 251.183594 523.660156 L 249.375 524.753906 L 247.5625 525.847656 L 245.753906 526.941406 L 243.941406 528.035156 L 242.132812 529.132812 L 238.507812 531.320312 L 236.699219 532.414062 L 234.886719 533.507812 L 233.078125 534.601562 L 231.265625 535.695312 L 229.457031 536.789062 L 227.644531 537.882812 L 225.835938 538.980469 L 224.023438 540.074219 L 222.214844 541.167969 L 220.402344 542.261719 L 218.59375 543.355469 L 216.78125 544.449219 L 214.972656 545.542969 L 213.160156 546.636719 L 211.351562 547.730469 L 209.539062 548.828125 L 207.730469 549.921875 L 205.917969 551.015625 L 204.109375 552.109375 L 202.296875 553.203125 L 200.488281 554.296875 L 198.675781 555.390625 L 196.867188 556.484375 L 195.054688 557.582031 L 193.246094 558.675781 L 191.433594 559.769531 L 189.625 560.863281 L 187.8125 561.957031 L 186.003906 563.050781 L 184.191406 564.144531 L 182.382812 565.238281 L 180.570312 566.332031 L 178.757812 567.429688 L 176.949219 568.523438 L 175.136719 569.617188 L 173.328125 570.710938 L 171.515625 571.804688 L 169.707031 572.898438 L 167.894531 573.992188 L 166.085938 575.085938 L 164.273438 576.183594 L 162.464844 577.277344 L 160.652344 578.371094 L 158.84375 579.464844 L 157.03125 580.558594 L 155.222656 581.652344 L 153.410156 582.746094 L 151.601562 583.839844 L 149.789062 584.933594 L 147.980469 586.03125 L 146.167969 587.125 L 144.359375 588.21875 L 142.546875 589.3125 L 140.738281 590.40625 L 138.925781 591.5 "/>
<path fill="none" stroke-width="1.707165" stroke-linecap="butt" stroke-linejoin="round" stroke="rgb(82.745098%, 82.745098%, 82.745098%)" stroke-opacity="1" stroke-miterlimit="1" d="M 318.175781 483.175781 L 317.269531 484.269531 L 316.367188 485.363281 L 313.648438 488.644531 L 312.746094 489.738281 L 311.839844 490.832031 L 310.933594 491.929688 L 310.027344 493.023438 L 309.125 494.117188 L 306.40625 497.398438 L 305.503906 498.492188 L 303.691406 500.679688 L 302.785156 501.777344 L 301.882812 502.871094 L 298.257812 507.246094 L 297.355469 508.339844 L 296.449219 509.433594 L 295.542969 510.53125 L 294.636719 511.625 L 293.734375 512.71875 L 291.015625 516 L 290.113281 517.09375 L 288.300781 519.28125 L 287.394531 520.378906 L 286.492188 521.472656 L 283.773438 524.753906 L 282.871094 525.847656 L 281.058594 528.035156 L 280.152344 529.132812 L 279.25 530.226562 L 276.53125 533.507812 L 275.628906 534.601562 L 272.910156 537.882812 L 272.007812 538.980469 L 268.382812 543.355469 L 267.480469 544.449219 L 264.761719 547.730469 L 263.859375 548.828125 L 261.140625 552.109375 L 260.238281 553.203125 L 257.519531 556.484375 L 256.617188 557.582031 L 253.898438 560.863281 L 252.996094 561.957031 L 250.277344 565.238281 L 249.375 566.332031 L 248.46875 567.429688 L 246.65625 569.617188 L 245.753906 570.710938 L 243.035156 573.992188 L 242.132812 575.085938 L 241.226562 576.183594 L 238.507812 579.464844 L 237.605469 580.558594 L 234.886719 583.839844 L 233.984375 584.933594 L 233.078125 586.03125 L 231.265625 588.21875 L 230.363281 589.3125 L 228.550781 591.5 "/>
<path fill="none" stroke-width="1.707165" stroke-linecap="butt" stroke-linejoin="round" stroke="rgb(82.745098%, 82.745098%, 82.745098%)" stroke-opacity="1" stroke-miterlimit="1" d="M 407.800781 483.175781 L 406.894531 484.269531 L 405.992188 485.363281 L 403.273438 488.644531 L 402.371094 489.738281 L 401.464844 490.832031 L 400.558594 491.929688 L 399.652344 493.023438 L 398.75 494.117188 L 396.03125 497.398438 L 395.128906 498.492188 L 393.316406 500.679688 L 392.410156 501.777344 L 391.503906 502.871094 L 390.601562 503.964844 L 387.882812 507.246094 L 386.980469 508.339844 L 386.074219 509.433594 L 385.167969 510.53125 L 384.261719 511.625 L 383.359375 512.71875 L 380.640625 516 L 379.738281 517.09375 L 377.925781 519.28125 L 377.019531 520.378906 L 376.117188 521.472656 L 373.398438 524.753906 L 372.496094 525.847656 L 370.683594 528.035156 L 369.777344 529.132812 L 368.875 530.226562 L 366.15625 533.507812 L 365.253906 534.601562 L 362.535156 537.882812 L 361.628906 538.980469 L 360.726562 540.074219 L 358.007812 543.355469 L 357.105469 544.449219 L 354.386719 547.730469 L 353.484375 548.828125 L 350.765625 552.109375 L 349.863281 553.203125 L 347.144531 556.484375 L 346.242188 557.582031 L 343.523438 560.863281 L 342.621094 561.957031 L 339.902344 565.238281 L 339 566.332031 L 338.09375 567.429688 L 336.28125 569.617188 L 335.378906 570.710938 L 331.753906 575.085938 L 330.851562 576.183594 L 328.132812 579.464844 L 327.230469 580.558594 L 324.511719 583.839844 L 323.609375 584.933594 L 322.703125 586.03125 L 320.890625 588.21875 L 319.988281 589.3125 L 318.175781 591.5 "/>
<path fill="none" stroke-width="1.707165" stroke-linecap="butt" stroke-linejoin="round" stroke="rgb(82.745098%, 82.745098%, 82.745098%)" stroke-opacity="1" stroke-miterlimit="1" d="M 497.425781 483.175781 L 496.519531 484.269531 L 495.617188 485.363281 L 492.898438 488.644531 L 491.996094 489.738281 L 491.089844 490.832031 L 490.183594 491.929688 L 489.277344 493.023438 L 488.375 494.117188 L 485.65625 497.398438 L 484.753906 498.492188 L 482.941406 500.679688 L 482.035156 501.777344 L 481.128906 502.871094 L 480.226562 503.964844 L 477.507812 507.246094 L 476.605469 508.339844 L 475.699219 509.433594 L 474.792969 510.53125 L 473.886719 511.625 L 472.984375 512.71875 L 470.265625 516 L 469.363281 517.09375 L 467.550781 519.28125 L 466.644531 520.378906 L 465.742188 521.472656 L 463.023438 524.753906 L 462.121094 525.847656 L 460.308594 528.035156 L 459.402344 529.132812 L 458.5 530.226562 L 455.78125 533.507812 L 454.878906 534.601562 L 452.160156 537.882812 L 451.253906 538.980469 L 450.351562 540.074219 L 447.632812 543.355469 L 446.730469 544.449219 L 444.011719 547.730469 L 443.109375 548.828125 L 440.390625 552.109375 L 439.488281 553.203125 L 436.769531 556.484375 L 435.867188 557.582031 L 433.148438 560.863281 L 432.246094 561.957031 L 429.527344 565.238281 L 428.625 566.332031 L 427.71875 567.429688 L 425.90625 569.617188 L 425.003906 570.710938 L 421.378906 575.085938 L 420.476562 576.183594 L 417.757812 579.464844 L 416.855469 580.558594 L 414.136719 583.839844 L 413.234375 584.933594 L 412.328125 586.03125 L 410.515625 588.21875 L 409.613281 589.3125 L 407.800781 591.5 "/>
<path fill="none" stroke-width="1.707165" stroke-linecap="butt" stroke-linejoin="round" stroke="rgb(82.745098%, 82.745098%, 82.745098%)" stroke-opacity="1" stroke-miterlimit="1" d="M 587.050781 483.175781 L 586.144531 484.269531 L 585.242188 485.363281 L 582.523438 488.644531 L 581.621094 489.738281 L 580.714844 490.832031 L 579.808594 491.929688 L 578.902344 493.023438 L 578 494.117188 L 574.375 498.492188 L 573.472656 499.585938 L 572.566406 500.679688 L 571.660156 501.777344 L 570.753906 502.871094 L 569.851562 503.964844 L 567.132812 507.246094 L 566.230469 508.339844 L 565.324219 509.433594 L 564.417969 510.53125 L 563.511719 511.625 L 562.609375 512.71875 L 559.890625 516 L 558.988281 517.09375 L 557.175781 519.28125 L 556.269531 520.378906 L 555.367188 521.472656 L 552.648438 524.753906 L 551.746094 525.847656 L 549.933594 528.035156 L 549.027344 529.132812 L 548.125 530.226562 L 544.5 534.601562 L 543.597656 535.695312 L 541.785156 537.882812 L 540.878906 538.980469 L 539.976562 540.074219 L 537.257812 543.355469 L 536.355469 544.449219 L 533.636719 547.730469 L 532.734375 548.828125 L 530.015625 552.109375 L 529.113281 553.203125 L 526.394531 556.484375 L 525.492188 557.582031 L 522.773438 560.863281 L 521.871094 561.957031 L 519.152344 565.238281 L 518.25 566.332031 L 517.34375 567.429688 L 515.53125 569.617188 L 514.628906 570.710938 L 511.003906 575.085938 L 510.101562 576.183594 L 507.382812 579.464844 L 506.480469 580.558594 L 503.761719 583.839844 L 502.859375 584.933594 L 501.953125 586.03125 L 500.140625 588.21875 L 499.238281 589.3125 L 497.425781 591.5 "/>
<path fill="none" stroke-width="1.707165" stroke-linecap="butt" stroke-linejoin="round" stroke="rgb(82.745098%, 82.745098%, 82.745098%)" stroke-opacity="1" stroke-miterlimit="1" d="M 676.675781 483.175781 L 675.769531 484.269531 L 674.867188 485.363281 L 672.148438 488.644531 L 671.246094 489.738281 L 670.339844 490.832031 L 669.433594 491.929688 L 668.527344 493.023438 L 667.625 494.117188 L 664 498.492188 L 663.097656 499.585938 L 662.191406 500.679688 L 661.285156 501.777344 L 660.378906 502.871094 L 659.476562 503.964844 L 656.757812 507.246094 L 655.855469 508.339844 L 654.949219 509.433594 L 654.042969 510.53125 L 653.136719 511.625 L 652.234375 512.71875 L 649.515625 516 L 648.613281 517.09375 L 646.800781 519.28125 L 645.894531 520.378906 L 644.992188 521.472656 L 642.273438 524.753906 L 641.371094 525.847656 L 639.558594 528.035156 L 638.652344 529.132812 L 637.75 530.226562 L 634.125 534.601562 L 633.222656 535.695312 L 631.410156 537.882812 L 630.503906 538.980469 L 629.601562 540.074219 L 626.882812 543.355469 L 625.980469 544.449219 L 623.261719 547.730469 L 622.359375 548.828125 L 619.640625 552.109375 L 618.738281 553.203125 L 616.019531 556.484375 L 615.117188 557.582031 L 612.398438 560.863281 L 611.496094 561.957031 L 608.777344 565.238281 L 607.875 566.332031 L 606.96875 567.429688 L 604.25 570.710938 L 603.347656 571.804688 L 600.628906 575.085938 L 599.726562 576.183594 L 597.007812 579.464844 L 596.105469 580.558594 L 593.386719 583.839844 L 592.484375 584.933594 L 591.578125 586.03125 L 589.765625 588.21875 L 588.863281 589.3125 L 587.050781 591.5 "/>
<path fill="none" stroke-width="1.707165" stroke-linecap="butt" stroke-linejoin="round" stroke="rgb(82.745098%, 82.745098%, 82.745098%)" stroke-opacity="1" stroke-miterlimit="1" d="M 676.675781 483.175781 L 676.675781 591.5 "/>
<path fill="none" stroke-width="1.707165" stroke-linecap="butt" stroke-linejoin="round" stroke="rgb(82.745098%, 82.745098%, 82.745098%)" stroke-opacity="1" stroke-miterlimit="1" d="M 228.550781 591.5 L 226.742188 592.59375 L 224.929688 593.6875 L 223.121094 594.78125 L 221.308594 595.878906 L 219.5 596.972656 L 217.6875 598.066406 L 215.878906 599.160156 L 214.066406 600.253906 L 212.257812 601.347656 L 208.632812 603.535156 L 206.824219 604.632812 L 205.011719 605.726562 L 203.203125 606.820312 L 201.390625 607.914062 L 199.582031 609.007812 L 197.769531 610.101562 L 195.960938 611.195312 L 194.148438 612.289062 L 192.339844 613.382812 L 190.527344 614.480469 L 188.71875 615.574219 L 186.90625 616.667969 L 185.097656 617.761719 L 183.285156 618.855469 L 181.476562 619.949219 L 179.664062 621.042969 L 177.855469 622.136719 L 176.042969 623.234375 L 174.234375 624.328125 L 172.421875 625.421875 L 170.613281 626.515625 L 168.800781 627.609375 L 166.992188 628.703125 L 165.179688 629.796875 L 163.371094 630.890625 L 161.558594 631.984375 L 159.75 633.082031 L 157.9375 634.175781 L 156.128906 635.269531 L 154.316406 636.363281 L 152.507812 637.457031 L 148.882812 639.644531 L 147.074219 640.738281 L 145.261719 641.832031 L 143.453125 642.929688 L 141.640625 644.023438 L 139.832031 645.117188 L 138.019531 646.210938 L 136.210938 647.304688 L 134.398438 648.398438 L 132.589844 649.492188 L 130.777344 650.585938 L 128.96875 651.683594 L 127.15625 652.777344 L 125.347656 653.871094 L 123.535156 654.964844 L 121.726562 656.058594 L 119.914062 657.152344 L 118.105469 658.246094 L 116.292969 659.339844 L 114.484375 660.433594 L 112.671875 661.53125 L 110.863281 662.625 L 109.050781 663.71875 L 107.242188 664.8125 L 105.429688 665.90625 L 103.621094 667 L 101.808594 668.09375 L 100 669.1875 L 98.1875 670.285156 L 96.378906 671.378906 L 94.566406 672.472656 L 92.757812 673.566406 L 90.945312 674.660156 L 89.136719 675.753906 L 85.511719 677.941406 L 83.703125 679.035156 L 81.890625 680.132812 L 80.082031 681.226562 L 78.269531 682.320312 L 76.460938 683.414062 L 74.648438 684.507812 L 72.839844 685.601562 L 71.027344 686.695312 L 69.21875 687.789062 L 67.40625 688.886719 L 65.597656 689.980469 L 63.785156 691.074219 L 61.976562 692.167969 L 60.164062 693.261719 L 58.355469 694.355469 L 56.542969 695.449219 L 54.734375 696.542969 L 52.921875 697.636719 L 51.113281 698.734375 L 49.300781 699.828125 "/>
<path fill="none" stroke-width="1.707165" stroke-linecap="butt" stroke-linejoin="round" stroke="rgb(82.745098%, 82.745098%, 82.745098%)" stroke-opacity="1" stroke-miterlimit="1" d="M 228.550781 591.5 L 227.644531 592.59375 L 226.742188 593.6875 L 225.835938 594.78125 L 224.929688 595.878906 L 224.023438 596.972656 L 223.121094 598.066406 L 220.402344 601.347656 L 219.5 602.441406 L 218.59375 603.535156 L 217.6875 604.632812 L 216.78125 605.726562 L 215.878906 606.820312 L 213.160156 610.101562 L 212.257812 611.195312 L 210.445312 613.382812 L 209.539062 614.480469 L 208.632812 615.574219 L 207.730469 616.667969 L 205.011719 619.949219 L 204.109375 621.042969 L 203.203125 622.136719 L 202.296875 623.234375 L 201.390625 624.328125 L 200.488281 625.421875 L 197.769531 628.703125 L 196.867188 629.796875 L 195.054688 631.984375 L 194.148438 633.082031 L 193.246094 634.175781 L 190.527344 637.457031 L 189.625 638.550781 L 186.90625 641.832031 L 186.003906 642.929688 L 183.285156 646.210938 L 182.382812 647.304688 L 179.664062 650.585938 L 178.757812 651.683594 L 177.855469 652.777344 L 175.136719 656.058594 L 174.234375 657.152344 L 171.515625 660.433594 L 170.613281 661.53125 L 167.894531 664.8125 L 166.992188 665.90625 L 164.273438 669.1875 L 163.371094 670.285156 L 160.652344 673.566406 L 159.75 674.660156 L 157.03125 677.941406 L 156.128906 679.035156 L 155.222656 680.132812 L 153.410156 682.320312 L 152.507812 683.414062 L 148.882812 687.789062 L 147.980469 688.886719 L 145.261719 692.167969 L 144.359375 693.261719 L 141.640625 696.542969 L 140.738281 697.636719 L 139.832031 698.734375 L 138.925781 699.828125 "/>
<path fill="none" stroke-width="1.707165" stroke-linecap="butt" stroke-linejoin="round" stroke="rgb(82.745098%, 82.745098%, 82.745098%)" stroke-opacity="1" stroke-miterlimit="1" d="M 228.550781 591.5 L 228.550781 699.828125 "/>
<path fill="none" stroke-width="1.707165" stroke-linecap="butt" stroke-linejoin="round" stroke="rgb(82.745098%, 82.745098%, 82.745098%)" stroke-opacity="1" stroke-miterlimit="1" d="M 228.550781 591.5 L 230.363281 593.6875 L 231.265625 594.78125 L 232.171875 595.878906 L 233.984375 598.066406 L 234.886719 599.160156 L 237.605469 602.441406 L 238.507812 603.535156 L 239.414062 604.632812 L 242.132812 607.914062 L 243.035156 609.007812 L 245.753906 612.289062 L 246.65625 613.382812 L 247.5625 614.480469 L 249.375 616.667969 L 250.277344 617.761719 L 252.996094 621.042969 L 253.898438 622.136719 L 254.804688 623.234375 L 256.617188 625.421875 L 257.519531 626.515625 L 260.238281 629.796875 L 261.140625 630.890625 L 262.046875 631.984375 L 262.953125 633.082031 L 263.859375 634.175781 L 264.761719 635.269531 L 267.480469 638.550781 L 268.382812 639.644531 L 270.195312 641.832031 L 271.101562 642.929688 L 272.007812 644.023438 L 272.910156 645.117188 L 275.628906 648.398438 L 276.53125 649.492188 L 277.4375 650.585938 L 278.34375 651.683594 L 279.25 652.777344 L 280.152344 653.871094 L 282.871094 657.152344 L 283.773438 658.246094 L 285.585938 660.433594 L 286.492188 661.53125 L 287.394531 662.625 L 290.113281 665.90625 L 291.015625 667 L 292.828125 669.1875 L 293.734375 670.285156 L 294.636719 671.378906 L 297.355469 674.660156 L 298.257812 675.753906 L 300.976562 679.035156 L 301.882812 680.132812 L 302.785156 681.226562 L 305.503906 684.507812 L 306.40625 685.601562 L 308.21875 687.789062 L 309.125 688.886719 L 310.027344 689.980469 L 312.746094 693.261719 L 313.648438 694.355469 L 316.367188 697.636719 L 317.269531 698.734375 L 318.175781 699.828125 "/>
<path fill="none" stroke-width="1.707165" stroke-linecap="butt" stroke-linejoin="round" stroke="rgb(82.745098%, 82.745098%, 82.745098%)" stroke-opacity="1" stroke-miterlimit="1" d="M 407.800781 591.5 L 407.800781 699.828125 "/>
<path fill="none" stroke-width="1.707165" stroke-linecap="butt" stroke-linejoin="round" stroke="rgb(82.745098%, 82.745098%, 82.745098%)" stroke-opacity="1" stroke-miterlimit="1" d="M 407.800781 591.5 L 409.613281 593.6875 L 410.515625 594.78125 L 411.421875 595.878906 L 413.234375 598.066406 L 414.136719 599.160156 L 416.855469 602.441406 L 417.757812 603.535156 L 418.664062 604.632812 L 420.476562 606.820312 L 421.378906 607.914062 L 425.003906 612.289062 L 425.90625 613.382812 L 426.8125 614.480469 L 428.625 616.667969 L 429.527344 617.761719 L 432.246094 621.042969 L 433.148438 622.136719 L 434.054688 623.234375 L 435.867188 625.421875 L 436.769531 626.515625 L 439.488281 629.796875 L 440.390625 630.890625 L 441.296875 631.984375 L 442.203125 633.082031 L 443.109375 634.175781 L 444.011719 635.269531 L 446.730469 638.550781 L 447.632812 639.644531 L 449.445312 641.832031 L 450.351562 642.929688 L 451.253906 644.023438 L 454.878906 648.398438 L 455.78125 649.492188 L 456.6875 650.585938 L 457.59375 651.683594 L 458.5 652.777344 L 459.402344 653.871094 L 462.121094 657.152344 L 463.023438 658.246094 L 464.835938 660.433594 L 465.742188 661.53125 L 466.644531 662.625 L 469.363281 665.90625 L 470.265625 667 L 472.078125 669.1875 L 472.984375 670.285156 L 473.886719 671.378906 L 476.605469 674.660156 L 477.507812 675.753906 L 480.226562 679.035156 L 481.128906 680.132812 L 484.753906 684.507812 L 485.65625 685.601562 L 487.46875 687.789062 L 488.375 688.886719 L 489.277344 689.980469 L 491.996094 693.261719 L 492.898438 694.355469 L 495.617188 697.636719 L 496.519531 698.734375 L 497.425781 699.828125 "/>
<path fill="none" stroke-width="1.707165" stroke-linecap="butt" stroke-linejoin="round" stroke="rgb(82.745098%, 82.745098%, 82.745098%)" stroke-opacity="1" stroke-miterlimit="1" d="M 497.425781 591.5 L 499.238281 593.6875 L 500.140625 594.78125 L 501.046875 595.878906 L 502.859375 598.066406 L 503.761719 599.160156 L 506.480469 602.441406 L 507.382812 603.535156 L 508.289062 604.632812 L 510.101562 606.820312 L 511.003906 607.914062 L 514.628906 612.289062 L 515.53125 613.382812 L 516.4375 614.480469 L 518.25 616.667969 L 519.152344 617.761719 L 521.871094 621.042969 L 522.773438 622.136719 L 523.679688 623.234375 L 525.492188 625.421875 L 526.394531 626.515625 L 529.113281 629.796875 L 530.015625 630.890625 L 530.921875 631.984375 L 531.828125 633.082031 L 532.734375 634.175781 L 533.636719 635.269531 L 536.355469 638.550781 L 537.257812 639.644531 L 539.070312 641.832031 L 539.976562 642.929688 L 540.878906 644.023438 L 543.597656 647.304688 L 544.5 648.398438 L 546.3125 650.585938 L 547.21875 651.683594 L 548.125 652.777344 L 549.027344 653.871094 L 551.746094 657.152344 L 552.648438 658.246094 L 554.460938 660.433594 L 555.367188 661.53125 L 556.269531 662.625 L 558.988281 665.90625 L 559.890625 667 L 561.703125 669.1875 L 562.609375 670.285156 L 563.511719 671.378906 L 566.230469 674.660156 L 567.132812 675.753906 L 569.851562 679.035156 L 570.753906 680.132812 L 573.472656 683.414062 L 574.375 684.507812 L 577.09375 687.789062 L 578 688.886719 L 578.902344 689.980469 L 581.621094 693.261719 L 582.523438 694.355469 L 585.242188 697.636719 L 586.144531 698.734375 L 587.050781 699.828125 "/>
<path fill="none" stroke-width="1.707165" stroke-linecap="butt" stroke-linejoin="round" stroke="rgb(82.745098%, 82.745098%, 82.745098%)" stroke-opacity="1" stroke-miterlimit="1" d="M 587.050781 591.5 L 588.863281 593.6875 L 589.765625 594.78125 L 590.671875 595.878906 L 592.484375 598.066406 L 593.386719 599.160156 L 596.105469 602.441406 L 597.007812 603.535156 L 597.914062 604.632812 L 599.726562 606.820312 L 600.628906 607.914062 L 603.347656 611.195312 L 604.25 612.289062 L 605.15625 613.382812 L 606.0625 614.480469 L 607.875 616.667969 L 608.777344 617.761719 L 611.496094 621.042969 L 612.398438 622.136719 L 613.304688 623.234375 L 615.117188 625.421875 L 616.019531 626.515625 L 618.738281 629.796875 L 619.640625 630.890625 L 620.546875 631.984375 L 621.453125 633.082031 L 622.359375 634.175781 L 623.261719 635.269531 L 625.980469 638.550781 L 626.882812 639.644531 L 628.695312 641.832031 L 629.601562 642.929688 L 630.503906 644.023438 L 633.222656 647.304688 L 634.125 648.398438 L 635.9375 650.585938 L 636.84375 651.683594 L 637.75 652.777344 L 638.652344 653.871094 L 641.371094 657.152344 L 642.273438 658.246094 L 644.085938 660.433594 L 644.992188 661.53125 L 645.894531 662.625 L 648.613281 665.90625 L 649.515625 667 L 651.328125 669.1875 L 652.234375 670.285156 L 653.136719 671.378906 L 655.855469 674.660156 L 656.757812 675.753906 L 659.476562 679.035156 L 660.378906 680.132812 L 663.097656 683.414062 L 664 684.507812 L 666.71875 687.789062 L 667.625 688.886719 L 668.527344 689.980469 L 671.246094 693.261719 L 672.148438 694.355469 L 674.867188 697.636719 L 675.769531 698.734375 L 676.675781 699.828125 "/>
<path fill="none" stroke-width="1.707165" stroke-linecap="butt" stroke-linejoin="round" stroke="rgb(82.745098%, 82.745098%, 82.745098%)" stroke-opacity="1" stroke-miterlimit="1" d="M 49.300781 699.828125 L 49.300781 808.152344 "/>
<path fill="none" stroke-width="1.707165" stroke-linecap="butt" stroke-linejoin="round" stroke="rgb(82.745098%, 82.745098%, 82.745098%)" stroke-opacity="1" stroke-miterlimit="1" d="M 228.550781 699.828125 L 227.644531 700.921875 L 226.742188 702.015625 L 224.023438 705.296875 L 223.121094 706.390625 L 222.214844 707.484375 L 221.308594 708.582031 L 220.402344 709.675781 L 219.5 710.769531 L 216.78125 714.050781 L 215.878906 715.144531 L 214.972656 716.238281 L 214.066406 717.335938 L 213.160156 718.429688 L 212.257812 719.523438 L 208.632812 723.898438 L 207.730469 724.992188 L 206.824219 726.085938 L 205.917969 727.183594 L 205.011719 728.277344 L 204.109375 729.371094 L 201.390625 732.652344 L 200.488281 733.746094 L 199.582031 734.839844 L 198.675781 735.9375 L 197.769531 737.03125 L 196.867188 738.125 L 194.148438 741.40625 L 193.246094 742.5 L 191.433594 744.6875 L 190.527344 745.785156 L 189.625 746.878906 L 186.90625 750.160156 L 186.003906 751.253906 L 183.285156 754.535156 L 182.382812 755.632812 L 178.757812 760.007812 L 177.855469 761.101562 L 176.042969 763.289062 L 175.136719 764.386719 L 174.234375 765.480469 L 171.515625 768.761719 L 170.613281 769.855469 L 167.894531 773.136719 L 166.992188 774.234375 L 164.273438 777.515625 L 163.371094 778.609375 L 160.652344 781.890625 L 159.75 782.988281 L 157.03125 786.269531 L 156.128906 787.363281 L 153.410156 790.644531 L 152.507812 791.738281 L 151.601562 792.835938 L 148.882812 796.117188 L 147.980469 797.210938 L 145.261719 800.492188 L 144.359375 801.585938 L 143.453125 802.683594 L 141.640625 804.871094 L 140.738281 805.964844 L 138.925781 808.152344 "/>
<path fill="none" stroke-width="1.707165" stroke-linecap="butt" stroke-linejoin="round" stroke="rgb(82.745098%, 82.745098%, 82.745098%)" stroke-opacity="1" stroke-miterlimit="1" d="M 318.175781 699.828125 L 317.269531 700.921875 L 316.367188 702.015625 L 313.648438 705.296875 L 312.746094 706.390625 L 311.839844 707.484375 L 310.933594 708.582031 L 310.027344 709.675781 L 309.125 710.769531 L 306.40625 714.050781 L 305.503906 715.144531 L 304.597656 716.238281 L 303.691406 717.335938 L 302.785156 718.429688 L 301.882812 719.523438 L 298.257812 723.898438 L 297.355469 724.992188 L 296.449219 726.085938 L 295.542969 727.183594 L 294.636719 728.277344 L 293.734375 729.371094 L 291.015625 732.652344 L 290.113281 733.746094 L 289.207031 734.839844 L 288.300781 735.9375 L 287.394531 737.03125 L 286.492188 738.125 L 283.773438 741.40625 L 282.871094 742.5 L 281.058594 744.6875 L 280.152344 745.785156 L 279.25 746.878906 L 276.53125 750.160156 L 275.628906 751.253906 L 272.910156 754.535156 L 272.007812 755.632812 L 268.382812 760.007812 L 267.480469 761.101562 L 265.667969 763.289062 L 264.761719 764.386719 L 263.859375 765.480469 L 261.140625 768.761719 L 260.238281 769.855469 L 257.519531 773.136719 L 256.617188 774.234375 L 253.898438 777.515625 L 252.996094 778.609375 L 250.277344 781.890625 L 249.375 782.988281 L 246.65625 786.269531 L 245.753906 787.363281 L 243.035156 790.644531 L 242.132812 791.738281 L 241.226562 792.835938 L 238.507812 796.117188 L 237.605469 797.210938 L 234.886719 800.492188 L 233.984375 801.585938 L 233.078125 802.683594 L 231.265625 804.871094 L 230.363281 805.964844 L 228.550781 808.152344 "/>
<path fill="none" stroke-width="1.707165" stroke-linecap="butt" stroke-linejoin="round" stroke="rgb(82.745098%, 82.745098%, 82.745098%)" stroke-opacity="1" stroke-miterlimit="1" d="M 407.800781 699.828125 L 406.894531 700.921875 L 405.992188 702.015625 L 403.273438 705.296875 L 402.371094 706.390625 L 401.464844 707.484375 L 400.558594 708.582031 L 399.652344 709.675781 L 398.75 710.769531 L 396.03125 714.050781 L 395.128906 715.144531 L 394.222656 716.238281 L 393.316406 717.335938 L 391.503906 719.523438 L 390.601562 720.617188 L 387.882812 723.898438 L 386.980469 724.992188 L 386.074219 726.085938 L 385.167969 727.183594 L 384.261719 728.277344 L 383.359375 729.371094 L 380.640625 732.652344 L 379.738281 733.746094 L 378.832031 734.839844 L 377.925781 735.9375 L 377.019531 737.03125 L 376.117188 738.125 L 373.398438 741.40625 L 372.496094 742.5 L 370.683594 744.6875 L 369.777344 745.785156 L 368.875 746.878906 L 366.15625 750.160156 L 365.253906 751.253906 L 362.535156 754.535156 L 361.628906 755.632812 L 360.726562 756.726562 L 358.007812 760.007812 L 357.105469 761.101562 L 355.292969 763.289062 L 354.386719 764.386719 L 353.484375 765.480469 L 350.765625 768.761719 L 349.863281 769.855469 L 347.144531 773.136719 L 346.242188 774.234375 L 343.523438 777.515625 L 342.621094 778.609375 L 339.902344 781.890625 L 339 782.988281 L 336.28125 786.269531 L 335.378906 787.363281 L 331.753906 791.738281 L 330.851562 792.835938 L 328.132812 796.117188 L 327.230469 797.210938 L 324.511719 800.492188 L 323.609375 801.585938 L 322.703125 802.683594 L 320.890625 804.871094 L 319.988281 805.964844 L 318.175781 808.152344 "/>
<path fill="none" stroke-width="1.707165" stroke-linecap="butt" stroke-linejoin="round" stroke="rgb(82.745098%, 82.745098%, 82.745098%)" stroke-opacity="1" stroke-miterlimit="1" d="M 407.800781 699.828125 L 407.800781 808.152344 "/>
<path fill="none" stroke-width="1.707165" stroke-linecap="butt" stroke-linejoin="round" stroke="rgb(82.745098%, 82.745098%, 82.745098%)" stroke-opacity="1" stroke-miterlimit="1" d="M 497.425781 699.828125 L 497.425781 808.152344 "/>
<path fill="none" stroke-width="1.707165" stroke-linecap="butt" stroke-linejoin="round" stroke="rgb(82.745098%, 82.745098%, 82.745098%)" stroke-opacity="1" stroke-miterlimit="1" d="M 587.050781 699.828125 L 587.050781 808.152344 "/>
<path fill="none" stroke-width="1.707165" stroke-linecap="butt" stroke-linejoin="round" stroke="rgb(82.745098%, 82.745098%, 82.745098%)" stroke-opacity="1" stroke-miterlimit="1" d="M 676.675781 699.828125 L 676.675781 808.152344 "/>
<path fill-rule="nonzero" fill="rgb(100%, 100%, 100%)" fill-opacity="1" stroke-width="0.708661" stroke-linecap="round" stroke-linejoin="round" stroke="rgb(0%, 0%, 0%)" stroke-opacity="1" stroke-miterlimit="10" d="M 52.855469 49.871094 C 52.855469 54.609375 45.746094 54.609375 45.746094 49.871094 C 45.746094 45.128906 52.855469 45.128906 52.855469 49.871094 "/>
<path fill-rule="nonzero" fill="rgb(100%, 100%, 100%)" fill-opacity="1" stroke-width="0.708661" stroke-linecap="round" stroke-linejoin="round" stroke="rgb(0%, 0%, 0%)" stroke-opacity="1" stroke-miterlimit="10" d="M 142.480469 49.871094 C 142.480469 54.609375 135.371094 54.609375 135.371094 49.871094 C 135.371094 45.128906 142.480469 45.128906 142.480469 49.871094 "/>
<path fill-rule="nonzero" fill="rgb(100%, 100%, 100%)" fill-opacity="1" stroke-width="0.708661" stroke-linecap="round" stroke-linejoin="round" stroke="rgb(0%, 0%, 0%)" stroke-opacity="1" stroke-miterlimit="10" d="M 232.105469 49.871094 C 232.105469 54.609375 224.996094 54.609375 224.996094 49.871094 C 224.996094 45.128906 232.105469 45.128906 232.105469 49.871094 "/>
<path fill-rule="nonzero" fill="rgb(0%, 0%, 0%)" fill-opacity="1" stroke-width="0.708661" stroke-linecap="round" stroke-linejoin="round" stroke="rgb(0%, 0%, 0%)" stroke-opacity="1" stroke-miterlimit="10" d="M 321.730469 49.871094 C 321.730469 54.609375 314.621094 54.609375 314.621094 49.871094 C 314.621094 45.128906 321.730469 45.128906 321.730469 49.871094 "/>
<path fill-rule="nonzero" fill="rgb(100%, 100%, 100%)" fill-opacity="1" stroke-width="0.708661" stroke-linecap="round" stroke-linejoin="round" stroke="rgb(0%, 0%, 0%)" stroke-opacity="1" stroke-miterlimit="10" d="M 411.355469 49.871094 C 411.355469 54.609375 404.246094 54.609375 404.246094 49.871094 C 404.246094 45.128906 411.355469 45.128906 411.355469 49.871094 "/>
<path fill-rule="nonzero" fill="rgb(0%, 0%, 0%)" fill-opacity="1" stroke-width="0.708661" stroke-linecap="round" stroke-linejoin="round" stroke="rgb(0%, 0%, 0%)" stroke-opacity="1" stroke-miterlimit="10" d="M 500.980469 49.871094 C 500.980469 54.609375 493.871094 54.609375 493.871094 49.871094 C 493.871094 45.128906 500.980469 45.128906 500.980469 49.871094 "/>
<path fill-rule="nonzero" fill="rgb(100%, 100%, 100%)" fill-opacity="1" stroke-width="0.708661" stroke-linecap="round" stroke-linejoin="round" stroke="rgb(0%, 0%, 0%)" stroke-opacity="1" stroke-miterlimit="10" d="M 590.605469 49.871094 C 590.605469 54.609375 583.496094 54.609375 583.496094 49.871094 C 583.496094 45.128906 590.605469 45.128906 590.605469 49.871094 "/>
<path fill-rule="nonzero" fill="rgb(0%, 0%, 0%)" fill-opacity="1" stroke-width="0.708661" stroke-linecap="round" stroke-linejoin="round" stroke="rgb(0%, 0%, 0%)" stroke-opacity="1" stroke-miterlimit="10" d="M 680.230469 49.871094 C 680.230469 54.609375 673.121094 54.609375 673.121094 49.871094 C 673.121094 45.128906 680.230469 45.128906 680.230469 49.871094 "/>
<path fill-rule="nonzero" fill="rgb(100%, 100%, 100%)" fill-opacity="1" stroke-width="0.708661" stroke-linecap="round" stroke-linejoin="round" stroke="rgb(0%, 0%, 0%)" stroke-opacity="1" stroke-miterlimit="10" d="M 52.855469 158.195312 C 52.855469 162.9375 45.746094 162.9375 45.746094 158.195312 C 45.746094 153.457031 52.855469 153.457031 52.855469 158.195312 "/>
<path fill-rule="nonzero" fill="rgb(100%, 100%, 100%)" fill-opacity="1" stroke-width="0.708661" stroke-linecap="round" stroke-linejoin="round" stroke="rgb(0%, 0%, 0%)" stroke-opacity="1" stroke-miterlimit="10" d="M 142.480469 158.195312 C 142.480469 162.9375 135.371094 162.9375 135.371094 158.195312 C 135.371094 153.457031 142.480469 153.457031 142.480469 158.195312 "/>
<path fill-rule="nonzero" fill="rgb(100%, 100%, 100%)" fill-opacity="1" stroke-width="0.708661" stroke-linecap="round" stroke-linejoin="round" stroke="rgb(0%, 0%, 0%)" stroke-opacity="1" stroke-miterlimit="10" d="M 232.105469 158.195312 C 232.105469 162.9375 224.996094 162.9375 224.996094 158.195312 C 224.996094 153.457031 232.105469 153.457031 232.105469 158.195312 "/>
<path fill-rule="nonzero" fill="rgb(0%, 0%, 0%)" fill-opacity="1" stroke-width="0.708661" stroke-linecap="round" stroke-linejoin="round" stroke="rgb(0%, 0%, 0%)" stroke-opacity="1" stroke-miterlimit="10" d="M 321.730469 158.195312 C 321.730469 162.9375 314.621094 162.9375 314.621094 158.195312 C 314.621094 153.457031 321.730469 153.457031 321.730469 158.195312 "/>
<path fill-rule="nonzero" fill="rgb(0%, 0%, 0%)" fill-opacity="1" stroke-width="0.708661" stroke-linecap="round" stroke-linejoin="round" stroke="rgb(0%, 0%, 0%)" stroke-opacity="1" stroke-miterlimit="10" d="M 411.355469 158.195312 C 411.355469 162.9375 404.246094 162.9375 404.246094 158.195312 C 404.246094 153.457031 411.355469 153.457031 411.355469 158.195312 "/>
<path fill-rule="nonzero" fill="rgb(0%, 0%, 0%)" fill-opacity="1" stroke-width="0.708661" stroke-linecap="round" stroke-linejoin="round" stroke="rgb(0%, 0%, 0%)" stroke-opacity="1" stroke-miterlimit="10" d="M 500.980469 158.195312 C 500.980469 162.9375 493.871094 162.9375 493.871094 158.195312 C 493.871094 153.457031 500.980469 153.457031 500.980469 158.195312 "/>
<path fill-rule="nonzero" fill="rgb(100%, 100%, 100%)" fill-opacity="1" stroke-width="0.708661" stroke-linecap="round" stroke-linejoin="round" stroke="rgb(0%, 0%, 0%)" stroke-opacity="1" stroke-miterlimit="10" d="M 590.605469 158.195312 C 590.605469 162.9375 583.496094 162.9375 583.496094 158.195312 C 583.496094 153.457031 590.605469 153.457031 590.605469 158.195312 "/>
<path fill-rule="nonzero" fill="rgb(100%, 100%, 100%)" fill-opacity="1" stroke-width="0.708661" stroke-linecap="round" stroke-linejoin="round" stroke="rgb(0%, 0%, 0%)" stroke-opacity="1" stroke-miterlimit="10" d="M 680.230469 158.195312 C 680.230469 162.9375 673.121094 162.9375 673.121094 158.195312 C 673.121094 153.457031 680.230469 153.457031 680.230469 158.195312 "/>
<path fill-rule="nonzero" fill="rgb(100%, 100%, 100%)" fill-opacity="1" stroke-width="0.708661" stroke-linecap="round" stroke-linejoin="round" stroke="rgb(0%, 0%, 0%)" stroke-opacity="1" stroke-miterlimit="10" d="M 52.855469 266.523438 C 52.855469 271.261719 45.746094 271.261719 45.746094 266.523438 C 45.746094 261.78125 52.855469 261.78125 52.855469 266.523438 "/>
<path fill-rule="nonzero" fill="rgb(100%, 100%, 100%)" fill-opacity="1" stroke-width="0.708661" stroke-linecap="round" stroke-linejoin="round" stroke="rgb(0%, 0%, 0%)" stroke-opacity="1" stroke-miterlimit="10" d="M 142.480469 266.523438 C 142.480469 271.261719 135.371094 271.261719 135.371094 266.523438 C 135.371094 261.78125 142.480469 261.78125 142.480469 266.523438 "/>
<path fill-rule="nonzero" fill="rgb(100%, 100%, 100%)" fill-opacity="1" stroke-width="0.708661" stroke-linecap="round" stroke-linejoin="round" stroke="rgb(0%, 0%, 0%)" stroke-opacity="1" stroke-miterlimit="10" d="M 232.105469 266.523438 C 232.105469 271.261719 224.996094 271.261719 224.996094 266.523438 C 224.996094 261.78125 232.105469 261.78125 232.105469 266.523438 "/>
<path fill-rule="nonzero" fill="rgb(0%, 0%, 0%)" fill-opacity="1" stroke-width="0.708661" stroke-linecap="round" stroke-linejoin="round" stroke="rgb(0%, 0%, 0%)" stroke-opacity="1" stroke-miterlimit="10" d="M 321.730469 266.523438 C 321.730469 271.261719 314.621094 271.261719 314.621094 266.523438 C 314.621094 261.78125 321.730469 261.78125 321.730469 266.523438 "/>
<path fill-rule="nonzero" fill="rgb(0%, 0%, 0%)" fill-opacity="1" stroke-width="0.708661" stroke-linecap="round" stroke-linejoin="round" stroke="rgb(0%, 0%, 0%)" stroke-opacity="1" stroke-miterlimit="10" d="M 411.355469 266.523438 C 411.355469 271.261719 404.246094 271.261719 404.246094 266.523438 C 404.246094 261.78125 411.355469 261.78125 411.355469 266.523438 "/>
<path fill-rule="nonzero" fill="rgb(0%, 0%, 0%)" fill-opacity="1" stroke-width="0.708661" stroke-linecap="round" stroke-linejoin="round" stroke="rgb(0%, 0%, 0%)" stroke-opacity="1" stroke-miterlimit="10" d="M 500.980469 266.523438 C 500.980469 271.261719 493.871094 271.261719 493.871094 266.523438 C 493.871094 261.78125 500.980469 261.78125 500.980469 266.523438 "/>
<path fill-rule="nonzero" fill="rgb(0%, 0%, 0%)" fill-opacity="1" stroke-width="0.708661" stroke-linecap="round" stroke-linejoin="round" stroke="rgb(0%, 0%, 0%)" stroke-opacity="1" stroke-miterlimit="10" d="M 590.605469 266.523438 C 590.605469 271.261719 583.496094 271.261719 583.496094 266.523438 C 583.496094 261.78125 590.605469 261.78125 590.605469 266.523438 "/>
<path fill-rule="nonzero" fill="rgb(100%, 100%, 100%)" fill-opacity="1" stroke-width="0.708661" stroke-linecap="round" stroke-linejoin="round" stroke="rgb(0%, 0%, 0%)" stroke-opacity="1" stroke-miterlimit="10" d="M 680.230469 266.523438 C 680.230469 271.261719 673.121094 271.261719 673.121094 266.523438 C 673.121094 261.78125 680.230469 261.78125 680.230469 266.523438 "/>
<path fill-rule="nonzero" fill="rgb(100%, 100%, 100%)" fill-opacity="1" stroke-width="0.708661" stroke-linecap="round" stroke-linejoin="round" stroke="rgb(0%, 0%, 0%)" stroke-opacity="1" stroke-miterlimit="10" d="M 52.855469 374.847656 C 52.855469 379.589844 45.746094 379.589844 45.746094 374.847656 C 45.746094 370.109375 52.855469 370.109375 52.855469 374.847656 "/>
<path fill-rule="nonzero" fill="rgb(100%, 100%, 100%)" fill-opacity="1" stroke-width="0.708661" stroke-linecap="round" stroke-linejoin="round" stroke="rgb(0%, 0%, 0%)" stroke-opacity="1" stroke-miterlimit="10" d="M 142.480469 374.847656 C 142.480469 379.589844 135.371094 379.589844 135.371094 374.847656 C 135.371094 370.109375 142.480469 370.109375 142.480469 374.847656 "/>
<path fill-rule="nonzero" fill="rgb(0%, 0%, 0%)" fill-opacity="1" stroke-width="0.708661" stroke-linecap="round" stroke-linejoin="round" stroke="rgb(0%, 0%, 0%)" stroke-opacity="1" stroke-miterlimit="10" d="M 232.105469 374.847656 C 232.105469 379.589844 224.996094 379.589844 224.996094 374.847656 C 224.996094 370.109375 232.105469 370.109375 232.105469 374.847656 "/>
<path fill-rule="nonzero" fill="rgb(0%, 0%, 0%)" fill-opacity="1" stroke-width="0.708661" stroke-linecap="round" stroke-linejoin="round" stroke="rgb(0%, 0%, 0%)" stroke-opacity="1" stroke-miterlimit="10" d="M 321.730469 374.847656 C 321.730469 379.589844 314.621094 379.589844 314.621094 374.847656 C 314.621094 370.109375 321.730469 370.109375 321.730469 374.847656 "/>
<path fill-rule="nonzero" fill="rgb(0%, 0%, 0%)" fill-opacity="1" stroke-width="0.708661" stroke-linecap="round" stroke-linejoin="round" stroke="rgb(0%, 0%, 0%)" stroke-opacity="1" stroke-miterlimit="10" d="M 411.355469 374.847656 C 411.355469 379.589844 404.246094 379.589844 404.246094 374.847656 C 404.246094 370.109375 411.355469 370.109375 411.355469 374.847656 "/>
<path fill-rule="nonzero" fill="rgb(0%, 0%, 0%)" fill-opacity="1" stroke-width="0.708661" stroke-linecap="round" stroke-linejoin="round" stroke="rgb(0%, 0%, 0%)" stroke-opacity="1" stroke-miterlimit="10" d="M 500.980469 374.847656 C 500.980469 379.589844 493.871094 379.589844 493.871094 374.847656 C 493.871094 370.109375 500.980469 370.109375 500.980469 374.847656 "/>
<path fill-rule="nonzero" fill="rgb(100%, 100%, 100%)" fill-opacity="1" stroke-width="0.708661" stroke-linecap="round" stroke-linejoin="round" stroke="rgb(0%, 0%, 0%)" stroke-opacity="1" stroke-miterlimit="10" d="M 590.605469 374.847656 C 590.605469 379.589844 583.496094 379.589844 583.496094 374.847656 C 583.496094 370.109375 590.605469 370.109375 590.605469 374.847656 "/>
<path fill-rule="nonzero" fill="rgb(100%, 100%, 100%)" fill-opacity="1" stroke-width="0.708661" stroke-linecap="round" stroke-linejoin="round" stroke="rgb(0%, 0%, 0%)" stroke-opacity="1" stroke-miterlimit="10" d="M 680.230469 374.847656 C 680.230469 379.589844 673.121094 379.589844 673.121094 374.847656 C 673.121094 370.109375 680.230469 370.109375 680.230469 374.847656 "/>
<path fill-rule="nonzero" fill="rgb(100%, 100%, 100%)" fill-opacity="1" stroke-width="0.708661" stroke-linecap="round" stroke-linejoin="round" stroke="rgb(0%, 0%, 0%)" stroke-opacity="1" stroke-miterlimit="10" d="M 52.855469 483.175781 C 52.855469 487.914062 45.746094 487.914062 45.746094 483.175781 C 45.746094 478.433594 52.855469 478.433594 52.855469 483.175781 "/>
<path fill-rule="nonzero" fill="rgb(100%, 100%, 100%)" fill-opacity="1" stroke-width="0.708661" stroke-linecap="round" stroke-linejoin="round" stroke="rgb(0%, 0%, 0%)" stroke-opacity="1" stroke-miterlimit="10" d="M 142.480469 483.175781 C 142.480469 487.914062 135.371094 487.914062 135.371094 483.175781 C 135.371094 478.433594 142.480469 478.433594 142.480469 483.175781 "/>
<path fill-rule="nonzero" fill="rgb(100%, 100%, 100%)" fill-opacity="1" stroke-width="0.708661" stroke-linecap="round" stroke-linejoin="round" stroke="rgb(0%, 0%, 0%)" stroke-opacity="1" stroke-miterlimit="10" d="M 232.105469 483.175781 C 232.105469 487.914062 224.996094 487.914062 224.996094 483.175781 C 224.996094 478.433594 232.105469 478.433594 232.105469 483.175781 "/>
<path fill-rule="nonzero" fill="rgb(0%, 0%, 0%)" fill-opacity="1" stroke-width="0.708661" stroke-linecap="round" stroke-linejoin="round" stroke="rgb(0%, 0%, 0%)" stroke-opacity="1" stroke-miterlimit="10" d="M 321.730469 483.175781 C 321.730469 487.914062 314.621094 487.914062 314.621094 483.175781 C 314.621094 478.433594 321.730469 478.433594 321.730469 483.175781 "/>
<path fill-rule="nonzero" fill="rgb(0%, 0%, 0%)" fill-opacity="1" stroke-width="0.708661" stroke-linecap="round" stroke-linejoin="round" stroke="rgb(0%, 0%, 0%)" stroke-opacity="1" stroke-miterlimit="10" d="M 411.355469 483.175781 C 411.355469 487.914062 404.246094 487.914062 404.246094 483.175781 C 404.246094 478.433594 411.355469 478.433594 411.355469 483.175781 "/>
<path fill-rule="nonzero" fill="rgb(0%, 0%, 0%)" fill-opacity="1" stroke-width="0.708661" stroke-linecap="round" stroke-linejoin="round" stroke="rgb(0%, 0%, 0%)" stroke-opacity="1" stroke-miterlimit="10" d="M 500.980469 483.175781 C 500.980469 487.914062 493.871094 487.914062 493.871094 483.175781 C 493.871094 478.433594 500.980469 478.433594 500.980469 483.175781 "/>
<path fill-rule="nonzero" fill="rgb(100%, 100%, 100%)" fill-opacity="1" stroke-width="0.708661" stroke-linecap="round" stroke-linejoin="round" stroke="rgb(0%, 0%, 0%)" stroke-opacity="1" stroke-miterlimit="10" d="M 590.605469 483.175781 C 590.605469 487.914062 583.496094 487.914062 583.496094 483.175781 C 583.496094 478.433594 590.605469 478.433594 590.605469 483.175781 "/>
<path fill-rule="nonzero" fill="rgb(100%, 100%, 100%)" fill-opacity="1" stroke-width="0.708661" stroke-linecap="round" stroke-linejoin="round" stroke="rgb(0%, 0%, 0%)" stroke-opacity="1" stroke-miterlimit="10" d="M 680.230469 483.175781 C 680.230469 487.914062 673.121094 487.914062 673.121094 483.175781 C 673.121094 478.433594 680.230469 478.433594 680.230469 483.175781 "/>
<path fill-rule="nonzero" fill="rgb(100%, 100%, 100%)" fill-opacity="1" stroke-width="0.708661" stroke-linecap="round" stroke-linejoin="round" stroke="rgb(0%, 0%, 0%)" stroke-opacity="1" stroke-miterlimit="10" d="M 52.855469 591.5 C 52.855469 596.242188 45.746094 596.242188 45.746094 591.5 C 45.746094 586.761719 52.855469 586.761719 52.855469 591.5 "/>
<path fill-rule="nonzero" fill="rgb(0%, 0%, 0%)" fill-opacity="1" stroke-width="0.708661" stroke-linecap="round" stroke-linejoin="round" stroke="rgb(0%, 0%, 0%)" stroke-opacity="1" stroke-miterlimit="10" d="M 142.480469 591.5 C 142.480469 596.242188 135.371094 596.242188 135.371094 591.5 C 135.371094 586.761719 142.480469 586.761719 142.480469 591.5 "/>
<path fill-rule="nonzero" fill="rgb(0%, 0%, 0%)" fill-opacity="1" stroke-width="0.708661" stroke-linecap="round" stroke-linejoin="round" stroke="rgb(0%, 0%, 0%)" stroke-opacity="1" stroke-miterlimit="10" d="M 232.105469 591.5 C 232.105469 596.242188 224.996094 596.242188 224.996094 591.5 C 224.996094 586.761719 232.105469 586.761719 232.105469 591.5 "/>
<path fill-rule="nonzero" fill="rgb(0%, 0%, 0%)" fill-opacity="1" stroke-width="0.708661" stroke-linecap="round" stroke-linejoin="round" stroke="rgb(0%, 0%, 0%)" stroke-opacity="1" stroke-miterlimit="10" d="M 321.730469 591.5 C 321.730469 596.242188 314.621094 596.242188 314.621094 591.5 C 314.621094 586.761719 321.730469 586.761719 321.730469 591.5 "/>
<path fill-rule="nonzero" fill="rgb(0%, 0%, 0%)" fill-opacity="1" stroke-width="0.708661" stroke-linecap="round" stroke-linejoin="round" stroke="rgb(0%, 0%, 0%)" stroke-opacity="1" stroke-miterlimit="10" d="M 411.355469 591.5 C 411.355469 596.242188 404.246094 596.242188 404.246094 591.5 C 404.246094 586.761719 411.355469 586.761719 411.355469 591.5 "/>
<path fill-rule="nonzero" fill="rgb(100%, 100%, 100%)" fill-opacity="1" stroke-width="0.708661" stroke-linecap="round" stroke-linejoin="round" stroke="rgb(0%, 0%, 0%)" stroke-opacity="1" stroke-miterlimit="10" d="M 500.980469 591.5 C 500.980469 596.242188 493.871094 596.242188 493.871094 591.5 C 493.871094 586.761719 500.980469 586.761719 500.980469 591.5 "/>
<path fill-rule="nonzero" fill="rgb(100%, 100%, 100%)" fill-opacity="1" stroke-width="0.708661" stroke-linecap="round" stroke-linejoin="round" stroke="rgb(0%, 0%, 0%)" stroke-opacity="1" stroke-miterlimit="10" d="M 590.605469 591.5 C 590.605469 596.242188 583.496094 596.242188 583.496094 591.5 C 583.496094 586.761719 590.605469 586.761719 590.605469 591.5 "/>
<path fill-rule="nonzero" fill="rgb(100%, 100%, 100%)" fill-opacity="1" stroke-width="0.708661" stroke-linecap="round" stroke-linejoin="round" stroke="rgb(0%, 0%, 0%)" stroke-opacity="1" stroke-miterlimit="10" d="M 680.230469 591.5 C 680.230469 596.242188 673.121094 596.242188 673.121094 591.5 C 673.121094 586.761719 680.230469 586.761719 680.230469 591.5 "/>
<path fill-rule="nonzero" fill="rgb(0%, 0%, 0%)" fill-opacity="1" stroke-width="0.708661" stroke-linecap="round" stroke-linejoin="round" stroke="rgb(0%, 0%, 0%)" stroke-opacity="1" stroke-miterlimit="10" d="M 52.855469 699.828125 C 52.855469 704.566406 45.746094 704.566406 45.746094 699.828125 C 45.746094 695.085938 52.855469 695.085938 52.855469 699.828125 "/>
<path fill-rule="nonzero" fill="rgb(0%, 0%, 0%)" fill-opacity="1" stroke-width="0.708661" stroke-linecap="round" stroke-linejoin="round" stroke="rgb(0%, 0%, 0%)" stroke-opacity="1" stroke-miterlimit="10" d="M 142.480469 699.828125 C 142.480469 704.566406 135.371094 704.566406 135.371094 699.828125 C 135.371094 695.085938 142.480469 695.085938 142.480469 699.828125 "/>
<path fill-rule="nonzero" fill="rgb(0%, 0%, 0%)" fill-opacity="1" stroke-width="0.708661" stroke-linecap="round" stroke-linejoin="round" stroke="rgb(0%, 0%, 0%)" stroke-opacity="1" stroke-miterlimit="10" d="M 232.105469 699.828125 C 232.105469 704.566406 224.996094 704.566406 224.996094 699.828125 C 224.996094 695.085938 232.105469 695.085938 232.105469 699.828125 "/>
<path fill-rule="nonzero" fill="rgb(0%, 0%, 0%)" fill-opacity="1" stroke-width="0.708661" stroke-linecap="round" stroke-linejoin="round" stroke="rgb(0%, 0%, 0%)" stroke-opacity="1" stroke-miterlimit="10" d="M 321.730469 699.828125 C 321.730469 704.566406 314.621094 704.566406 314.621094 699.828125 C 314.621094 695.085938 321.730469 695.085938 321.730469 699.828125 "/>
<path fill-rule="nonzero" fill="rgb(0%, 0%, 0%)" fill-opacity="1" stroke-width="0.708661" stroke-linecap="round" stroke-linejoin="round" stroke="rgb(0%, 0%, 0%)" stroke-opacity="1" stroke-miterlimit="10" d="M 411.355469 699.828125 C 411.355469 704.566406 404.246094 704.566406 404.246094 699.828125 C 404.246094 695.085938 411.355469 695.085938 411.355469 699.828125 "/>
<path fill-rule="nonzero" fill="rgb(0%, 0%, 0%)" fill-opacity="1" stroke-width="0.708661" stroke-linecap="round" stroke-linejoin="round" stroke="rgb(0%, 0%, 0%)" stroke-opacity="1" stroke-miterlimit="10" d="M 500.980469 699.828125 C 500.980469 704.566406 493.871094 704.566406 493.871094 699.828125 C 493.871094 695.085938 500.980469 695.085938 500.980469 699.828125 "/>
<path fill-rule="nonzero" fill="rgb(100%, 100%, 100%)" fill-opacity="1" stroke-width="0.708661" stroke-linecap="round" stroke-linejoin="round" stroke="rgb(0%, 0%, 0%)" stroke-opacity="1" stroke-miterlimit="10" d="M 590.605469 699.828125 C 590.605469 704.566406 583.496094 704.566406 583.496094 699.828125 C 583.496094 695.085938 590.605469 695.085938 590.605469 699.828125 "/>
<path fill-rule="nonzero" fill="rgb(100%, 100%, 100%)" fill-opacity="1" stroke-width="0.708661" stroke-linecap="round" stroke-linejoin="round" stroke="rgb(0%, 0%, 0%)" stroke-opacity="1" stroke-miterlimit="10" d="M 680.230469 699.828125 C 680.230469 704.566406 673.121094 704.566406 673.121094 699.828125 C 673.121094 695.085938 680.230469 695.085938 680.230469 699.828125 "/>
<path fill-rule="nonzero" fill="rgb(0%, 0%, 0%)" fill-opacity="1" stroke-width="0.708661" stroke-linecap="round" stroke-linejoin="round" stroke="rgb(0%, 0%, 0%)" stroke-opacity="1" stroke-miterlimit="10" d="M 52.855469 808.152344 C 52.855469 812.894531 45.746094 812.894531 45.746094 808.152344 C 45.746094 803.414062 52.855469 803.414062 52.855469 808.152344 "/>
<path fill-rule="nonzero" fill="rgb(0%, 0%, 0%)" fill-opacity="1" stroke-width="0.708661" stroke-linecap="round" stroke-linejoin="round" stroke="rgb(0%, 0%, 0%)" stroke-opacity="1" stroke-miterlimit="10" d="M 142.480469 808.152344 C 142.480469 812.894531 135.371094 812.894531 135.371094 808.152344 C 135.371094 803.414062 142.480469 803.414062 142.480469 808.152344 "/>
<path fill-rule="nonzero" fill="rgb(0%, 0%, 0%)" fill-opacity="1" stroke-width="0.708661" stroke-linecap="round" stroke-linejoin="round" stroke="rgb(0%, 0%, 0%)" stroke-opacity="1" stroke-miterlimit="10" d="M 232.105469 808.152344 C 232.105469 812.894531 224.996094 812.894531 224.996094 808.152344 C 224.996094 803.414062 232.105469 803.414062 232.105469 808.152344 "/>
<path fill-rule="nonzero" fill="rgb(0%, 0%, 0%)" fill-opacity="1" stroke-width="0.708661" stroke-linecap="round" stroke-linejoin="round" stroke="rgb(0%, 0%, 0%)" stroke-opacity="1" stroke-miterlimit="10" d="M 321.730469 808.152344 C 321.730469 812.894531 314.621094 812.894531 314.621094 808.152344 C 314.621094 803.414062 321.730469 803.414062 321.730469 808.152344 "/>
<path fill-rule="nonzero" fill="rgb(0%, 0%, 0%)" fill-opacity="1" stroke-width="0.708661" stroke-linecap="round" stroke-linejoin="round" stroke="rgb(0%, 0%, 0%)" stroke-opacity="1" stroke-miterlimit="10" d="M 411.355469 808.152344 C 411.355469 812.894531 404.246094 812.894531 404.246094 808.152344 C 404.246094 803.414062 411.355469 803.414062 411.355469 808.152344 "/>
<path fill-rule="nonzero" fill="rgb(0%, 0%, 0%)" fill-opacity="1" stroke-width="0.708661" stroke-linecap="round" stroke-linejoin="round" stroke="rgb(0%, 0%, 0%)" stroke-opacity="1" stroke-miterlimit="10" d="M 500.980469 808.152344 C 500.980469 812.894531 493.871094 812.894531 493.871094 808.152344 C 493.871094 803.414062 500.980469 803.414062 500.980469 808.152344 "/>
<path fill-rule="nonzero" fill="rgb(100%, 100%, 100%)" fill-opacity="1" stroke-width="0.708661" stroke-linecap="round" stroke-linejoin="round" stroke="rgb(0%, 0%, 0%)" stroke-opacity="1" stroke-miterlimit="10" d="M 590.605469 808.152344 C 590.605469 812.894531 583.496094 812.894531 583.496094 808.152344 C 583.496094 803.414062 590.605469 803.414062 590.605469 808.152344 "/>
<path fill-rule="nonzero" fill="rgb(100%, 100%, 100%)" fill-opacity="1" stroke-width="0.708661" stroke-linecap="round" stroke-linejoin="round" stroke="rgb(0%, 0%, 0%)" stroke-opacity="1" stroke-miterlimit="10" d="M 680.230469 808.152344 C 680.230469 812.894531 673.121094 812.894531 673.121094 808.152344 C 673.121094 803.414062 680.230469 803.414062 680.230469 808.152344 "/>
<g clip-path="url(#clip-1)">
<path fill="none" stroke-width="2.327953" stroke-linecap="round" stroke-linejoin="round" stroke="rgb(20%, 20%, 20%)" stroke-opacity="1" stroke-miterlimit="10" d="M 17.933594 846.066406 L 708.046875 846.066406 L 708.046875 11.953125 L 17.933594 11.953125 Z M 17.933594 846.066406 "/>
</g>
</svg>
